P2
# CREATOR: Diamond Light Source Beamline I02
120 121
255
0
0
1
1
1
2
5
3
1
1
3
0
0
0
1
0
0
0
1
0
0
0
0
0
0
0
0
0
0
0
0
0
0
0
0
0
0
0
0
0
0
0
0
0
0
0
0
0
0
0
0
0
0
0
0
0
0
0
0
0
0
0
0
0
0
0
0
0
0
0
0
0
0
0
0
0
0
0
0
0
0
0
0
0
0
0
0
0
0
0
0
0
0
2
0
0
3
0
0
2
4
0
0
0
1
0
0
1
2
0
0
1
1
1
1
1
0
1
0
0
0
0
2
2
1
1
3
1
0
0
4
0
0
1
4
2
0
0
2
3
0
0
2
1
0
0
2
0
0
0
0
0
0
0
0
0
0
0
0
0
0
0
0
0
0
0
0
0
0
0
0
0
0
0
0
0
0
0
0
0
0
0
0
0
0
0
0
0
0
0
0
0
0
0
0
0
0
0
0
0
0
0
0
0
0
0
0
0
0
0
0
0
1
1
0
0
2
0
0
2
4
0
0
2
2
2
1
3
2
0
0
0
0
0
0
0
0
1
0
0
0
0
2
2
0
0
2
1
0
0
6
0
0
1
4
0
0
0
0
2
0
0
1
0
0
0
1
0
0
0
0
0
0
0
0
0
0
0
0
0
0
0
0
0
0
0
0
0
0
0
0
0
0
0
0
0
0
0
0
0
0
0
0
0
0
0
0
0
0
0
0
0
0
0
0
0
0
0
0
0
0
0
0
0
0
0
0
0
0
0
0
0
0
0
0
0
2
0
0
1
3
0
1
2
1
1
0
0
0
0
0
0
0
1
2
1
2
2
2
1
0
0
2
1
0
1
2
0
0
0
3
0
0
0
1
0
0
0
0
0
0
0
1
0
0
0
1
0
0
0
0
0
0
0
0
0
0
0
0
0
0
0
0
0
0
0
0
0
0
0
0
0
0
0
0
0
0
0
0
0
0
0
0
0
0
0
0
0
0
0
0
0
0
0
0
0
0
0
0
0
0
0
0
0
0
0
0
0
0
0
0
0
0
1
0
0
3
2
0
0
3
0
0
0
0
0
0
0
0
0
0
0
0
0
0
0
0
0
1
2
0
0
2
1
0
2
4
0
0
0
3
0
0
2
3
0
0
0
0
0
0
0
1
0
0
0
0
0
0
0
0
0
0
0
0
0
0
0
0
0
0
0
0
0
0
0
0
0
0
0
0
0
0
0
0
0
0
0
0
0
0
0
0
0
0
0
0
0
0
0
0
0
0
0
0
0
0
0
0
0
0
0
0
0
0
0
0
0
0
0
0
0
0
0
0
0
0
1
0
0
2
0
0
0
0
0
0
1
0
3
2
0
0
0
1
0
2
3
3
3
0
0
2
0
0
0
0
0
0
0
3
0
0
1
1
0
1
0
1
1
0
1
3
1
0
1
0
0
0
1
1
0
0
0
0
0
0
0
0
0
0
0
0
0
0
0
0
0
0
0
0
0
0
0
0
0
0
0
0
0
0
0
0
0
0
0
0
0
0
0
0
0
0
0
0
0
0
0
0
0
0
0
0
0
0
0
0
0
0
0
0
0
0
1
0
0
0
0
0
0
1
0
0
1
0
0
0
0
0
1
0
0
0
0
1
0
0
0
0
0
0
0
1
0
0
0
1
0
1
1
3
0
0
0
0
0
0
0
1
0
0
0
0
0
0
1
0
0
0
0
0
0
0
0
0
0
0
0
0
0
0
0
0
0
0
0
0
0
0
0
0
0
0
0
0
0
0
0
0
0
0
0
0
0
0
0
0
0
0
0
0
0
0
0
0
0
0
0
0
0
0
0
0
0
0
0
0
0
0
0
0
0
0
0
0
0
0
0
0
0
3
0
0
0
0
0
0
0
0
0
0
0
1
1
1
0
0
0
0
0
2
1
3
1
2
2
3
0
3
2
3
1
1
0
0
0
0
0
1
0
0
1
1
0
0
0
0
0
0
0
0
0
0
0
0
0
0
0
0
0
0
0
0
0
0
0
0
0
0
0
0
0
0
0
0
0
0
0
0
0
0
0
0
0
0
0
0
0
0
0
0
0
0
0
0
0
0
0
0
0
0
0
0
0
0
0
0
0
0
0
0
0
0
0
0
0
2
2
0
0
2
0
0
1
0
0
0
0
0
1
1
0
2
2
1
0
0
0
0
0
1
0
0
0
0
0
0
0
0
0
3
0
1
1
1
0
0
1
2
0
0
0
0
0
0
2
0
0
0
0
0
0
0
0
0
0
0
1
0
0
0
0
0
0
0
0
0
0
0
0
0
0
0
0
0
0
0
0
0
0
0
0
0
0
0
0
0
0
0
0
0
0
0
0
0
0
0
0
0
0
0
0
0
0
0
0
0
0
0
0
0
0
0
0
0
0
0
0
0
0
0
0
0
1
0
0
0
0
0
2
1
1
2
1
0
0
4
4
3
2
1
2
3
2
2
2
2
0
4
2
3
1
1
0
0
0
0
0
1
0
0
3
2
0
1
2
0
0
0
0
0
0
0
0
0
0
0
0
0
0
0
0
0
0
0
0
0
0
0
0
0
0
0
0
0
0
0
0
0
0
0
0
0
0
0
0
0
0
0
0
0
0
0
0
0
0
0
0
0
0
0
0
0
0
0
0
0
0
0
0
0
0
0
0
0
0
0
0
0
0
0
0
0
2
2
2
1
0
0
0
0
0
0
0
0
0
0
0
0
0
0
0
0
0
0
1
1
0
3
1
2
1
1
0
0
0
0
0
0
0
0
1
0
0
0
1
0
0
0
2
1
0
0
2
0
0
0
0
0
0
0
0
0
0
0
0
0
0
0
0
0
0
0
0
0
0
0
0
0
0
0
0
0
0
0
0
0
0
0
0
0
0
0
0
0
0
0
0
0
0
0
0
0
0
0
0
0
0
0
0
0
0
0
0
0
0
0
0
0
3
0
0
0
0
0
0
2
2
2
3
2
0
1
0
0
0
0
0
2
0
0
0
0
2
1
2
2
1
3
1
2
1
0
0
0
0
0
2
1
0
0
0
0
0
0
2
0
0
0
1
0
0
0
0
0
0
0
0
0
0
0
0
0
0
0
0
0
0
0
0
0
0
0
0
0
0
0
0
0
0
0
0
0
0
0
0
0
0
0
0
0
0
0
0
0
0
0
0
0
0
0
0
0
0
0
0
0
0
0
0
0
0
0
0
0
1
0
0
0
0
0
0
0
0
0
0
0
0
0
0
0
0
0
0
1
0
1
2
5
2
0
0
0
0
0
0
0
0
0
0
0
0
0
0
0
0
0
2
1
0
0
0
0
0
0
2
0
0
0
0
0
0
0
0
0
0
0
0
0
0
0
0
0
0
0
0
0
0
0
0
0
0
0
0
0
0
0
0
0
0
0
0
0
0
0
0
0
0
0
0
0
0
0
0
0
0
0
0
0
0
0
0
0
0
0
0
0
0
0
0
0
0
0
0
0
1
1
0
1
2
0
0
0
0
0
0
0
0
0
3
3
1
2
2
2
0
0
3
5
4
0
2
2
5
2
4
3
1
2
1
0
1
0
0
0
0
0
2
0
0
0
0
2
0
0
0
0
0
0
0
0
0
0
0
0
0
0
0
0
0
0
0
0
0
0
0
0
0
0
0
0
0
0
0
0
0
0
0
0
0
0
0
0
0
0
0
0
0
0
0
0
0
0
0
0
0
0
0
0
0
0
0
0
0
0
0
0
0
0
0
0
0
0
0
0
0
0
0
0
1
0
1
2
1
0
4
5
3
3
2
2
0
0
0
1
1
0
1
2
0
0
0
0
0
0
1
0
0
1
0
1
1
1
1
2
1
0
3
1
0
0
0
0
0
0
0
1
0
0
0
0
1
0
0
0
0
0
0
0
0
0
0
0
0
0
0
0
0
0
0
0
0
0
0
0
0
0
0
0
0
0
0
0
0
0
0
0
0
0
0
0
0
0
0
0
0
0
0
0
0
0
0
0
0
0
0
0
0
0
0
0
0
0
1
0
0
0
0
0
0
0
0
0
0
0
0
0
0
0
2
2
0
0
0
0
0
0
1
1
0
0
0
0
3
0
1
0
0
0
0
1
0
0
0
0
0
0
2
2
2
1
2
1
0
0
0
0
0
0
0
0
0
0
0
0
0
0
0
0
0
0
0
0
0
0
0
0
0
0
0
0
0
0
0
0
0
0
0
0
0
0
0
0
0
0
0
0
0
0
0
0
0
0
0
0
0
0
0
0
0
0
0
0
0
0
0
0
0
0
0
0
0
0
0
0
0
0
0
0
0
0
1
0
0
0
0
0
0
0
0
0
0
0
1
0
0
0
3
2
2
0
0
0
2
0
1
0
0
1
0
1
0
0
1
2
0
0
0
0
0
0
2
3
0
0
0
0
0
0
0
0
0
0
0
0
0
0
0
0
0
0
0
0
0
0
0
0
0
0
0
0
0
0
0
0
0
0
0
0
0
0
0
0
0
0
0
0
0
0
0
0
0
0
0
0
0
0
0
0
0
0
0
0
0
0
0
0
0
0
0
0
0
0
2
0
0
0
1
0
0
0
0
0
0
0
0
0
0
0
1
2
1
0
2
1
1
0
3
2
2
0
0
0
2
0
2
1
0
1
1
1
0
1
1
1
1
0
0
0
0
0
0
0
0
0
0
0
0
0
0
0
0
0
0
0
0
0
0
0
0
0
0
0
0
0
0
0
0
0
0
0
0
0
0
0
0
0
0
0
0
0
0
0
0
0
0
0
0
0
0
0
0
0
0
0
0
0
0
0
0
0
0
0
0
0
0
0
0
0
0
0
0
0
0
0
0
0
0
0
0
0
2
1
0
0
1
2
0
0
1
0
0
0
2
0
1
0
2
2
3
0
0
0
1
0
0
1
0
0
0
1
0
2
0
0
1
1
0
0
2
1
2
0
0
0
0
0
0
0
0
0
0
0
0
0
0
0
0
0
0
0
0
0
0
0
0
0
0
0
0
0
0
0
0
0
0
0
0
0
0
0
0
0
0
0
0
0
0
0
0
0
0
0
0
0
0
0
0
0
0
0
0
0
0
0
0
0
0
0
0
0
0
0
0
0
0
0
0
0
0
0
1
2
0
0
1
1
0
0
1
0
0
0
2
0
0
0
0
1
1
0
1
1
3
0
0
1
0
0
0
2
0
2
0
0
1
2
0
0
1
0
0
0
0
0
0
0
1
1
2
0
0
0
0
0
0
0
0
0
0
0
0
0
0
0
0
0
0
0
0
0
0
0
0
0
0
0
0
0
0
0
0
0
0
0
0
0
0
0
0
0
0
0
0
0
0
0
0
0
0
0
0
0
0
0
0
0
0
0
0
0
0
0
0
0
0
0
0
0
0
0
0
0
0
0
0
0
0
0
0
0
0
0
1
0
0
0
1
0
2
0
1
1
0
0
0
2
2
2
1
2
0
2
0
1
2
2
0
1
1
0
0
0
0
1
0
0
0
0
0
0
0
0
0
0
0
0
0
0
0
0
0
0
0
0
0
0
0
0
0
0
0
0
0
0
0
0
0
0
0
0
0
0
0
0
0
0
0
0
0
0
0
0
0
0
0
0
0
0
0
0
0
0
0
0
0
0
0
0
0
0
2
1
0
0
1
0
0
0
0
0
0
0
0
0
0
0
0
0
0
0
2
1
3
0
4
2
3
1
3
0
2
1
0
0
0
0
0
0
0
0
0
1
0
0
3
0
0
0
0
0
0
0
0
0
0
0
0
0
0
0
0
0
0
0
0
0
0
0
0
0
0
0
0
0
0
0
0
0
0
0
0
0
0
0
0
0
0
0
0
0
0
0
0
0
0
0
0
0
0
0
0
0
0
0
0
0
0
0
0
0
0
0
0
0
0
0
0
0
0
0
0
0
0
0
1
0
0
0
1
0
0
2
1
2
1
0
0
1
0
0
0
0
1
0
2
1
0
0
0
1
2
3
2
1
1
2
3
0
1
0
0
0
0
1
3
0
1
1
1
1
0
0
1
1
0
1
1
1
0
0
0
0
0
0
0
2
0
0
0
0
0
0
0
0
0
0
0
0
0
0
0
0
0
0
0
0
0
0
0
0
0
0
0
0
0
0
0
0
0
0
0
0
0
0
0
0
0
0
0
0
0
0
0
0
0
0
1
0
0
0
2
0
0
0
0
0
0
0
2
1
0
0
1
3
1
1
0
4
0
2
2
1
0
0
0
0
0
0
0
0
0
1
1
1
3
3
5
2
4
3
2
0
0
0
0
0
1
0
0
1
0
0
0
0
0
0
0
1
0
0
0
0
0
0
0
0
0
0
0
0
0
0
0
0
0
0
0
0
0
0
0
0
0
0
0
0
0
0
0
0
0
0
0
0
0
0
0
0
0
0
0
0
0
0
0
0
0
0
0
0
0
0
0
0
0
0
0
0
0
0
0
0
0
0
1
0
0
0
0
0
0
0
0
0
0
0
0
1
0
1
0
0
0
0
0
1
0
0
0
0
0
0
0
0
0
0
1
0
1
2
0
0
0
0
0
0
2
0
1
2
1
0
1
0
0
0
0
0
0
0
0
0
0
0
0
0
0
0
0
0
0
0
0
0
0
0
0
0
0
0
0
0
0
0
0
0
0
0
0
0
0
0
0
0
0
0
0
0
0
0
0
0
0
0
0
0
0
0
0
0
0
0
0
0
0
0
0
0
0
0
2
0
0
0
1
0
0
0
1
0
0
0
0
2
0
1
0
2
0
2
1
0
1
0
1
3
4
1
2
3
2
3
3
0
0
0
1
0
1
2
0
0
2
1
0
1
3
0
2
1
0
0
2
0
0
0
0
0
0
0
0
0
0
0
0
0
0
0
0
0
0
0
0
0
0
0
0
0
0
0
0
0
0
0
0
0
0
0
0
0
0
0
0
0
0
0
0
0
0
0
0
0
0
0
0
0
0
0
0
0
0
0
0
0
0
0
0
0
0
0
1
0
0
0
0
0
0
0
0
0
0
0
0
1
0
0
0
0
0
2
2
1
1
0
0
0
0
0
0
0
1
2
2
0
2
1
2
0
1
3
1
0
3
1
0
1
1
0
1
0
0
0
1
0
0
0
0
0
0
0
0
0
0
0
0
0
0
0
0
0
0
0
0
0
0
0
0
0
0
0
0
0
0
0
0
0
0
0
0
0
0
0
0
0
0
0
0
0
0
0
0
0
0
0
0
0
0
0
0
0
0
0
0
0
0
0
0
0
0
0
0
0
0
0
2
1
0
0
1
2
1
1
1
2
2
2
1
2
1
1
2
0
1
1
0
0
0
0
0
1
1
1
0
0
0
1
3
0
3
4
1
0
1
0
0
0
1
0
2
1
0
0
3
0
0
0
0
0
0
0
0
0
0
0
0
0
0
0
0
0
0
0
0
0
0
0
0
0
0
0
0
0
0
0
0
0
0
0
0
0
0
0
0
0
0
0
0
0
0
0
0
0
0
0
0
0
0
0
0
0
0
0
0
0
0
0
0
0
0
0
0
0
0
0
1
0
0
0
0
0
0
0
0
0
0
0
0
1
0
0
0
0
0
1
0
0
0
0
0
0
0
0
0
0
0
0
2
0
1
3
2
0
3
1
0
1
2
0
2
0
0
0
1
0
0
0
1
0
0
0
0
0
0
0
0
0
0
0
0
0
0
0
0
0
0
0
0
0
0
0
0
0
0
0
0
0
0
0
0
0
0
0
0
0
0
0
0
0
0
0
0
0
0
0
0
0
0
0
0
0
0
0
0
0
0
0
2
0
0
0
3
1
0
2
2
0
0
0
0
0
0
0
0
0
0
1
0
0
1
0
0
0
1
2
0
0
1
1
0
0
2
3
2
0
3
1
2
0
1
2
3
0
2
1
1
2
4
1
3
3
0
0
2
0
0
0
0
0
0
0
0
0
0
0
0
0
0
0
0
0
0
0
0
0
0
0
0
0
0
0
0
0
0
0
0
0
0
0
0
0
0
0
0
0
0
0
0
0
0
0
0
0
0
0
0
0
0
0
0
0
0
0
0
0
0
0
0
0
0
0
1
0
0
0
1
0
0
0
0
0
0
1
0
0
1
0
0
0
1
0
0
1
2
0
0
1
0
2
1
0
0
1
0
0
0
0
0
0
0
0
0
0
0
0
0
0
0
0
0
0
0
0
0
0
0
0
0
0
0
1
1
0
3
1
0
0
0
0
0
0
0
0
0
0
0
0
0
0
0
0
0
0
0
0
0
0
0
0
0
0
0
0
0
0
0
0
0
0
0
0
0
0
0
0
0
0
0
0
0
0
0
0
0
0
0
0
0
0
0
0
0
0
0
1
3
0
0
2
1
0
0
1
1
0
1
0
1
0
2
0
0
1
1
0
0
1
0
1
0
0
0
1
0
1
1
0
1
2
1
2
1
0
0
0
0
0
2
0
1
1
1
0
0
0
0
1
0
0
0
1
0
0
1
0
0
0
0
0
0
0
0
0
0
0
0
0
0
0
0
0
0
0
0
0
0
0
0
0
0
0
0
0
0
0
0
0
0
0
0
0
0
0
0
0
0
0
0
0
0
0
0
0
0
0
0
0
0
0
0
1
0
0
0
1
1
0
0
2
1
0
0
1
1
0
0
0
0
0
1
0
0
1
2
0
0
1
0
1
0
0
0
0
0
0
0
0
0
2
1
3
3
1
3
1
0
0
0
0
1
2
3
0
0
0
0
0
0
0
0
0
0
0
0
0
0
0
0
0
0
0
0
0
0
0
0
0
0
0
0
0
0
0
0
0
0
0
0
0
0
0
0
0
0
0
0
0
0
0
0
0
0
0
0
0
0
0
0
0
0
0
0
0
0
0
0
0
0
0
0
2
0
0
0
1
0
0
0
0
0
0
0
0
0
0
0
0
0
0
1
0
0
2
1
0
0
3
2
2
2
0
0
0
0
0
0
0
0
1
0
0
0
0
1
2
0
0
2
0
0
0
3
0
0
0
1
0
0
0
0
0
0
0
0
0
0
0
0
0
0
0
0
0
0
0
0
0
0
0
0
0
0
0
0
0
0
0
0
0
0
0
0
0
0
0
0
0
0
0
0
0
0
0
0
0
0
0
0
0
0
0
0
1
0
0
0
1
0
0
0
1
0
0
0
1
0
0
0
0
0
0
0
1
2
1
0
0
0
1
1
0
1
3
2
0
0
1
1
0
2
0
0
1
0
2
2
0
0
0
0
0
0
0
0
0
0
0
0
0
0
0
1
0
0
0
2
1
0
0
1
1
0
0
1
0
0
0
0
0
1
0
0
0
1
0
0
0
0
0
0
0
0
0
0
0
0
0
0
0
0
0
0
0
0
0
0
0
0
0
0
0
0
0
0
0
0
0
0
0
0
0
0
1
0
0
0
0
0
0
0
0
0
0
0
4
3
3
0
2
4
2
0
1
1
0
0
0
1
1
1
0
0
3
1
0
0
0
0
0
0
0
0
0
0
2
2
1
0
2
1
1
0
0
0
1
0
0
1
0
0
0
1
0
0
0
1
0
0
0
0
0
0
0
0
0
0
0
0
0
0
0
0
0
0
0
0
0
0
0
0
0
0
0
0
0
0
0
0
0
0
0
0
0
0
0
0
0
0
0
0
0
0
0
0
0
0
0
0
0
0
0
0
1
0
0
0
1
0
1
0
0
0
0
0
2
1
1
0
2
4
1
0
1
2
0
0
0
0
1
0
0
0
4
1
0
2
4
2
2
4
0
0
0
0
2
2
1
0
3
1
1
0
0
0
0
0
0
0
0
0
0
1
0
1
0
0
0
0
0
0
0
0
0
0
0
0
0
0
0
0
0
0
0
0
0
0
0
0
0
0
0
0
0
0
0
0
0
0
0
0
0
0
0
0
0
0
0
0
0
0
0
0
0
0
0
0
0
0
0
0
0
0
0
0
0
0
0
0
2
0
1
3
0
0
0
0
0
0
0
0
0
0
0
0
0
0
0
0
0
0
0
0
3
0
0
0
2
1
2
4
0
0
0
0
3
1
0
0
0
0
0
0
0
0
0
0
0
0
0
0
0
0
0
0
0
0
1
1
0
0
0
0
0
0
0
0
0
0
0
0
0
0
0
0
0
0
0
0
0
0
0
0
0
0
0
0
0
0
0
0
0
0
0
0
0
0
0
0
0
0
0
0
0
0
0
0
0
0
0
0
0
0
0
0
0
0
0
0
1
0
0
3
0
0
1
1
0
0
0
1
0
0
0
1
0
2
1
1
1
0
0
0
3
0
0
0
2
1
3
4
2
3
3
3
3
0
0
0
0
0
0
0
0
0
0
0
0
0
0
3
0
0
0
2
0
0
3
2
0
0
0
0
0
0
0
0
0
0
0
1
0
0
0
0
0
0
0
0
0
0
0
1
0
0
0
0
0
2
0
0
0
0
0
0
0
0
0
0
0
0
0
0
0
0
0
0
0
0
0
0
0
0
0
0
0
0
0
0
2
0
0
1
0
0
3
4
2
1
3
5
0
0
0
0
0
0
0
0
0
0
0
0
2
0
0
0
2
0
2
2
0
1
0
0
1
0
0
3
4
1
1
1
0
0
0
0
0
0
0
2
0
0
0
2
0
0
1
2
1
0
2
0
0
0
0
0
0
0
0
0
0
0
0
0
0
0
0
0
0
1
0
0
0
0
0
0
0
1
0
0
0
0
0
0
0
0
0
0
0
0
0
0
0
0
0
0
0
0
1
1
0
0
2
0
0
0
1
0
1
0
0
0
0
0
1
2
0
0
1
5
0
1
2
1
0
0
0
1
1
1
2
3
3
1
2
1
3
0
2
1
0
0
0
1
1
1
0
2
2
0
0
1
0
0
0
0
0
0
0
1
1
0
0
2
1
0
0
0
0
0
0
0
0
0
0
0
0
0
0
0
0
0
0
0
0
0
0
0
0
0
0
0
0
0
0
0
0
0
0
0
0
0
0
0
0
0
0
0
0
0
0
0
0
0
0
0
0
0
0
0
0
0
2
0
0
0
0
0
0
0
0
1
0
0
0
0
0
0
0
3
0
1
1
1
0
1
0
0
0
0
0
0
0
0
0
0
1
0
1
0
1
2
1
1
0
0
0
0
0
0
0
2
2
2
0
0
0
0
0
0
0
0
0
0
1
0
0
1
2
0
0
0
1
0
0
0
0
0
0
0
0
0
0
0
0
0
0
0
0
0
0
0
0
0
0
0
0
0
0
0
0
0
0
0
0
0
1
0
0
1
2
0
0
0
0
0
0
0
1
0
0
0
3
0
3
0
2
1
2
0
1
2
1
0
0
4
0
0
0
1
0
0
0
1
0
0
1
2
0
1
2
0
0
0
0
0
1
0
0
0
1
2
0
1
0
1
0
1
0
0
1
2
2
1
1
1
1
3
1
2
1
1
0
0
2
0
0
0
1
0
2
0
1
0
0
0
0
0
0
1
0
1
0
2
1
3
0
2
1
1
0
2
0
1
0
1
0
1
0
2
0
0
0
0
0
0
2
0
1
2
2
1
2
1
2
3
2
0
3
1
0
0
2
0
0
0
0
0
0
0
1
2
2
0
2
5
1
1
1
4
0
0
1
2
0
0
0
0
0
0
0
1
0
0
0
0
2
0
1
2
0
1
0
1
0
3
1
2
2
0
0
0
0
0
1
0
0
0
0
0
0
1
0
1
3
0
0
1
2
0
0
0
2
0
0
3
2
1
0
3
0
2
0
2
1
2
0
1
1
0
0
4
3
2
2
3
0
2
1
2
1
1
1
3
1
2
4
1
1
2
3
2
2
1
2
3
2
2
4
3
3
3
5
4
2
0
1
0
0
0
0
0
0
0
1
2
0
2
0
3
0
0
1
3
0
1
0
0
0
0
2
1
1
0
0
0
1
0
0
0
0
0
0
0
0
0
0
0
0
1
2
0
0
1
0
0
0
0
0
0
0
0
0
0
3
0
0
3
2
0
0
2
2
1
2
3
2
1
0
3
0
0
0
1
0
1
0
0
0
0
0
3
3
2
4
5
1
2
1
1
0
1
1
4
1
3
4
1
0
0
0
0
0
0
0
1
0
0
2
0
0
0
2
1
1
0
3
2
3
0
2
0
0
0
1
2
0
2
1
3
0
0
1
2
0
0
0
0
0
0
0
0
0
0
0
0
1
0
0
0
0
1
2
2
0
0
0
0
0
1
1
0
2
3
3
2
0
0
0
0
0
2
0
0
1
0
0
2
2
0
1
3
3
1
1
0
0
0
0
2
1
0
0
2
0
1
0
1
0
0
1
3
3
1
3
3
2
4
6
5
3
4
4
5
2
4
5
4
3
4
3
4
3
1
1
1
1
0
0
0
0
0
0
0
1
0
0
0
1
0
1
2
0
1
2
0
0
0
0
0
0
0
0
0
0
0
2
3
2
0
2
0
3
2
0
0
0
0
0
0
0
0
1
0
0
0
0
0
0
2
1
0
0
2
1
0
0
0
0
2
2
4
2
1
0
0
0
3
4
0
2
5
3
1
3
3
4
3
3
6
6
5
5
8
8
8
7
7
7
7
6
7
7
4
6
5
6
8
10
9
7
7
7
8
5
8
10
11
10
9
7
9
8
7
9
8
8
7
6
5
6
4
2
2
4
3
2
0
1
1
2
2
1
5
5
1
1
3
1
1
2
0
0
0
0
0
0
0
0
0
0
0
1
0
0
0
2
0
0
1
0
0
0
0
0
0
0
0
0
2
1
0
0
3
1
0
1
1
1
2
1
1
2
1
1
2
3
5
5
1
1
4
2
2
3
6
6
5
6
8
10
7
8
9
10
9
9
9
10
10
10
10
12
10
13
12
12
13
14
11
11
13
12
14
11
14
13
13
10
9
8
9
9
5
7
7
8
8
10
9
10
9
5
4
7
5
3
3
4
3
5
3
1
4
3
0
0
2
2
3
3
2
3
1
1
0
2
1
1
0
0
0
0
0
0
0
2
0
1
1
0
0
1
1
0
1
2
0
0
1
0
0
0
3
0
0
0
0
0
0
0
0
1
0
0
2
2
4
4
4
4
7
5
7
6
6
6
7
6
8
10
6
7
9
10
12
13
11
12
15
14
13
15
16
17
15
17
17
19
16
15
16
16
16
13
17
14
15
12
12
11
13
13
10
11
11
10
9
9
7
8
9
6
5
10
8
4
4
6
4
4
5
2
4
4
1
1
4
4
2
2
2
0
0
0
0
0
0
0
0
0
0
2
0
0
0
0
0
2
2
0
0
0
0
0
1
1
0
0
1
0
0
0
4
2
0
0
1
0
0
0
3
3
1
2
4
3
4
2
5
4
7
6
9
7
6
7
7
7
9
12
10
12
13
15
17
19
16
17
21
20
20
23
23
22
19
20
21
25
23
25
25
24
24
21
24
22
23
20
22
20
21
19
16
16
15
14
13
13
12
12
14
10
6
10
8
5
5
7
7
6
5
3
4
1
0
0
2
2
0
0
0
0
0
1
1
1
1
1
0
0
0
0
0
0
0
0
0
0
0
0
0
0
0
0
0
0
0
0
3
2
0
0
3
0
0
0
3
3
0
1
3
4
2
2
6
6
8
6
10
8
9
8
13
13
14
14
16
18
18
22
21
23
22
25
25
27
25
26
27
27
26
32
32
34
33
34
33
36
34
35
36
36
36
32
34
32
32
31
32
32
33
31
29
30
28
24
23
21
19
18
20
17
12
13
13
11
9
11
11
10
7
8
8
7
5
4
4
5
0
0
1
1
0
0
0
0
0
0
0
0
0
0
0
0
0
1
1
3
1
0
0
0
0
0
3
0
0
0
0
0
0
0
3
2
0
3
5
4
0
2
3
4
4
4
7
7
8
6
13
12
14
14
19
19
20
21
24
26
26
29
31
34
34
37
39
41
42
44
46
46
47
49
52
55
54
56
54
56
54
53
53
54
54
51
53
52
50
47
47
46
43
42
40
38
37
34
32
31
30
27
30
28
23
23
23
20
17
16
16
15
12
11
9
8
5
4
6
8
3
4
5
3
1
1
1
0
0
0
0
0
0
0
0
1
0
0
0
1
0
1
0
0
0
0
0
0
0
0
0
0
0
0
1
0
0
0
1
1
0
2
5
5
4
5
10
11
13
12
19
19
21
18
25
28
27
28
34
36
36
41
42
46
46
48
51
54
55
57
62
63
66
69
71
74
73
75
75
76
74
75
74
76
75
72
72
73
67
65
65
62
59
58
59
56
53
48
46
43
40
36
38
35
29
28
30
25
21
20
20
17
14
13
14
12
9
8
9
10
4
4
5
3
0
2
2
0
0
0
0
0
0
0
0
1
0
0
0
0
0
0
0
0
0
0
0
0
0
0
0
0
0
0
2
1
0
2
4
2
2
3
4
7
7
8
13
14
16
15
22
23
26
24
31
35
34
34
41
44
44
50
55
60
61
65
69
72
74
76
80
83
85
87
89
93
91
94
95
97
97
98
98
99
98
92
91
94
86
84
85
82
77
75
75
71
67
60
60
57
53
49
48
46
38
35
37
33
28
26
28
24
20
18
18
13
9
9
8
10
5
5
5
5
3
3
4
2
0
0
0
0
0
0
0
0
0
0
0
0
0
0
0
0
0
0
0
0
0
0
0
0
0
0
0
0
0
1
3
5
4
8
10
10
9
11
16
18
19
19
26
29
33
33
41
48
48
49
58
62
61
67
73
78
80
84
90
91
96
99
104
107
111
115
119
126
125
127
128
130
128
130
129
131
130
124
119
123
115
111
112
111
105
103
102
96
91
83
80
76
71
64
63
62
54
49
50
47
39
34
36
32
26
25
26
22
17
16
12
11
6
7
7
5
2
3
4
0
0
0
0
0
0
0
0
0
0
0
0
0
0
0
0
0
0
0
0
0
0
0
0
0
0
0
2
0
0
2
3
5
4
10
12
13
12
15
17
21
24
25
33
39
43
41
49
58
58
60
72
78
78
83
91
96
98
105
113
116
120
126
133
138
143
146
150
158
156
157
160
164
160
162
160
162
159
155
150
155
144
140
140
137
129
124
123
115
111
103
102
94
89
80
80
78
69
62
63
59
52
46
46
41
34
29
30
27
21
20
17
14
9
10
9
6
4
3
2
0
0
0
0
0
0
0
0
0
0
0
0
0
0
0
0
0
0
0
0
0
0
0
0
0
0
0
0
0
0
0
2
4
4
10
13
15
14
19
23
28
31
32
40
47
50
49
58
69
70
72
87
95
93
100
111
116
120
128
137
139
143
148
155
162
166
173
179
187
186
186
188
194
191
191
190
193
192
187
180
185
171
165
165
162
154
149
147
139
133
122
121
112
104
95
96
92
79
70
71
66
58
52
50
46
39
33
33
31
25
23
19
18
13
12
10
7
6
6
5
2
2
0
0
0
0
0
0
0
0
0
0
0
0
0
0
0
0
0
0
0
0
0
0
0
0
0
0
0
1
4
6
6
4
8
11
13
14
21
25
31
34
36
45
54
58
58
66
77
78
80
97
104
102
110
124
128
134
144
155
158
165
171
178
186
189
196
203
211
210
211
212
219
218
218
214
220
217
209
200
205
191
184
186
185
177
170
167
158
151
140
139
127
119
108
108
103
93
82
83
80
68
60
56
52
43
38
36
34
28
26
20
19
16
12
8
6
5
2
1
0
0
0
0
0
0
0
0
0
0
0
0
0
0
0
0
0
0
0
0
0
0
0
0
0
0
0
0
0
0
3
7
10
7
13
16
17
18
24
27
33
37
39
48
56
61
62
72
85
88
89
106
114
113
122
139
143
149
160
169
173
180
186
195
205
210
217
224
233
232
233
235
242
237
239
235
241
239
232
221
226
211
205
206
203
194
188
184
174
167
155
153
140
131
118
119
113
101
89
91
87
74
66
62
59
49
43
39
37
30
27
22
20
18
14
9
7
7
7
4
1
1
0
0
0
0
0
0
0
0
0
0
0
0
0
0
0
0
0
0
0
0
0
0
0
0
0
1
0
1
2
5
7
8
12
16
18
23
23
27
34
39
39
50
60
66
67
76
90
94
93
110
119
118
128
145
149
155
167
177
183
192
198
206
214
219
226
233
243
244
245
246
255
251
252
246
254
249
242
234
240
225
221
221
216
206
199
192
182
172
161
158
147
138
128
127
120
108
98
96
91
78
72
65
64
54
47
41
40
32
28
23
22
21
15
8
7
7
4
1
0
0
0
0
0
0
0
0
0
0
0
0
0
0
0
0
0
0
0
0
0
0
0
0
0
0
0
0
0
0
0
4
6
6
8
13
14
20
21
27
33
38
39
49
58
63
64
73
87
91
90
106
114
113
122
139
142
149
160
168
173
184
188
195
203
208
215
222
232
234
234
235
241
238
238
234
243
240
232
224
231
214
209
208
204
195
188
183
175
165
155
152
140
130
119
118
111
100
91
89
84
73
67
60
58
49
42
39
38
33
29
23
22
21
14
9
9
10
9
6
6
4
2
0
0
0
0
0
0
0
0
0
0
0
0
0
0
0
0
0
0
0
0
0
0
0
0
0
1
4
2
6
6
7
8
12
13
20
18
23
29
35
35
44
53
58
58
65
77
80
79
93
100
101
110
123
126
134
144
151
157
167
170
178
186
191
198
205
212
214
214
214
221
218
220
214
223
219
209
201
206
191
187
188
184
177
172
167
161
151
143
139
129
120
111
109
101
91
81
79
75
65
59
55
52
43
38
34
33
30
26
20
19
18
13
6
6
5
2
0
0
0
0
0
0
0
0
0
0
0
0
0
0
0
0
0
0
0
0
0
0
0
0
0
0
0
0
0
0
1
0
5
8
10
9
13
14
21
18
21
26
32
33
39
48
53
53
61
73
76
77
89
95
97
105
117
121
127
136
142
146
154
156
163
170
177
186
191
197
200
197
199
206
202
204
200
205
200
196
190
193
179
177
176
169
164
160
153
149
140
134
129
119
111
103
102
94
88
77
77
70
61
56
53
51
43
38
33
32
25
20
16
16
15
14
8
9
10
7
1
3
2
0
0
0
0
0
0
0
0
0
0
0
0
0
0
0
0
0
0
0
0
0
0
0
0
2
0
1
2
0
0
2
7
5
9
12
19
16
18
23
28
27
31
40
43
44
50
61
63
64
74
80
81
88
98
99
106
113
118
123
132
135
141
145
151
155
159
163
168
165
166
173
172
173
169
176
170
166
162
163
153
152
152
148
143
137
130
125
114
110
106
99
92
88
87
81
75
67
68
62
54
49
46
43
36
33
29
28
23
19
16
16
14
12
7
8
9
4
0
3
3
0
0
0
0
0
0
0
0
0
0
0
0
0
0
0
0
0
0
0
0
0
0
0
0
0
0
0
1
0
0
4
6
4
5
6
13
12
14
20
23
24
25
32
34
36
41
50
52
53
60
63
66
70
78
80
84
89
93
96
103
105
110
114
118
121
125
128
133
131
133
137
136
136
132
137
136
133
129
130
121
118
117
113
110
107
103
99
91
88
85
77
72
68
67
61
56
49
51
47
40
36
33
31
25
24
23
22
18
15
11
12
10
7
2
5
7
4
1
4
5
1
0
0
0
0
0
0
0
0
0
0
0
0
0
0
0
0
0
0
0
0
0
0
0
0
0
0
1
2
0
3
7
4
6
8
13
11
12
16
21
23
23
32
33
35
39
45
45
47
54
57
60
65
72
77
80
85
89
92
96
98
103
107
112
114
118
120
124
124
125
127
126
126
122
126
126
123
119
117
112
108
106
102
100
97
94
91
86
84
80
73
69
65
64
58
53
47
48
44
37
35
32
31
24
22
20
20
14
13
11
12
10
9
4
4
6
2
0
0
2
0
0
0
2
0
0
0
0
0
0
0
0
0
0
0
0
0
0
0
0
0
0
0
0
0
0
0
1
2
1
3
5
4
5
7
11
10
10
14
18
20
20
29
28
29
33
39
39
43
50
53
55
58
64
68
70
73
78
80
84
85
90
95
99
100
104
108
112
109
111
113
112
112
109
112
112
110
105
104
99
98
95
92
91
87
83
80
75
74
73
65
61
57
55
52
48
44
44
40
32
33
30
28
22
20
19
18
14
11
10
9
8
7
3
3
5
1
0
0
3
0
0
0
2
0
0
0
0
0
0
0
0
0
0
0
0
0
0
0
0
0
0
0
0
2
0
0
1
2
0
1
3
6
6
6
9
9
7
11
12
15
16
22
21
23
26
32
30
32
40
40
40
42
49
51
53
56
61
64
66
66
70
74
76
75
79
82
84
81
83
84
86
85
85
87
89
85
79
78
75
74
74
72
72
69
65
61
56
55
55
49
46
45
42
40
38
37
35
32
28
27
22
21
17
12
14
13
12
10
8
6
6
4
2
3
3
1
0
0
3
1
0
0
3
0
0
0
0
0
0
0
1
0
0
0
0
1
0
0
0
0
0
0
0
0
0
0
0
1
1
3
3
5
5
5
6
7
8
10
11
13
16
20
19
22
25
30
27
29
35
36
35
35
42
44
45
46
53
56
56
57
59
63
64
62
67
72
74
71
74
74
75
72
71
72
73
70
69
69
67
66
64
61
61
60
57
54
49
48
47
41
38
38
35
31
29
29
25
22
21
19
16
16
15
9
11
9
10
8
7
6
6
4
1
1
2
0
0
0
3
0
0
0
2
0
0
0
0
0
0
0
3
0
0
0
0
0
0
0
0
0
0
0
0
0
0
0
0
1
1
2
0
3
2
4
4
7
8
9
8
11
14
19
16
18
21
25
21
24
30
33
33
33
41
42
42
42
49
53
53
54
56
61
60
58
64
69
68
65
67
68
69
67
66
67
68
64
62
62
59
58
55
54
54
52
50
49
45
46
45
40
36
36
31
29
26
28
25
23
23
21
17
17
16
9
11
9
10
8
9
7
8
7
4
2
3
1
0
1
3
0
0
0
0
0
0
0
0
0
0
1
4
0
0
0
0
0
0
0
0
0
0
0
0
2
0
2
0
4
5
6
1
3
3
4
2
7
10
9
8
10
14
16
14
14
17
20
17
18
25
27
27
27
33
33
33
32
37
41
41
42
43
47
46
45
50
56
55
52
55
55
57
54
55
57
57
53
52
53
49
50
48
47
48
47
42
40
35
36
35
31
29
31
27
25
23
22
19
18
18
14
11
11
13
7
9
8
9
5
6
3
4
1
0
0
1
0
1
0
0
0
0
0
1
2
2
0
1
0
0
0
2
0
0
0
0
0
0
0
0
0
0
1
0
2
0
1
0
2
2
4
1
3
4
5
1
5
8
8
7
8
11
13
10
13
15
20
17
17
20
21
18
18
23
24
25
26
30
33
32
34
33
38
36
36
38
44
41
38
41
41
41
40
42
43
43
40
38
40
37
36
35
35
35
36
34
32
29
29
25
23
22
25
21
20
19
19
16
16
17
13
10
9
11
4
7
6
7
2
3
2
2
0
0
2
5
3
2
3
3
1
1
0
0
0
0
0
0
0
0
0
1
1
1
1
2
3
0
0
0
0
0
0
0
0
0
0
0
0
0
0
0
0
2
4
0
3
7
6
5
5
7
8
6
9
12
15
14
14
15
16
15
12
16
18
18
17
20
23
21
25
25
28
26
28
27
31
29
29
30
31
30
29
30
31
30
30
28
31
29
29
28
27
26
26
22
21
20
20
15
15
15
16
14
15
14
10
10
11
11
7
8
6
7
2
4
4
5
1
4
4
3
2
3
2
4
1
0
1
1
0
0
0
0
0
0
0
2
0
0
0
2
0
0
0
0
0
0
0
0
0
1
0
0
1
1
1
0
0
1
0
0
0
1
2
0
1
5
5
4
3
5
7
5
5
8
9
7
8
11
13
15
13
17
18
18
17
18
21
19
20
20
23
20
23
22
25
24
26
26
27
26
27
28
27
28
28
24
26
24
24
22
23
21
19
18
18
17
18
16
17
17
16
13
13
13
9
9
10
11
7
7
6
6
1
3
4
6
1
3
2
1
0
2
2
3
0
0
2
1
0
2
0
0
0
0
0
3
2
0
0
2
0
0
0
0
0
0
0
0
0
0
0
0
0
0
1
0
1
2
3
1
2
3
3
0
1
4
6
6
4
7
8
7
5
8
8
7
7
10
11
11
10
12
14
13
12
14
14
12
14
15
17
16
20
18
20
19
21
20
20
20
21
20
19
19
20
19
21
19
19
19
18
16
17
17
17
15
15
13
13
12
11
10
10
12
7
8
7
7
5
7
6
7
3
4
6
7
1
3
0
0
0
0
1
2
0
0
0
0
0
0
0
0
1
1
0
3
2
0
0
1
0
0
0
1
0
0
0
0
0
0
0
0
0
0
1
0
0
0
1
0
1
2
3
2
0
2
4
3
0
4
4
3
3
5
6
6
5
7
9
7
7
10
10
9
8
11
10
8
9
11
11
10
14
14
13
14
15
13
12
11
11
12
10
10
12
10
11
8
7
9
10
8
9
11
10
9
7
9
10
11
6
7
7
9
3
5
6
5
2
6
5
5
2
0
0
1
0
0
0
0
0
1
1
2
0
0
2
0
0
3
0
0
0
0
0
0
0
0
0
0
1
0
0
1
0
2
1
1
0
2
2
2
2
1
1
0
0
0
0
0
0
0
1
2
0
3
3
1
0
1
0
1
1
2
4
4
2
3
4
3
3
6
7
4
3
6
6
4
4
7
8
6
9
8
5
5
6
5
3
6
5
7
6
8
10
9
9
7
7
7
8
5
5
7
6
3
1
4
4
6
1
4
4
6
0
4
4
4
0
2
3
4
1
0
0
0
0
2
2
4
3
1
0
1
0
0
1
0
0
1
0
0
3
3
0
2
4
1
2
4
0
0
0
0
0
2
3
2
1
2
2
2
0
0
1
0
0
3
4
1
0
0
0
1
0
0
1
0
0
1
2
2
0
0
3
2
0
2
5
3
3
5
6
4
4
7
7
6
6
7
7
6
5
5
3
4
5
8
5
9
8
9
6
7
7
6
6
5
6
8
9
4
2
6
5
1
0
4
4
6
2
6
4
4
0
2
3
2
1
1
2
2
2
0
1
2
1
1
1
2
1
0
1
4
0
3
3
0
0
1
0
0
0
0
0
0
1
1
2
2
1
0
0
0
0
0
0
0
0
0
0
0
0
0
1
0
0
1
2
0
0
0
1
3
0
1
2
3
1
3
2
3
2
1
3
3
0
2
4
3
4
4
5
2
2
4
3
1
3
5
4
7
6
7
6
4
4
7
5
7
7
6
6
6
5
6
7
3
3
6
5
2
1
5
6
5
2
6
4
5
0
5
4
4
0
3
3
2
1
2
3
3
4
1
2
2
2
2
1
2
1
0
0
2
0
2
1
0
0
0
0
0
0
0
0
0
0
1
1
1
1
0
0
0
0
0
0
0
0
0
0
0
0
0
2
3
1
3
2
1
0
1
1
4
0
0
1
2
0
0
1
1
0
0
1
2
0
0
2
1
2
2
4
3
4
4
7
4
2
4
1
3
3
6
5
5
3
5
2
2
0
2
2
3
2
3
4
0
0
2
4
1
0
4
4
3
0
4
3
5
0
5
5
3
0
1
1
1
0
0
2
0
0
0
0
0
0
0
0
1
2
0
0
2
0
2
1
0
0
2
1
1
1
0
0
0
0
0
0
0
1
1
1
0
1
0
2
2
2
1
1
1
0
0
0
1
0
0
0
0
0
0
0
3
0
0
0
2
0
0
1
1
0
0
3
4
0
0
0
0
0
0
1
0
2
1
2
2
0
1
0
0
0
1
1
0
0
0
0
0
0
0
1
1
0
3
3
1
1
1
2
1
0
3
2
1
0
3
0
1
0
3
2
0
0
1
1
1
1
0
2
0
0
0
2
1
2
0
0
2
2
0
0
0
0
0
0
0
0
0
0
0
0
0
1
2
2
1
1
0
0
0
1
0
2
0
3
2
2
0
0
0
0
0
0
4
0
0
0
2
0
0
0
1
0
0
0
1
0
0
1
0
0
0
1
1
0
0
0
0
0
0
0
0
0
0
0
0
0
0
0
0
0
0
0
0
0
0
1
0
0
1
0
0
0
2
2
0
0
1
1
1
0
0
0
0
0
2
2
1
0
1
1
0
1
0
0
0
0
0
0
0
0
0
2
1
2
1
0
2
2
1
2
3
4
2
0
0
0
0
0
0
0
0
0
0
1
0
0
0
0
0
0
0
0
0
0
0
0
0
0
0
0
0
0
4
0
0
0
2
0
0
0
4
2
0
2
5
0
0
1
0
0
0
0
0
0
0
0
0
0
2
0
1
1
0
0
0
0
0
0
0
1
2
2
0
2
1
2
0
0
1
0
0
0
1
0
0
0
0
0
2
0
0
0
2
0
3
4
3
0
2
2
0
1
0
0
0
0
0
4
0
1
0
0
0
1
0
0
1
2
0
0
0
2
1
1
2
1
0
0
0
0
1
1
1
4
2
2
1
0
0
0
0
0
0
0
0
0
0
0
2
0
0
0
4
1
0
0
2
0
0
0
2
2
0
2
4
1
0
3
1
1
0
0
0
0
0
2
0
0
2
0
0
3
2
0
0
0
0
0
0
3
2
2
0
1
0
0
0
0
0
0
0
0
0
0
0
0
0
0
0
0
0
0
3
0
2
0
1
0
0
2
0
1
0
2
0
1
0
2
0
0
0
0
0
0
0
0
0
0
0
0
0
1
1
0
2
2
1
0
0
2
1
0
0
2
0
1
2
0
0
0
0
2
2
0
0
2
0
0
3
0
0
0
2
0
0
0
2
1
0
0
2
1
0
1
1
0
0
0
0
0
1
1
0
1
0
0
0
0
1
0
0
0
0
0
0
0
0
2
0
0
0
0
0
0
0
0
0
0
0
0
0
0
0
0
0
0
0
0
1
0
0
0
1
0
0
0
0
0
0
1
0
2
0
2
1
1
0
2
0
0
0
1
0
2
0
0
0
0
0
0
0
0
0
0
0
0
0
0
0
1
0
0
0
0
0
1
2
0
0
0
0
2
2
0
2
5
1
1
2
0
0
0
1
1
0
0
1
1
0
2
1
1
0
1
0
0
0
0
0
0
0
0
0
0
0
0
0
0
0
0
0
0
0
0
0
0
0
0
0
0
0
0
0
0
0
0
0
0
0
0
0
0
0
0
0
0
0
0
0
0
0
0
0
0
0
0
0
0
0
0
0
0
0
0
0
0
0
0
0
0
0
1
0
2
2
3
1
2
4
1
2
1
3
1
1
0
1
0
0
0
0
0
0
0
2
2
2
1
1
1
3
3
0
0
0
1
0
0
1
0
0
0
1
1
0
0
0
2
0
1
1
2
0
1
0
0
0
0
0
0
1
0
0
0
0
0
0
0
0
0
0
0
0
0
0
0
0
0
0
0
0
0
0
0
0
0
0
0
0
0
0
0
0
0
0
0
0
0
0
0
0
0
0
0
0
0
1
0
0
0
0
0
0
0
1
1
0
2
0
0
0
1
0
0
0
0
0
1
3
2
2
0
1
2
0
1
1
0
0
0
0
0
1
1
4
4
2
1
0
0
0
1
0
0
0
1
0
0
1
0
1
0
2
0
0
0
0
1
0
1
0
1
0
1
0
0
1
1
0
0
0
0
0
0
1
0
0
0
0
0
0
0
0
0
0
1
0
0
0
0
0
0
0
0
0
0
0
0
0
0
0
0
0
0
0
0
0
0
0
0
0
0
0
0
0
0
0
0
0
0
0
0
0
1
2
1
0
0
2
1
0
2
0
0
0
0
0
0
0
0
0
0
2
2
0
1
1
2
2
0
0
0
0
0
0
2
2
0
0
0
0
2
0
0
0
3
0
0
0
1
1
0
2
1
0
0
0
1
0
2
0
1
0
0
0
0
0
0
0
0
0
0
0
0
0
0
0
0
0
0
0
0
0
0
0
0
0
0
0
0
0
0
0
0
0
0
0
0
0
0
0
0
0
0
0
0
0
0
0
0
0
0
0
0
0
0
0
0
0
0
0
1
0
0
0
0
0
0
1
0
0
3
0
0
0
0
0
0
0
0
0
0
1
2
0
0
0
1
0
0
0
0
0
0
1
3
3
1
0
0
2
3
0
2
3
6
3
2
0
0
0
0
0
0
0
0
0
1
1
2
0
2
0
1
0
0
0
1
0
0
0
0
0
0
0
0
0
0
0
0
0
0
0
0
0
0
0
0
0
0
0
0
0
0
0
0
0
0
0
0
0
0
0
0
0
0
0
0
0
0
0
0
0
0
0
0
0
0
0
0
0
0
0
0
0
0
0
0
0
0
0
0
0
0
0
1
1
1
2
2
1
0
1
1
0
0
0
2
1
1
2
0
1
0
1
2
4
2
1
3
3
5
2
0
0
0
0
0
0
0
1
0
0
1
1
0
0
0
0
0
0
0
0
1
0
0
0
0
0
0
0
0
0
0
0
1
0
0
0
0
0
0
0
0
0
0
0
0
0
0
0
0
0
0
0
0
0
0
0
0
0
0
0
0
0
0
0
0
0
0
0
0
0
0
1
0
0
0
0
0
0
1
0
0
0
0
0
0
0
0
0
0
0
0
0
2
2
1
2
2
3
2
3
1
0
1
0
0
0
0
0
0
1
1
0
0
3
0
0
0
0
0
1
0
0
0
0
0
0
0
1
0
1
2
3
1
0
0
2
2
0
0
1
0
0
0
0
1
0
0
0
0
0
0
0
1
2
0
0
0
0
0
0
0
0
0
0
0
0
0
0
0
0
0
0
0
0
0
0
0
0
0
0
0
0
0
0
0
0
0
0
0
0
0
0
0
0
0
0
0
0
0
0
0
0
0
0
0
1
1
0
0
0
0
0
0
0
0
0
0
0
0
0
0
2
5
2
3
1
1
1
0
0
0
0
0
2
0
0
0
0
0
1
0
0
1
2
0
0
1
3
1
0
2
2
0
0
0
0
0
0
0
0
0
0
0
0
0
0
0
1
0
0
0
0
0
0
0
0
0
0
0
0
0
0
0
0
0
0
0
0
0
0
0
0
0
0
0
0
0
0
0
0
0
0
0
0
0
0
0
0
0
0
0
1
0
0
0
1
0
0
0
0
0
0
0
0
0
0
0
0
0
2
0
0
0
0
0
0
0
0
0
0
0
0
2
1
1
0
0
0
0
0
0
0
0
2
0
2
3
0
1
4
0
0
1
2
0
0
0
0
0
0
0
0
0
0
1
4
3
0
0
3
2
0
0
1
1
0
0
0
0
0
0
0
0
0
0
0
0
0
0
0
0
0
0
0
0
0
0
0
0
0
0
0
0
0
0
0
0
0
0
0
0
0
0
0
0
0
0
0
0
0
0
0
0
0
0
0
0
0
0
0
0
0
0
0
0
0
0
0
0
3
0
0
1
0
1
0
0
0
3
0
0
0
2
0
0
2
4
3
0
1
1
0
0
1
0
0
1
0
1
5
2
0
3
3
0
0
0
0
0
0
0
1
0
0
0
1
0
0
0
0
0
0
0
0
0
0
0
0
0
0
0
0
0
0
0
0
0
0
0
0
0
0
0
0
0
0
0
0
0
0
0
0
0
0
0
0
0
0
0
0
0
0
0
0
0
0
0
0
0
0
0
0
0
0
0
1
0
0
0
0
0
0
0
0
0
0
0
0
0
3
0
0
2
2
1
0
0
0
3
0
0
1
3
0
0
0
1
0
0
0
2
2
0
3
0
0
0
0
0
1
0
0
1
1
0
0
0
0
0
0
2
3
1
0
0
1
0
0
0
3
0
0
0
0
0
0
0
0
0
0
0
0
0
0
0
0
0
0
0
0
0
0
0
0
0
0
0
0
0
0
0
0
0
0
0
0
0
0
0
0
0
0
0
0
0
0
0
0
0
0
0
0
0
0
0
0
0
0
0
0
0
0
2
0
1
1
1
0
0
1
0
0
0
0
0
0
0
0
1
0
1
1
4
1
1
0
3
0
0
0
1
1
1
3
1
2
1
0
0
0
0
0
1
1
0
0
2
1
1
0
0
0
0
0
0
1
0
0
0
1
0
0
0
1
0
0
0
0
0
0
0
0
0
0
0
0
0
0
0
0
0
0
0
0
0
0
0
0
0
0
0
0
0
0
0
0
0
0
0
0
0
0
0
0
0
0
0
0
0
0
0
0
0
0
0
0
0
0
0
0
0
0
0
0
0
0
0
0
0
1
0
0
0
1
0
0
0
0
0
0
0
0
2
0
0
0
2
0
0
0
2
1
0
2
0
2
0
0
3
1
0
0
2
1
0
0
1
0
0
0
0
0
0
0
0
1
0
0
0
2
0
0
0
1
0
0
0
0
0
0
0
0
0
0
0
0
0
0
0
0
0
0
0
0
0
0
0
0
0
0
0
0
0
0
0
0
0
0
0
0
0
0
0
0
0
0
0
0
0
0
0
0
0
0
0
0
0
0
0
0
0
0
1
0
0
0
0
0
0
0
0
0
0
3
1
0
1
1
3
0
0
0
0
0
0
1
2
2
0
1
2
1
0
1
1
2
0
0
4
3
3
4
5
2
1
0
1
0
0
0
0
1
1
0
0
0
0
0
0
1
0
0
0
3
0
0
0
0
0
0
0
0
0
0
0
0
0
0
0
0
0
0
0
0
0
0
0
0
0
0
0
0
0
0
0
0
0
0
0
0
0
0
0
0
0
0
0
0
0
0
0
0
0
0
0
0
0
0
0
0
0
0
0
0
0
0
0
0
0
0
1
0
0
3
1
0
2
1
2
1
0
0
2
1
0
0
1
2
0
1
3
2
0
1
2
2
0
0
0
0
0
0
0
0
0
0
3
2
3
0
1
0
0
0
0
2
0
0
0
2
0
0
0
3
0
0
0
0
0
0
0
0
0
0
0
0
0
0
0
0
0
0
0
0
0
0
0
0
0
0
0
0
0
0
0
0
0
0
0
0
0
0
0
0
0
0
0
0
0
0
0
0
0
0
0
0
0
0
0
0
0
0
0
0
0
0
0
0
0
0
1
0
0
1
0
0
0
0
1
1
0
0
2
1
0
0
0
2
0
0
0
2
0
0
0
0
0
0
0
0
0
0
0
0
1
0
1
0
1
0
1
0
0
0
0
1
0
0
0
0
0
0
0
0
0
0
0
0
0
0
0
0
0
0
0
0
0
0
0
0
0
0
0
0
0
0
0
0
0
0
0
0
0
0
0
0
0
0
0
0
0
0
0
0
0
0
0
0
0
0
0
0
0
0
0
0
0
0
0
0
0
0
0
0
0
0
0
0
0
0
1
0
0
0
0
0
0
0
1
0
0
0
2
2
1
3
2
5
0
0
0
2
0
0
0
0
0
0
0
2
0
0
1
2
2
1
0
0
0
0
1
2
0
0
0
0
0
0
0
1
0
0
0
0
0
0
0
0
0
0
0
0
0
0
0
0
0
0
0
0
0
0
0
0
0
0
0
0
0
0
0
0
0
0
0
0
0
0
0
0
0
0
0
0
0
0
0
0
0
0
0
0
0
0
0
0
0
0
0
0
0
1
0
0
0
0
0
0
0
1
1
0
0
1
2
0
0
0
0
0
0
0
1
2
0
0
0
4
0
0
0
2
0
0
0
0
2
0
0
3
1
0
1
3
2
0
0
0
0
0
0
1
0
0
0
1
0
0
0
0
0
0
0
0
0
0
0
0
0
0
0
0
0
0
0
0
0
0
0
0
0
0
0
0
0
0
0
0
0
0
0
0
0
0
0
0
0
0
0
0
0
0
0
0
0
0
0
0
0
0
0
0
0
0
0
0
0
0
0
0
0
0
0
0
0
0
0
0
0
0
2
0
0
2
3
2
0
0
2
2
1
2
4
4
0
0
0
4
0
0
2
5
0
1
0
0
1
0
0
0
0
0
0
2
0
0
0
1
0
0
1
1
0
0
0
0
0
0
0
0
0
0
0
0
0
0
0
0
0
0
0
0
0
0
0
0
0
0
0
0
0
0
0
0
0
0
0
0
0
0
0
0
0
0
0
0
0
0
0
0
0
0
0
0
0
0
0
0
0
0
0
0
0
0
0
0
0
0
0
0
0
0
0
0
0
0
0
0
0
0
0
0
0
0
1
0
0
0
2
1
0
0
1
2
0
0
0
1
0
0
0
4
0
0
0
0
3
0
0
3
1
0
0
1
0
1
0
2
0
1
0
1
0
0
0
0
1
0
0
0
0
0
0
0
0
0
0
0
0
0
0
0
0
0
0
0
0
0
0
0
0
0
0
0
0
0
0
0
0
0
0
0
0
0
0
0
0
0
0
0
0
0
0
0
0
0
0
0
0
0
0
0
0
0
0
0
0
0
0
0
0
0
1
0
0
0
0
0
0
0
0
0
0
0
0
0
0
0
1
3
0
1
3
6
0
0
1
2
0
0
0
1
0
0
0
0
1
0
0
2
3
1
2
3
0
2
0
3
0
2
0
0
0
0
0
0
0
0
0
0
0
0
0
0
0
0
0
0
0
0
0
0
0
0
0
0
0
0
0
0
0
0
0
0
0
0
0
0
0
0
0
0
0
0
0
0
0
0
0
0
0
0
0
0
0
0
0
0
0
0
0
0
0
0
0
0
0
0
0
0
0
0
1
0
0
0
0
0
0
0
1
0
0
1
1
1
0
0
0
1
0
0
0
2
0
0
0
0
0
0
0
2
1
0
0
0
1
0
1
3
4
0
0
0
0
0
0
0
0
1
0
0
1
1
1
0
0
0
0
0
0
0
0
0
0
0
0
0
0
0
0
0
0
0
0
0
0
0
0
0
0
0
0
0
0
0
0
0
0
0
0
0
0
0
0
0
0
0
0
0
0
0
0
0
0
0
0
0
0
0
0
0
0
0
0
0
0
0
0
0
0
0
0
0
0
0
0
0
0
0
3
1
0
2
1
0
0
1
0
3
0
0
0
2
0
0
2
1
2
0
0
1
1
0
0
0
0
0
0
1
1
0
0
2
0
1
0
0
0
0
0
0
0
0
1
0
0
0
0
0
1
0
0
0
0
0
0
0
0
0
0
0
0
0
0
0
0
0
0
0
0
0
0
0
0
0
0
0
0
0
0
0
0
0
0
0
0
0
0
0
0
0
0
0
0
0
0
0
0
0
0
0
0
0
0
0
0
0
0
0
0
0
0
0
0
0
0
0
0
0
0
0
0
0
0
0
0
1
0
3
0
1
2
2
0
2
2
0
3
2
0
1
1
0
1
2
5
3
2
2
1
0
0
3
0
2
1
2
0
3
1
0
0
0
0
0
0
0
0
0
0
0
0
0
0
0
0
0
0
0
0
0
0
0
0
0
0
0
0
0
0
0
0
0
0
0
0
0
0
0
0
0
0
0
0
0
0
0
0
0
0
0
0
0
0
0
0
0
0
0
0
0
0
0
0
0
0
0
0
0
0
0
0
3
0
0
0
0
0
0
0
0
0
0
0
0
0
0
0
2
0
3
3
2
1
3
1
0
0
0
0
0
2
2
0
0
1
0
0
0
0
0
0
3
0
2
0
2
0
2
3
0
1
1
2
0
0
0
0
0
0
0
0
0
0
0
0
0
0
0
0
0
0
0
0
0
0
0
0
0
0
0
0
0
0
0
0
0
0
0
0
0
0
0
0
0
0
0
0
0
0
0
0
0
0
0
0
0
0
0
0
0
0
0
0
0
0
0
0
0
0
0
0
3
0
0
0
0
0
0
0
0
1
1
0
0
0
0
0
0
0
1
1
0
1
4
2
0
1
3
2
1
2
3
0
0
1
0
1
2
2
1
2
4
0
0
0
0
0
0
0
0
2
1
1
0
0
0
0
0
0
0
0
0
0
0
0
0
0
0
0
0
0
0
0
0
0
0
0
0
0
0
0
0
0
0
0
0
0
0
0
0
0
0
0
0
0
0
0
0
0
0
0
0
0
0
0
0
0
0
0
0
0
0
0
0
0
0
0
0
0
0
0
0
0
0
0
0
0
0
0
1
2
0
0
0
0
1
1
1
0
2
1
0
0
1
1
0
0
1
1
0
0
2
0
0
2
0
0
1
0
0
0
1
0
0
0
0
0
0
0
0
0
0
0
0
0
0
0
0
0
0
0
0
0
0
0
0
0
0
0
0
0
0
0
0
0
0
0
0
0
0
0
0
0
0
0
0
0
0
0
0
0
0
0
0
0
0
0
0
0
0
0
0
0
0
0
0
0
0
0
0
0
0
0
0
0
0
0
0
0
0
0
0
0
0
0
0
0
0
0
0
3
0
0
0
1
1
2
0
0
4
2
0
2
3
3
1
2
3
3
0
0
2
2
2
3
0
2
3
1
0
0
0
0
2
0
0
1
1
0
0
2
0
0
0
0
0
0
0
0
0
0
0
0
0
0
0
0
0
0
0
0
0
0
0
0
0
0
0
0
0
0
0
0
0
0
0
0
0
0
0
0
0
0
0
0
0
0
0
0
0
0
0
0
0
0
0
0
0
0
0
0
0
0
0
0
0
0
0
0
0
0
0
0
2
0
0
0
0
1
0
1
0
0
0
0
0
2
0
0
1
1
0
0
1
1
0
0
1
2
0
0
0
2
2
3
0
1
3
0
0
0
0
0
1
0
0
2
2
0
0
2
0
0
1
0
0
0
0
0
0
0
0
0
0
0
0
0
0
0
0
0
0
0
0
0
0
0
0
0
0
0
0
0
0
0
0
0
0
0
0
0
0
0
0
0
0
0
0
0
0
0
0
0
0
0
0
0
0
0
0
0
0
0
0
0
0
0
0
0
0
0
0
0
0
0
0
0
0
0
0
0
0
0
0
0
0
3
0
0
2
3
0
1
2
1
0
1
1
1
0
1
0
2
0
1
0
0
1
1
0
1
0
0
1
0
0
1
2
0
0
4
1
0
3
1
2
0
1
0
0
0
0
0
0
0
0
0
0
0
0
0
0
0
0
0
0
0
0
0
0
0
0
0
0
0
0
0
0
0
0
0
0
0
0
0
0
0
0
0
0
0
0
0
0
0
0
0
0
0
0
0
0
0
0
0
0
0
0
0
0
0
0
0
0
0
0
1
0
0
0
1
0
3
0
0
0
1
0
0
1
0
0
0
0
0
0
0
0
0
0
0
0
2
1
3
4
1
0
0
0
0
0
1
1
0
0
0
0
0
0
1
0
0
2
0
1
0
0
0
0
0
0
0
0
0
0
0
0
0
0
0
0
0
0
0
0
0
0
0
0
0
0
0
0
0
0
0
0
0
0
0
0
0
0
0
0
0
0
0
0
0
0
0
0
0
0
0
0
0
0
0
0
0
0
0
0
0
0
0
0
0
0
0
0
1
0
0
2
1
0
2
0
4
2
0
0
2
0
0
1
1
0
2
4
2
0
5
3
3
0
2
0
2
2
3
2
0
0
0
0
0
0
2
2
0
0
2
0
0
0
2
0
0
0
0
0
0
0
0
1
0
0
0
0
0
0
0
0
0
0
0
0
0
0
0
0
0
0
0
0
0
0
0
0
0
0
0
0
0
0
0
0
0
0
0
0
0
0
0
0
0
0
0
0
0
0
0
0
0
0
0
0
0
0
0
0
0
0
0
0
0
0
0
0
0
0
0
0
0
0
0
0
2
0
0
0
0
0
0
1
2
0
1
1
0
0
2
0
1
0
2
0
2
3
4
5
1
0
2
4
1
0
2
2
0
0
4
2
0
0
2
0
0
0
0
0
0
0
0
2
0
0
0
0
0
0
0
0
0
0
0
0
0
0
0
0
0
0
0
0
0
0
0
0
0
0
0
0
0
0
0
0
0
0
0
0
0
0
0
0
0
0
0
0
0
0
0
0
0
0
0
0
0
0
0
0
0
0
0
0
0
0
0
0
0
0
0
0
0
0
1
0
1
0
0
0
2
0
1
1
2
0
2
0
0
0
3
0
1
0
2
0
0
0
0
1
0
0
0
4
0
0
3
2
0
0
3
0
0
0
3
0
0
1
0
3
0
0
0
1
0
0
1
0
0
0
0
0
0
0
0
0
0
0
0
0
0
0
0
0
0
0
0
0
0
0
0
0
0
0
0
0
0
0
0
0
0
0
0
0
0
0
0
0
0
0
0
0
0
0
0
0
0
0
0
0
0
0
0
0
0
0
0
0
1
0
0
0
0
0
1
0
3
0
0
0
0
0
0
0
0
0
0
0
0
0
3
0
0
0
0
0
2
1
1
3
0
0
0
3
0
0
1
2
0
0
2
0
0
0
0
0
0
0
0
0
0
0
0
2
0
0
2
0
0
0
0
0
0
0
0
0
0
0
0
0
0
0
0
0
0
0
0
0
0
0
0
0
0
0
0
0
0
0
0
0
0
0
0
0
0
0
0
0
0
0
0
0
0
0
0
0
0
0
0
0
0
0
0
0
0
0
0
0
1
0
0
0
0
0
0
0
0
0
0
0
1
0
0
0
1
1
2
1
1
0
4
1
2
2
1
0
2
1
0
0
0
0
0
2
0
0
2
3
1
2
5
2
0
0
1
0
0
0
0
2
0
0
0
2
0
0
3
0
0
0
0
0
0
0
0
0
0
0
0
0
0
0
0
0
0
0
0
0
0
0
0
0
0
0
0
0
0
0
0
0
0
0
0
0
0
0
0
0
0
0
0
0
0
0
1
0
0
0
0
0
0
0
0
0
0
0
0
1
0
0
0
0
0
0
0
0
0
0
0
0
0
0
0
0
2
2
0
0
0
0
0
0
0
1
1
0
