P2
# CREATOR: Diamond Light Source Beamline I02
118 118
255
0
0
0
0
2
1
1
0
1
0
1
2
3
2
2
0
0
0
0
0
0
0
0
0
0
0
0
0
0
0
0
0
0
0
0
0
0
0
0
0
0
0
0
0
0
0
0
0
0
0
0
0
0
0
0
0
0
0
0
0
0
0
0
0
0
0
0
0
0
0
0
0
0
0
0
0
0
0
0
0
0
0
0
0
0
0
0
0
0
0
0
2
0
0
0
0
0
0
0
0
0
0
0
0
0
1
0
2
4
3
3
5
3
3
4
4
3
2
0
0
0
0
2
0
1
0
2
0
1
1
4
0
1
0
0
0
0
0
0
2
0
0
0
0
0
0
0
0
0
0
0
0
0
0
0
0
0
0
0
0
0
0
0
0
0
0
0
0
0
0
0
0
0
0
0
0
0
0
0
0
0
0
0
0
0
0
0
0
0
0
0
0
0
0
0
0
0
0
0
0
0
0
0
0
0
0
0
0
0
2
0
0
0
0
0
0
0
0
0
0
0
0
0
0
0
2
4
2
0
2
1
0
0
3
2
1
0
0
0
0
0
0
0
0
1
0
0
0
1
0
0
0
0
1
0
0
0
2
0
0
0
0
0
0
0
0
0
0
0
0
0
0
0
0
0
0
0
0
0
0
0
0
0
0
0
0
0
0
0
0
0
0
0
0
0
0
0
0
0
0
0
0
0
0
0
0
0
0
0
0
0
0
0
0
0
0
0
0
0
0
0
0
0
0
0
1
0
0
0
0
0
0
0
2
2
2
1
0
0
0
0
0
0
0
2
0
0
3
2
0
0
3
2
1
2
0
0
0
3
0
2
0
2
0
1
0
1
0
0
0
0
0
0
0
0
3
0
0
0
0
0
0
0
0
0
0
0
0
0
0
0
0
0
0
0
0
0
0
0
0
0
0
0
0
0
0
0
0
0
0
0
0
0
0
0
0
0
0
0
0
0
0
0
0
0
0
0
0
0
0
0
0
0
0
0
0
0
0
0
0
0
0
0
0
0
0
0
0
0
0
0
0
0
0
0
1
4
5
4
4
0
3
4
1
0
4
3
0
0
1
0
0
3
0
1
0
4
2
4
0
5
3
3
0
5
3
4
2
4
4
1
0
0
4
0
0
0
0
0
0
0
0
0
0
0
0
0
0
0
0
0
0
0
0
0
0
0
0
0
0
0
0
0
0
0
0
0
0
0
0
0
0
0
0
0
0
0
0
0
0
0
0
0
0
0
0
0
0
0
0
0
0
0
0
0
0
0
0
0
0
0
0
0
0
0
0
0
0
0
0
0
0
0
0
0
0
0
0
0
0
2
0
0
4
4
1
0
3
1
0
2
0
1
0
3
1
3
0
1
1
2
0
1
0
0
0
0
1
1
0
1
2
0
0
0
1
0
0
0
0
0
0
0
0
0
0
0
0
0
0
0
0
0
0
0
0
0
0
0
0
0
0
0
0
0
0
0
0
0
0
0
0
0
0
0
0
0
0
0
0
0
0
0
0
0
0
0
0
0
0
0
0
0
0
0
0
0
0
0
0
0
0
0
0
0
0
0
0
1
3
0
1
0
3
0
1
0
1
0
0
0
0
1
0
0
0
0
0
2
1
0
0
0
0
0
0
0
0
1
0
0
1
1
0
0
1
0
0
0
1
0
0
0
1
0
0
0
0
0
0
0
0
0
0
0
0
0
0
0
0
0
0
0
0
0
0
0
0
0
0
0
0
0
0
0
0
0
0
0
0
0
0
0
0
0
0
0
0
0
0
0
0
0
0
0
0
0
0
0
0
0
0
0
0
0
0
0
0
0
0
0
0
0
0
0
0
3
5
0
0
0
0
0
0
0
0
0
0
0
0
1
1
0
0
1
0
0
0
0
0
0
2
1
0
1
2
3
0
0
1
1
0
0
0
0
0
0
1
0
0
0
0
0
0
0
0
0
0
0
0
0
0
0
0
0
0
0
0
0
0
0
0
0
0
0
0
0
0
0
0
0
0
0
0
0
0
0
0
0
0
0
0
0
0
0
0
0
0
0
0
0
0
0
0
0
0
0
0
0
0
0
0
0
0
0
0
0
0
0
0
0
0
0
0
1
0
0
0
0
1
0
1
0
2
2
1
1
1
4
1
0
1
2
0
0
1
2
1
0
4
3
0
1
4
5
0
0
2
2
0
0
2
2
0
0
0
0
0
0
0
0
0
0
0
0
0
0
0
0
0
0
0
0
0
0
0
0
0
0
0
0
0
0
0
0
0
0
0
0
0
0
0
0
0
0
0
0
0
0
0
0
0
0
0
0
0
0
0
0
0
0
0
0
0
0
0
0
0
0
0
0
0
0
0
0
0
0
0
0
0
0
0
0
0
0
0
0
0
0
0
0
0
1
2
2
2
6
4
1
1
3
0
0
1
0
0
0
2
1
0
0
1
3
0
0
3
3
0
0
2
1
0
0
0
0
0
0
0
0
0
0
0
0
0
0
0
0
0
0
0
0
0
0
0
0
0
0
0
0
0
0
0
0
0
0
0
0
0
0
0
0
0
0
0
0
0
0
0
0
0
0
0
0
0
0
0
0
0
0
0
0
0
0
0
0
0
0
0
0
0
0
0
0
0
0
0
0
1
0
0
2
1
1
0
2
1
0
0
0
0
0
0
0
0
3
3
0
0
2
0
0
1
0
0
0
0
0
0
0
1
3
0
0
2
1
0
0
2
1
0
0
0
0
0
1
0
0
0
0
0
0
0
0
0
0
0
0
0
0
0
0
0
0
0
0
0
0
0
0
0
0
0
0
0
0
0
0
0
0
0
0
0
0
0
0
0
0
0
0
0
0
0
0
0
0
0
0
0
0
0
0
0
0
0
0
0
0
0
0
0
0
0
0
0
1
2
2
0
1
0
0
0
1
0
0
0
0
0
0
1
0
0
1
0
0
0
1
0
0
1
0
0
0
0
0
0
0
0
2
2
0
2
0
0
0
0
0
0
0
0
0
0
0
0
0
0
0
0
0
0
0
0
0
0
0
0
0
0
0
0
0
0
0
0
0
0
0
0
0
0
0
0
0
0
0
0
0
0
0
0
0
0
0
0
0
0
0
0
0
0
0
0
0
0
0
0
0
0
0
0
0
0
0
0
1
0
0
0
0
0
0
0
2
1
0
0
0
0
0
0
0
0
1
1
1
0
5
3
1
0
4
3
1
1
2
1
1
1
0
3
3
2
3
3
0
0
0
1
0
1
0
0
0
0
0
0
0
0
0
0
0
0
0
0
0
0
0
0
0
0
0
0
0
0
0
0
0
0
0
0
0
0
0
0
0
0
0
0
0
0
0
0
0
0
0
0
0
0
0
0
0
0
0
0
0
0
0
0
0
0
0
0
0
0
0
0
0
0
0
0
0
0
0
0
0
0
0
0
0
0
0
0
0
0
0
0
0
1
2
0
1
2
2
0
4
3
1
0
2
4
1
0
2
0
0
0
0
0
0
0
0
3
0
0
2
4
0
3
4
3
1
3
0
1
0
1
0
0
1
1
0
0
0
0
0
0
0
0
0
0
0
0
0
0
0
0
0
0
0
0
0
0
0
0
0
0
0
0
0
0
0
0
0
0
0
0
0
0
0
0
0
0
0
0
0
0
0
0
0
0
0
0
0
0
0
0
0
0
0
0
0
0
0
0
1
0
0
0
0
0
0
3
1
1
0
2
1
0
0
0
0
0
0
0
0
0
0
0
0
0
0
1
3
4
2
1
1
0
0
0
0
0
0
0
0
0
0
0
0
1
0
2
0
1
0
2
1
1
0
0
0
0
0
0
0
0
0
0
0
0
0
0
0
0
0
0
0
0
0
0
0
0
0
0
0
0
0
0
0
0
0
0
0
0
0
0
0
0
0
0
0
0
0
0
0
0
0
0
0
0
0
0
0
0
0
0
0
0
0
0
0
0
0
0
0
0
0
0
0
2
1
0
0
1
0
0
1
1
1
0
0
0
0
0
0
0
0
0
0
1
0
0
0
0
1
0
0
1
1
0
0
0
0
0
0
1
0
0
0
0
0
0
0
0
0
0
0
0
0
0
0
0
0
0
0
0
0
0
0
0
0
0
0
0
0
0
0
0
0
0
0
0
0
0
0
0
0
0
0
0
0
0
0
0
0
0
0
0
0
0
0
0
0
0
0
0
0
0
0
0
0
0
0
0
0
0
0
1
0
0
0
0
0
0
0
0
0
2
1
0
0
2
0
0
2
1
3
0
3
0
3
1
1
0
1
2
2
3
0
1
0
1
2
2
2
0
3
0
1
0
0
0
0
0
0
1
0
2
0
2
0
0
0
0
0
0
0
1
0
0
0
0
0
0
0
0
0
0
0
0
0
0
0
0
0
0
0
0
0
0
0
0
0
0
0
0
0
0
0
0
0
0
0
0
0
0
0
0
0
0
0
0
0
0
0
0
0
0
0
0
0
0
0
0
0
0
0
0
0
0
0
1
0
0
0
3
1
0
0
3
2
0
2
1
3
0
3
0
5
2
2
0
1
0
0
1
1
2
1
1
2
2
1
0
5
1
1
1
3
1
0
2
1
2
0
3
0
1
0
0
0
0
0
0
0
1
0
0
0
0
0
0
0
0
0
0
0
0
0
0
0
0
0
0
0
0
0
0
0
0
0
0
0
0
0
0
0
0
0
0
0
0
0
0
0
0
0
0
0
0
0
0
0
0
0
0
0
0
0
0
0
0
0
0
0
0
0
0
0
0
0
0
0
1
0
0
0
1
1
0
0
0
0
0
0
0
1
0
0
0
2
2
2
1
3
4
1
1
2
0
0
0
0
0
0
0
2
0
0
0
0
0
0
0
0
2
0
0
0
0
0
0
0
0
0
0
0
0
0
0
0
0
0
0
0
0
0
0
0
0
0
0
0
0
0
0
0
0
0
0
0
0
0
0
0
0
0
0
0
0
0
0
0
0
0
0
0
0
0
0
0
0
0
0
0
0
0
0
0
0
0
0
0
0
0
0
0
3
1
0
0
0
0
0
0
2
2
0
0
0
1
1
0
0
1
0
0
0
0
1
1
1
0
0
0
0
1
1
1
0
2
0
0
0
2
1
0
0
0
0
0
0
0
1
0
0
0
0
0
0
0
0
0
0
0
0
0
0
0
0
0
0
0
0
0
0
0
0
0
0
0
0
0
0
0
0
0
0
0
0
0
0
0
0
0
0
0
0
0
0
0
0
0
0
0
0
0
0
0
0
0
0
0
0
0
0
0
0
0
0
0
0
1
0
0
1
0
0
0
1
0
0
0
1
2
0
0
0
1
0
0
0
3
0
0
0
2
0
0
1
2
1
0
0
1
0
0
0
1
1
0
0
4
2
0
0
0
0
0
0
0
0
0
0
0
0
0
0
0
0
0
0
0
0
0
0
0
0
0
0
0
0
0
0
0
0
0
0
0
0
0
0
0
0
0
0
0
0
0
0
0
0
0
0
0
0
0
0
0
0
0
0
0
0
0
0
0
0
0
0
0
0
0
0
0
0
0
0
0
0
2
0
0
0
0
0
0
0
2
1
0
0
1
0
0
2
2
3
3
0
4
3
2
0
2
0
0
0
0
0
0
3
4
4
3
4
5
4
0
0
3
0
0
0
0
0
0
0
0
0
0
0
0
0
0
0
0
0
0
0
0
0
0
0
0
0
0
0
0
0
0
0
0
0
0
0
0
0
0
0
0
0
0
0
0
0
0
0
0
0
0
0
0
0
0
0
0
0
0
0
0
0
0
0
0
0
0
0
0
0
0
0
0
0
0
0
0
0
0
0
0
0
0
0
0
0
0
0
0
1
2
1
3
1
0
1
1
0
2
1
0
0
0
0
0
0
1
0
0
1
2
0
0
0
0
0
0
0
2
0
0
0
0
0
0
0
0
0
0
0
3
1
1
3
0
0
0
0
0
0
0
0
0
0
0
0
0
0
0
0
0
0
0
0
0
0
0
0
0
0
0
0
0
0
0
0
0
0
0
0
0
0
0
0
0
0
0
0
0
0
0
0
0
0
0
0
0
0
0
0
0
0
0
0
0
0
1
0
0
0
1
0
1
2
1
1
2
2
2
1
2
0
0
0
0
0
0
0
0
0
1
0
0
1
1
0
0
2
1
1
0
0
0
0
0
0
0
0
0
0
0
0
0
0
1
0
0
0
2
0
0
2
0
0
0
0
0
0
0
0
0
0
0
0
0
0
0
0
0
0
0
0
0
0
0
0
0
0
0
0
0
0
0
0
0
0
0
0
0
0
0
0
0
0
0
0
0
0
0
0
0
0
0
0
0
0
0
0
0
0
1
0
0
0
1
0
0
0
1
0
0
1
0
0
0
0
0
1
1
2
2
1
3
0
0
0
0
0
1
0
0
0
0
0
0
1
0
0
0
0
0
0
0
2
2
0
0
1
0
0
1
0
0
0
0
0
0
0
0
0
0
0
0
0
0
0
0
0
0
0
0
0
0
0
0
0
0
0
0
0
0
0
0
0
0
0
0
0
0
0
0
0
0
0
0
0
0
0
0
0
0
0
0
0
0
0
0
0
0
0
0
0
0
0
0
0
0
0
0
0
0
0
0
0
0
0
0
1
1
1
0
0
0
1
0
0
0
0
0
2
5
1
1
2
0
0
0
1
0
0
0
1
2
3
1
2
3
3
1
3
1
2
1
0
0
3
0
0
3
1
0
0
0
0
2
1
0
2
0
0
0
0
0
0
0
0
0
0
0
0
0
0
0
0
0
0
0
0
0
0
0
0
0
0
0
0
0
0
0
0
0
0
0
0
0
0
0
0
0
0
0
0
0
0
0
0
0
0
0
0
0
0
0
0
0
0
0
0
0
0
0
0
0
0
0
1
0
0
0
0
0
3
1
1
1
0
0
1
5
1
0
1
0
0
1
2
0
0
1
3
2
1
0
0
1
0
0
0
0
0
0
0
0
3
0
0
1
0
0
0
1
0
2
1
0
1
1
0
0
2
0
0
0
0
0
0
0
0
0
0
0
0
0
0
0
0
0
0
0
0
0
0
0
0
0
0
0
0
0
0
0
0
0
0
0
0
0
0
0
0
0
0
0
0
0
0
0
0
0
0
0
0
0
0
0
0
0
1
1
0
2
0
1
2
1
0
0
0
0
1
0
0
0
0
0
0
0
0
0
0
1
0
2
5
2
1
0
0
0
0
0
0
1
0
0
0
0
0
0
0
0
1
0
0
1
2
0
0
1
0
0
0
0
0
0
0
0
0
0
0
0
0
0
0
0
0
0
0
0
0
0
0
0
0
0
0
0
0
0
0
0
0
0
0
0
0
0
0
0
0
0
0
0
0
0
0
0
0
0
0
0
0
0
0
0
0
0
0
0
0
0
0
0
0
0
0
0
0
0
0
0
2
0
0
1
0
0
0
0
0
2
3
3
0
3
2
0
0
1
0
0
0
0
0
0
1
2
1
0
2
3
2
0
0
1
3
0
1
3
2
0
0
3
2
0
0
0
0
0
0
0
0
0
0
0
0
0
0
0
0
0
0
0
0
0
0
0
0
0
0
0
0
0
0
0
0
0
0
0
0
0
0
0
0
0
0
0
0
0
0
0
0
0
0
0
0
0
0
0
0
0
0
1
0
0
0
2
0
0
0
0
0
0
1
0
0
0
0
0
1
0
0
0
0
0
0
0
0
0
0
0
0
1
2
1
0
3
0
0
1
1
1
0
2
2
2
0
2
3
3
0
2
1
2
0
0
0
0
0
0
0
0
0
0
0
0
0
0
0
0
1
0
0
1
0
0
0
0
0
0
0
0
0
0
0
0
0
0
0
0
0
0
0
0
0
0
0
0
0
0
0
0
0
0
0
0
0
0
0
0
0
0
0
0
0
0
0
0
0
0
0
0
0
0
0
0
0
0
0
0
0
1
0
0
0
0
0
0
0
0
0
0
0
2
2
0
1
2
3
0
4
5
2
0
3
2
1
2
2
2
1
3
2
2
0
3
2
3
0
0
0
0
0
0
0
1
1
0
2
2
0
0
2
4
0
0
0
2
0
0
0
0
0
0
0
0
0
0
0
0
0
0
0
0
0
0
0
0
0
0
0
0
0
0
0
0
0
0
0
0
0
0
0
0
0
0
0
0
0
0
0
0
0
0
0
0
0
0
0
0
0
0
0
0
0
0
0
0
0
1
0
0
0
0
0
0
0
0
1
0
1
3
2
0
1
1
0
0
0
0
0
0
1
2
2
3
4
3
0
0
0
0
0
1
0
0
0
0
0
2
0
0
0
1
1
0
3
1
0
0
0
0
0
0
0
0
0
0
0
0
0
0
0
0
0
0
0
0
0
0
0
0
0
0
0
0
0
0
0
0
0
0
0
0
0
0
0
0
0
0
0
0
0
0
0
0
0
0
0
0
0
0
0
0
0
0
0
0
0
0
0
0
0
0
0
0
0
0
0
0
0
1
1
0
0
1
0
0
0
1
0
0
0
1
1
1
2
2
1
0
0
0
1
1
0
1
2
4
3
4
2
4
0
2
0
2
0
1
2
0
1
2
3
0
1
0
0
0
0
0
0
0
0
0
0
0
0
0
0
0
0
0
0
0
0
0
0
0
0
0
0
0
0
0
0
0
0
0
0
0
0
0
0
0
0
0
0
0
0
0
0
0
0
0
0
0
0
0
0
0
0
0
0
0
1
0
0
0
0
0
0
0
0
0
0
1
0
1
0
1
0
0
0
0
0
0
0
0
0
0
0
1
0
1
1
0
0
0
0
0
2
2
0
1
2
2
0
1
0
0
0
1
1
2
0
2
2
0
0
0
0
0
0
0
0
0
0
0
0
0
0
0
0
1
1
0
0
0
0
0
0
0
0
0
0
0
0
0
0
0
0
0
0
0
0
0
0
0
0
0
0
0
0
0
0
0
0
0
0
0
0
0
0
0
0
0
0
0
0
0
0
0
0
0
0
1
0
0
0
2
0
0
0
1
0
0
0
0
0
0
0
0
0
0
0
0
0
0
1
1
1
3
2
1
3
3
1
1
2
1
0
1
2
1
1
2
0
2
0
2
1
1
0
2
0
0
0
0
1
0
2
1
3
2
0
0
0
0
0
0
0
0
0
0
0
0
0
0
0
0
0
0
0
0
0
0
0
0
0
0
0
1
0
0
0
0
0
0
0
0
0
0
0
0
0
0
0
0
0
0
0
0
0
0
0
0
0
0
0
0
0
0
0
0
0
0
0
0
0
0
0
1
0
0
0
0
1
0
2
4
3
0
0
0
0
1
3
2
0
0
0
0
0
1
0
0
2
0
0
0
0
0
0
0
0
0
0
0
0
0
0
0
0
1
1
0
2
0
1
0
0
0
0
0
0
0
0
0
0
0
0
0
0
0
0
0
0
0
0
0
0
0
0
0
0
0
0
0
0
0
0
0
0
0
0
0
0
0
0
0
0
0
0
0
0
0
0
0
0
0
0
0
0
0
0
0
0
0
0
0
0
0
0
0
0
0
0
0
0
0
0
0
0
0
2
0
0
0
0
0
0
0
0
1
2
1
0
1
1
0
1
2
0
0
1
0
0
0
3
2
3
3
2
2
1
1
0
0
0
1
1
3
2
0
0
0
0
0
0
0
0
0
0
1
0
0
0
0
0
0
0
0
0
0
0
0
0
0
0
0
0
0
0
0
0
0
0
0
0
0
0
0
0
0
0
0
0
0
0
0
0
0
0
0
0
0
0
0
0
0
0
0
0
0
0
0
0
0
0
1
0
0
0
1
0
0
0
0
0
0
0
0
2
0
1
0
2
0
0
0
2
0
2
2
0
1
1
0
1
1
0
0
1
0
0
0
2
0
2
0
0
0
0
0
0
0
0
0
0
1
0
0
0
0
0
0
0
0
0
0
0
0
0
0
2
1
0
0
0
0
0
0
0
0
0
0
0
0
0
0
0
0
0
0
0
0
0
0
0
0
0
0
0
0
0
0
0
0
0
0
0
0
0
0
0
0
0
0
0
0
0
0
0
0
0
0
0
0
0
0
0
1
0
0
0
0
0
0
0
0
0
0
0
0
1
0
0
0
0
0
1
1
1
3
3
0
3
2
2
2
6
0
1
0
1
0
0
0
0
0
1
3
0
1
0
0
0
0
0
2
0
1
1
0
0
1
2
0
0
1
0
0
0
0
0
0
0
0
0
0
0
1
0
0
0
0
0
0
0
0
0
0
0
0
0
1
0
0
0
0
0
1
0
0
0
0
0
0
0
0
0
0
0
0
0
0
0
0
0
0
0
0
0
0
0
0
0
0
0
0
0
0
0
0
1
1
0
0
3
1
2
0
2
1
1
1
1
1
3
1
0
2
0
0
0
0
0
0
3
0
0
0
0
0
1
2
2
0
0
2
0
0
0
0
0
1
0
2
0
1
0
0
0
0
1
0
1
2
1
0
0
0
0
0
0
0
0
0
0
0
0
0
0
0
0
0
0
1
1
3
1
0
0
0
0
0
0
0
0
0
0
0
0
0
0
0
0
0
0
0
0
0
0
0
0
0
0
0
0
0
0
0
0
0
0
0
0
0
0
0
0
0
3
3
2
1
1
0
0
0
0
0
0
0
1
0
1
1
0
0
0
0
0
0
0
0
1
0
1
1
0
0
0
3
0
0
0
1
0
1
0
0
0
1
0
0
0
0
0
0
0
1
0
0
0
0
0
0
0
0
0
0
0
0
0
0
0
0
0
0
0
0
0
0
0
0
0
1
1
0
0
0
0
0
0
0
0
0
0
0
0
0
0
0
0
0
0
0
0
0
0
0
0
0
0
0
0
0
0
0
1
0
0
0
0
0
0
0
0
0
0
0
0
0
1
1
2
1
2
0
0
0
0
0
0
0
0
0
0
0
1
1
0
0
3
2
1
1
2
2
0
2
0
0
0
1
0
0
0
0
0
1
0
1
0
2
0
2
0
2
0
0
0
2
0
0
1
1
0
0
0
0
0
0
0
0
0
0
0
0
0
0
0
0
0
0
0
0
0
0
0
0
0
0
0
0
0
0
0
0
0
0
0
0
0
0
0
1
0
0
0
1
0
0
0
0
0
0
0
0
0
0
2
0
0
0
1
0
0
0
0
0
0
0
0
0
0
0
0
0
0
0
0
1
1
2
2
2
3
3
1
0
2
3
2
4
0
1
0
1
0
1
1
2
0
1
0
0
0
0
0
1
0
1
0
0
0
1
0
1
3
4
2
0
1
0
0
0
0
0
0
1
1
2
0
0
0
0
0
0
3
0
0
0
2
0
0
0
2
0
1
0
0
0
1
0
1
1
1
0
1
4
2
1
2
1
0
0
0
0
0
0
0
0
0
0
1
1
0
1
2
0
0
0
2
2
1
1
0
1
0
0
1
3
0
0
1
2
2
0
0
1
0
0
1
0
0
0
0
0
0
0
1
2
0
2
0
2
0
4
3
4
2
2
0
0
0
0
0
2
0
5
0
1
0
3
0
0
2
0
0
0
0
0
0
2
2
1
0
1
2
2
2
0
3
1
1
1
7
5
4
5
8
3
7
6
8
3
4
0
3
0
1
0
1
2
1
0
1
2
0
0
0
2
0
1
0
0
0
1
2
2
1
2
0
0
0
0
0
0
0
0
1
0
0
0
0
1
1
0
1
2
0
0
0
1
0
0
0
0
0
0
2
0
0
0
0
0
1
1
1
2
0
2
0
0
0
1
0
0
0
0
0
0
0
0
0
0
0
3
0
2
0
3
0
1
2
1
0
0
1
0
0
1
3
0
0
1
2
2
4
0
4
2
0
0
2
2
2
2
5
0
3
0
2
0
2
0
2
0
0
0
0
0
0
0
0
0
0
0
0
1
0
1
0
1
0
4
5
4
3
3
1
0
0
0
0
0
0
0
0
0
0
1
1
2
2
1
1
2
1
0
4
3
0
0
0
0
0
0
2
0
0
0
0
0
1
1
1
3
0
3
0
1
0
2
0
0
0
1
0
1
0
1
2
3
0
3
0
0
0
3
0
1
2
1
0
1
4
3
0
2
5
1
0
0
2
1
1
0
3
1
0
0
1
0
0
0
0
0
1
0
1
1
3
1
5
1
2
2
2
0
2
4
5
4
2
6
4
4
1
3
1
0
0
2
2
2
1
1
1
0
0
2
3
2
2
3
2
0
0
0
0
0
0
0
0
0
0
0
3
1
0
0
3
0
0
1
4
1
1
1
0
0
0
0
0
0
0
2
0
1
0
3
0
1
0
1
0
0
0
0
0
0
0
0
0
0
0
1
0
1
2
1
0
3
4
3
0
3
4
2
0
2
6
4
5
3
8
7
7
4
7
7
7
6
5
7
9
6
8
8
8
7
11
8
9
10
9
6
6
11
12
12
9
13
9
8
4
9
7
4
5
5
5
3
4
4
5
4
2
3
1
2
3
4
4
1
2
2
2
0
2
3
2
0
0
0
1
0
0
0
3
0
0
0
2
0
0
0
1
0
0
0
0
0
0
0
0
0
0
4
1
3
1
4
1
2
2
2
1
3
2
1
2
2
1
2
0
1
2
0
0
3
3
3
0
3
4
4
3
6
10
8
10
8
10
10
12
7
11
13
12
10
11
14
16
13
13
15
13
11
14
12
12
13
12
10
9
13
11
10
7
14
9
9
6
10
8
5
7
6
8
6
7
6
8
3
2
3
1
1
1
3
2
0
3
5
5
1
3
3
3
0
0
2
3
0
0
1
6
1
0
0
0
0
0
0
2
1
0
0
0
0
1
2
0
0
0
1
0
0
0
2
0
0
0
0
0
0
0
0
0
0
2
1
1
2
2
1
0
3
4
4
2
5
7
6
4
6
10
6
7
7
9
10
13
9
12
14
12
11
11
15
16
14
13
17
15
14
17
16
15
16
14
13
12
15
12
13
9
14
10
9
8
12
12
10
12
10
12
9
10
9
11
6
6
7
5
4
4
6
4
1
2
4
3
0
1
5
5
0
1
3
3
0
0
0
2
0
0
0
0
0
0
0
2
1
0
0
0
0
0
0
0
0
0
0
0
0
0
3
0
0
0
0
0
1
0
0
2
2
2
2
4
5
4
5
4
6
5
6
6
8
9
9
7
9
14
10
12
12
12
12
17
13
18
18
16
15
14
17
19
18
18
22
20
20
23
22
23
23
21
23
22
23
23
25
20
25
21
21
18
19
16
14
14
11
14
10
13
12
11
8
10
11
8
9
8
11
7
4
3
6
3
0
1
3
2
0
0
2
2
0
0
0
2
1
0
1
3
1
0
0
2
1
0
0
0
0
0
2
0
1
0
3
1
0
0
2
0
0
0
0
1
0
0
0
2
1
2
1
4
4
6
5
5
8
7
7
10
11
11
11
10
12
18
16
18
20
21
22
26
22
26
29
26
28
29
31
31
32
31
37
35
36
39
37
38
38
35
37
34
33
31
34
29
33
28
31
28
27
24
24
23
19
23
19
19
19
17
12
13
14
9
8
7
11
8
6
5
8
6
4
3
4
3
0
0
0
1
0
0
2
2
2
1
1
1
0
0
0
0
1
0
0
0
0
0
0
0
0
0
0
0
0
0
4
3
2
2
2
3
0
1
0
2
2
3
4
6
7
7
9
9
12
13
13
15
15
19
19
19
21
28
25
28
32
34
36
40
40
41
43
41
44
47
52
51
52
52
55
52
53
56
55
55
52
53
54
51
47
47
49
45
47
44
46
43
40
38
37
36
31
33
27
28
29
26
22
23
24
19
17
13
16
11
10
8
10
7
8
4
6
8
5
3
7
8
3
3
3
1
1
0
1
0
1
0
0
0
0
0
0
0
0
0
0
0
0
0
0
0
0
0
1
0
0
0
0
2
0
2
1
2
5
6
4
7
9
8
10
12
15
17
19
22
24
31
30
29
31
36
33
37
42
44
45
48
52
54
57
58
63
65
67
67
69
72
73
71
72
76
75
75
73
75
76
72
67
68
68
62
60
60
59
57
54
54
52
51
46
46
39
39
40
35
30
31
30
26
23
21
22
17
15
12
15
12
12
8
8
7
6
2
4
5
1
0
0
0
0
0
0
0
2
0
0
0
0
0
0
0
0
0
0
0
0
0
0
0
0
0
0
0
0
0
0
2
1
2
2
6
8
8
8
12
15
14
17
19
23
24
25
24
26
33
34
35
40
47
45
51
56
61
62
63
68
70
72
74
80
82
84
86
88
93
93
91
93
98
97
97
95
98
99
92
87
89
88
85
83
83
80
78
71
70
65
63
58
57
51
50
50
43
38
36
36
32
29
27
27
24
21
19
20
15
14
9
7
8
8
4
5
7
3
2
2
1
2
1
1
0
1
0
0
0
0
0
0
0
1
0
0
0
0
0
0
0
0
0
0
0
1
0
0
3
3
6
6
8
10
11
10
14
17
18
19
21
26
32
33
35
39
48
48
50
57
62
60
64
71
76
79
81
89
92
95
96
105
108
111
113
117
125
126
125
126
132
130
128
126
131
131
122
118
120
117
114
111
110
104
101
94
91
86
85
79
76
70
66
65
59
51
48
47
43
37
35
33
29
26
22
23
19
18
14
12
12
8
4
4
6
2
3
3
1
1
0
0
0
0
1
0
0
0
0
0
0
0
0
0
0
0
0
0
0
0
0
1
1
2
0
0
3
4
6
6
7
10
11
9
14
20
22
25
29
35
41
43
42
49
58
57
60
70
75
75
81
91
97
101
105
115
120
122
124
134
138
141
147
151
159
157
155
154
162
159
158
157
164
163
155
150
154
145
140
138
137
130
128
120
118
110
105
100
95
87
84
82
74
67
64
62
56
48
44
41
37
32
28
29
24
21
19
18
16
14
11
11
9
7
5
2
0
1
0
0
0
0
1
0
0
0
0
0
0
0
0
0
0
0
0
0
0
0
0
0
0
0
0
0
0
4
7
7
9
12
14
13
16
24
27
30
32
43
48
50
52
62
70
71
74
84
91
90
97
107
112
113
121
130
138
143
149
159
166
166
172
177
187
185
185
188
194
189
189
188
192
192
183
179
181
169
163
161
159
152
151
143
139
131
124
119
112
104
98
96
87
81
74
72
67
56
53
50
45
39
36
34
29
25
23
19
15
11
9
9
8
6
6
3
0
0
0
0
0
0
0
0
0
0
0
0
0
0
0
0
0
0
0
0
0
0
0
0
0
0
0
0
0
2
5
6
9
13
17
18
21
29
32
35
37
45
50
53
54
63
75
75
80
95
102
102
112
123
130
134
145
153
159
163
169
176
186
189
197
203
213
211
210
214
221
215
214
211
217
215
206
204
208
192
187
189
184
176
173
163
157
149
141
136
127
118
110
107
98
91
83
79
74
64
60
55
51
44
38
37
32
25
23
23
19
13
13
12
10
7
7
6
1
2
3
1
0
0
0
0
0
0
0
0
0
0
0
0
0
0
0
0
0
0
0
0
0
0
0
1
5
7
10
11
12
15
19
20
21
29
31
36
38
51
56
62
65
74
86
88
91
106
113
112
122
135
142
146
158
166
173
178
186
193
203
205
212
219
230
228
229
235
243
237
238
235
240
236
226
223
228
210
205
208
204
194
189
180
173
163
154
150
139
130
120
118
108
100
90
87
80
70
66
62
58
47
41
41
36
29
28
27
22
15
15
13
10
7
7
5
0
1
1
0
0
0
0
0
0
0
0
0
0
0
0
0
0
0
0
0
0
0
0
0
0
1
2
2
6
7
9
8
12
13
16
19
19
27
31
38
42
54
59
66
69
77
89
90
94
108
115
114
126
141
150
153
168
178
185
191
201
206
216
219
226
234
245
241
239
245
252
246
248
249
255
249
241
236
241
221
216
219
216
205
198
192
184
174
161
159
147
137
127
126
117
110
98
94
87
76
70
65
58
49
44
42
36
28
27
26
21
16
15
11
8
6
4
4
0
0
0
0
0
0
0
0
0
0
0
0
0
0
0
0
0
0
0
0
0
0
0
0
0
0
0
0
2
3
7
7
9
11
15
22
21
28
31
37
39
51
55
62
66
71
84
88
93
106
114
113
123
137
141
142
155
165
172
179
190
197
207
210
216
222
231
229
228
234
242
237
237
235
242
236
227
223
229
210
203
207
202
191
184
181
172
164
153
151
140
132
122
120
111
103
94
90
86
75
69
62
57
49
43
42
38
31
27
24
21
16
15
11
11
7
7
8
4
2
0
0
0
0
0
0
0
0
0
0
0
0
0
0
0
0
0
0
0
0
0
0
0
0
0
0
2
2
8
7
10
12
15
21
21
27
30
34
36
44
48
55
59
62
73
77
82
94
101
102
113
127
132
136
147
155
160
163
172
177
186
188
195
201
211
212
210
215
221
216
214
214
220
214
206
202
208
190
183
187
184
173
166
163
155
148
139
138
132
122
112
110
102
92
84
79
73
64
58
52
51
43
37
37
34
26
23
24
20
15
12
8
7
5
3
4
3
1
0
0
0
0
0
0
0
0
0
0
0
0
0
0
0
0
0
0
0
0
0
0
0
0
1
2
5
3
9
9
11
12
15
20
19
22
26
31
33
42
47
53
58
61
70
74
78
88
95
96
104
116
124
126
135
143
147
149
157
164
172
173
180
185
195
196
195
198
204
200
198
201
206
200
193
190
194
179
173
176
171
162
156
155
147
140
129
127
120
111
101
99
93
85
77
75
70
61
55
51
49
42
36
34
32
25
24
22
19
15
12
8
9
7
3
3
2
0
0
0
0
0
0
0
0
0
0
0
0
0
0
0
0
0
0
0
0
0
0
0
2
0
2
3
4
2
8
8
7
9
10
16
15
19
23
27
28
33
38
44
49
52
60
62
65
73
77
77
85
94
100
105
114
121
125
127
134
141
148
149
155
158
165
166
166
169
174
170
169
169
174
171
165
163
167
153
146
150
146
140
134
133
125
119
109
108
101
95
87
85
81
75
68
66
63
55
48
44
42
35
30
27
26
19
18
15
13
9
7
3
4
4
1
2
2
1
0
0
0
0
0
0
2
0
0
0
0
0
0
0
0
0
0
0
0
0
0
0
0
0
0
0
1
0
4
4
2
5
8
12
11
16
19
24
24
28
32
35
37
39
47
50
53
59
65
65
70
76
79
83
88
93
97
100
105
113
119
119
125
127
133
132
132
134
138
134
133
133
135
133
128
127
131
119
114
118
115
109
105
103
98
91
86
86
81
75
70
69
65
57
52
49
48
42
37
34
33
27
23
22
24
18
16
13
14
10
10
7
8
8
4
5
6
3
1
1
0
0
0
0
0
0
0
0
0
0
0
0
0
0
0
0
0
0
0
0
0
0
0
0
0
0
2
3
4
7
10
13
13
15
19
23
22
24
30
32
31
33
41
45
48
56
62
62
69
74
76
81
86
90
92
94
97
103
108
108
114
117
123
123
125
128
130
124
124
124
125
124
119
119
119
110
105
109
104
99
94
93
89
85
81
79
74
68
65
63
61
53
48
45
43
37
33
32
30
24
22
21
22
17
15
12
13
9
9
6
5
6
2
1
1
0
0
0
0
0
0
0
0
0
0
0
0
0
0
0
0
0
0
0
0
0
0
0
0
0
0
0
2
0
4
7
7
8
9
11
10
13
15
20
20
20
25
29
29
31
39
41
41
48
52
52
58
63
65
71
75
79
80
84
85
91
94
96
102
104
108
107
109
111
114
111
111
111
111
111
106
106
106
100
96
100
97
93
87
87
82
77
73
70
64
59
55
54
51
44
39
39
39
32
30
29
26
21
20
18
19
15
13
10
11
8
7
5
5
5
3
3
2
1
1
1
0
0
0
0
0
0
0
0
0
0
0
0
0
0
0
0
0
0
0
0
0
0
0
0
1
1
2
5
4
5
4
7
6
7
8
13
12
12
19
22
24
24
31
33
32
36
38
37
41
46
45
52
56
59
60
66
68
73
74
75
78
79
82
81
83
86
88
85
85
86
85
85
79
79
79
74
70
76
75
72
68
67
62
57
55
53
50
46
44
42
41
34
32
32
32
26
26
26
21
17
16
14
13
10
9
8
9
5
4
3
1
2
1
0
1
0
0
0
2
0
3
0
1
0
0
0
0
0
0
0
0
0
0
0
0
0
0
0
0
0
0
0
0
0
0
1
1
0
0
4
5
6
9
16
14
13
20
22
23
22
28
31
29
33
35
35
37
41
39
46
49
51
51
56
59
63
63
65
69
69
71
69
71
73
74
71
73
75
74
72
68
69
69
65
62
65
63
60
56
56
51
48
47
46
45
42
41
39
38
29
29
27
25
18
18
18
14
14
15
14
12
11
9
6
9
7
4
3
4
3
2
2
4
2
2
0
2
0
0
0
0
0
0
0
0
0
0
0
1
0
0
0
0
0
0
0
0
0
1
0
0
0
0
0
1
2
3
7
7
7
8
13
11
10
15
17
17
16
22
24
23
29
32
34
38
41
38
45
46
45
45
49
52
55
55
57
63
63
64
65
68
69
68
68
68
69
68
69
63
65
64
59
55
56
50
49
48
49
45
46
44
42
39
38
34
30
31
26
26
26
24
18
20
20
17
15
15
13
11
9
8
6
8
6
4
5
5
2
2
2
2
0
0
0
1
0
0
0
0
0
0
0
0
0
0
0
0
0
0
0
0
0
0
0
0
0
1
2
2
0
4
4
4
4
5
7
5
7
7
13
10
9
13
16
16
15
20
21
19
22
24
26
29
31
30
36
40
39
41
43
46
45
44
43
51
50
51
53
55
54
52
54
55
56
56
57
53
53
53
48
46
47
46
47
46
46
40
39
36
34
31
32
28
26
26
22
22
23
19
15
16
15
12
10
11
10
8
6
7
4
6
5
4
5
4
0
0
0
0
0
0
0
2
0
1
0
0
0
0
0
0
0
0
0
1
0
0
0
0
0
0
0
0
0
1
2
3
1
3
3
3
2
3
5
2
0
2
7
4
6
11
15
14
14
18
18
17
18
19
20
22
23
22
27
30
27
29
33
37
33
34
35
41
39
41
43
43
41
38
40
41
41
40
42
37
38
39
34
35
37
36
36
37
35
31
30
26
25
22
21
19
20
19
17
18
18
16
15
15
13
11
9
9
8
6
3
5
2
3
2
3
3
4
0
0
1
1
0
0
0
0
0
0
0
0
0
0
0
1
1
0
0
0
0
0
2
3
1
1
1
0
0
0
1
1
0
0
0
0
0
1
4
0
1
4
9
5
8
10
13
11
11
12
14
11
12
13
14
14
15
14
18
21
18
19
21
25
21
24
26
31
27
29
29
29
29
27
30
32
32
30
34
31
30
28
26
27
28
27
27
27
25
22
23
20
21
18
18
15
17
15
13
11
10
8
8
8
5
6
4
6
5
4
2
5
1
2
0
1
2
1
0
3
5
3
3
3
2
1
0
0
0
0
0
0
0
0
0
0
0
1
0
0
0
0
0
0
0
0
0
0
0
0
0
0
0
0
1
3
6
2
3
3
6
1
3
3
6
5
5
7
10
11
12
14
14
17
16
14
17
20
14
17
20
21
18
23
22
26
23
25
25
27
26
26
29
29
28
24
28
27
26
23
23
23
21
19
19
19
18
18
20
17
17
15
14
11
13
12
11
10
9
10
9
9
6
8
5
6
4
3
1
5
6
5
2
6
5
0
0
4
1
0
0
0
0
0
0
0
0
0
0
0
0
3
1
0
0
1
0
0
0
0
0
0
0
0
0
0
0
1
1
1
2
2
1
1
5
2
3
3
6
1
4
4
6
5
5
4
6
8
8
9
11
13
11
13
16
18
15
17
19
19
14
19
17
17
14
19
19
22
22
22
23
24
22
19
22
22
21
19
20
21
18
17
17
17
15
15
14
12
13
12
12
10
11
10
11
9
8
10
9
7
4
6
3
5
4
1
1
6
5
3
3
6
3
0
0
2
0
0
0
1
0
0
0
0
0
0
0
1
0
2
1
0
0
3
1
0
0
1
0
0
1
3
3
1
2
3
3
2
5
3
3
0
2
0
1
0
2
0
0
1
3
4
6
4
3
3
5
2
5
6
6
6
8
9
7
8
8
8
5
11
13
11
9
13
12
12
12
11
10
12
10
6
9
12
10
9
11
14
12
12
12
13
11
10
9
7
7
5
6
5
4
5
5
4
1
6
4
4
2
5
2
4
1
0
0
3
1
1
0
1
1
0
0
3
0
0
0
1
2
1
0
2
0
0
2
2
1
3
1
0
0
0
1
0
1
3
1
0
0
1
0
0
0
0
0
0
0
0
2
0
0
0
1
0
2
0
1
0
0
2
4
3
3
3
4
3
3
3
2
2
3
2
2
4
4
3
4
7
7
7
5
8
8
8
8
7
6
9
8
5
7
10
8
5
6
8
5
5
6
9
7
7
6
4
3
5
6
5
3
4
2
2
0
4
3
2
1
3
1
2
1
1
0
3
2
0
0
1
0
0
0
1
0
0
0
2
2
4
1
3
0
0
0
0
0
0
0
0
1
0
1
0
1
0
0
0
0
1
0
0
1
0
0
0
1
0
3
0
1
0
3
2
4
2
2
1
0
0
2
2
2
3
5
4
5
7
6
7
8
6
3
7
6
4
6
8
6
5
3
4
5
5
5
7
7
9
8
6
7
9
8
8
7
10
6
5
2
4
2
2
3
5
6
4
5
5
4
7
6
6
5
4
3
2
1
2
0
1
1
3
0
2
1
0
1
4
3
0
2
1
0
0
0
1
0
0
0
0
0
0
0
1
1
2
1
0
1
0
1
0
1
0
0
0
0
0
0
2
3
3
2
3
4
0
4
1
1
0
2
1
1
0
1
2
0
0
2
0
0
0
1
2
4
3
3
5
6
4
4
7
8
4
5
3
5
3
4
6
7
5
7
8
6
8
6
5
6
7
5
5
2
5
4
4
2
5
3
2
2
6
5
2
4
5
4
4
4
3
3
3
3
2
2
2
0
0
0
2
0
2
0
0
0
0
2
1
3
0
0
0
0
2
0
1
0
1
0
0
0
0
0
1
1
0
2
0
0
0
1
0
0
1
2
2
0
2
2
0
0
2
3
0
2
2
1
0
1
0
0
0
0
1
1
0
2
1
1
0
2
1
1
2
1
3
5
3
2
4
5
0
1
0
3
1
2
4
5
2
4
5
1
1
0
0
0
3
1
1
2
2
1
3
5
6
4
2
2
2
2
0
1
2
3
1
1
1
1
0
0
0
0
1
0
0
1
3
0
1
0
0
0
0
0
0
0
0
0
0
0
0
0
1
0
3
0
3
2
2
1
1
1
0
3
0
0
1
0
0
2
2
1
0
0
0
0
0
0
0
0
0
0
1
1
0
0
0
1
0
0
3
4
1
2
4
4
3
3
4
4
1
0
0
3
0
0
0
1
0
0
0
2
0
0
0
2
0
0
2
0
0
0
0
0
2
0
0
1
1
0
0
2
3
0
0
0
2
0
0
0
0
1
0
0
1
2
0
1
1
0
1
1
0
0
1
0
1
0
0
1
0
0
0
1
0
0
2
2
3
0
2
0
1
0
0
0
0
0
0
0
1
3
0
0
1
0
0
2
2
1
1
0
1
0
0
0
1
0
0
0
0
0
1
0
2
3
0
0
0
1
0
0
0
0
0
0
0
3
1
0
0
2
0
0
2
2
0
0
1
2
0
0
0
0
0
0
0
0
0
0
2
2
2
0
0
3
2
0
0
0
0
0
0
0
1
2
0
0
1
0
0
0
0
2
0
0
0
0
0
0
0
0
0
0
0
0
0
0
0
0
3
4
2
2
1
1
2
0
1
0
2
0
0
2
2
1
1
3
0
0
0
0
0
0
0
1
0
0
0
0
2
2
1
2
5
1
0
0
2
2
1
0
2
3
0
0
0
0
0
0
0
0
0
0
0
2
1
0
1
4
0
0
3
3
0
0
3
6
0
1
4
5
0
1
2
2
0
0
0
0
0
0
0
1
0
0
0
2
0
0
0
0
0
0
0
2
3
0
0
0
0
0
0
2
2
0
0
0
0
0
0
1
2
0
3
4
0
0
0
0
0
0
0
0
1
0
0
0
0
0
0
1
2
1
0
2
2
4
1
0
0
0
0
2
1
0
2
2
3
2
0
0
1
0
0
0
3
2
0
0
0
2
0
0
1
2
0
0
2
2
2
0
0
1
1
0
1
5
0
0
2
1
0
0
2
0
0
0
0
2
0
0
1
1
0
0
0
0
0
0
0
2
0
0
0
1
0
0
0
0
0
0
0
0
0
0
0
1
0
1
0
1
2
0
0
1
0
0
0
1
0
0
1
2
0
0
0
0
0
0
0
0
0
0
0
0
1
2
0
3
4
2
0
2
2
3
1
0
1
1
0
1
0
0
2
2
2
0
0
0
0
0
0
1
2
0
0
0
0
1
0
0
1
2
0
0
1
0
0
0
0
0
0
0
0
0
0
0
0
0
0
0
1
0
0
0
0
0
0
0
0
0
0
0
0
0
0
0
0
1
0
0
0
0
0
0
0
0
0
0
0
0
0
0
0
0
0
0
0
0
0
0
0
0
0
0
0
2
0
0
0
0
0
0
1
2
2
2
1
0
0
1
0
0
0
0
0
0
0
0
0
0
0
0
0
0
0
2
1
1
0
0
0
0
0
0
0
0
0
0
0
0
0
0
0
0
1
2
0
0
0
0
0
0
0
0
0
0
0
0
0
0
0
0
0
0
0
0
0
0
0
0
0
0
0
0
0
0
0
0
0
0
0
0
0
0
0
0
0
0
0
0
0
0
0
0
0
0
0
0
0
0
2
2
0
1
0
0
0
0
0
0
1
0
0
1
0
0
0
0
0
0
0
0
2
2
2
1
2
2
1
0
2
1
0
1
1
0
0
0
0
1
1
0
0
1
0
0
0
2
1
0
1
2
1
0
2
1
2
0
0
0
0
0
1
1
0
0
1
0
0
0
0
0
0
0
0
0
0
0
0
1
0
0
0
0
0
0
1
0
0
0
2
0
0
0
0
0
0
0
0
0
0
0
0
0
0
0
0
0
0
0
0
0
0
0
0
0
0
0
0
0
0
0
0
0
0
0
0
2
1
0
0
2
2
1
1
1
0
0
0
0
1
0
1
1
2
2
2
0
0
0
0
1
2
0
0
0
2
2
2
0
0
2
2
0
0
1
0
0
0
2
0
0
1
2
2
0
0
0
0
0
2
1
0
0
1
0
0
0
0
0
0
0
2
2
1
0
0
2
0
0
1
1
0
0
0
0
0
0
0
0
0
0
0
0
0
0
0
0
0
0
0
0
0
0
0
0
0
0
0
0
0
0
0
0
0
2
2
3
0
2
0
0
0
2
0
1
1
1
0
0
0
0
0
0
0
1
0
0
0
0
0
0
0
0
1
1
2
1
1
2
1
0
0
0
0
0
0
0
1
3
2
0
0
1
0
0
0
0
0
0
0
0
0
0
0
0
0
0
1
0
0
0
0
0
1
0
1
0
0
0
0
0
0
0
0
0
0
0
0
0
0
0
0
0
0
0
0
0
0
0
0
0
0
0
0
0
0
0
0
0
0
0
0
0
0
0
0
0
0
0
0
1
0
0
0
0
0
0
0
0
0
0
0
0
0
1
0
2
1
0
0
0
1
0
0
0
1
0
0
1
1
0
2
0
0
0
0
0
0
0
0
0
0
0
0
0
0
2
2
0
0
0
0
0
0
0
0
0
0
0
2
0
2
1
3
0
2
1
1
0
1
0
0
0
0
0
0
0
0
0
0
0
0
0
0
0
0
0
0
0
0
0
0
0
0
0
0
0
0
0
0
0
0
0
0
0
0
0
0
0
0
0
0
0
0
0
0
0
0
0
0
0
0
0
0
0
0
0
0
0
0
0
0
0
0
0
0
0
0
1
1
2
2
2
3
2
1
2
1
0
2
0
2
1
2
1
1
0
0
0
1
1
0
0
0
1
3
0
0
2
0
1
0
1
0
0
0
1
2
0
1
0
0
0
0
0
0
0
0
0
0
0
0
0
0
0
0
0
0
0
0
0
0
0
0
0
0
0
0
0
0
0
0
0
0
0
0
0
0
0
0
0
0
0
0
0
0
0
0
0
0
0
0
0
0
0
0
0
0
0
0
0
0
0
0
0
0
0
0
0
0
0
0
1
0
0
2
2
3
2
0
0
0
0
0
0
1
0
1
2
1
0
2
1
0
0
1
0
1
2
1
0
0
0
2
0
0
1
0
1
1
3
2
0
1
0
0
0
4
0
3
0
0
0
0
0
0
0
0
0
0
0
0
1
2
0
0
0
0
0
0
0
0
0
0
0
0
0
0
0
0
0
0
0
0
0
0
0
0
0
0
0
0
0
0
0
0
0
0
0
0
0
0
0
0
1
0
0
0
1
0
0
0
0
0
0
0
0
0
0
0
0
0
0
2
1
1
0
0
0
0
0
0
0
0
0
0
0
0
0
0
0
0
2
3
2
1
3
2
1
0
0
0
0
0
0
0
2
1
1
1
0
0
0
0
0
3
0
1
0
0
0
0
0
0
0
2
0
0
0
0
0
0
0
0
0
0
0
0
0
0
0
0
0
0
0
0
0
0
0
0
0
0
0
0
0
0
0
0
0
0
0
0
0
0
0
0
0
0
0
0
0
0
0
0
0
0
0
0
0
0
0
0
0
0
0
1
0
0
0
0
0
1
1
1
0
0
0
0
2
1
4
1
0
0
1
0
1
1
0
0
0
0
0
0
1
0
1
0
0
0
0
0
0
0
0
0
0
0
0
0
0
0
0
2
0
0
0
1
0
0
0
0
0
0
0
0
0
0
0
0
0
0
0
0
0
0
0
0
0
0
0
0
0
0
0
0
0
0
0
0
0
0
0
0
0
0
0
0
0
0
0
0
0
0
0
0
0
0
0
0
0
0
0
0
0
0
0
0
0
0
0
0
0
1
0
0
0
0
0
1
0
1
1
1
1
1
2
0
2
1
1
1
3
2
3
1
0
0
0
0
0
0
0
0
1
0
0
1
1
1
1
1
1
1
1
2
0
3
0
0
0
1
0
0
0
0
0
0
0
0
0
0
0
0
0
0
0
0
0
0
0
0
0
0
0
0
0
0
0
0
0
0
0
0
0
0
0
0
0
0
0
0
0
0
0
0
0
0
0
0
0
0
0
0
0
0
0
0
0
0
0
0
0
0
0
0
0
0
0
0
0
2
0
0
1
3
0
1
0
1
0
0
0
0
0
0
2
0
2
2
2
1
3
0
1
0
1
0
4
0
0
2
3
0
0
0
0
0
0
1
1
2
1
2
0
1
0
0
0
1
0
0
0
0
0
0
0
0
0
0
0
0
0
0
0
0
0
0
0
0
0
0
0
0
0
0
0
0
0
0
0
0
0
0
0
0
0
0
0
0
0
0
0
0
0
0
0
0
0
0
0
0
0
0
0
0
0
0
0
0
0
0
0
0
0
0
0
0
0
0
0
0
0
0
0
0
0
0
1
0
0
0
0
0
0
0
0
0
0
0
0
0
0
0
2
2
6
0
0
1
3
0
0
0
0
0
1
2
2
3
0
1
0
2
0
0
0
0
0
0
0
1
0
0
0
0
0
1
0
0
0
0
0
0
0
0
0
0
0
0
0
0
0
0
0
0
0
0
0
0
0
0
0
0
0
0
0
0
0
0
0
0
0
0
0
0
0
0
0
0
0
0
0
0
0
0
0
0
0
0
0
0
0
0
0
0
0
2
1
0
0
1
0
0
0
1
1
0
0
0
0
0
1
0
1
1
0
2
2
0
0
1
2
2
5
0
0
0
1
0
0
0
0
0
0
0
0
0
0
0
0
0
0
0
0
0
0
0
0
0
0
0
0
0
0
0
0
0
0
0
0
0
0
0
0
0
0
0
0
0
0
0
0
0
0
0
0
0
0
0
0
0
0
0
0
0
0
0
0
0
0
0
0
0
0
0
0
0
0
0
0
0
0
0
0
0
0
0
0
0
0
0
0
0
0
0
0
0
0
2
0
0
1
2
3
0
2
1
1
0
0
0
0
1
0
4
4
1
0
1
0
0
2
0
0
0
0
0
0
3
1
0
0
1
0
0
0
1
0
0
2
0
0
0
1
1
0
0
0
0
0
0
0
0
0
0
0
0
0
0
0
0
0
0
0
0
0
0
0
0
0
0
0
0
0
0
0
0
0
0
0
0
0
0
0
0
0
0
0
0
0
0
0
0
0
0
0
0
0
0
0
0
0
0
0
0
0
0
0
0
0
0
0
0
0
0
0
1
0
0
0
0
1
0
2
1
2
1
2
3
1
2
0
3
2
2
1
3
2
3
4
0
0
0
0
0
0
2
3
2
0
1
0
0
0
2
3
1
1
0
0
0
0
0
0
0
0
0
0
0
0
0
0
0
0
1
0
0
0
0
0
0
0
0
0
0
0
0
0
0
0
0
0
0
0
0
0
0
0
0
0
0
0
0
0
0
0
0
0
0
0
0
0
0
0
0
0
0
0
0
0
0
0
0
0
0
0
0
0
0
0
0
0
0
0
1
0
0
3
1
1
0
0
0
0
0
0
1
0
0
0
0
0
0
0
0
0
0
0
3
3
0
0
0
0
0
1
1
0
0
0
0
0
1
2
1
0
0
0
0
0
0
0
1
0
0
0
0
0
0
0
0
0
0
0
0
0
0
0
0
0
0
0
0
0
0
0
0
0
0
0
0
0
0
0
0
0
0
0
0
0
0
0
0
0
0
0
0
0
0
0
0
0
0
0
0
0
0
0
0
0
0
0
0
0
0
0
0
0
0
0
0
0
1
0
0
1
0
0
0
0
0
0
0
1
1
0
1
1
0
2
0
0
1
2
0
0
0
0
0
0
0
0
0
2
0
0
0
0
0
0
0
0
0
0
0
0
0
0
0
0
0
0
0
0
0
0
1
2
0
0
0
0
0
0
0
0
0
0
0
0
0
0
0
0
0
0
0
0
0
0
0
0
0
0
0
0
0
0
0
0
0
0
0
0
0
0
0
0
0
0
0
0
0
0
0
0
0
0
0
0
0
0
0
0
0
0
0
0
0
0
0
0
0
0
2
1
1
5
5
1
0
0
0
0
0
1
2
3
0
0
0
0
0
0
0
0
0
1
2
3
1
1
0
0
0
0
1
0
0
1
2
1
2
2
0
1
0
0
0
0
0
0
0
0
0
0
0
0
0
0
0
0
0
0
0
0
0
0
0
0
0
0
0
0
0
0
0
0
0
0
0
0
0
0
0
0
0
0
0
0
0
0
0
0
0
0
0
0
0
0
0
0
0
0
0
0
0
0
0
0
0
0
0
0
0
0
0
0
0
0
0
2
2
0
0
1
3
0
0
3
2
1
0
0
1
2
0
2
3
3
1
2
2
1
1
1
2
1
0
1
2
1
0
3
4
1
1
2
3
0
0
0
0
0
0
0
0
0
0
0
0
0
0
0
0
0
1
0
0
0
0
0
0
0
0
0
0
0
0
0
0
0
0
0
0
0
0
0
0
0
0
0
0
0
0
0
0
0
0
0
0
0
0
0
0
0
0
0
0
0
0
0
0
0
0
0
0
0
0
0
0
0
2
0
0
2
3
0
0
3
3
1
0
0
3
0
0
2
0
0
0
0
0
0
0
0
0
0
0
1
3
3
0
2
2
0
0
0
1
0
0
1
2
0
0
0
1
0
0
0
0
1
0
0
1
2
0
0
0
0
0
0
0
0
0
0
0
1
0
0
0
0
0
0
0
0
0
0
0
0
0
0
0
0
0
0
0
0
0
0
0
0
0
0
0
0
0
0
0
0
0
0
0
0
0
0
0
0
0
0
0
0
0
0
0
0
0
0
0
0
0
0
0
0
0
0
0
0
1
0
0
0
2
0
0
1
3
0
0
0
3
0
0
2
3
0
0
2
0
0
0
0
2
1
0
1
3
1
0
1
1
0
0
0
2
0
0
0
0
0
0
0
0
0
0
0
0
0
0
0
0
0
0
0
0
0
0
0
0
0
0
0
0
0
0
0
0
0
0
0
0
0
0
0
0
0
0
0
0
0
0
0
0
0
0
0
0
0
0
0
0
0
0
0
0
0
0
0
0
0
0
0
0
0
2
0
0
0
1
0
0
0
0
0
0
0
2
1
0
1
4
1
0
2
7
1
0
0
5
0
0
4
4
0
1
4
0
0
1
0
2
0
0
0
0
0
0
0
0
0
0
1
1
0
1
1
0
1
0
0
0
0
0
1
0
0
0
0
0
0
0
0
0
0
0
0
0
0
0
0
0
0
0
0
0
0
0
0
0
0
0
0
0
0
0
0
0
0
0
0
0
0
0
0
0
0
0
0
0
0
0
0
0
0
0
0
0
0
0
0
0
0
0
0
0
0
0
0
0
0
3
0
0
3
2
1
0
0
1
0
0
0
4
0
0
1
4
0
0
4
2
0
0
2
0
1
2
0
2
1
0
1
2
0
0
2
2
0
0
1
0
0
0
0
0
0
0
0
0
0
0
0
0
0
0
0
0
0
0
0
0
0
0
0
0
0
0
0
0
0
0
0
0
0
0
0
0
0
0
0
0
0
0
0
0
0
0
0
0
0
0
0
0
0
0
0
0
0
0
0
0
0
0
0
0
0
0
0
0
0
0
0
0
0
0
0
0
1
3
0
0
1
0
0
0
0
2
0
0
0
4
0
0
0
3
0
0
3
2
0
0
3
0
2
3
0
1
1
0
0
0
0
1
4
3
0
0
0
1
0
0
0
0
0
0
0
0
0
0
1
0
0
0
0
0
0
0
0
0
0
0
0
0
0
0
0
0
0
0
0
0
0
0
0
0
0
0
0
0
0
0
0
0
0
0
0
0
0
0
0
0
0
0
0
0
0
0
0
0
0
0
0
0
0
0
0
0
0
0
0
0
0
0
0
0
0
0
0
0
0
0
0
0
1
2
1
0
0
2
0
0
1
2
0
0
1
2
0
0
2
0
0
1
0
0
1
0
0
0
0
0
3
2
0
0
1
2
0
0
2
1
0
0
1
0
0
0
0
0
0
0
0
0
0
0
0
0
0
0
0
0
0
0
0
0
0
0
0
0
0
0
0
0
0
0
0
0
0
0
0
0
0
0
0
0
0
0
0
0
0
0
0
0
0
0
0
0
0
0
0
0
0
0
0
0
0
0
0
0
0
0
0
0
0
0
0
0
1
0
0
0
0
1
1
0
1
1
0
0
1
1
0
0
2
2
1
2
3
0
0
2
0
0
0
0
0
0
0
1
3
0
0
0
0
0
0
0
1
3
1
0
3
0
0
0
2
2
0
0
0
0
0
0
0
0
0
0
0
0
0
0
0
0
0
0
0
0
0
0
0
0
0
0
0
0
0
0
0
0
0
0
0
0
0
0
0
0
0
0
0
0
0
0
0
0
0
0
0
0
0
0
0
0
0
0
0
0
0
0
0
0
1
2
0
1
4
2
1
1
0
0
0
0
1
0
0
0
0
0
0
0
0
1
0
0
0
0
0
3
3
1
2
0
0
0
0
0
2
0
0
0
0
0
0
0
0
2
0
0
0
0
0
0
0
0
0
0
0
0
0
0
0
0
0
0
0
0
0
0
0
0
0
0
0
0
0
0
0
0
0
0
0
0
0
0
0
0
0
0
0
0
0
0
0
0
0
0
0
0
0
0
0
0
0
0
0
0
0
0
0
0
0
0
0
0
0
0
0
0
0
0
0
0
0
0
0
0
1
2
1
0
2
2
0
2
2
2
1
1
0
2
0
0
0
0
0
1
2
0
0
0
3
1
1
3
5
2
1
2
0
1
0
0
0
0
0
0
0
0
0
0
0
0
0
0
0
0
0
0
0
0
0
0
0
0
0
0
0
0
0
0
0
0
0
0
0
0
0
0
0
0
0
0
0
0
0
0
0
0
0
0
0
0
0
0
0
0
0
0
0
0
0
0
0
0
0
0
0
0
0
0
0
0
0
1
0
1
1
1
0
0
1
0
0
0
2
2
0
0
1
0
0
0
1
0
0
0
0
1
0
0
3
0
0
1
2
0
0
0
3
1
0
0
3
0
0
3
1
2
2
0
1
4
1
0
0
0
0
0
0
1
0
0
0
0
0
0
0
0
0
0
0
0
0
0
0
0
0
0
0
0
0
0
0
0
0
0
0
0
0
0
0
0
0
0
0
0
0
0
0
0
0
0
0
0
0
0
0
0
0
0
0
0
0
0
0
0
0
0
0
0
0
0
0
0
0
0
0
0
0
0
0
0
0
0
0
0
1
2
0
0
0
0
0
0
0
2
1
1
5
1
0
1
3
0
0
0
3
2
0
1
3
1
0
1
0
0
0
0
0
2
0
0
0
0
0
0
0
0
0
0
0
0
0
0
0
0
0
0
0
0
0
0
0
0
0
0
0
0
0
0
0
0
0
0
0
0
0
0
0
0
0
0
0
0
0
0
0
0
0
0
0
0
0
0
0
0
0
0
0
0
0
0
0
0
0
0
0
0
0
0
0
0
0
0
0
0
2
1
0
0
3
2
0
0
2
4
0
0
1
2
0
0
0
5
0
0
3
0
0
1
4
0
0
2
2
0
0
0
1
0
0
0
0
0
0
0
0
2
0
0
0
0
0
0
0
0
0
0
0
0
0
0
0
0
0
0
0
0
0
0
0
0
0
0
0
0
0
0
0
0
0
0
0
0
0
0
0
0
0
0
0
0
0
0
0
0
0
0
0
0
0
0
0
0
0
0
0
0
0
0
0
0
0
0
0
1
0
0
0
1
0
0
0
0
2
0
0
0
3
2
0
0
1
2
0
0
1
2
1
0
0
4
0
0
2
2
0
0
0
0
0
0
2
2
0
3
5
3
1
1
2
2
0
0
0
0
0
0
0
0
0
0
0
0
0
0
0
0
0
0
0
0
0
0
0
0
0
0
0
0
0
0
0
0
0
0
0
0
0
0
0
0
0
0
0
0
0
0
0
0
0
0
0
0
0
0
0
0
0
0
0
0
0
0
0
0
0
0
0
0
0
0
0
0
0
0
0
0
0
0
0
0
1
0
0
0
1
0
0
0
1
3
0
0
0
2
0
0
0
3
0
0
1
2
0
2
4
1
0
2
2
0
0
3
5
2
0
1
3
1
1
0
2
1
0
0
1
1
0
1
0
0
0
0
0
0
0
0
0
0
0
0
0
0
0
0
0
0
0
0
0
0
0
0
0
0
0
0
0
0
0
0
0
0
0
0
0
0
0
0
0
0
0
0
0
0
0
0
0
0
0
0
0
0
0
0
0
0
0
0
0
0
0
0
0
0
0
0
0
0
0
0
0
0
0
0
0
0
2
3
3
1
3
2
1
0
0
4
2
0
0
