P2
# CREATOR: Diamond Light Source Beamline I02
120 116
255
31
40
23
32
55
48
70
34
44
58
52
63
43
50
72
47
54
65
35
53
60
64
28
70
47
40
29
47
61
60
21
21
60
50
55
62
46
58
36
42
33
54
51
51
60
60
49
42
52
56
44
31
36
33
66
54
52
53
26
65
51
45
37
26
33
40
30
32
84
65
45
22
51
39
58
69
53
42
17
36
36
50
69
39
35
59
38
39
30
67
49
70
68
50
37
60
66
56
34
48
76
58
67
36
28
61
53
47
38
45
55
58
30
48
65
65
50
62
85
63
51
42
42
61
49
62
34
26
51
60
59
61
41
47
44
56
65
47
29
24
38
49
49
66
37
64
43
60
51
39
58
44
60
43
48
36
30
52
45
65
52
69
48
36
60
58
67
34
45
65
42
56
58
53
40
49
56
46
50
45
43
55
38
59
46
48
45
47
61
46
41
21
49
31
46
32
44
63
69
51
50
48
39
27
40
45
71
60
30
50
56
61
49
56
53
39
74
64
47
58
42
32
59
15
43
54
65
54
39
42
40
50
9
48
56
40
40
50
58
36
49
59
50
31
57
54
38
29
34
46
49
79
45
68
37
35
49
34
47
57
53
67
69
40
26
57
27
65
37
23
62
56
57
48
41
38
47
50
52
55
64
51
30
4
55
51
44
52
28
57
49
43
60
40
46
32
46
40
46
49
49
43
53
56
62
62
31
32
37
88
57
40
73
60
43
30
41
49
68
45
76
53
24
43
57
52
40
45
52
36
47
26
28
33
53
52
44
27
34
38
48
42
48
68
55
57
32
53
41
63
45
67
56
50
42
42
38
26
40
40
63
55
66
28
49
51
63
57
54
48
38
33
41
60
55
44
45
55
72
55
51
47
39
36
46
58
66
81
49
55
71
37
52
36
31
61
56
71
41
28
44
59
62
45
43
53
46
63
39
52
46
38
74
49
48
62
63
47
42
67
53
55
60
57
68
73
44
56
58
49
66
46
69
59
46
54
74
46
50
34
44
54
48
48
68
58
57
52
38
57
38
36
52
41
53
43
43
37
66
53
41
25
46
78
38
47
42
55
35
37
27
75
73
36
38
55
59
47
37
45
76
64
18
45
58
57
67
61
35
70
68
34
27
56
48
34
53
65
47
46
53
32
48
57
33
42
48
54
18
49
36
41
67
50
85
43
36
37
52
28
36
31
63
59
49
33
58
58
53
45
36
39
55
42
55
46
53
62
33
41
41
23
36
67
32
49
39
49
24
35
22
37
63
34
26
51
50
61
45
39
43
48
62
54
37
50
40
61
68
64
70
60
43
53
42
72
36
50
86
59
68
27
50
77
45
34
29
66
64
50
57
48
63
70
31
56
73
54
44
40
64
53
33
30
36
42
40
41
45
48
47
38
47
75
55
61
44
47
49
38
30
50
57
66
53
44
56
26
45
57
45
45
38
36
55
29
57
69
44
57
45
45
77
70
52
44
45
51
55
49
36
52
43
53
42
45
46
48
58
55
59
38
37
34
18
48
52
56
67
46
35
60
64
42
44
47
65
39
18
32
58
53
43
54
32
57
30
42
42
37
60
63
52
57
48
65
17
31
54
55
44
38
42
64
61
19
46
59
66
60
26
23
59
36
38
51
55
61
35
34
38
52
50
56
72
55
48
27
57
66
43
42
51
56
30
27
38
51
46
43
38
47
57
57
52
47
43
58
59
64
52
49
49
48
70
33
37
54
68
60
36
32
42
62
52
37
54
52
54
50
26
68
58
31
46
72
39
36
50
57
64
61
61
61
46
45
43
65
57
38
39
31
47
52
40
55
62
47
57
65
48
65
46
52
61
39
36
42
57
43
44
59
34
50
37
80
60
43
36
74
38
35
50
45
54
36
44
68
48
38
28
37
61
45
20
44
73
60
33
49
70
62
59
39
73
46
47
36
31
59
59
37
52
56
69
60
45
68
54
67
36
53
69
51
14
57
38
68
60
60
51
38
55
42
55
27
33
47
48
55
49
62
32
49
45
17
42
54
79
39
64
55
36
60
49
38
45
43
56
49
30
39
44
62
70
54
39
57
66
56
73
62
64
64
23
47
44
22
57
60
29
64
56
39
45
62
54
58
44
36
53
46
20
41
24
62
55
46
36
41
56
41
62
48
53
72
44
47
45
52
70
54
72
65
39
37
34
53
8
47
37
40
44
48
71
69
51
64
51
62
58
36
53
38
61
31
47
48
45
50
47
46
37
43
27
57
45
49
40
20
45
38
57
56
58
44
61
57
29
53
22
46
37
55
69
64
53
22
12
53
55
60
42
41
49
67
71
47
54
56
50
42
57
43
58
36
26
47
49
60
46
34
55
59
51
40
50
65
49
49
52
49
7
48
34
66
91
48
56
31
33
68
62
47
41
60
37
49
37
56
54
38
53
41
43
66
44
49
49
39
65
49
56
44
35
64
69
56
51
63
53
34
42
33
34
44
39
45
48
46
44
37
58
50
47
45
49
42
36
36
69
61
42
62
36
78
48
46
46
36
53
41
47
37
58
46
56
18
57
38
52
84
55
48
37
35
67
68
45
40
43
53
49
46
44
34
42
42
39
39
27
49
41
46
62
38
50
32
53
26
34
38
32
42
56
54
39
47
57
43
41
45
44
89
43
24
57
45
37
67
46
71
67
54
41
66
55
68
39
61
72
39
67
44
45
49
47
35
37
28
66
40
48
47
42
55
64
50
47
43
71
50
53
40
39
55
54
50
35
59
34
44
53
40
71
64
59
55
55
35
57
53
50
42
43
64
63
40
47
62
69
44
49
42
48
59
54
73
63
44
50
68
56
41
40
49
69
40
51
58
49
28
43
37
62
41
57
57
61
62
63
56
35
55
55
30
60
50
49
48
34
55
51
53
55
52
50
35
44
60
42
45
57
79
50
34
31
66
36
31
53
64
58
42
44
55
37
55
18
32
63
49
34
44
51
56
43
56
63
45
58
28
21
48
41
47
43
34
47
43
49
47
39
61
37
51
40
38
42
67
49
42
59
45
43
20
57
52
64
17
38
50
31
70
35
41
50
54
45
62
65
56
38
58
42
18
39
35
51
58
28
37
47
54
45
61
44
57
53
45
57
62
38
62
66
50
65
27
31
47
72
53
46
53
63
53
50
68
62
78
56
65
46
48
64
32
72
54
52
70
35
48
66
65
39
19
45
53
24
72
51
56
33
23
41
48
41
54
50
43
47
59
59
39
38
51
48
61
62
56
44
41
64
55
61
59
57
31
54
55
50
66
47
56
61
62
41
63
57
57
65
51
55
59
53
34
53
36
68
52
30
66
48
36
37
64
32
31
47
50
65
64
32
73
58
47
64
45
80
34
40
66
54
47
44
23
31
46
58
52
55
46
55
60
36
32
53
47
44
47
44
50
48
34
50
68
52
34
36
55
59
52
35
49
40
35
47
48
42
31
36
37
49
52
56
44
52
74
56
52
13
40
34
55
34
47
58
53
62
41
52
28
47
59
50
46
45
63
55
43
34
47
69
55
51
30
50
50
56
41
40
51
49
46
56
62
43
42
35
49
53
37
58
45
42
23
58
58
62
38
35
45
52
63
60
47
53
32
36
45
23
27
42
61
33
42
31
58
40
57
37
27
56
48
44
82
59
24
49
45
45
39
37
49
41
50
59
47
60
26
33
57
38
38
49
35
46
45
49
16
52
66
41
46
52
53
53
31
47
55
55
57
35
25
54
52
66
67
69
48
47
63
36
76
77
57
46
50
63
43
58
33
53
73
54
36
8
59
64
56
62
43
45
59
62
45
60
63
45
56
47
31
34
31
40
48
35
42
44
53
41
48
42
40
41
48
38
58
46
35
80
67
53
35
41
53
70
63
49
62
44
55
62
69
54
50
53
33
41
66
53
41
59
46
42
63
55
55
59
46
52
39
64
62
30
40
60
71
51
47
54
59
62
46
51
75
38
38
57
34
37
30
37
65
29
61
57
43
66
66
38
68
44
65
45
50
33
42
40
31
63
78
36
72
44
49
30
48
60
56
49
34
45
39
35
55
29
34
49
15
46
48
55
42
10
35
63
43
72
34
38
73
40
47
39
45
59
63
70
51
43
40
53
58
67
59
58
56
47
49
44
72
43
24
36
59
57
38
73
47
61
40
39
40
65
60
46
63
38
36
66
27
58
36
41
68
32
43
43
46
54
55
47
57
59
57
40
50
58
61
50
53
34
32
32
36
45
63
76
46
53
73
44
80
48
51
46
36
63
56
40
53
43
36
49
61
45
58
31
48
60
46
45
56
32
63
35
45
41
46
59
32
60
55
77
61
60
51
49
27
44
35
66
40
64
31
58
39
46
39
77
58
60
66
63
33
52
46
28
64
51
42
56
40
43
48
42
52
33
36
32
46
61
60
33
61
26
27
57
35
70
47
42
30
18
52
42
50
33
52
63
52
50
55
54
35
44
50
51
59
43
41
41
73
53
52
25
40
46
11
49
60
76
60
53
36
63
86
53
56
51
58
39
38
45
58
39
30
24
47
53
56
42
33
47
43
45
26
36
54
56
41
23
35
36
51
27
51
51
50
77
53
50
42
31
51
61
73
62
77
67
65
38
29
63
54
53
36
54
50
65
55
55
44
43
57
49
51
38
49
52
58
64
47
42
27
42
58
47
40
63
56
43
54
44
42
50
46
44
34
51
51
61
34
61
60
72
49
44
72
45
61
30
57
64
52
42
44
62
48
63
29
27
55
48
48
46
69
56
40
46
30
27
60
51
34
41
12
30
54
39
52
48
33
55
66
50
49
62
58
29
33
57
60
46
56
49
79
71
41
43
59
55
48
67
64
61
62
55
41
34
51
66
41
34
54
29
43
44
38
33
57
69
41
57
54
64
39
41
33
33
25
40
35
47
53
48
36
61
35
36
54
56
71
35
44
52
52
72
37
48
43
34
44
70
55
35
44
55
35
43
42
60
50
53
51
37
40
53
52
30
60
23
62
45
40
59
28
66
49
56
45
49
45
47
51
34
73
47
63
62
44
65
54
46
59
54
55
54
26
29
39
41
59
40
39
65
53
64
43
68
47
58
56
33
62
57
48
44
44
39
60
51
51
48
45
62
48
38
33
43
40
55
34
52
56
32
51
45
46
47
46
38
39
57
43
43
50
35
62
54
31
37
57
51
47
45
44
66
38
52
58
35
31
52
52
63
54
54
62
63
37
47
58
56
59
56
64
65
57
64
50
49
67
56
59
44
51
45
47
31
57
46
38
57
38
33
52
43
40
64
37
58
60
36
34
45
52
50
51
39
39
54
51
62
44
44
68
48
30
53
74
38
61
44
54
44
47
30
30
45
40
68
55
46
49
35
49
44
45
70
47
58
53
43
56
51
44
41
57
52
40
61
48
69
62
54
57
26
60
56
40
53
35
43
36
29
61
48
61
34
63
51
55
78
42
39
55
50
59
38
41
33
66
28
71
48
43
41
39
56
49
47
35
47
39
58
52
65
55
35
41
35
33
40
23
40
35
76
57
50
51
44
47
39
24
77
42
21
40
56
51
62
55
44
59
53
61
47
42
48
45
47
52
36
53
43
57
65
66
71
56
69
50
56
27
27
60
56
54
46
54
43
58
36
29
42
63
61
22
35
48
60
33
40
24
44
48
56
51
73
54
51
41
73
42
52
52
49
64
36
34
54
72
66
35
68
66
57
75
54
66
54
43
61
31
40
49
46
60
54
37
71
52
45
60
34
50
21
53
75
32
48
50
40
48
47
31
44
46
35
49
33
52
61
42
61
51
56
35
48
57
91
56
52
67
61
55
76
39
58
59
42
51
24
56
62
19
35
18
59
67
53
47
43
45
37
58
55
49
36
47
39
54
37
49
46
58
48
46
36
37
33
53
45
29
67
19
63
42
38
68
55
40
74
49
47
31
54
64
61
25
11
32
52
28
40
55
56
72
33
55
41
57
55
53
32
39
48
59
15
45
48
52
24
43
52
41
72
22
61
39
51
81
57
40
43
69
51
38
62
50
57
64
36
46
40
37
32
48
52
52
47
68
49
50
76
59
44
52
36
33
40
34
46
46
51
65
44
45
53
51
41
44
48
54
74
48
60
39
57
48
41
28
51
55
46
15
37
26
41
28
44
40
58
67
47
46
57
65
57
53
43
65
69
46
59
73
49
48
44
41
55
55
38
73
79
37
36
58
59
51
47
50
48
65
50
36
54
45
48
31
55
66
49
49
39
44
38
24
37
66
41
66
48
49
62
55
79
32
45
38
41
52
34
44
47
58
48
31
46
57
53
44
54
56
61
63
40
59
56
61
52
58
38
40
36
60
41
41
46
45
50
37
45
23
58
37
42
42
50
59
46
59
33
60
59
54
62
67
70
43
58
31
62
78
49
42
75
71
63
38
35
44
48
45
68
43
53
55
54
61
56
47
52
42
43
31
61
59
53
61
39
42
35
15
61
40
36
30
59
61
52
54
49
36
50
63
38
35
52
43
55
49
38
27
35
69
55
48
39
54
38
40
47
66
31
37
43
41
65
35
53
48
45
41
54
44
80
47
44
42
45
40
49
58
65
55
44
56
65
70
50
37
46
61
44
49
26
41
45
67
58
52
66
53
33
49
38
65
37
41
56
31
30
58
42
25
16
37
55
29
52
45
71
55
39
46
34
60
67
64
53
55
59
44
60
51
21
44
45
41
45
40
51
56
69
37
38
39
53
50
27
45
39
53
89
31
44
52
54
32
57
73
62
47
55
41
57
62
55
43
49
34
38
54
50
83
66
64
52
85
46
46
54
50
64
48
37
68
56
39
49
43
80
39
46
44
74
42
33
45
60
17
36
50
43
55
27
64
16
28
40
35
59
42
54
40
47
85
58
53
53
31
65
59
43
70
20
47
58
68
60
53
49
58
24
67
69
49
47
39
45
40
62
57
41
27
36
62
42
48
58
35
52
30
38
53
41
49
51
55
40
19
31
31
69
51
40
48
49
63
69
62
37
30
70
43
46
63
48
51
31
33
49
49
55
26
50
64
50
34
53
70
60
47
62
43
58
40
52
62
45
16
63
52
34
38
30
80
55
54
29
55
54
47
58
24
30
52
59
47
48
54
60
57
37
58
34
49
57
34
45
49
68
47
70
53
47
62
43
38
38
70
50
50
33
63
62
66
39
23
55
45
52
63
30
61
47
44
37
56
68
42
20
56
43
56
44
55
38
54
52
49
40
47
54
63
57
39
49
43
72
48
54
71
47
56
47
36
58
53
60
54
60
39
42
66
59
34
70
42
47
47
31
58
50
38
35
65
63
26
59
73
53
30
31
36
30
38
40
47
55
31
42
63
57
29
58
60
63
48
34
40
45
60
44
48
53
44
54
39
54
52
57
50
41
35
50
56
56
63
50
38
44
53
37
56
51
36
50
38
19
54
30
51
41
49
59
64
43
38
40
77
53
53
55
57
57
41
47
54
74
69
15
61
47
68
51
22
41
32
59
43
33
64
66
60
50
36
61
53
61
49
39
54
53
57
35
43
57
23
49
42
36
79
54
53
39
50
50
39
41
38
63
58
59
30
54
49
57
23
22
44
53
54
45
52
23
20
52
64
68
53
47
75
71
41
49
35
62
53
25
62
54
54
54
50
58
58
52
59
50
62
41
37
40
26
68
70
62
56
58
44
41
39
43
42
45
38
50
57
39
68
58
46
38
65
47
64
34
27
38
54
34
21
28
56
63
65
55
54
43
55
32
52
59
79
67
52
49
57
53
56
45
44
31
65
42
30
59
49
65
31
25
62
55
54
57
66
46
50
50
34
61
30
39
41
42
33
41
56
74
55
57
46
67
32
52
31
64
56
33
60
68
56
59
57
60
58
55
61
19
48
17
50
53
44
40
31
56
69
35
31
46
50
52
36
67
67
59
31
26
44
73
73
39
63
76
25
31
44
57
42
32
48
65
64
33
47
46
59
48
50
61
66
32
13
40
58
45
60
48
50
55
36
48
52
33
32
18
46
53
49
24
27
57
43
44
45
39
36
56
46
43
35
46
36
47
24
28
43
46
39
61
26
31
40
43
39
42
76
45
45
52
49
62
34
48
44
39
77
42
40
43
58
62
55
33
74
49
47
56
46
14
61
53
67
82
53
57
58
35
69
45
22
46
49
29
42
49
47
72
65
29
57
44
39
49
25
58
33
64
31
65
47
33
57
42
39
19
44
77
66
36
42
48
66
37
65
62
90
51
13
37
82
70
23
38
74
65
52
28
76
56
48
59
69
62
59
33
59
44
52
73
55
46
40
23
60
46
59
55
49
45
57
56
61
62
69
64
41
56
49
60
40
43
35
46
49
62
45
55
42
53
45
71
55
20
58
57
46
39
41
50
35
52
55
43
30
38
55
52
59
52
36
41
49
45
29
43
49
55
48
42
55
62
76
69
45
36
45
45
38
39
77
42
48
41
38
57
20
51
51
52
47
49
41
63
63
40
29
64
45
42
55
66
66
27
29
38
46
39
17
44
58
64
40
29
46
58
39
39
58
50
44
36
54
39
65
36
42
57
36
74
62
20
52
29
50
64
48
55
51
58
40
32
59
57
60
60
27
61
48
74
65
50
53
51
44
30
38
49
54
44
54
65
55
55
67
55
36
60
51
44
53
36
51
52
55
55
46
50
71
32
55
30
45
54
46
19
41
59
60
65
32
45
59
46
65
49
65
51
40
55
74
53
23
37
61
89
40
54
55
68
25
33
36
59
51
52
65
75
62
31
17
56
52
26
26
48
69
63
22
53
63
69
45
49
64
57
26
29
55
44
70
33
54
52
46
50
38
69
41
51
65
42
61
61
76
54
38
37
43
63
53
47
44
41
46
44
64
37
57
56
55
53
68
71
35
61
58
45
57
32
28
40
38
44
48
34
43
56
48
55
70
37
44
56
57
41
47
45
33
69
54
37
41
19
42
67
38
78
50
39
45
53
44
55
32
35
41
46
51
33
53
50
55
41
59
46
65
70
22
57
42
36
44
41
74
60
39
56
47
36
24
60
64
61
44
43
66
68
35
42
56
51
43
37
61
59
36
23
68
51
58
23
30
47
72
67
41
39
46
37
66
41
46
47
54
29
49
51
37
45
43
23
36
36
37
49
18
29
43
29
11
39
48
68
62
46
61
39
43
64
54
41
36
59
59
37
35
48
51
50
45
33
35
55
58
56
46
67
47
40
59
54
70
46
55
46
38
37
57
47
32
41
46
47
72
50
43
52
46
40
37
54
62
42
29
42
35
19
18
80
59
64
66
27
57
18
22
60
54
62
56
59
46
68
44
40
52
62
57
83
26
44
42
44
39
55
62
40
68
44
52
53
55
43
41
56
44
38
47
27
43
18
59
63
54
27
26
68
63
60
50
64
71
56
38
60
70
56
57
70
51
33
27
59
51
48
40
42
58
69
88
46
33
45
54
64
37
44
33
49
58
49
45
60
55
45
44
43
53
38
35
49
65
78
70
45
43
49
54
59
52
35
40
35
60
36
57
70
38
55
33
42
64
55
51
59
67
61
58
67
48
33
62
53
29
49
47
41
45
56
53
24
44
58
50
41
44
51
42
20
26
65
45
55
59
49
57
29
40
46
43
55
56
61
48
39
42
48
60
51
56
52
53
52
38
29
70
60
44
36
49
86
45
37
54
41
65
42
59
63
63
57
37
18
39
51
32
24
54
56
43
53
67
58
47
54
42
62
51
47
44
48
63
44
54
39
39
67
45
25
59
69
36
43
46
44
31
42
46
55
73
51
53
66
36
54
37
57
68
45
40
68
51
42
34
41
38
48
41
52
54
57
44
38
68
83
49
36
51
62
58
42
24
34
49
50
42
37
51
56
67
56
42
55
34
41
65
39
55
50
43
53
53
53
44
44
70
73
73
49
65
52
47
42
50
64
109
47
30
44
32
53
35
38
76
59
57
23
39
55
62
52
63
48
37
64
55
46
47
39
39
42
28
44
49
47
50
46
67
52
40
54
57
29
53
43
55
57
60
38
34
42
30
12
59
53
51
40
31
68
57
28
46
49
54
69
36
60
39
40
47
47
50
51
52
58
42
91
43
30
42
32
23
39
71
60
42
52
32
57
55
34
46
30
84
66
24
32
60
56
43
52
53
56
35
46
57
55
54
52
43
57
52
44
48
35
53
31
56
42
53
64
58
40
41
17
27
57
25
40
46
67
34
41
32
40
45
15
40
50
58
37
55
57
45
76
49
63
68
31
33
65
59
70
48
35
42
52
50
34
49
35
56
34
56
44
34
53
66
57
70
64
48
35
54
70
69
36
22
47
37
44
59
60
77
12
37
32
48
52
54
38
47
46
48
32
41
33
58
58
40
46
58
64
53
67
38
58
30
30
77
59
51
50
54
60
47
50
71
42
60
46
50
62
57
57
34
55
54
40
53
34
31
52
62
63
61
33
41
22
17
40
48
51
56
40
53
47
46
60
63
38
51
31
61
72
61
46
57
47
28
36
54
55
41
54
60
53
57
37
20
61
28
59
32
37
61
45
48
48
46
37
50
56
64
59
26
34
53
47
40
53
55
46
68
58
50
35
52
65
42
32
54
50
56
55
38
55
39
55
47
72
37
50
51
52
49
35
37
44
62
70
61
26
34
47
32
59
37
46
57
74
69
25
48
61
44
53
34
60
42
20
30
16
61
40
53
54
32
53
37
27
46
64
37
45
19
55
55
57
41
46
47
47
56
53
57
27
49
65
60
56
55
50
57
51
57
53
69
68
36
33
36
56
40
23
32
58
43
62
82
67
70
29
52
49
54
61
42
51
62
33
48
53
52
56
50
53
42
43
74
61
61
51
78
39
45
60
55
61
80
53
22
29
59
27
56
51
64
61
49
39
52
55
57
72
60
63
24
61
73
56
56
32
26
59
44
72
62
36
44
39
46
42
60
39
41
43
66
60
31
58
56
52
56
43
21
42
67
76
64
40
56
74
70
49
66
55
48
49
49
72
55
63
55
46
58
53
49
55
64
46
40
41
45
30
32
31
65
63
66
27
72
72
50
31
9
43
55
47
43
43
40
37
41
76
63
50
46
53
54
53
60
50
47
55
45
57
34
45
47
47
28
12
24
50
31
33
52
51
60
46
44
44
62
52
64
64
53
34
51
48
44
43
35
42
46
36
34
40
66
49
41
42
36
47
49
42
54
47
38
51
43
50
44
42
47
57
27
48
52
44
65
77
65
48
41
37
20
66
42
46
35
49
45
27
28
54
61
49
74
60
35
45
41
50
49
34
53
35
24
39
29
63
65
55
34
40
50
72
33
19
56
52
86
50
67
71
33
57
44
23
65
40
49
57
29
44
40
43
59
55
30
25
60
31
66
46
51
60
41
51
58
51
44
59
62
59
33
38
40
41
43
51
46
43
76
25
50
38
36
67
53
65
53
41
60
74
71
51
18
38
36
80
66
49
68
48
50
64
32
28
29
41
56
40
54
74
37
53
67
46
57
45
41
54
49
69
55
70
37
57
63
56
47
38
42
52
58
49
44
44
32
30
25
46
45
54
46
48
65
57
56
52
66
57
36
26
44
57
58
44
35
47
63
46
56
29
62
48
32
63
43
48
72
57
27
37
30
54
69
18
40
47
42
45
58
39
44
50
46
37
50
73
42
54
71
64
36
38
39
59
45
55
48
31
47
30
56
40
62
55
50
32
37
28
50
50
54
57
38
27
53
65
46
49
49
18
59
50
41
72
51
90
73
48
46
61
47
43
48
35
37
27
47
60
47
57
35
46
42
64
37
43
58
39
49
40
34
22
25
44
79
68
46
58
51
58
39
56
72
45
37
34
54
62
81
51
52
41
57
57
15
50
42
55
53
32
63
54
34
40
53
59
45
60
39
42
78
52
51
58
69
71
59
60
43
45
47
29
53
72
54
52
36
57
52
41
43
47
51
61
62
60
48
52
51
28
51
49
43
44
41
59
69
37
31
56
55
61
43
41
70
63
31
49
41
42
43
53
56
62
62
38
45
38
36
40
46
44
60
42
49
36
38
62
76
62
34
49
30
42
58
66
55
56
58
65
58
70
64
64
69
55
62
64
47
66
49
55
51
37
41
24
45
63
55
32
42
39
60
61
61
43
59
24
39
58
34
47
61
52
65
61
47
33
40
52
76
38
24
46
29
67
42
50
45
49
83
56
42
49
49
38
39
27
57
56
36
62
58
54
33
37
44
55
46
45
65
66
64
48
52
78
56
54
45
29
56
57
65
40
62
50
39
48
60
66
58
43
47
41
45
48
40
33
30
40
72
61
48
33
71
79
43
31
42
52
39
42
74
53
42
49
37
67
65
70
51
39
41
53
60
36
37
39
61
48
31
47
53
69
70
53
33
44
46
49
47
37
51
35
59
65
38
53
37
64
75
63
58
44
35
39
43
57
54
84
54
42
57
58
37
55
26
38
47
51
68
47
47
47
36
22
42
41
49
52
20
66
76
47
43
49
45
74
44
42
50
69
44
5
43
46
37
73
39
43
54
40
59
57
27
23
22
58
64
47
45
43
43
53
29
49
43
61
71
51
68
47
39
70
72
74
45
66
45
51
47
58
87
57
54
45
58
44
37
34
48
51
56
51
30
59
45
30
61
71
44
39
47
53
71
61
54
39
50
72
55
51
55
51
60
61
55
54
55
56
63
38
25
48
58
48
31
39
33
59
44
24
48
51
65
52
46
42
44
43
31
45
50
66
64
51
60
61
37
63
33
60
38
32
27
35
58
89
29
58
33
64
25
30
53
49
68
55
34
51
65
16
27
64
68
54
33
64
74
51
45
57
49
61
46
55
61
63
75
58
38
41
43
50
60
76
38
30
65
70
82
76
40
44
50
66
72
64
46
42
65
55
62
74
53
57
69
32
65
75
72
51
45
46
53
71
54
33
57
54
63
37
56
46
40
36
68
42
36
24
50
37
29
56
70
58
45
51
37
57
45
58
45
58
55
47
33
67
63
47
46
40
37
31
55
61
66
42
50
65
27
50
68
50
55
47
43
51
33
37
21
62
56
64
36
52
65
34
38
41
72
54
38
59
75
59
64
38
52
42
43
46
61
44
67
61
46
67
48
55
49
67
42
51
43
44
56
74
68
57
55
50
45
54
53
78
81
64
56
42
91
51
41
54
64
68
101
50
51
55
65
76
51
43
48
42
57
60
82
47
67
50
62
41
34
64
48
53
78
43
63
48
43
69
53
43
38
61
71
52
40
43
42
64
50
40
71
58
41
60
31
64
55
40
69
43
32
45
62
54
38
33
45
55
49
57
68
64
56
60
41
62
68
63
44
56
43
58
43
56
50
54
31
56
58
59
48
44
59
55
44
65
73
83
49
57
54
45
42
58
55
70
100
75
38
58
73
73
68
38
71
68
53
62
68
78
78
60
75
63
100
107
60
66
63
95
85
51
39
75
65
59
56
79
61
70
54
71
51
38
35
52
66
82
59
53
58
35
47
40
79
60
56
60
55
66
46
45
60
27
50
67
41
26
59
39
63
65
40
55
59
72
57
36
32
36
41
35
57
29
55
43
39
56
57
39
22
41
34
54
60
61
46
49
31
63
64
50
51
42
58
66
42
49
60
40
61
52
54
51
59
71
53
74
49
56
65
67
61
51
83
76
76
92
52
79
99
98
74
75
72
108
96
102
68
71
75
66
72
103
97
59
77
61
61
65
83
66
51
63
68
66
81
81
71
81
50
73
59
69
67
55
55
47
62
44
68
57
43
69
55
55
48
39
39
29
59
48
67
63
44
72
48
75
25
36
50
43
50
40
51
53
44
52
43
47
44
52
69
72
67
71
47
63
52
63
39
43
57
53
39
45
37
28
50
22
56
76
32
80
56
60
66
35
34
52
49
79
62
50
61
67
44
40
77
77
81
86
84
84
74
70
91
96
69
91
101
98
66
78
86
113
114
93
84
98
82
82
97
64
86
76
89
99
110
71
82
109
100
99
80
75
70
84
80
76
50
79
61
67
89
63
80
58
54
58
79
57
51
58
43
59
40
58
55
40
48
37
37
42
33
21
53
53
35
52
51
48
41
20
42
40
28
62
56
71
55
49
43
42
49
26
45
28
52
45
38
54
65
51
61
23
46
59
45
55
41
61
24
52
49
52
69
53
83
53
80
82
64
69
72
61
67
75
50
74
108
64
93
77
79
60
67
99
100
81
65
81
87
112
96
101
91
113
87
112
112
128
139
99
104
93
119
117
109
94
95
109
126
103
99
92
71
106
75
85
65
87
63
79
90
80
62
56
63
65
76
88
48
52
36
53
53
75
76
83
55
53
48
68
42
64
56
61
57
50
57
62
69
48
52
65
44
51
51
66
47
43
37
34
62
32
65
44
55
71
51
56
46
37
54
58
54
69
90
42
63
55
55
59
34
70
72
53
49
56
72
69
55
74
61
99
80
84
64
98
105
76
89
100
106
92
85
127
121
122
110
123
122
135
127
117
102
120
136
125
131
133
135
131
105
140
126
144
169
90
111
106
109
108
89
122
104
97
81
96
101
91
111
73
67
71
65
80
77
64
55
77
63
82
59
60
54
63
54
58
41
62
76
72
68
62
45
54
54
51
55
37
45
68
59
49
29
51
51
51
40
40
36
52
60
61
33
37
30
50
62
47
38
43
74
33
67
73
65
43
41
30
62
67
33
59
67
73
69
61
74
74
48
63
79
115
98
104
108
94
76
71
99
104
138
115
104
137
134
133
137
125
146
151
140
137
150
157
170
153
159
135
165
159
138
168
151
150
147
133
133
142
143
126
107
151
118
120
110
106
106
103
87
61
96
83
82
91
97
74
58
63
76
68
78
63
67
56
45
72
62
38
46
65
51
48
36
42
70
41
54
46
32
50
63
49
42
61
35
38
40
51
78
60
56
45
61
46
50
55
49
40
35
59
56
38
38
19
49
64
38
73
90
64
73
63
65
60
66
51
77
79
73
74
74
95
87
68
89
110
109
122
101
124
160
150
126
137
144
156
139
150
178
174
182
148
161
182
159
169
176
149
176
157
184
174
143
132
123
160
184
138
150
143
126
131
135
125
131
141
120
115
105
103
106
95
106
88
85
76
43
75
71
83
74
81
44
62
46
55
49
58
54
58
51
50
57
57
52
33
29
53
52
66
58
43
50
56
46
39
67
49
55
50
49
50
56
64
55
61
56
70
32
55
87
53
51
38
59
48
61
58
67
43
53
60
63
68
59
75
79
107
88
80
77
90
94
60
95
134
135
136
123
148
159
127
123
130
144
206
148
145
175
162
186
188
205
181
200
193
177
188
210
187
196
205
186
189
170
183
175
189
171
163
176
172
137
127
150
129
137
102
123
113
114
129
100
71
86
110
89
101
62
67
72
67
81
67
60
53
73
62
56
36
37
53
53
53
56
62
46
70
47
48
32
44
48
54
50
76
54
68
42
53
36
28
23
60
48
54
42
59
16
60
64
47
78
50
74
43
58
72
69
80
53
58
99
92
72
75
85
103
99
94
126
94
120
122
108
116
146
126
115
122
144
167
173
168
178
162
209
184
189
190
204
191
232
194
211
221
202
224
225
186
235
201
213
212
198
210
200
186
177
176
178
171
147
152
153
142
127
136
141
131
126
93
96
96
90
105
102
110
71
78
57
65
77
75
65
73
72
64
59
61
65
44
76
55
57
56
50
59
64
50
37
51
42
46
48
43
28
51
57
35
43
44
79
59
35
65
60
62
51
46
53
47
61
55
71
45
65
51
38
55
55
77
80
75
95
76
85
66
82
101
102
116
133
110
122
136
136
163
131
122
172
142
168
173
200
189
192
185
209
225
206
195
239
232
214
222
223
255
218
218
217
215
227
224
226
231
206
173
175
190
179
183
182
184
161
157
135
122
144
149
113
97
99
121
100
110
96
87
74
76
52
82
80
71
62
40
64
61
80
62
64
40
64
43
55
51
29
46
53
44
62
51
58
59
52
29
31
66
29
50
71
64
72
46
6
51
46
67
63
38
55
41
59
42
68
47
65
67
74
68
50
78
64
67
74
86
75
78
71
82
104
118
131
121
127
124
139
135
137
163
184
178
181
185
200
190
200
214
237
224
218
226
215
239
235
226
243
245
237
244
225
213
228
215
231
235
196
192
217
194
197
190
157
176
168
158
140
122
137
130
123
117
119
113
89
88
67
91
82
82
77
90
76
66
63
53
61
73
52
47
64
55
36
40
46
59
43
40
58
42
68
50
38
70
36
34
56
64
65
47
47
35
45
61
27
39
40
65
65
27
49
51
72
46
63
45
49
49
56
83
74
71
56
71
91
80
95
99
120
96
91
92
101
120
117
129
132
152
174
179
195
170
164
175
212
174
187
191
234
219
227
220
201
230
233
223
220
221
227
240
232
227
229
223
186
225
207
214
211
207
194
157
156
178
144
178
155
133
137
149
109
111
148
136
104
75
63
99
104
99
96
79
67
66
51
65
77
51
56
57
59
61
58
69
56
73
67
44
58
39
63
44
49
57
66
61
48
41
67
32
58
37
53
76
50
58
57
55
50
48
57
56
66
47
58
47
73
59
65
88
74
67
60
57
71
105
82
83
108
96
106
83
109
107
122
123
123
119
141
152
175
156
147
151
197
194
200
177
192
196
229
209
215
221
233
223
243
233
229
242
239
232
213
234
193
207
202
208
198
208
174
167
166
176
158
163
126
148
143
140
123
91
119
125
93
101
91
103
104
77
64
62
77
74
76
75
83
70
39
52
49
81
34
42
58
63
59
46
58
68
51
27
56
51
48
51
38
23
54
45
47
40
54
67
40
68
59
37
41
53
40
70
36
48
71
68
63
32
63
61
68
65
77
86
67
101
65
104
85
99
99
91
119
133
132
143
144
130
140
124
138
147
166
175
180
188
183
174
210
175
215
207
244
200
221
227
217
208
220
207
191
231
227
212
199
190
187
187
194
167
160
191
166
161
162
167
118
158
125
108
124
83
91
106
87
108
70
77
79
52
59
68
78
51
53
82
66
80
26
48
71
76
34
53
45
55
62
22
42
49
42
25
33
54
57
53
55
50
50
63
38
34
30
64
54
34
54
42
54
51
71
67
46
38
54
79
61
49
54
62
48
68
58
73
91
55
41
73
79
96
89
100
106
107
110
105
125
139
129
125
138
118
176
168
171
176
186
186
183
173
195
182
191
192
193
188
206
199
206
180
179
186
193
192
176
207
198
155
147
160
151
184
145
143
104
127
124
123
104
122
126
87
107
89
92
89
97
110
93
55
73
61
113
78
37
53
49
49
58
56
86
74
27
38
46
73
40
35
56
63
82
55
54
22
59
41
49
70
49
61
67
27
67
48
29
41
61
58
57
45
58
31
63
33
53
89
59
56
73
59
47
88
65
70
84
68
66
57
87
92
87
98
95
91
84
86
115
111
107
138
134
144
160
134
133
142
154
165
150
175
166
158
177
162
171
144
176
192
184
173
173
165
167
167
140
166
164
156
150
140
137
163
115
122
113
132
107
100
97
116
117
105
85
65
107
64
56
84
83
65
55
68
77
47
41
65
68
73
57
41
70
52
46
42
46
74
29
29
43
62
82
33
74
53
60
44
34
43
37
55
33
54
62
41
45
31
55
69
35
55
41
49
59
56
40
51
43
57
60
60
71
38
50
62
60
67
91
96
82
82
54
68
85
72
98
76
99
129
105
122
118
116
118
109
81
112
128
149
137
145
135
137
167
138
125
138
149
132
156
145
140
147
139
133
147
157
132
141
132
123
150
127
98
126
131
141
134
97
82
103
116
97
84
122
81
71
64
65
81
83
100
73
74
49
50
59
61
66
37
47
46
65
41
61
75
66
71
39
57
45
47
36
59
48
61
40
43
55
46
31
73
53
65
58
43
34
46
74
52
33
51
59
86
35
33
73
56
50
47
52
63
70
53
61
77
55
59
61
68
69
49
64
101
105
88
61
63
92
83
87
98
91
116
133
102
121
105
114
128
99
113
134
144
132
163
157
149
139
129
142
142
166
125
131
94
147
113
116
128
117
129
94
84
84
108
105
120
62
63
78
75
85
63
76
84
68
60
68
73
40
44
45
59
70
68
77
68
63
50
54
46
49
50
52
34
43
44
54
77
59
18
24
63
56
57
56
58
55
41
42
55
44
58
43
61
52
64
59
32
41
55
75
48
54
65
56
46
32
50
52
77
41
45
58
54
74
65
52
66
65
65
60
60
96
78
100
82
86
96
76
76
72
71
109
100
123
107
100
113
100
108
97
108
96
121
106
110
111
81
108
114
119
111
112
101
127
97
101
104
92
114
112
92
86
101
82
82
67
90
83
79
63
38
63
87
75
58
47
62
63
51
51
55
46
34
42
54
37
34
48
61
72
50
47
35
52
25
48
50
44
19
39
58
59
43
27
55
57
42
45
52
31
58
30
56
56
65
52
40
43
55
34
33
46
25
50
58
69
40
47
76
45
65
59
44
52
41
58
66
94
74
50
63
64
58
77
77
51
74
66
85
77
84
98
84
108
99
91
94
105
84
96
79
94
91
86
94
93
77
83
92
107
94
94
84
93
82
74
74
73
86
78
93
56
92
55
56
63
68
93
59
59
41
45
76
64
55
66
64
50
56
39
59
79
62
26
47
51
77
50
65
37
32
63
55
44
44
60
69
43
55
59
64
52
27
55
65
65
45
55
67
44
54
44
40
37
40
22
52
41
62
67
48
50
48
82
75
45
38
62
48
49
59
52
76
50
48
51
51
80
70
73
58
38
45
67
68
72
69
98
88
81
60
72
54
56
43
70
64
80
98
90
72
66
78
85
79
95
89
80
77
74
60
75
62
84
57
87
88
50
64
56
70
68
63
54
72
68
81
72
62
71
83
65
60
53
29
63
80
78
76
43
49
59
73
50
34
48
76
63
29
28
52
66
49
56
29
43
63
60
59
48
66
42
20
53
51
58
15
62
40
52
55
38
59
52
50
60
56
76
64
36
42
52
65
31
42
55
56
57
28
67
44
31
54
48
58
44
46
45
34
47
47
61
59
60
53
47
42
58
66
60
40
81
58
73
59
53
78
80
65
50
77
82
54
73
60
70
97
78
65
61
67
92
69
65
85
73
62
53
88
59
85
72
78
76
84
63
50
59
45
68
58
67
46
53
63
58
45
50
62
65
45
63
65
52
58
43
26
34
60
56
66
59
56
70
65
63
23
49
60
56
49
41
37
51
52
39
40
55
46
73
50
43
69
46
47
61
38
56
40
31
49
68
58
32
22
59
65
47
46
69
42
56
58
54
73
57
59
46
32
81
61
65
52
77
56
44
35
34
72
63
47
66
57
66
45
74
53
58
57
44
66
100
78
57
46
64
93
49
74
37
59
100
24
53
74
87
57
58
65
70
48
36
24
52
76
55
25
35
73
46
46
54
43
50
46
43
48
28
53
39
37
52
37
54
50
46
52
62
41
36
39
41
35
36
55
32
45
29
28
45
37
49
34
58
68
53
23
50
64
31
41
47
43
57
52
24
46
51
32
51
50
52
47
33
48
32
49
59
27
42
71
56
47
51
62
24
44
30
50
62
45
44
33
59
64
64
54
43
70
50
39
65
47
91
62
66
66
48
72
49
48
63
56
51
43
49
62
44
50
71
65
63
55
54
52
68
48
41
67
82
60
53
51
55
66
71
51
39
65
52
47
36
75
73
63
35
61
54
43
40
55
39
31
56
35
51
55
49
53
58
59
56
27
45
46
56
57
51
38
54
42
58
55
54
44
41
38
52
68
52
44
44
60
60
42
42
71
53
49
32
32
62
78
25
57
75
58
61
36
57
54
50
17
54
33
52
77
52
82
81
41
52
45
56
63
48
70
59
59
61
56
36
57
71
58
42
58
58
46
40
45
71
53
59
47
58
72
29
54
32
69
70
51
54
38
55
37
52
51
35
55
55
41
53
33
64
50
50
51
51
40
23
69
45
70
50
50
59
51
69
40
61
49
49
61
50
53
43
42
43
50
45
60
45
53
62
54
63
41
58
58
60
50
53
51
68
56
41
50
41
29
44
58
37
45
41
49
66
67
43
52
57
61
33
39
55
52
46
17
46
50
63
57
39
36
52
50
45
56
45
51
37
26
62
58
48
46
52
55
42
55
48
41
59
37
38
43
59
56
49
37
46
53
40
43
41
66
59
61
43
57
47
36
46
63
58
51
42
54
47
41
44
49
68
32
67
46
61
74
73
65
39
56
38
47
37
58
58
28
70
43
63
71
53
61
54
43
55
60
36
44
61
69
22
24
45
69
61
43
55
53
51
17
45
57
84
37
33
59
56
61
50
48
45
52
53
50
52
51
50
49
36
66
56
50
56
49
54
77
59
36
45
35
42
83
61
49
38
42
42
36
57
51
45
46
35
36
27
63
38
51
44
45
40
42
42
56
49
68
69
48
48
77
64
60
66
50
56
46
56
67
46
51
50
39
54
64
54
54
49
60
81
55
47
39
71
41
34
33
37
64
35
43
22
40
41
46
46
34
42
51
49
49
22
46
33
37
44
55
44
55
63
28
61
47
51
45
32
41
40
46
71
22
41
62
53
47
46
25
67
67
34
29
57
50
37
33
46
32
46
38
45
40
54
30
31
31
40
49
53
44
58
49
69
64
38
65
36
35
40
43
69
72
48
41
43
61
46
50
50
74
58
64
48
65
57
53
40
51
44
48
42
50
49
37
44
51
42
28
35
53
34
42
62
55
79
68
56
43
42
33
42
35
53
39
72
41
52
31
49
58
43
65
36
56
82
30
51
52
33
48
49
36
47
56
49
54
58
49
34
37
36
55
72
44
52
49
51
58
40
68
62
40
34
47
55
42
65
33
70
58
47
51
68
61
62
42
55
62
70
40
38
67
55
70
41
44
60
54
48
34
46
55
51
26
42
50
39
65
57
47
74
30
57
63
47
67
54
47
42
56
37
48
46
56
50
42
58
49
44
50
47
40
29
56
27
65
55
52
72
56
59
46
48
44
44
39
34
54
56
48
57
38
56
53
47
59
64
30
41
56
43
62
48
60
59
57
55
63
34
63
60
45
61
51
52
45
57
59
53
62
38
63
43
42
41
49
29
32
43
38
60
53
38
54
45
40
42
25
63
52
34
27
40
65
61
16
66
60
37
30
36
65
52
32
45
48
77
57
43
50
49
55
29
26
48
45
75
38
61
45
40
22
32
55
58
66
35
40
34
54
32
60
33
50
52
28
44
43
45
59
42
50
28
42
58
53
27
43
40
46
70
58
50
41
27
31
26
43
53
50
51
33
35
44
50
52
51
62
47
40
52
70
50
33
35
53
58
58
62
42
46
40
50
45
69
56
26
63
45
46
42
38
79
65
31
58
82
49
57
42
63
68
53
27
61
76
53
49
56
46
48
60
62
72
29
21
65
57
62
71
41
52
42
52
54
45
53
28
35
58
67
67
51
39
55
50
65
42
53
46
46
59
16
68
52
57
29
54
40
66
34
35
49
44
38
46
54
56
47
54
60
66
34
76
63
78
48
52
60
30
43
39
53
33
63
51
60
69
52
62
49
54
78
33
54
30
72
50
63
41
50
59
34
41
45
23
50
41
30
44
46
52
67
42
36
29
38
37
61
43
46
46
48
28
29
68
60
41
25
29
66
76
39
40
44
61
56
47
32
47
53
34
53
50
36
46
27
46
26
46
42
71
39
45
49
71
70
49
30
38
61
43
41
57
54
64
65
32
50
42
56
67
52
73
39
44
54
44
52
58
58
55
65
54
36
67
81
53
38
56
57
72
22
59
49
22
39
33
52
55
53
32
58
56
65
70
56
68
57
43
38
51
58
45
27
53
43
39
41
27
58
68
42
55
30
56
63
59
43
52
35
51
49
38
55
32
52
38
73
74
52
40
27
53
42
39
62
56
28
16
26
54
40
21
57
66
41
34
48
55
52
36
37
49
61
72
37
59
38
54
69
38
32
23
37
37
65
28
29
54
56
49
38
46
56
45
33
48
49
42
77
74
55
41
44
45
56
63
63
45
45
63
64
73
47
48
44
32
44
47
38
54
34
35
56
56
34
52
55
51
38
38
48
49
65
35
25
43
35
46
27
57
93
59
48
48
55
51
46
40
32
57
47
57
36
69
45
41
46
50
65
57
38
47
77
47
43
38
68
48
35
43
80
57
39
31
57
62
66
44
67
75
46
37
59
52
56
55
47
75
71
38
45
32
56
59
44
39
69
55
62
57
50
73
60
77
66
60
58
56
61
46
38
54
49
49
35
37
31
38
40
45
32
39
40
62
49
51
52
32
55
28
29
35
56
48
66
39
30
51
71
52
38
20
62
73
29
42
46
90
48
45
55
53
49
29
9
70
30
35
34
17
46
46
37
31
54
51
35
46
62
41
46
49
66
68
57
54
46
64
61
34
22
57
72
63
39
49
52
61
33
24
62
70
39
36
43
76
47
55
70
58
40
25
59
51
39
28
39
37
53
36
46
54
57
73
50
57
48
40
38
31
54
42
28
29
29
55
61
61
58
25
44
54
40
61
53
70
73
64
29
24
57
34
43
57
59
34
31
35
22
49
62
43
44
61
51
61
30
43
65
37
51
43
58
72
24
43
52
66
47
35
56
32
43
39
41
77
60
82
58
71
43
17
45
71
85
52
60
50
57
59
29
20
42
59
51
5
35
64
62
46
50
33
68
39
38
16
44
65
38
44
50
77
48
26
39
44
47
43
59
53
59
42
56
58
83
21
30
59
61
62
37
49
29
23
37
39
48
45
46
46
72
49
72
32
41
35
44
42
34
46
48
63
38
34
17
75
42
36
42
45
77
55
57
27
45
57
51
54
71
57
47
47
21
43
14
64
66
44
58
56
66
62
68
71
36
62
31
48
38
39
51
74
69
53
52
74
29
59
39
51
68
44
50
58
48
50
41
37
58
61
44
50
67
63
65
38
42
45
55
53
40
36
60
38
54
50
64
53
44
42
55
62
45
39
60
53
49
35
30
46
31
44
55
34
60
46
67
41
33
71
48
66
44
47
49
60
39
49
61
38
46
49
45
53
56
53
50
48
54
57
55
53
50
58
48
48
57
58
48
59
63
72
47
49
71
48
58
55
72
38
52
57
59
54
80
66
47
35
45
42
44
26
39
60
39
51
59
60
38
38
42
67
64
50
68
48
36
61
58
34
36
54
43
27
43
32
32
41
60
51
37
20
27
32
56
33
42
42
48
57
43
41
40
52
59
52
60
59
46
41
34
45
54
56
69
46
33
42
42
65
53
53
41
45
58
48
67
51
29
49
48
39
23
74
45
52
52
54
62
46
51
11
53
61
68
53
26
59
47
46
54
56
60
44
51
49
57
56
33
46
62
32
29
32
50
54
69
45
49
58
60
51
57
39
41
64
43
46
38
46
54
33
37
52
51
44
65
52
21
70
44
25
40
52
35
34
25
8
50
49
59
71
35
54
61
37
53
57
50
69
66
66
53
50
71
62
64
32
46
46
64
61
49
45
44
32
46
63
47
43
48
29
36
46
73
36
56
53
66
57
44
40
47
34
47
51
44
38
64
48
62
55
48
42
50
67
21
50
68
61
58
23
62
54
51
46
38
84
53
36
33
40
50
36
51
37
39
57
43
50
44
54
50
43
47
41
29
28
20
38
37
51
53
41
38
37
49
59
49
48
38
49
44
45
45
60
44
49
53
56
57
40
50
38
65
59
56
40
66
48
53
56
47
64
41
52
62
47
35
55
52
57
33
47
55
52
51
38
60
64
43
32
47
44
59
46
32
41
51
71
71
53
29
72
50
48
78
24
38
45
62
54
58
21
41
44
80
33
18
38
47
46
47
69
68
63
31
29
52
50
55
30
58
54
26
41
44
60
61
31
33
64
48
65
52
39
43
51
36
36
44
33
61
49
56
56
42
52
51
48
37
46
57
44
58
35
43
57
39
56
63
52
61
53
72
27
40
50
60
62
47
43
29
26
70
50
57
68
70
48
48
31
61
49
49
46
70
64
20
20
30
59
46
42
51
41
72
35
59
35
59
50
61
54
40
54
36
40
44
60
63
49
45
35
53
28
43
69
66
39
47
74
61
58
45
24
59
60
59
55
69
43
22
41
39
55
40
28
67
46
37
38
66
55
47
51
33
54
54
31
33
54
69
38
60
56
49
71
59
61
75
64
50
39
53
64
69
58
60
66
51
54
61
41
29
55
54
63
22
71
65
59
50
34
46
46
40
34
41
57
70
53
61
62
65
42
43
53
45
39
47
25
52
45
35
60
50
56
34
51
56
74
59
41
33
53
47
55
42
40
72
36
40
32
69
70
46
45
33
56
48
46
43
51
45
50
43
36
51
21
17
47
68
71
63
41
70
36
46
57
69
46
24
50
37
46
36
32
70
63
42
51
66
64
61
31
59
65
42
65
55
73
46
21
56
56
45
54
21
45
39
55
49
44
50
59
26
48
59
56
40
52
56
74
42
56
51
62
36
34
31
48
41
39
54
61
77
39
49
46
31
43
55
53
50
37
26
27
57
33
30
50
63
56
29
39
49
73
48
67
34
59
55
16
49
46
56
48
48
50
52
28
42
41
62
69
43
46
38
45
50
34
50
37
49
46
36
72
64
61
47
51
49
31
40
38
54
29
48
34
51
54
29
67
79
52
45
64
43
71
28
43
45
44
34
37
72
44
42
54
45
59
50
19
56
53
34
64
35
54
48
59
30
19
55
56
26
37
45
38
29
39
41
66
40
36
64
53
46
46
50
48
45
25
39
66
52
69
53
49
43
53
56
33
55
31
61
39
75
48
57
59
65
50
33
49
39
55
42
36
54
50
56
48
42
43
77
44
49
43
47
59
56
26
54
45
46
58
49
45
58
63
50
68
56
42
46
57
67
43
24
44
45
53
22
55
72
40
52
47
52
51
38
51
65
51
57
51
66
61
44
41
59
44
51
59
56
43
43
45
49
50
47
46
57
63
40
53
35
46
59
34
38
44
59
63
35
39
60
62
34
51
40
48
37
54
39
50
40
36
67
50
45
47
73
46
53
43
23
39
67
30
54
45
66
60
55
62
56
45
50
40
62
61
39
56
31
68
37
44
44
44
46
63
62
58
52
45
34
45
57
60
53
60
25
36
64
46
57
62
35
38
34
51
48
49
29
40
56
54
57
63
54
34
46
33
63
47
41
52
45
48
48
43
62
45
29
45
43
38
40
27
59
39
46
55
22
51
38
37
68
28
38
53
47
55
51
53
36
54
66
63
66
42
67
48
56
54
67
63
55
41
38
70
44
42
20
51
64
49
39
80
46
49
63
22
34
58
59
65
51
34
32
48
29
57
47
66
55
32
38
54
45
53
38
63
57
67
42
25
39
53
50
38
57
46
48
27
59
46
44
40
74
56
48
47
31
59
45
41
45
45
56
46
51
52
45
52
35
47
51
65
56
37
67
54
55
32
54
85
53
35
61
45
41
36
46
43
35
42
61
52
80
47
42
56
41
61
42
48
72
32
61
68
50
55
30
57
45
58
60
49
44
49
57
41
39
49
65
46
64
33
58
63
45
43
63
64
58
52
65
48
58
46
35
45
35
40
53
63
56
52
59
52
45
43
34
51
20
34
34
56
40
25
50
55
54
51
43
53
65
53
55
44
37
26
34
50
58
40
40
43
39
52
33
64
48
39
54
69
74
38
43
49
57
51
59
54
11
75
30
40
43
44
66
68
26
24
43
39
66
53
24
50
39
57
53
54
72
57
53
51
58
45
58
46
55
56
45
47
50
63
36
34
54
47
50
44
46
29
40
41
35
55
60
42
37
37
52
31
41
51
53
47
45
66
51
48
43
22
39
34
37
39
62
86
62
41
49
40
41
49
55
59
51
44
31
64
51
48
65
50
45
30
64
51
76
40
50
49
57
60
44
46
60
49
49
56
73
68
57
37
44
65
75
61
50
47
30
53
58
68
46
26
60
66
45
71
49
57
38
56
54
25
45
60
69
44
48
47
36
53
35
63
61
48
54
46
45
40
48
48
42
41
45
24
67
46
57
58
44
65
54
56
50
26
50
74
43
46
51
54
38
49
43
41
39
41
57
43
50
63
50
27
39
59
45
71
47
52
84
42
33
50
60
33
56
34
46
59
23
59
56
65
54
57
48
51
66
45
66
60
60
40
37
43
43
38
39
30
59
41
34
67
58
44
71
34
58
38
40
51
41
40
40
49
45
39
60
43
46
39
50
17
45
55
41
56
32
43
54
50
63
41
37
62
49
60
47
46
33
45
42
65
71
47
37
73
56
63
57
32
56
22
49
49
49
55
15
48
38
30
37
50
31
32
47
64
50
44
41
43
41
66
73
50
50
57
52
42
26
46
48
43
54
36
44
23
27
39
46
55
44
37
53
50
43
66
35
67
56
24
53
42
45
34
46
54
42
44
52
70
50
44
60
58
47
31
51
62
62
38
36
39
60
66
43
55
38
50
44
70
49
53
26
55
56
39
51
47
46
64
63
68
49
37
47
47
37
69
48
51
56
45
27
47
50
55
43
72
48
37
47
30
64
27
37
48
32
24
28
55
54
42
77
67
22
54
42
44
57
44
60
66
65
77
48
52
55
60
33
102
36
41
46
54
51
65
93
49
50
77
61
44
51
66
59
45
58
55
58
58
55
47
56
60
10
48
40
55
63
14
62
51
49
44
50
47
55
44
18
35
42
35
49
53
55
44
48
43
52
47
36
56
49
18
35
65
23
46
37
51
58
25
37
35
50
67
45
26
47
47
29
73
50
36
56
41
68
45
53
49
72
71
48
44
41
58
32
39
57
60
56
35
41
46
43
33
61
67
68
71
68
35
59
49
41
56
62
64
53
34
57
57
35
61
25
55
18
36
53
56
44
46
44
47
45
36
43
37
45
32
64
46
42
54
73
39
53
52
63
48
45
67
42
33
52
48
78
45
54
46
49
51
49
50
65
34
57
56
41
64
46
63
46
45
53
79
70
35
44
53
55
56
47
34
63
76
48
61
39
81
79
50
48
58
53
61
49
67
57
40
20
62
73
52
60
44
51
41
29
30
37
50
60
31
54
65
28
46
58
54
54
30
60
54
65
59
37
45
49
56
44
40
50
58
36
55
49
75
56
42
39
37
30
47
50
60
45
30
61
51
29
43
42
52
39
43
44
42
52
32
44
38
48
68
28
60
61
31
30
45
24
61
53
48
61
53
41
32
54
46
55
55
42
45
27
45
64
51
59
55
47
56
49
23
32
39
62
40
35
73
83
37
43
45
45
68
44
56
16
45
24
46
53
41
58
48
47
64
33
48
45
36
55
47
47
25
72
54
53
42
64
43
44
52
55
53
33
50
46
59
47
38
67
54
64
58
44
47
56
35
32
35
45
37
43
33
27
53
31
53
45
49
43
56
58
37
38
77
51
53
51
59
58
80
28
31
55
36
56
55
45
28
41
39
32
39
41
52
36
41
56
58
38
63
60
53
53
26
52
62
67
34
50
70
54
66
47
45
53
44
53
58
66
44
50
62
56
34
21
35
72
52
39
50
57
50
52
44
58
47
62
61
47
48
46
34
18
66
57
61
54
34
36
45
48
37
37
52
54
60
37
56
27
34
68
67
37
62
47
64
29
47
45
55
63
11
43
51
52
48
52
54
42
71
60
34
44
56
39
56
45
62
55
33
59
50
43
53
27
44
49
47
54
74
60
46
52
56
89
69
55
58
52
71
49
33
57
66
59
47
61
36
42
31
40
49
61
22
50
67
39
46
36
36
49
47
35
39
43
51
68
46
40
46
35
62
73
37
42
58
53
54
30
38
33
60
41
45
37
54
38
35
46
58
46
48
24
48
62
50
63
65
60
47
56
49
62
52
47
45
45
64
44
23
49
65
44
55
48
47
37
45
34
43
36
36
39
41
69
33
39
63
68
55
45
56
60
60
52
59
50
80
62
47
43
64
64
51
49
60
36
52
23
49
56
70
36
45
54
46
29
42
57
54
38
39
68
78
57
55
62
63
60
40
51
45
58
50
46
56
28
41
63
56
61
56
37
31
39
45
57
27
60
55
47
49
43
41
67
44
39
39
58
53
52
41
41
49
53
62
64
41
48
68
48
76
46
35
47
54
42
20
51
57
52
38
67
45
45
37
64
73
66
43
55
28
38
42
44
47
57
61
58
53
49
63
73
39
54
57
53
52
42
24
45
56
44
47
34
58
64
43
27
38
32
54
61
36
36
63
44
53
29
35
31
45
9
33
41
43
42
31
70
71
50
38
22
59
39
34
31
40
45
42
37
43
59
45
48
42
76
50
49
49
59
39
59
59
70
45
43
44
38
57
50
48
58
64
40
50
57
32
34
63
71
53
59
44
48
57
53
57
35
74
68
70
43
59
41
41
57
31
58
71
34
41
60
59
34
46
51
46
49
38
48
66
42
44
45
76
60
61
41
50
54
54
58
45
42
34
56
49
41
36
41
65
44
65
29
32
35
61
33
44
55
62
37
42
42
60
57
67
38
58
52
62
62
54
45
45
50
45
49
56
44
33
44
49
35
21
49
51
57
63
48
74
48
41
43
47
59
52
46
36
25
62
62
50
48
51
64
35
61
45
40
37
48
52
57
45
47
50
35
61
56
37
50
47
61
48
37
39
9
44
23
32
21
58
54
47
73
38
41
36
38
29
36
65
27
33
57
55
43
48
43
53
53
35
58
40
54
45
48
44
49
35
47
48
60
53
43
54
48
37
43
79
43
54
19
59
61
39
57
58
53
55
38
55
40
63
47
61
47
47
56
67
66
46
43
56
63
51
36
58
56
64
49
55
42
51
51
58
75
27
45
55
48
38
57
44
64
29
34
46
45
57
51
31
48
27
62
59
55
73
46
43
60
38
48
51
37
69
61
48
29
54
32
50
44
43
64
62
55
74
61
33
41
71
41
61
47
54
67
57
32
57
61
55
80
30
46
36
34
57
73
66
45
56
48
39
43
17
51
65
52
28
56
37
49
62
42
60
51
53
40
50
39
37
59
36
48
72
44
45
53
38
37
59
47
36
34
54
71
58
35
41
37
52
55
68
53
52
23
54
51
65
54
64
77
73
43
66
69
38
48
39
65
49
40
60
73
47
58
48
44
52
42
47
57
32
74
47
51
44
44
50
60
51
33
60
61
50
42
50
23
50
47
69
51
27
64
44
44
59
46
31
64
53
50
48
29
37
55
44
45
48
64
38
39
36
63
60
44
32
38
56
43
61
42
63
47
44
37
67
52
31
60
46
51
51
47
58
60
56
57
26
40
58
71
63
47
47
49
60
62
41
62
71
47
52
39
29
44
37
40
49
33
46
40
51
49
56
43
35
49
41
27
37
53
40
32
40
26
14
47
36
58
52
42
29
59
46
49
67
48
43
67
37
52
47
44
26
45
46
50
45
53
53
42
48
54
36
49
42
42
50
69
61
44
15
31
66
64
42
45
49
49
48
47
38
50
43
55
41
65
60
43
37
74
58
57
61
60
42
56
39
27
28
27
52
53
51
63
65
63
30
45
52
47
51
34
47
35
55
52
54
41
46
63
55
43
20
51
37
39
30
46
64
52
43
30
51
51
47
42
37
43
65
35
54
40
58
31
44
74
49
50
42
49
54
27
61
63
58
40
51
57
42
62
22
53
35
52
54
67
35
40
69
48
63
42
56
39
22
51
51
43
56
39
52
62
37
53
69
61
78
44
50
39
47
51
47
58
39
40
59
51
67
51
13
45
44
41
63
51
55
39
23
35
58
60
42
35
56
39
45
42
50
63
71
67
46
57
36
62
49
46
58
50
42
42
53
42
41
52
51
38
60
38
44
25
43
79
40
38
55
28
63
63
25
58
78
65
64
45
76
70
53
60
65
49
36
54
58
74
16
29
42
54
56
33
35
59
70
43
49
56
59
66
57
47
35
43
14
44
55
52
55
41
49
41
73
60
44
71
57
41
62
34
35
53
45
38
54
41
42
42
76
53
70
62
34
46
27
37
28
48
49
45
49
69
47
60
40
29
67
28
56
57
53
56
26
62
64
43
49
52
59
65
34
22
27
38
33
33
47
58
61
53
54
36
64
37
40
58
61
47
57
38
53
58
70
46
64
60
43
76
35
33
36
65
69
36
41
41
64
51
48
10
55
42
55
69
60
49
67
57
52
75
58
33
58
82
64
48
56
55
29
55
40
46
52
67
65
63
40
38
60
31
53
39
66
43
79
44
46
43
43
53
59
28
44
66
43
54
26
0
47
43
46
51
46
75
57
63
43
65
55
39
60
69
52
59
30
44
44
49
50
38
15
53
40
48
42
69
59
36
44
57
51
50
55
51
67
46
54
45
51
43
62
35
63
50
52
42
47
31
42
32
50
48
60
54
55
44
53
67
56
46
50
41
51
38
39
33
64
32
34
49
39
59
34
38
36
57
36
48
52
64
53
51
39
46
35
40
26
55
50
46
40
74
56
48
38
37
30
68
43
37
56
25
64
18
45
31
37
34
47
53
77
55
44
55
39
49
29
48
61
63
54
29
36
56
41
69
32
42
45
24
53
30
60
51
55
50
58
63
69
52
43
46
57
46
42
41
59
62
43
28
41
57
42
41
65
57
54
38
51
15
60
50
66
39
53
53
64
42
41
52
67
45
48
47
34
36
40
51
56
31
27
52
38
35
45
51
55
41
42
75
43
65
41
56
40
47
39
41
53
58
53
37
47
51
33
44
45
63
39
22
37
60
54
58
35
41
44
54
84
49
37
56
44
36
62
54
52
57
61
41
49
57
58
31
77
58
63
67
48
55
29
31
34
56
55
56
50
57
73
55
28
28
49
51
26
40
57
58
57
42
57
41
72
61
23
56
42
54
44
25
49
54
83
32
33
35
65
43
47
44
42
37
49
27
50
39
58
38
70
48
58
39
20
43
49
39
43
46
44
59
53
71
70
48
44
62
72
38
53
80
59
43
20
34
63
58
50
45
39
25
34
52
52
55
47
46
42
85
55
49
60
52
38
47
54
54
62
23
40
60
46
69
64
26
48
55
65
32
40
52
60
49
44
43
40
61
74
50
65
58
39
44
39
63
42
28
29
53
63
43
48
42
61
38
52
52
38
30
28
51
66
46
46
40
51
25
67
42
45
70
64
53
61
37
40
42
69
52
48
43
59
66
43
54
65
51
66
28
46
52
46
45
64
55
59
65
44
45
69
44
35
55
47
32
67
52
50
40
29
48
51
85
41
46
54
46
52
42
53
51
44
58
53
45
47
71
49
55
42
51
60
48
33
54
39
60
70
45
42
52
59
51
44
45
64
58
68
40
42
18
46
44
25
40
41
52
22
17
43
46
47
44
53
74
46
42
38
40
58
35
72
39
63
65
72
60
45
47
30
57
50
