P2
# CREATOR: Diamond Light Source Beamline I02
116 118
255
2
3
2
1
0
2
0
2
0
3
0
0
1
1
0
1
2
0
0
0
0
0
0
0
0
0
0
0
0
0
0
0
0
0
1
0
0
0
0
0
0
0
0
0
0
0
0
0
0
0
0
0
0
0
0
0
0
0
0
0
0
0
0
0
0
0
0
0
0
0
0
0
0
0
0
0
0
0
0
0
0
0
0
0
0
0
0
0
0
0
0
0
0
0
0
0
0
0
0
0
1
3
0
0
0
2
1
2
4
3
3
4
3
4
3
0
0
2
1
0
0
1
0
0
0
1
0
0
0
0
0
0
0
0
0
0
0
0
0
0
0
0
0
0
0
0
0
0
0
0
0
0
0
0
0
0
0
0
0
0
0
0
0
0
0
0
0
0
0
0
0
0
0
0
0
0
0
0
0
0
0
0
0
0
0
0
0
0
0
0
0
0
0
0
0
0
0
0
0
0
0
0
0
0
0
0
0
0
0
0
0
0
0
0
0
0
1
3
0
0
0
3
1
1
3
1
1
1
1
1
0
0
0
1
1
0
0
4
0
1
0
4
0
0
2
3
0
0
1
0
0
0
0
0
0
0
0
0
1
0
0
0
0
0
0
0
0
0
0
0
0
0
0
0
0
0
0
0
0
0
0
0
0
0
0
0
0
0
0
0
0
0
0
0
0
0
0
0
0
0
0
0
0
0
0
0
0
0
0
0
0
0
0
0
0
0
0
0
0
0
0
0
0
0
0
0
0
0
0
0
0
0
0
2
0
0
0
4
1
2
2
1
1
0
1
1
1
0
0
2
2
0
0
2
0
0
0
3
0
0
2
2
1
1
1
0
1
0
0
0
0
0
0
0
1
0
0
0
0
0
0
0
0
0
0
0
0
0
0
0
0
0
0
0
0
0
0
0
0
0
0
0
0
0
0
0
0
0
0
0
0
0
0
0
0
0
0
0
0
0
0
0
0
0
0
0
0
0
0
0
0
0
0
0
0
0
0
0
0
0
0
0
0
0
0
0
0
0
0
2
0
0
0
3
0
0
2
1
1
3
2
1
3
0
1
1
1
1
0
0
0
0
0
2
0
0
1
1
0
0
0
1
1
0
0
0
0
0
0
0
1
0
0
0
0
0
0
0
0
0
0
0
0
0
0
0
0
0
0
0
0
0
0
0
0
0
0
0
0
0
0
0
0
0
0
0
0
0
0
0
0
0
0
0
0
0
0
0
0
0
0
0
0
0
0
0
0
0
0
0
0
0
0
0
0
0
0
0
1
0
0
0
0
0
0
3
1
0
0
1
0
0
0
3
2
4
3
2
2
0
2
1
1
2
2
2
1
0
0
0
0
0
0
1
0
0
0
1
0
0
1
0
0
0
0
0
2
1
0
0
0
0
0
0
0
0
0
0
0
0
0
0
0
0
0
0
0
0
0
0
0
0
0
0
0
0
0
0
0
0
0
0
0
0
0
0
0
0
0
0
0
0
0
0
0
0
0
0
0
0
0
0
0
0
0
0
0
0
0
0
0
0
1
1
3
0
1
1
2
0
0
0
0
0
0
1
0
0
0
0
0
0
0
0
0
0
2
0
0
1
2
0
2
0
1
2
1
1
2
4
2
3
2
4
0
0
0
0
0
0
0
0
0
0
0
0
0
0
0
0
0
0
0
0
0
0
0
0
0
0
0
0
0
0
0
0
0
0
0
0
0
0
0
0
0
0
0
0
0
0
0
0
0
0
0
0
0
0
0
0
0
0
0
0
0
0
0
0
0
0
0
0
0
0
0
0
0
0
0
0
0
0
0
0
1
0
0
0
1
0
0
1
1
1
0
0
0
0
0
0
2
2
4
0
1
2
1
0
1
1
1
0
1
1
0
1
0
1
0
1
0
1
0
0
0
1
0
0
0
0
0
0
0
0
0
0
0
0
0
0
0
0
0
0
0
0
0
0
0
0
0
0
0
0
0
0
0
0
0
0
0
0
0
0
0
0
0
0
0
0
0
0
0
0
0
0
0
0
0
0
0
0
0
0
0
0
0
0
0
0
0
0
0
0
0
0
0
0
0
0
0
0
0
0
0
0
0
0
0
0
0
1
3
2
0
0
2
1
4
0
2
1
0
0
1
1
0
0
0
0
0
0
0
1
0
1
0
1
0
0
0
1
0
0
0
0
0
0
0
0
0
0
0
0
0
0
0
0
0
0
0
0
0
0
0
0
0
0
0
0
0
0
0
0
0
0
0
0
0
0
0
0
0
0
0
0
0
0
0
0
0
0
0
0
0
0
0
0
0
0
0
0
0
0
0
0
0
0
0
0
0
0
1
0
0
0
0
0
0
0
0
0
0
0
4
2
0
2
4
2
1
1
4
3
3
0
2
0
0
0
3
2
0
0
1
0
0
1
1
1
0
0
0
0
0
0
0
0
0
0
0
1
1
0
0
0
0
0
0
0
0
0
0
0
0
0
0
0
0
0
0
0
0
0
0
0
0
0
0
0
0
0
0
0
0
0
0
0
0
0
0
0
0
0
0
0
0
0
0
0
0
0
0
0
0
0
0
0
0
0
0
0
0
0
1
0
0
0
3
0
0
0
0
0
0
0
2
2
0
0
1
0
0
0
0
0
0
0
1
1
1
0
0
0
0
0
0
0
0
0
2
1
0
0
0
1
0
0
0
2
0
0
0
0
0
0
0
0
0
0
0
0
0
0
0
0
0
0
0
0
0
0
0
0
0
0
0
0
0
0
0
0
0
0
0
0
0
0
0
0
0
0
0
0
0
0
0
0
0
0
0
0
0
0
0
0
0
0
0
0
0
0
0
0
0
0
0
0
0
0
1
0
0
0
3
0
0
0
1
1
0
0
2
3
0
0
4
3
1
0
1
0
0
0
2
3
0
0
1
0
0
0
4
2
0
0
2
1
0
0
0
0
0
0
0
0
0
0
0
2
1
0
1
1
0
0
0
0
0
0
0
0
0
0
0
0
0
0
0
0
0
0
0
0
0
0
0
0
0
0
0
0
0
0
0
0
0
0
0
0
0
0
0
0
0
0
0
0
0
0
0
0
0
0
0
0
0
0
0
0
0
0
0
0
0
0
0
0
0
0
1
0
0
0
0
0
0
0
0
1
0
0
1
3
0
0
1
1
1
1
3
2
0
0
2
3
0
0
4
1
0
0
3
1
0
0
0
1
0
0
0
1
0
0
0
1
0
0
0
0
0
0
0
0
0
0
0
0
0
0
0
0
0
0
0
0
0
0
0
0
0
0
0
0
0
0
0
0
0
0
0
0
0
0
0
0
0
0
0
0
0
0
0
0
0
0
0
0
0
0
0
0
0
0
0
0
0
0
0
0
0
0
0
0
0
0
2
0
0
0
1
1
0
0
0
1
0
0
0
2
0
1
2
2
1
1
2
1
0
1
2
2
0
0
2
0
0
0
1
0
0
0
0
1
0
0
0
0
0
0
0
2
0
0
0
1
1
0
0
0
0
0
0
0
0
0
0
0
0
0
0
0
0
0
0
0
0
0
0
0
0
0
0
0
0
0
0
0
0
0
0
0
0
0
0
0
0
0
0
0
0
0
0
0
0
0
0
0
0
0
0
0
0
0
0
0
0
0
0
0
0
0
2
1
1
0
0
3
0
0
2
3
0
0
0
0
0
0
0
0
0
0
0
0
0
1
0
0
0
0
1
0
0
0
1
0
0
0
0
0
0
0
1
4
0
0
0
2
0
0
0
1
0
0
0
0
0
0
0
0
0
0
0
1
0
0
0
0
0
0
0
0
0
0
0
0
0
0
0
0
0
0
0
0
0
0
0
0
0
0
0
0
0
0
0
0
0
0
0
0
0
0
0
0
0
0
0
0
0
0
0
0
0
0
0
0
0
0
0
0
0
0
0
0
0
0
0
2
0
0
0
2
0
0
1
0
0
0
0
0
0
1
1
0
0
2
3
0
1
1
2
0
1
0
0
0
0
0
0
2
0
0
0
2
0
0
0
1
1
0
0
0
0
0
0
0
0
0
0
0
0
0
0
0
0
0
0
0
0
0
0
0
0
0
0
0
0
0
0
0
0
0
0
0
0
0
0
0
0
0
0
0
0
0
0
0
0
0
0
0
0
0
0
0
0
0
0
0
0
0
1
0
0
0
0
0
0
0
0
0
0
0
0
0
0
1
0
1
0
0
0
0
0
0
2
0
0
2
2
2
1
4
3
0
2
1
2
0
3
1
2
2
0
1
0
1
0
0
0
1
0
0
0
0
0
0
0
0
2
0
0
0
0
0
0
0
0
0
0
0
0
0
0
0
0
0
0
0
0
0
0
0
0
0
0
0
0
0
0
0
0
0
0
0
0
0
0
0
0
0
0
0
0
0
0
0
0
0
0
0
0
0
0
0
0
0
0
0
1
0
0
1
2
0
0
2
1
0
0
0
0
1
0
0
0
0
0
0
2
2
3
0
0
1
0
0
0
2
0
0
0
0
0
0
1
1
1
2
0
2
0
0
0
2
0
4
1
0
0
0
0
0
0
0
0
0
0
0
0
0
0
0
0
0
0
0
0
0
0
0
0
0
0
0
0
0
0
0
0
0
0
0
0
0
0
0
0
0
0
0
0
0
0
0
0
0
0
0
0
0
0
0
0
0
0
0
0
0
0
0
0
0
0
0
0
0
0
0
0
0
0
1
1
1
2
0
0
3
0
0
0
2
0
0
0
0
3
0
0
0
0
0
0
1
0
0
1
1
2
0
2
0
0
0
0
1
0
0
0
1
0
3
1
2
1
1
0
0
0
0
0
0
0
0
0
0
0
0
0
0
0
0
0
0
0
0
0
0
0
0
0
0
0
0
0
0
0
0
0
0
0
0
0
0
0
0
0
0
0
0
0
0
0
0
0
0
0
0
0
0
0
0
0
0
0
0
0
0
0
0
0
0
0
0
0
0
0
0
0
0
0
0
0
3
0
0
0
0
0
0
0
0
2
0
0
0
1
2
2
3
3
0
1
0
0
0
1
1
1
1
0
1
0
0
0
2
0
0
0
0
0
0
0
0
0
0
0
0
0
0
0
0
0
0
0
0
0
0
0
0
0
0
0
0
0
0
0
0
0
0
0
0
0
0
0
0
0
0
0
0
0
0
0
0
0
0
0
0
0
0
0
0
0
0
0
0
0
0
0
0
0
0
0
0
0
0
0
1
0
0
1
1
0
0
0
0
1
0
0
5
2
0
0
2
0
0
0
0
1
0
0
0
1
1
0
2
4
2
3
2
1
0
1
1
2
0
0
2
0
0
0
2
0
0
0
0
0
0
0
0
0
0
0
0
0
0
0
0
0
0
0
0
0
0
0
0
0
0
0
0
0
0
0
0
0
0
0
0
0
0
0
0
0
0
0
0
0
0
0
0
0
0
0
0
0
0
0
0
0
0
0
0
0
0
0
0
0
0
0
0
0
0
0
0
0
0
1
1
0
0
0
0
2
0
0
3
1
0
0
3
1
0
0
3
6
2
2
3
2
0
0
0
2
1
1
1
1
0
3
4
3
0
0
1
0
0
0
3
0
1
1
1
0
0
0
0
0
0
0
0
0
0
0
0
0
0
0
0
0
0
0
0
0
0
0
0
0
0
0
0
0
0
0
0
0
0
0
0
0
0
0
0
0
0
0
0
0
0
0
0
0
0
0
0
0
0
0
0
0
0
0
0
0
0
0
0
0
0
0
0
0
0
0
0
0
0
0
1
1
0
0
0
0
0
0
2
1
0
0
0
1
0
1
1
1
1
1
1
1
0
0
0
0
0
1
1
1
0
0
0
0
0
0
0
0
0
0
2
2
0
0
0
0
0
0
0
0
0
0
0
0
0
0
0
0
0
0
0
0
0
0
0
0
0
0
0
0
0
0
0
0
0
0
0
0
0
0
0
0
0
0
0
0
0
0
0
0
0
0
0
0
0
0
0
0
0
0
0
0
0
0
0
0
0
0
1
0
0
0
1
0
0
0
0
0
0
0
1
2
0
0
2
1
0
0
0
0
0
0
0
0
0
0
2
4
1
1
1
0
0
0
1
0
0
0
1
0
0
0
1
0
0
0
0
0
0
0
0
0
0
0
0
0
0
0
0
0
0
0
0
0
0
0
0
0
0
0
0
0
0
0
0
0
0
0
0
0
0
0
0
0
0
0
0
0
0
0
0
0
0
0
0
0
0
0
0
0
0
0
0
0
0
0
0
0
0
0
0
0
0
0
0
0
0
0
2
1
0
0
1
1
0
0
0
2
0
0
0
0
0
0
0
0
0
0
0
0
0
0
0
0
0
0
1
0
0
0
1
0
0
0
2
3
1
2
3
0
0
0
0
0
0
0
0
0
0
0
0
0
0
0
0
0
0
0
0
0
0
0
0
0
0
0
0
0
0
0
0
0
0
0
0
0
0
0
0
0
0
0
0
0
0
0
0
0
0
0
0
0
0
0
0
0
0
0
0
0
0
0
0
0
0
0
0
0
0
0
1
0
0
1
3
1
0
0
1
1
0
0
1
2
0
0
0
1
1
1
0
3
3
0
0
0
1
2
0
0
0
0
2
0
1
2
2
0
0
0
0
0
0
0
2
2
1
1
2
2
0
0
0
0
0
2
0
0
0
0
0
0
0
0
0
0
0
0
0
0
0
0
0
0
0
0
0
0
0
0
0
0
0
0
0
0
0
0
0
0
0
0
0
0
0
0
0
0
0
0
0
0
0
0
0
0
0
0
0
0
0
0
1
1
0
0
1
0
0
0
0
0
0
0
0
0
0
0
0
0
0
0
0
2
3
1
0
0
0
0
0
1
2
4
1
1
0
0
0
0
0
0
0
0
0
0
0
0
0
0
0
0
0
0
0
1
0
0
0
0
0
0
0
0
0
0
0
0
0
0
0
0
0
0
0
0
0
0
0
0
0
0
0
0
0
0
0
0
0
0
0
0
0
0
0
0
0
0
0
0
0
0
0
0
0
0
0
0
0
0
0
0
0
0
0
0
0
0
0
0
0
0
0
0
0
0
0
0
0
0
0
2
1
0
2
3
0
0
1
2
1
0
0
0
0
2
0
0
0
0
0
0
0
2
1
0
0
3
1
0
1
0
0
1
0
0
0
0
0
0
0
0
0
0
0
0
0
0
0
0
0
0
0
0
0
0
0
0
0
0
0
0
0
0
0
0
0
0
0
0
0
0
0
0
0
0
0
0
0
0
0
0
0
0
0
0
0
0
0
0
0
0
0
0
0
0
0
0
0
0
0
0
0
0
0
0
0
0
0
0
0
1
2
2
0
0
0
1
0
0
2
3
0
0
0
0
0
0
0
0
0
3
0
0
0
3
0
2
1
2
0
0
0
2
0
0
1
0
0
1
2
1
0
0
0
0
0
0
1
3
1
1
0
2
0
0
0
0
0
0
0
0
1
0
0
0
0
0
0
0
0
0
0
0
0
0
0
0
0
0
0
0
0
0
0
0
0
0
0
0
0
0
0
0
0
0
0
0
0
0
0
0
0
0
0
0
0
0
0
0
0
1
0
1
0
1
0
0
0
0
0
0
0
1
0
0
1
1
0
0
1
1
1
1
1
0
0
1
0
0
0
1
0
3
2
4
4
1
2
3
1
0
1
0
0
0
1
0
1
0
1
0
0
0
0
0
0
0
0
0
0
0
0
0
0
0
0
0
0
0
0
0
0
0
0
0
0
0
0
0
0
0
0
0
0
0
0
0
0
0
0
0
0
0
0
0
0
0
0
0
0
0
0
0
0
0
0
0
0
0
0
0
0
0
0
0
0
1
0
0
0
1
0
0
0
0
0
0
0
0
0
0
0
0
0
1
2
2
3
2
2
0
0
2
1
2
0
2
0
1
1
0
1
1
1
2
1
1
3
1
0
0
0
0
0
0
1
0
0
0
0
3
0
0
0
1
0
0
0
0
0
0
0
0
0
0
0
0
0
0
0
0
0
0
0
0
0
0
0
0
0
0
0
0
0
0
0
0
0
0
0
0
0
0
0
0
0
0
0
0
0
0
0
0
0
0
0
0
0
0
0
0
0
0
0
0
0
0
0
2
1
1
0
1
0
0
0
1
0
0
0
0
0
0
0
0
0
0
0
0
0
0
0
0
0
0
0
0
0
0
0
0
0
0
3
1
0
0
2
0
0
0
2
1
1
0
1
2
0
0
0
0
0
0
0
0
0
0
0
0
0
0
0
0
0
0
0
0
0
0
0
0
0
0
0
0
0
0
0
0
0
0
0
0
0
0
0
0
0
0
0
0
0
0
0
0
0
0
0
0
0
0
0
0
0
0
0
0
0
0
0
0
0
1
0
0
1
1
0
2
3
1
0
4
2
1
2
3
0
0
0
0
1
0
0
0
0
2
0
1
1
3
2
0
2
0
0
0
0
0
1
0
0
2
3
1
0
0
0
0
0
0
1
3
0
0
0
0
0
0
0
0
0
0
0
0
0
0
0
0
0
0
0
0
0
0
0
0
0
0
0
0
0
0
0
0
0
0
0
0
0
0
0
0
0
0
0
0
0
0
0
0
0
0
0
0
0
0
0
0
0
0
0
0
0
1
0
0
0
0
0
0
0
0
0
0
1
0
0
3
0
0
0
1
0
0
0
0
2
0
1
0
1
2
1
0
0
2
2
0
3
3
2
0
0
1
2
0
0
4
2
1
0
0
0
0
0
0
0
0
0
0
0
0
0
0
0
0
0
0
0
0
0
0
0
0
0
0
0
0
0
0
0
0
0
0
0
0
0
0
0
0
0
0
0
0
0
0
0
0
0
0
0
0
0
0
0
0
0
0
0
0
0
0
0
0
0
0
0
0
0
0
0
1
0
0
0
0
0
1
0
0
1
0
0
2
0
0
1
2
0
0
2
1
4
3
4
0
1
1
0
0
0
1
0
0
1
0
0
0
0
3
1
1
0
2
0
0
0
0
2
2
0
0
3
1
0
2
2
1
0
1
0
0
0
0
0
0
0
0
0
0
0
0
0
0
0
0
0
0
0
0
0
0
0
0
0
0
0
0
0
0
0
0
0
0
0
0
0
0
0
0
0
0
0
0
0
0
0
0
0
0
0
0
0
0
0
1
0
0
0
0
0
0
0
1
0
1
2
0
0
2
0
0
0
0
0
0
0
0
1
0
0
1
2
2
1
0
0
0
0
0
0
0
0
0
0
1
0
0
0
3
0
0
0
2
1
3
0
0
0
0
0
1
1
0
0
0
0
1
0
2
0
0
0
0
0
0
0
0
0
0
0
0
0
0
0
0
0
0
0
0
0
0
0
0
0
0
0
0
0
0
0
0
0
0
0
0
0
0
0
0
0
0
0
0
0
0
0
0
0
0
0
0
0
0
0
0
0
0
0
0
0
5
6
3
2
5
4
1
2
3
3
1
0
0
2
1
0
1
3
2
1
0
0
0
1
0
1
3
1
0
0
1
0
0
0
3
0
0
0
0
0
0
0
0
0
0
0
0
0
0
0
0
0
0
0
0
0
0
0
0
0
0
0
0
0
0
0
0
0
0
0
0
0
0
0
0
0
0
0
0
0
0
0
0
0
0
0
0
0
0
0
0
0
0
0
0
0
0
0
0
0
0
0
0
0
0
0
0
0
0
0
0
0
2
0
0
0
0
0
0
0
0
1
0
1
1
2
0
0
0
0
0
0
1
3
2
2
1
1
0
2
1
2
4
2
1
1
2
0
1
0
1
0
2
0
1
0
0
0
0
0
0
0
0
0
0
0
0
0
0
0
0
0
0
0
0
0
0
0
0
0
0
0
0
0
0
0
0
0
0
0
0
0
0
0
0
0
0
0
0
0
0
0
0
0
0
0
0
0
0
0
0
0
0
1
0
0
1
0
0
0
0
0
1
0
1
0
1
0
1
0
0
0
1
0
0
1
1
0
0
0
0
4
1
0
0
2
1
2
0
0
0
0
0
0
0
1
0
1
2
0
0
0
0
0
3
0
0
1
3
0
1
0
2
1
3
2
2
1
0
3
2
2
0
0
0
0
0
0
1
0
0
0
0
0
0
0
0
0
0
0
0
0
0
0
0
0
0
0
1
0
0
0
0
0
0
0
0
0
0
0
0
0
0
0
0
0
0
0
1
0
0
0
0
0
0
0
0
0
0
0
0
0
1
0
0
0
0
0
1
1
0
3
1
0
0
0
0
2
0
0
0
0
0
1
0
0
0
2
2
2
0
1
0
0
0
0
0
1
0
0
3
0
0
2
3
0
1
1
3
2
2
1
1
0
0
1
2
3
2
2
2
0
0
0
0
0
0
0
0
0
0
0
0
1
0
0
0
0
0
0
0
0
0
0
1
0
0
0
1
0
0
0
1
0
0
0
0
0
0
0
0
0
0
0
1
0
0
0
0
0
0
0
0
0
0
0
0
0
1
0
0
1
2
0
2
4
2
3
2
4
1
3
0
2
0
0
0
0
0
0
0
0
0
3
0
1
0
1
0
0
1
0
0
1
0
0
1
0
0
1
2
0
0
0
1
0
0
0
0
0
0
0
0
0
0
0
0
0
0
0
0
1
0
0
0
0
0
0
0
0
0
0
0
0
0
0
0
0
0
0
1
0
0
0
2
0
0
0
0
0
0
0
0
0
0
0
0
0
0
0
0
0
0
0
0
0
0
0
0
0
0
0
1
0
0
0
0
0
0
0
0
0
0
0
0
2
1
3
1
3
0
2
0
1
0
0
0
1
0
4
0
1
2
4
0
3
3
0
0
0
0
0
2
0
0
2
4
0
1
2
2
0
0
0
3
0
0
0
0
0
0
0
0
1
0
0
0
0
0
0
0
0
0
0
0
0
0
0
0
0
0
0
1
0
0
0
1
0
0
0
0
0
0
0
0
0
0
1
2
0
0
0
0
0
0
0
0
0
1
0
1
0
2
0
1
0
0
0
1
2
1
0
0
0
0
0
0
1
0
0
0
0
0
0
0
1
0
2
0
1
0
1
0
0
0
0
0
0
0
1
0
0
1
0
0
0
0
0
4
2
0
3
2
0
0
2
0
0
0
1
3
1
0
1
3
0
0
1
2
2
0
3
4
3
0
1
2
2
0
0
2
2
0
1
3
1
0
1
4
2
0
0
2
0
0
0
0
0
0
0
0
0
0
1
1
0
1
1
0
2
3
0
1
0
0
0
0
0
0
0
0
0
0
0
0
2
0
0
0
2
0
0
0
2
1
1
0
3
0
0
0
0
0
2
0
1
2
1
2
3
1
2
0
0
0
2
0
0
2
2
0
1
2
2
2
0
0
2
1
0
1
6
3
1
1
2
3
0
0
0
5
3
0
1
3
0
0
1
2
2
0
0
2
2
0
0
2
2
0
0
3
1
0
0
4
4
1
2
5
1
0
3
2
0
0
2
2
1
2
2
2
0
1
2
0
1
2
0
1
2
2
0
2
1
3
1
4
1
1
1
0
1
0
0
1
4
0
1
0
1
1
1
0
3
0
1
1
1
1
1
0
0
0
0
3
3
1
2
0
0
0
0
0
0
1
1
0
0
1
1
0
0
0
1
0
0
0
1
0
0
0
1
1
0
0
0
1
0
0
0
2
0
0
2
3
3
1
3
4
3
0
0
4
1
1
0
2
0
0
0
0
0
0
0
2
1
0
3
1
0
1
3
1
1
2
0
1
1
2
1
0
0
2
0
1
0
3
0
2
2
4
1
3
2
1
2
1
2
0
0
0
2
0
0
0
0
1
3
3
4
3
2
2
2
2
2
1
0
2
2
1
2
0
1
3
0
2
2
0
1
1
0
0
0
0
0
0
0
0
2
1
0
0
4
0
0
0
3
1
0
0
0
3
2
0
3
5
2
0
1
1
0
0
1
1
1
0
0
3
2
2
1
5
2
2
0
2
2
1
1
3
3
0
3
2
1
2
4
1
2
2
1
0
3
3
2
1
2
3
0
1
0
3
0
0
2
1
0
0
0
0
0
0
2
2
1
1
4
1
1
1
2
1
1
0
2
0
0
0
0
0
0
0
0
0
0
0
0
0
0
0
0
0
0
0
0
0
0
0
0
0
3
0
0
1
3
0
0
0
1
0
0
0
4
3
2
2
4
6
3
1
4
6
5
1
5
5
5
1
6
9
7
5
6
10
7
9
6
11
10
9
8
13
11
9
8
9
10
6
7
8
6
5
8
7
8
9
9
7
8
9
8
6
7
8
5
5
5
7
1
2
2
1
0
2
2
3
3
2
4
4
3
3
3
0
0
1
0
0
0
1
2
1
0
0
0
0
2
2
4
2
1
0
0
0
0
0
0
3
1
1
0
2
1
3
0
2
3
0
0
1
4
2
1
2
6
2
1
0
4
2
2
3
4
6
4
3
5
8
7
4
6
7
6
2
7
10
8
8
10
11
8
10
7
11
11
13
9
14
13
11
9
12
15
11
11
11
13
10
12
10
12
11
10
7
9
9
8
7
7
9
7
4
5
9
3
3
6
5
2
4
2
1
0
0
1
1
1
1
3
1
3
5
3
3
1
2
3
3
1
2
2
0
0
0
2
0
0
0
0
0
0
0
0
0
0
0
0
0
0
0
0
1
0
0
0
0
1
0
0
0
4
3
1
0
3
3
2
5
7
7
3
3
4
6
7
3
8
9
9
4
11
13
11
11
13
15
12
13
10
14
13
13
11
16
15
15
13
16
19
16
15
17
19
17
16
12
14
13
11
8
11
12
10
10
11
12
10
7
8
10
7
8
9
8
6
6
3
3
1
1
1
1
0
1
1
1
1
4
1
2
0
1
2
2
1
1
3
0
0
0
2
0
0
0
0
0
0
0
0
0
0
1
0
2
0
1
0
1
0
0
0
0
3
1
1
1
4
1
2
2
3
4
3
5
6
7
3
7
9
10
10
9
11
11
12
8
15
16
16
14
19
19
19
20
20
25
25
23
21
25
23
24
21
24
25
23
20
22
24
23
21
20
23
22
21
18
19
17
14
13
15
14
15
11
12
13
10
7
8
7
5
5
4
6
3
5
4
5
4
5
3
2
1
1
0
0
0
0
1
0
0
1
3
0
0
0
1
0
0
0
0
0
2
0
0
0
0
0
0
1
0
2
0
3
2
1
0
0
3
1
1
1
3
0
2
5
6
8
8
10
11
16
10
15
16
17
17
18
20
20
21
17
24
25
25
24
29
29
27
27
27
33
33
35
35
39
36
36
33
36
36
35
33
33
36
35
32
32
34
32
30
30
30
28
25
22
22
21
21
16
18
16
15
13
12
12
10
9
7
9
5
5
3
4
5
5
2
1
0
0
0
0
0
0
0
0
0
0
0
0
0
0
5
2
4
0
0
0
2
0
0
0
0
0
0
1
1
2
0
4
3
3
3
2
6
5
4
4
6
4
5
9
7
11
10
12
13
19
14
20
21
22
23
25
28
29
32
29
36
38
39
38
44
45
44
46
48
51
51
52
53
54
53
54
53
55
55
55
54
52
53
54
48
47
48
45
42
41
43
39
37
36
36
33
33
28
28
26
24
20
20
17
15
13
12
13
12
10
6
6
4
4
2
5
4
5
4
6
7
3
3
3
2
0
3
0
0
0
0
0
0
0
0
0
0
0
0
0
0
0
0
0
1
1
0
2
3
1
2
1
3
1
2
3
6
6
9
13
12
15
16
17
19
25
22
27
30
30
31
33
37
39
43
43
50
51
54
52
58
60
61
60
65
70
68
69
72
74
74
77
77
81
77
78
77
74
71
73
66
65
66
64
59
57
57
53
49
48
49
43
43
39
39
36
35
30
29
28
26
22
21
19
18
16
12
13
12
10
6
8
6
6
3
3
4
0
2
2
3
0
0
0
0
0
0
0
0
0
0
0
0
0
0
0
0
0
0
0
0
0
0
1
2
0
1
1
5
4
3
5
8
3
6
12
12
17
22
22
23
29
26
32
36
38
41
45
46
50
57
56
63
65
70
70
76
78
81
81
85
91
91
92
94
94
94
96
96
99
95
96
98
95
92
93
87
85
86
81
77
75
73
68
64
62
62
55
53
48
48
45
42
35
37
34
30
28
27
23
22
18
14
15
12
12
9
11
9
8
4
5
3
0
2
1
1
0
0
0
0
0
0
0
0
0
0
0
0
0
0
0
0
0
0
0
0
0
0
0
0
0
3
2
5
5
5
8
13
11
15
20
19
23
29
31
35
40
39
47
50
53
59
61
62
69
74
75
83
86
90
94
99
101
106
108
112
118
120
124
129
127
129
133
132
132
128
130
131
128
124
126
118
113
113
108
103
101
98
92
87
84
82
74
69
64
64
60
55
49
50
44
38
32
29
25
23
20
18
20
15
15
11
11
9
7
4
5
4
0
0
1
0
0
0
0
0
0
0
0
0
0
0
0
0
0
0
0
0
0
0
0
0
0
0
0
3
5
8
7
9
9
7
10
16
16
19
24
25
28
34
38
42
46
48
56
60
64
70
75
77
84
92
96
103
108
114
119
125
129
137
140
144
150
154
158
162
159
161
165
162
162
157
159
160
155
150
154
145
139
141
137
130
127
124
117
111
107
105
96
91
85
84
77
71
62
61
55
51
46
42
39
36
31
27
26
19
18
14
14
12
9
7
9
7
3
4
4
2
1
0
0
0
0
0
0
0
0
0
0
0
0
0
0
0
0
0
0
0
0
0
0
0
2
6
3
7
10
10
13
20
19
22
28
29
33
40
46
50
54
59
66
71
75
83
90
92
100
110
115
120
128
136
142
149
153
161
165
169
174
179
186
187
184
188
193
191
193
189
193
192
184
178
183
173
166
169
165
157
152
146
141
132
126
123
114
106
99
97
90
85
75
76
70
62
54
51
45
38
35
32
28
21
22
18
18
16
13
11
12
9
7
5
2
0
0
0
0
0
0
0
0
0
0
0
0
0
0
0
0
0
0
0
0
0
0
0
0
0
1
4
2
8
12
10
13
19
18
22
29
32
38
44
51
55
59
63
74
79
84
94
103
104
112
124
130
137
146
154
161
167
170
180
185
189
192
201
208
210
208
213
218
215
217
214
220
220
212
206
209
197
188
189
184
177
171
166
158
149
141
136
127
118
111
108
100
92
84
83
77
70
62
58
52
44
40
38
32
25
25
21
19
16
13
9
9
7
5
4
3
0
0
0
0
0
0
0
0
0
0
0
0
0
0
0
0
0
0
0
0
0
0
0
0
0
2
5
4
10
13
14
18
24
23
28
35
37
42
49
58
64
68
74
87
91
94
105
113
116
123
134
143
149
158
166
175
183
187
197
207
212
216
226
235
236
233
238
243
239
241
238
243
241
232
226
232
217
208
211
206
196
191
186
177
167
158
150
139
130
123
119
110
102
91
86
80
72
64
61
55
47
43
41
36
30
27
23
20
17
13
9
8
6
4
4
2
0
0
0
0
0
0
0
0
0
0
0
0
0
0
0
0
0
0
0
0
0
0
0
0
1
5
7
6
10
14
16
17
23
22
27
33
38
43
50
59
65
70
75
89
96
97
108
119
123
130
143
152
158
168
176
184
193
197
206
218
224
227
238
248
245
246
251
255
251
253
249
253
251
241
236
242
228
219
221
216
207
200
194
185
175
167
162
152
142
133
127
119
111
98
96
90
80
72
72
62
53
47
43
37
32
29
24
22
19
14
10
9
7
4
3
1
0
0
0
0
0
0
0
0
0
0
0
0
0
0
0
0
0
0
0
0
0
0
0
0
1
4
6
5
9
10
14
16
21
21
28
33
37
42
49
57
62
66
69
83
89
90
101
112
116
124
136
146
152
161
168
176
184
187
196
208
211
215
226
233
229
232
237
242
240
243
239
243
240
231
227
231
215
207
209
204
195
190
185
175
164
156
151
141
131
123
118
112
103
90
90
85
75
68
69
60
50
45
42
35
30
27
21
19
18
15
11
10
9
5
3
2
1
0
0
0
0
0
0
0
0
0
0
0
0
0
0
0
0
0
0
0
0
0
0
0
0
2
2
4
8
9
13
14
19
19
25
29
33
37
46
54
59
61
64
78
82
82
93
103
105
112
123
134
140
148
153
161
167
168
176
185
188
192
202
212
210
214
217
222
218
221
217
220
217
209
205
209
194
189
191
186
176
172
167
157
146
140
136
127
118
112
109
102
92
81
81
75
66
59
59
51
43
39
37
34
31
27
22
21
17
12
9
9
6
3
2
1
0
0
0
0
0
0
0
0
0
0
0
0
0
0
0
0
0
0
0
0
0
0
0
0
2
4
5
6
9
9
16
14
19
19
26
29
32
35
44
51
55
58
63
74
77
78
88
97
99
105
113
123
127
132
137
148
155
159
168
178
180
185
193
202
199
202
204
209
205
207
203
206
203
196
192
195
181
178
180
176
166
163
158
151
140
135
130
121
111
104
101
93
84
74
77
70
61
54
54
48
40
35
33
29
23
21
18
19
13
9
6
6
5
2
1
1
0
0
0
0
0
0
0
0
0
0
0
0
0
0
0
0
0
0
0
0
0
0
0
0
1
3
4
5
8
8
12
10
13
15
21
24
27
30
37
41
44
45
50
61
64
64
74
82
82
87
95
105
107
113
120
129
132
134
141
148
149
157
163
171
167
171
171
176
173
174
171
175
172
166
163
164
151
149
150
147
137
136
132
126
117
114
110
102
94
89
87
80
71
63
68
61
53
47
48
41
35
31
30
27
20
18
15
15
9
7
4
4
3
1
0
2
0
0
0
0
0
0
0
0
0
0
0
0
0
0
0
0
0
0
0
0
0
0
0
0
2
3
4
4
6
4
8
8
8
10
16
18
21
25
32
35
35
35
40
48
46
48
56
62
62
68
75
83
84
88
95
104
105
107
113
117
118
125
128
134
131
133
134
139
134
135
132
135
133
129
127
129
118
118
118
116
107
108
104
99
92
91
87
79
73
71
70
65
57
51
54
48
41
39
40
34
27
22
24
21
14
14
13
13
10
9
7
7
6
5
3
5
1
0
0
0
0
0
0
0
0
0
0
0
0
0
0
0
0
0
0
0
0
0
0
0
1
1
1
0
2
4
10
9
11
12
17
16
19
22
29
31
32
32
40
46
46
49
58
61
62
66
72
78
79
83
89
96
97
99
103
107
109
113
115
123
121
122
124
130
126
127
125
128
126
122
119
121
112
112
110
109
103
102
97
93
86
84
81
73
66
64
62
57
50
46
48
43
35
33
34
30
23
20
24
23
17
16
15
15
10
10
6
7
3
2
0
5
0
0
0
0
0
0
0
0
0
0
0
0
0
0
0
0
0
0
0
0
0
0
0
0
1
1
1
2
4
4
9
9
9
11
16
14
18
20
25
27
29
31
37
41
41
43
49
52
53
56
63
69
69
73
77
82
83
86
91
98
100
103
106
112
107
107
109
114
112
114
113
117
114
111
107
108
99
98
95
94
89
89
86
82
77
73
72
65
57
56
55
51
45
43
42
39
31
30
31
30
20
17
20
18
11
13
13
12
7
6
3
4
1
0
0
5
0
0
0
1
0
0
0
0
0
1
0
0
0
0
0
0
1
1
0
0
1
0
0
0
0
0
1
1
4
4
6
4
3
5
10
8
11
13
17
18
21
21
26
28
29
31
38
40
41
42
49
53
53
57
62
65
65
69
72
77
77
80
81
85
83
84
83
86
86
86
85
89
87
84
82
84
77
77
75
72
68
68
65
62
59
57
56
50
44
44
43
41
37
35
34
34
26
26
27
26
17
16
17
16
9
10
9
6
2
2
0
4
2
0
0
4
0
0
0
3
1
0
0
0
1
3
0
0
0
0
0
0
2
2
0
0
0
0
0
0
2
2
1
1
2
3
5
2
2
5
12
9
12
14
18
17
20
20
24
24
26
29
35
34
37
38
42
46
47
48
51
52
54
57
61
66
67
68
70
74
72
73
71
74
73
72
70
74
71
68
67
68
63
64
65
63
60
60
57
54
50
47
48
44
39
41
40
38
33
32
29
31
22
22
22
22
13
13
13
13
7
7
9
9
6
5
4
7
5
2
0
6
1
0
0
3
0
0
0
3
3
2
0
0
0
0
0
0
0
0
0
0
0
0
0
1
3
2
2
2
3
4
6
4
3
7
13
10
11
12
15
15
18
20
24
22
26
27
32
32
35
34
38
42
44
47
49
49
51
53
53
57
58
59
62
65
66
66
64
67
67
66
66
71
68
65
64
65
59
60
63
60
57
57
54
52
46
42
43
38
32
34
34
30
25
24
21
22
15
15
15
18
12
13
14
16
8
7
8
9
3
2
2
5
2
1
1
6
1
0
0
1
0
0
0
0
0
0
0
1
0
0
0
0
0
0
0
0
0
0
0
0
0
0
2
0
2
3
4
2
1
5
9
9
9
12
14
13
15
17
20
19
24
21
25
24
28
27
31
33
36
37
38
40
43
43
44
45
48
50
53
52
55
54
53
56
57
56
56
60
58
54
54
54
49
48
51
47
44
45
42
41
38
36
36
32
27
29
29
26
23
24
21
22
17
16
14
15
9
9
8
10
4
2
4
6
1
1
1
5
1
0
0
3
0
0
0
2
0
0
0
0
0
0
0
1
0
0
0
1
0
0
1
1
2
0
0
0
0
1
3
0
0
2
3
3
0
3
4
3
3
7
10
10
11
11
14
12
18
15
19
18
23
21
23
25
28
27
27
29
32
32
35
34
38
41
42
39
43
42
39
42
42
40
39
42
41
39
42
42
39
38
41
36
34
33
29
28
26
28
28
25
23
24
23
22
19
20
18
19
14
14
12
11
8
7
8
11
6
2
4
6
1
1
2
4
0
0
0
4
1
0
0
2
0
0
0
0
0
0
1
3
0
0
2
3
0
0
1
0
0
0
0
1
0
1
3
1
0
0
2
2
1
5
5
5
5
6
9
9
7
8
11
9
14
12
13
14
18
16
15
17
21
21
20
22
26
25
26
25
29
30
29
26
30
29
28
30
30
31
31
32
31
28
29
28
27
25
28
26
26
27
23
22
20
22
21
20
17
19
17
16
13
14
12
10
6
7
8
7
6
5
7
8
6
1
5
7
3
3
4
5
1
0
0
1
0
0
0
2
0
0
2
3
2
0
0
1
0
0
0
0
0
0
1
2
2
0
2
0
0
0
3
3
1
2
2
2
0
3
2
5
5
5
7
7
5
7
9
7
11
9
9
11
16
14
14
16
20
20
19
21
23
20
20
20
23
24
23
22
26
26
26
27
28
27
26
26
26
23
25
26
25
25
25
22
22
22
18
17
17
19
17
15
13
14
12
11
8
11
10
6
4
5
6
4
5
4
8
7
6
3
3
3
0
0
0
4
2
2
3
3
0
0
0
0
0
0
0
0
0
0
2
3
0
0
0
1
0
0
0
0
0
0
0
0
0
0
0
0
1
2
2
3
2
2
0
4
4
5
6
6
5
7
8
8
13
11
9
11
14
11
11
13
17
15
15
16
19
16
17
17
17
18
18
19
21
21
21
21
22
23
23
23
25
22
22
20
22
19
17
16
18
17
14
15
15
17
14
14
12
14
11
9
6
10
10
7
5
6
5
2
3
3
6
2
1
0
2
3
3
0
0
2
0
0
0
0
0
0
2
3
0
0
2
0
0
0
0
1
0
0
0
3
1
0
2
2
0
0
3
1
0
0
0
1
3
2
1
1
0
0
0
2
2
2
2
1
1
3
2
2
6
6
4
4
8
4
4
6
9
5
7
8
10
8
10
13
12
12
12
12
12
12
11
11
12
13
12
13
14
13
11
10
13
12
9
9
10
9
7
5
6
9
5
7
8
9
7
5
3
7
7
4
5
4
5
3
4
3
8
2
3
3
5
4
4
1
0
0
0
0
1
1
0
0
1
0
0
0
0
0
0
0
0
0
0
0
0
4
3
0
2
2
0
0
0
0
0
0
0
0
1
1
0
0
2
1
0
4
2
3
0
1
3
6
3
3
5
4
1
0
5
2
4
5
7
4
5
8
10
7
6
10
7
5
6
8
6
7
6
7
9
9
7
7
8
7
4
4
6
6
5
6
8
9
8
8
8
9
5
5
6
7
6
3
3
5
5
1
3
3
3
1
2
2
5
0
0
0
1
0
0
0
0
0
0
1
3
2
1
0
2
0
0
0
5
1
0
0
0
0
0
0
0
1
1
0
1
2
1
0
2
2
4
2
0
2
4
1
0
2
2
0
0
2
0
3
0
0
2
5
0
1
3
3
1
0
5
4
6
7
8
4
7
8
9
4
5
8
6
5
6
9
6
8
6
8
8
7
2
4
5
4
3
5
6
7
4
5
6
7
5
5
6
6
3
2
3
4
5
2
4
5
3
0
1
0
0
0
0
0
3
0
0
2
3
0
0
0
0
0
0
2
4
3
1
2
2
0
0
0
3
0
0
0
0
1
1
0
1
0
0
0
0
0
0
0
0
0
1
0
0
0
2
1
0
3
5
4
1
3
1
4
0
0
2
5
0
2
4
5
5
3
6
5
4
3
5
3
4
5
5
0
2
5
4
2
4
6
4
4
4
6
7
6
4
6
8
7
6
6
6
7
3
4
5
7
3
5
4
5
1
1
1
0
1
1
4
6
4
0
2
1
3
1
2
3
4
0
0
1
3
0
0
2
1
0
0
0
0
0
0
0
1
1
0
1
4
1
0
1
0
1
0
0
0
0
1
0
4
2
4
1
1
0
1
1
0
0
2
0
0
0
1
1
0
0
0
1
0
0
0
4
0
1
1
2
2
0
1
2
0
0
2
0
1
1
2
0
0
2
4
0
1
4
2
2
2
3
3
3
0
3
3
2
3
4
2
6
2
2
2
3
0
0
0
1
0
0
1
0
0
0
2
2
3
0
3
3
4
2
2
2
5
0
0
2
5
0
0
2
3
0
0
1
1
0
0
0
0
0
0
0
0
0
0
2
0
0
0
0
1
0
2
0
1
0
0
0
0
0
0
0
0
0
1
0
0
0
0
1
0
0
1
3
0
2
1
5
0
2
0
0
0
0
0
0
0
0
1
1
1
0
2
0
0
2
3
1
1
4
1
0
0
0
2
1
0
1
1
0
0
0
0
1
0
0
0
3
0
2
1
3
0
0
1
0
0
2
2
2
2
0
0
2
2
0
0
0
2
0
0
2
4
0
0
0
0
1
0
2
3
1
0
1
3
2
2
0
2
3
2
6
4
4
3
1
3
1
3
0
1
0
3
1
2
0
5
4
2
2
4
0
0
0
1
3
0
1
2
2
0
0
0
0
0
0
0
0
0
2
1
2
0
0
0
0
0
0
1
0
0
1
0
0
0
0
0
0
0
0
1
0
0
0
0
0
0
1
0
0
0
0
0
1
0
0
1
1
0
0
0
0
0
0
0
0
0
0
0
0
1
0
0
1
3
0
0
0
3
1
0
1
2
1
0
1
1
1
0
0
0
0
0
0
0
3
2
6
4
3
4
0
1
0
2
0
0
0
1
0
1
0
2
1
0
0
1
0
0
0
2
3
0
2
4
2
0
2
0
2
0
2
1
1
0
1
1
2
0
0
2
1
0
0
0
0
0
0
0
0
0
1
1
0
0
0
1
0
1
2
2
1
1
3
0
1
0
0
0
1
0
0
0
1
0
0
0
0
1
2
0
1
0
0
0
1
1
0
0
1
4
0
0
0
2
0
0
1
2
1
0
0
0
0
0
0
0
0
0
0
0
0
1
3
2
0
1
0
0
0
3
0
2
0
1
0
0
0
0
0
0
0
1
0
0
0
0
0
0
0
1
0
0
1
0
2
1
2
1
1
0
0
0
0
0
0
0
0
0
0
0
1
0
1
0
0
0
0
0
0
0
0
0
0
0
0
0
0
0
3
0
0
2
2
0
1
0
0
0
1
0
0
0
1
0
0
0
1
1
1
0
4
2
0
0
2
3
0
0
0
2
1
0
1
3
3
0
1
1
2
0
0
1
2
0
0
0
0
0
1
1
0
2
0
0
0
2
0
0
0
0
0
1
0
2
0
0
0
1
0
0
0
1
1
0
1
4
1
0
0
0
0
0
0
0
0
0
0
0
0
0
0
0
0
0
0
0
0
0
0
0
1
0
0
0
0
0
0
0
0
0
0
0
0
0
0
0
0
0
0
0
0
0
0
0
0
0
0
0
0
0
0
0
1
2
1
0
4
2
0
0
0
0
0
0
0
3
0
0
0
0
1
0
0
0
2
0
0
1
2
0
0
0
0
0
2
1
1
4
0
0
1
2
0
1
2
2
1
4
1
3
1
0
1
3
0
0
2
2
0
1
1
2
0
1
0
0
0
0
0
0
0
0
0
1
0
0
0
0
0
0
0
0
0
0
0
0
0
0
0
0
0
0
0
0
0
0
0
0
0
0
0
0
0
0
0
0
0
0
0
0
0
0
0
0
0
0
0
0
0
0
0
0
1
0
0
0
0
0
0
0
0
1
1
0
0
0
0
0
0
0
1
0
1
1
1
0
0
0
0
1
2
2
2
4
1
0
3
1
0
0
0
0
0
3
0
1
0
0
0
2
0
0
0
0
0
0
0
1
0
2
0
2
1
0
0
0
0
0
0
0
0
0
0
0
0
0
0
0
0
0
0
0
0
0
0
0
0
0
0
0
0
0
0
0
0
0
0
0
0
0
0
0
0
0
0
0
0
0
0
0
0
0
0
0
0
0
0
0
0
0
0
0
0
0
0
0
0
0
0
0
0
1
2
0
0
0
0
0
0
0
0
0
0
0
0
0
1
0
0
0
0
0
1
0
0
0
0
0
0
0
0
0
0
0
1
2
2
1
1
2
0
3
0
1
0
2
0
1
2
1
0
0
1
0
0
0
0
0
0
0
0
0
0
0
0
0
0
0
0
0
0
0
0
0
0
0
0
0
0
0
0
0
0
0
0
0
0
0
0
0
0
0
0
0
0
0
0
0
0
0
0
1
0
1
1
0
0
2
0
0
1
2
0
0
1
0
0
0
2
0
1
1
4
0
0
0
0
0
0
2
0
0
2
0
2
1
0
0
2
0
0
0
0
2
1
1
2
1
1
0
0
0
0
0
0
1
0
3
0
0
0
1
0
0
0
0
0
0
0
0
0
0
0
0
0
0
0
0
0
0
0
0
0
0
0
0
0
0
0
0
0
0
0
0
0
0
0
0
0
0
0
0
0
0
0
0
0
1
0
0
0
0
0
0
0
1
0
0
0
2
0
0
0
1
0
0
1
2
0
1
1
0
0
0
1
0
0
0
3
0
0
0
0
0
0
3
2
2
2
0
2
0
0
0
0
0
0
0
0
3
1
1
2
2
2
1
2
1
0
0
0
0
0
2
0
0
0
3
0
0
0
0
0
0
1
0
0
0
0
0
0
0
0
0
0
0
0
0
0
0
0
0
0
0
0
0
0
0
0
0
0
0
0
0
0
0
0
0
0
0
0
0
0
0
0
0
0
0
0
0
0
0
0
0
0
0
0
0
0
0
0
0
0
0
0
0
0
0
0
0
0
0
0
0
2
1
2
1
4
3
1
3
1
0
3
0
4
0
3
1
2
0
2
0
0
2
0
0
1
2
2
1
0
0
0
0
0
0
0
0
0
0
0
1
0
0
0
0
0
0
0
0
0
0
0
0
0
0
0
0
0
0
0
0
0
0
0
0
0
0
0
0
0
0
0
0
0
0
0
0
0
0
0
0
0
0
0
0
0
0
0
0
0
2
0
0
0
0
0
0
0
0
0
0
0
0
0
0
0
0
0
0
0
0
0
0
1
2
0
0
1
0
0
0
2
1
0
1
1
0
2
0
2
0
1
0
0
0
1
0
0
0
0
0
0
0
0
0
0
0
0
2
1
1
2
4
0
0
0
2
0
0
0
0
0
0
0
0
0
0
0
0
0
0
0
0
0
0
0
0
0
0
0
0
0
0
0
0
0
0
0
0
0
0
0
0
0
0
0
0
0
0
0
0
0
0
0
0
0
0
0
0
0
0
0
0
0
2
0
0
0
0
0
2
3
0
0
1
0
0
0
0
1
2
0
0
3
0
0
0
4
2
0
0
1
0
1
0
0
0
0
0
0
0
2
0
4
4
3
0
0
0
0
0
0
0
0
0
0
0
0
2
0
0
0
1
0
0
0
0
0
0
0
0
0
0
0
0
0
0
0
0
0
0
0
0
0
0
0
0
0
0
0
0
0
0
0
0
0
0
0
0
0
0
0
0
0
0
0
0
0
0
0
0
0
0
0
0
0
2
0
0
0
0
0
1
1
0
0
1
0
0
0
1
2
1
0
2
3
0
0
0
0
0
0
0
2
0
1
0
3
1
0
0
0
0
3
0
0
0
2
0
0
0
1
1
0
2
1
2
0
0
0
1
0
0
0
0
0
0
1
1
0
0
0
0
0
0
0
0
0
0
0
0
0
0
0
0
0
0
0
0
0
0
0
0
0
0
0
0
0
0
0
0
0
0
0
0
0
0
0
0
0
0
0
0
0
0
0
0
0
0
0
0
0
0
0
0
0
0
0
0
0
0
0
0
0
0
0
1
2
0
0
0
2
0
0
1
2
0
0
0
4
2
2
1
4
1
1
1
0
0
2
0
0
0
1
0
1
0
2
1
1
2
1
1
0
0
0
0
1
0
0
0
0
0
0
0
0
0
0
0
0
0
0
0
0
0
0
0
0
0
0
0
0
0
0
0
0
0
0
0
0
0
0
0
0
0
0
0
0
0
0
0
0
0
0
0
0
0
0
0
0
0
0
0
0
0
0
0
0
0
0
0
1
0
0
0
0
0
0
0
0
0
0
0
2
0
0
0
3
0
0
0
2
0
0
0
0
0
0
0
2
1
2
2
2
2
1
0
0
0
0
0
0
0
0
0
0
0
0
0
0
0
0
0
0
0
0
0
0
0
0
0
0
0
0
0
0
0
0
0
0
0
0
0
0
0
0
0
0
0
0
0
0
0
0
0
0
0
0
0
0
0
0
0
0
0
0
0
0
0
0
0
0
0
0
0
0
0
0
0
0
0
0
0
0
0
0
0
1
0
0
0
0
0
0
2
0
0
0
1
3
1
0
0
2
0
0
0
3
0
1
0
1
0
0
0
2
1
0
0
0
0
0
0
0
0
0
0
0
0
0
1
0
0
0
0
0
2
1
2
2
1
0
0
0
0
0
0
0
0
0
0
0
0
0
0
0
0
0
0
0
0
0
0
0
0
0
0
0
0
0
0
0
0
0
0
0
0
0
0
0
0
0
0
0
0
0
0
0
0
0
0
0
0
0
0
0
0
0
0
0
0
0
0
1
0
0
0
0
0
0
0
0
0
0
1
1
0
0
1
3
0
2
1
0
0
0
0
0
1
1
0
1
1
0
1
1
0
1
1
0
0
0
0
0
0
0
1
0
0
0
2
0
1
0
0
0
0
0
0
0
0
0
0
0
0
0
0
0
0
0
0
0
0
0
0
0
0
0
0
0
0
0
0
0
0
0
0
0
0
0
0
0
0
0
0
0
0
0
0
0
0
0
0
0
0
0
0
0
0
0
0
0
0
0
0
0
0
0
0
0
0
0
0
0
0
0
2
1
0
1
2
0
0
0
0
1
0
0
1
1
0
0
1
2
3
2
1
3
2
0
0
0
0
0
0
1
0
1
1
1
0
0
2
0
0
1
2
0
2
0
0
0
0
0
0
0
0
1
0
0
0
0
0
0
0
0
0
0
0
0
0
0
0
0
0
0
0
0
0
0
0
0
0
0
0
0
0
0
0
0
0
0
0
0
0
0
0
0
0
0
0
0
0
0
0
0
0
0
0
0
0
0
0
0
0
0
0
0
1
0
0
0
0
0
0
1
0
0
0
0
0
0
0
0
0
0
0
0
0
0
0
0
0
0
0
0
1
2
0
2
2
2
0
1
0
0
0
0
2
0
0
0
0
0
0
1
0
0
0
1
0
0
0
0
0
0
0
0
0
0
0
0
0
0
0
0
0
0
0
0
0
0
0
0
0
0
0
0
0
0
0
0
0
0
0
0
0
0
0
0
0
0
0
0
0
0
0
0
0
0
0
0
0
0
0
0
0
0
0
0
0
0
0
0
0
0
0
0
0
0
0
2
0
0
0
0
1
0
1
0
2
0
2
3
1
0
1
4
0
1
2
0
1
1
0
1
0
0
0
0
0
0
0
0
0
0
0
0
0
0
0
0
0
0
0
0
0
1
0
0
0
0
0
0
0
0
0
0
0
0
0
0
0
0
0
0
0
0
0
0
0
0
0
0
0
0
0
0
0
0
0
0
0
0
0
0
0
0
0
0
0
0
0
0
0
0
0
0
0
0
0
0
0
0
0
0
0
0
0
0
0
0
0
0
0
0
0
1
0
0
1
2
2
2
4
2
2
0
0
2
0
0
0
3
0
0
0
0
1
2
0
2
2
2
0
2
2
4
0
1
3
4
0
1
2
2
0
0
0
0
0
0
0
0
0
0
0
0
0
0
0
0
0
0
0
0
0
0
0
0
0
0
0
0
0
0
0
0
0
0
0
0
0
0
0
0
0
0
0
0
0
0
0
0
0
0
0
0
0
0
0
0
0
0
0
0
0
0
0
0
0
0
0
0
1
0
0
0
0
0
0
0
0
1
0
1
3
2
0
0
0
0
0
0
1
4
1
0
1
5
0
0
2
0
0
0
0
0
0
0
0
1
1
2
0
1
3
2
0
2
0
0
0
0
0
0
0
0
0
0
0
0
0
0
0
0
0
0
0
0
0
0
0
0
0
0
0
0
0
0
0
0
0
0
0
0
0
0
0
0
0
0
0
0
0
0
0
0
0
0
0
0
0
0
0
0
0
0
0
0
0
0
0
0
0
0
0
0
0
0
0
1
0
0
0
2
0
0
0
0
0
0
0
0
0
0
0
1
0
0
0
0
0
0
0
3
0
0
0
2
2
2
0
1
0
0
0
0
0
1
0
1
3
2
0
0
0
0
0
0
0
1
1
2
0
0
0
0
0
0
0
0
0
0
0
0
0
0
0
0
0
0
0
0
0
0
0
0
0
0
0
0
0
0
0
0
0
0
0
0
0
0
0
0
0
0
0
0
0
0
0
0
0
0
0
0
0
0
0
0
0
0
0
0
0
0
0
0
0
0
0
0
0
0
0
2
0
0
0
0
0
0
0
3
1
0
0
3
1
1
2
4
1
0
0
2
1
4
0
0
1
0
0
0
0
0
0
0
0
0
0
0
0
0
0
0
0
0
0
0
0
0
0
0
0
0
0
0
0
0
0
0
0
0
0
0
0
0
0
0
0
0
0
0
0
0
0
0
0
0
0
0
0
0
0
0
0
0
0
0
0
0
0
0
0
0
0
0
0
0
0
0
0
0
0
0
0
0
0
0
0
0
0
0
0
0
0
1
0
0
0
2
0
0
0
2
2
2
2
3
2
1
0
2
1
0
0
0
0
0
0
1
1
2
0
0
4
2
2
2
3
3
3
1
3
2
0
1
3
2
1
1
2
1
0
2
2
0
0
0
0
0
0
0
0
0
0
0
0
0
0
0
0
0
0
0
0
0
0
0
0
0
0
0
0
0
0
0
0
0
0
0
0
0
0
0
0
0
0
0
0
0
0
0
0
0
0
0
0
0
0
0
0
0
1
2
0
0
0
2
0
0
0
1
0
0
1
2
0
0
0
0
0
0
0
1
0
1
0
0
0
0
0
1
1
1
0
1
1
1
0
0
0
0
0
1
2
1
0
0
2
0
1
1
3
0
0
0
0
0
0
0
2
2
0
0
0
0
0
0
0
0
0
0
0
0
0
0
0
0
0
0
0
0
0
0
0
0
0
0
0
0
0
0
0
0
0
0
0
0
0
0
0
0
0
0
0
0
0
0
0
0
0
0
0
0
0
0
0
0
0
0
0
0
0
1
0
0
0
0
0
0
0
0
0
0
0
0
1
0
0
0
0
0
0
0
0
0
0
0
0
0
1
2
4
4
2
0
2
0
0
1
4
2
1
0
3
1
0
0
2
0
0
0
2
1
0
0
0
1
0
0
0
0
0
0
0
0
0
0
0
0
0
0
0
0
0
0
0
0
0
0
0
0
0
0
0
0
0
0
0
0
0
0
0
0
0
0
0
0
0
0
0
0
0
0
0
0
0
0
0
0
0
0
0
0
0
0
0
0
0
0
0
0
0
0
0
0
1
3
1
1
0
0
1
2
0
1
1
3
0
2
4
1
0
2
1
2
3
3
4
5
3
0
2
1
0
0
0
0
0
0
0
0
0
0
0
0
0
0
1
1
0
0
0
1
0
0
0
1
0
0
0
0
0
0
0
0
0
0
0
0
0
0
0
0
0
0
0
0
0
0
0
0
0
0
0
0
0
0
0
0
0
0
0
0
0
0
0
0
0
0
0
0
0
0
0
0
0
0
0
0
0
0
0
0
0
0
0
0
0
0
0
0
0
0
0
0
0
0
0
1
0
3
2
3
0
1
3
1
0
0
0
0
0
0
0
0
0
0
2
0
0
0
1
1
0
0
2
2
2
0
2
2
1
0
1
1
0
0
0
1
0
0
0
1
0
0
0
0
0
0
0
0
0
0
0
0
0
0
0
0
0
0
0
0
0
0
0
0
0
0
0
0
0
0
0
0
0
0
0
0
0
0
0
0
0
0
0
0
0
0
0
0
0
0
0
0
0
0
0
0
0
1
1
0
0
0
0
0
0
1
0
2
0
2
0
1
0
3
0
0
0
0
0
0
0
0
2
0
0
0
0
0
0
0
3
2
2
2
4
3
0
0
1
2
0
0
0
0
0
0
2
3
0
0
0
0
0
0
0
0
0
0
0
0
0
0
0
0
0
0
0
0
0
0
0
0
0
0
0
0
0
0
0
0
0
0
0
0
0
0
0
0
0
0
0
0
0
0
0
0
0
0
0
0
0
0
0
0
0
0
0
0
0
0
0
0
0
0
0
0
0
0
0
0
0
1
0
1
0
0
0
0
0
1
0
0
0
0
1
0
0
0
2
0
0
0
0
0
0
0
0
0
0
0
2
3
0
1
1
3
0
0
0
1
0
0
0
1
0
0
0
1
0
0
0
0
0
0
0
0
0
0
0
0
0
0
0
0
0
0
0
0
0
0
0
0
0
0
0
0
0
0
0
0
0
0
0
0
0
0
0
0
0
0
0
0
0
0
0
0
0
0
0
0
0
0
0
0
0
0
0
0
0
0
0
0
0
0
1
0
0
1
0
0
0
1
0
0
0
2
0
1
0
0
1
0
2
1
3
0
0
2
2
3
1
3
2
1
0
0
0
2
0
0
0
2
0
0
1
4
0
0
2
2
0
0
0
1
0
0
0
0
0
0
1
0
0
0
0
0
0
0
0
0
0
0
0
0
0
0
0
0
0
0
0
0
0
0
0
0
0
0
0
0
0
0
0
0
0
0
0
0
0
0
0
0
0
0
0
0
0
0
0
0
0
0
0
0
0
0
0
0
0
0
0
0
0
0
0
0
0
1
0
0
0
4
0
0
1
1
0
0
1
0
0
0
0
2
1
1
0
0
0
1
0
0
0
2
0
0
0
2
0
0
1
2
0
0
2
2
0
0
0
0
0
0
0
0
0
0
0
0
0
0
0
0
0
0
0
0
0
0
0
0
0
0
0
0
0
0
0
0
0
0
0
0
0
0
0
0
0
0
0
0
0
0
0
0
0
0
0
0
0
0
0
0
0
0
0
0
0
0
0
0
0
0
0
0
0
0
0
0
3
1
1
0
0
0
0
1
1
3
0
0
0
0
0
0
1
0
0
0
2
2
0
0
1
1
1
4
3
2
2
4
1
1
0
3
0
0
1
3
0
1
5
4
0
2
1
0
0
0
0
0
0
0
0
0
0
0
0
0
0
0
0
0
0
0
0
0
0
0
0
0
0
0
0
0
0
0
0
0
0
0
0
0
0
0
0
0
0
0
0
0
0
0
0
0
0
0
0
0
0
0
0
0
0
0
0
0
0
0
0
0
0
0
0
0
1
0
0
0
0
0
0
0
0
1
0
0
0
1
0
0
1
0
0
0
2
1
0
0
0
0
0
0
0
0
0
1
0
0
1
2
0
0
2
0
0
0
0
0
0
0
0
0
0
0
0
0
0
0
0
0
0
0
0
0
0
0
0
0
0
0
0
0
0
0
0
0
0
0
0
0
0
0
0
0
0
0
0
0
0
0
0
0
0
0
0
0
0
0
0
0
0
0
0
0
0
0
0
0
0
0
0
0
0
0
0
0
0
0
0
0
0
0
0
0
0
0
0
0
1
1
0
0
1
0
0
0
2
2
0
3
5
3
2
3
4
2
0
2
1
0
0
1
0
0
1
0
0
0
1
1
0
1
5
2
0
1
1
0
0
0
0
0
0
0
0
0
0
0
0
0
0
0
0
0
0
0
0
0
0
0
0
0
0
0
0
0
0
0
0
0
0
0
0
0
0
0
0
0
0
0
0
0
0
0
0
0
0
0
0
0
0
0
0
0
0
0
0
0
0
0
0
0
0
0
0
0
0
0
0
0
0
0
0
0
0
0
0
0
1
0
0
2
2
2
0
1
1
2
3
3
3
0
0
0
0
0
0
0
0
0
0
0
0
0
0
0
0
0
3
0
0
0
1
0
0
0
0
0
0
0
0
0
0
0
0
0
0
0
0
0
0
0
0
0
0
0
0
0
0
0
0
0
0
0
0
0
0
0
0
0
0
0
0
0
0
0
0
0
0
0
0
0
0
0
0
0
0
0
0
0
0
0
0
0
0
0
0
0
0
0
0
0
0
0
0
0
0
1
2
1
3
2
2
1
1
0
0
0
0
0
0
0
0
