P2
# CREATOR: Diamond Light Source Beamline I02
120 118
255
0
0
1
0
0
0
0
0
0
0
0
0
0
0
0
0
0
0
0
0
2
1
4
4
2
2
2
2
1
0
0
0
0
0
0
0
0
0
0
0
1
1
0
0
1
1
0
0
0
0
0
0
3
4
3
0
0
0
0
0
1
2
2
0
0
0
0
1
2
4
2
1
1
1
0
0
0
0
0
0
2
5
3
1
1
0
0
0
0
2
3
2
2
2
2
2
0
0
1
1
1
5
1
0
0
0
0
0
3
3
2
0
1
0
0
0
1
1
0
0
1
1
2
2
0
2
0
1
0
0
0
1
0
1
1
0
1
0
0
0
1
0
1
1
1
1
2
2
2
0
0
0
0
0
0
0
0
0
0
0
3
1
0
0
2
1
1
0
1
2
0
0
1
0
0
0
0
0
0
0
0
2
2
0
0
0
0
1
2
4
1
0
0
0
0
0
1
2
2
0
2
4
2
0
0
0
0
0
0
3
2
0
0
0
2
1
0
0
2
1
0
3
1
0
0
0
0
0
0
0
0
0
0
0
0
0
1
1
0
0
0
0
0
3
1
2
0
2
0
0
0
4
0
1
0
0
1
0
0
1
3
1
2
0
0
0
0
0
1
0
0
0
1
0
2
2
5
4
3
0
4
1
0
0
0
0
0
0
0
0
0
0
1
3
4
2
4
4
3
0
0
2
3
1
1
3
0
0
1
4
1
1
3
3
2
0
3
3
2
0
2
3
0
0
1
2
0
0
0
1
0
0
0
0
1
1
0
0
1
0
0
1
0
0
0
0
0
0
1
0
0
0
0
0
0
0
1
0
0
0
1
2
0
3
0
0
0
1
0
0
0
0
0
1
0
0
0
0
0
0
0
0
1
0
2
2
0
0
1
0
0
0
2
0
0
0
0
0
0
0
3
0
0
0
1
1
2
0
2
4
0
0
2
1
0
0
0
0
0
0
0
2
2
0
0
2
0
0
0
3
0
0
0
0
0
0
0
0
0
0
0
2
1
0
0
2
2
0
0
2
0
0
1
2
2
3
0
1
2
0
0
0
0
0
0
0
2
0
1
1
1
0
2
0
0
0
0
0
0
0
0
0
0
1
0
0
0
1
0
0
0
1
1
0
0
2
2
1
1
1
1
0
1
0
2
2
1
0
3
2
0
0
0
0
0
0
0
0
0
0
2
0
2
0
2
1
2
0
0
2
0
0
2
3
0
0
0
0
0
0
2
2
0
0
0
1
0
1
2
5
2
2
1
0
0
0
0
2
1
0
1
3
1
0
0
2
2
0
2
3
1
0
0
1
2
1
0
0
3
1
0
1
2
0
0
0
1
0
0
0
1
1
2
1
1
0
0
0
0
0
0
0
0
2
2
2
0
2
2
0
0
0
1
0
0
1
1
0
1
1
0
0
0
0
0
0
1
0
2
2
0
0
1
1
0
1
1
2
2
0
0
0
0
0
0
1
4
3
3
4
1
0
1
0
0
0
0
0
1
0
1
1
0
0
0
4
0
0
0
0
0
0
1
2
1
0
2
4
2
0
0
1
0
0
0
0
1
0
0
2
1
0
0
0
1
0
0
0
2
0
0
0
1
0
0
0
1
0
0
0
0
0
1
0
0
0
1
1
2
3
0
0
0
1
4
1
0
0
3
0
1
0
0
0
0
1
1
0
0
1
0
0
1
0
0
0
0
0
0
0
1
2
3
4
3
3
2
3
3
2
2
1
0
0
0
0
0
0
0
0
0
0
0
1
2
3
2
0
1
0
0
0
0
0
0
2
0
0
0
2
0
0
2
2
2
0
0
3
1
0
0
2
0
1
0
0
0
0
0
1
0
0
0
0
0
0
0
0
1
0
0
0
3
1
0
0
1
0
0
0
0
1
1
0
1
1
2
1
2
3
0
0
0
0
2
0
0
0
1
0
0
0
0
0
0
0
0
0
0
0
0
0
3
3
2
1
1
0
0
0
0
0
0
0
0
0
0
0
0
0
0
0
0
2
1
1
2
4
0
2
1
2
0
0
0
1
0
0
0
0
1
1
0
0
0
0
0
0
0
1
0
0
0
0
0
0
0
1
0
0
0
2
1
1
0
0
2
0
0
2
2
2
0
1
4
3
0
2
2
0
0
0
2
0
0
0
1
0
0
2
1
0
1
0
0
0
0
1
2
4
0
0
0
0
1
0
0
0
0
0
0
1
1
0
1
3
2
0
1
2
0
0
2
2
0
0
1
1
1
3
2
3
0
0
0
0
0
0
0
1
0
0
2
3
0
0
1
2
0
1
0
1
0
0
0
0
0
0
1
1
3
2
1
3
2
2
0
0
0
1
0
0
1
0
0
0
0
2
4
0
0
2
0
0
0
0
2
0
0
0
2
0
0
0
2
0
0
0
1
0
0
0
2
1
0
1
2
0
0
1
1
0
0
0
0
0
0
0
0
1
0
0
0
0
3
0
1
0
3
0
0
1
0
0
0
1
1
0
0
1
0
0
2
3
1
0
0
0
0
0
0
0
0
1
0
3
0
0
0
0
0
0
1
4
0
0
0
2
0
1
1
5
0
0
1
3
0
0
0
0
0
0
0
0
0
0
0
0
0
0
0
0
0
0
1
0
0
1
4
0
0
0
0
0
0
0
3
0
0
0
2
0
0
0
0
0
0
2
3
2
0
0
1
0
0
1
0
0
0
0
0
0
1
1
1
2
3
2
2
2
3
1
0
0
3
0
3
3
3
0
1
2
0
0
0
1
1
0
0
1
0
0
2
1
0
0
0
0
0
0
0
1
1
1
0
4
4
2
3
5
3
0
2
4
0
0
0
1
0
0
0
3
0
0
0
1
0
0
0
0
0
0
0
1
0
0
0
0
1
0
2
0
0
0
0
0
0
0
4
0
0
0
2
0
1
2
5
0
0
0
0
0
0
0
0
0
0
0
0
0
0
0
1
1
0
3
3
3
0
1
0
0
0
0
0
0
1
0
0
0
3
0
0
1
1
0
1
2
0
0
0
2
0
0
0
0
0
0
0
4
3
0
4
2
0
0
0
0
0
0
0
0
0
0
0
3
1
0
0
1
0
0
0
3
0
0
1
3
0
0
0
1
0
0
1
2
0
1
2
2
2
1
0
4
2
0
0
0
0
0
0
0
0
0
1
0
0
0
2
0
0
0
1
0
1
1
4
0
0
3
2
0
0
3
0
1
0
0
1
0
0
0
0
0
0
0
0
0
0
0
0
0
1
0
0
0
0
0
0
0
4
0
2
0
0
0
0
0
0
0
0
3
0
1
0
1
0
0
0
2
3
0
0
0
0
0
1
1
1
1
1
1
1
0
0
2
0
0
1
3
1
0
0
2
0
0
0
3
1
0
0
3
0
0
0
0
0
0
1
2
3
2
0
2
0
0
2
1
1
0
3
2
4
0
3
0
0
0
0
0
0
0
1
0
0
0
0
0
0
3
1
1
1
3
0
1
0
0
0
0
0
0
0
0
0
0
1
2
0
0
0
1
0
2
2
2
2
0
0
0
2
0
2
3
2
0
0
1
0
0
0
0
0
0
0
2
0
0
0
1
1
0
2
0
0
0
3
1
0
0
0
0
0
0
2
3
0
0
1
0
0
0
0
3
0
0
1
4
0
0
0
3
0
0
2
3
0
0
0
0
0
0
0
0
0
0
1
2
1
0
2
1
2
0
3
1
0
0
0
1
2
2
4
3
0
0
0
0
0
5
1
1
0
2
0
1
0
1
0
2
0
4
2
2
0
0
0
1
0
0
0
0
2
2
2
2
1
0
0
0
2
0
2
2
0
0
0
2
0
0
2
2
0
1
0
2
0
0
0
0
0
0
0
0
0
0
1
1
0
0
1
2
2
1
3
2
1
0
3
3
0
0
1
3
0
0
2
4
0
1
1
2
0
0
0
2
0
0
0
0
0
0
0
1
0
0
1
1
0
0
0
0
0
0
2
1
0
0
1
3
2
0
0
1
0
0
0
0
0
2
0
0
0
0
0
0
0
0
0
0
0
1
0
2
0
0
0
0
0
0
0
2
2
0
0
1
0
0
0
0
0
0
2
2
0
0
1
1
1
1
2
1
0
0
0
1
0
0
0
1
2
0
0
2
0
0
1
0
0
0
0
1
1
0
1
0
0
0
1
0
0
0
3
1
0
0
0
0
0
0
0
1
0
0
0
3
2
2
3
2
2
1
0
4
1
0
2
1
0
0
0
0
1
0
0
0
0
0
0
1
0
0
0
1
0
2
2
0
1
3
1
2
2
3
2
2
1
2
0
0
0
0
0
0
0
0
0
0
1
0
0
0
1
0
1
1
0
0
0
0
0
0
1
0
0
0
0
0
0
0
1
0
0
0
1
0
0
0
0
3
3
0
0
3
0
0
0
0
0
0
0
0
0
0
0
0
0
0
2
0
0
0
3
0
0
1
1
1
0
1
0
3
0
0
0
1
0
0
0
0
0
0
0
1
0
0
0
0
1
2
2
1
2
1
2
3
2
2
1
2
1
0
0
0
0
0
1
0
0
0
0
0
1
2
0
1
0
3
0
0
0
2
0
2
3
0
0
1
1
0
0
0
1
0
1
1
1
2
4
2
0
0
0
1
2
0
0
0
0
0
1
0
0
0
0
0
0
0
0
1
0
0
0
1
0
0
0
2
0
0
0
0
0
0
1
0
3
3
5
1
2
1
3
0
0
0
1
0
0
0
2
2
1
0
0
1
0
0
0
0
0
0
0
0
0
0
0
0
0
2
1
0
0
3
1
3
3
4
2
2
2
1
2
3
0
0
2
0
0
1
1
0
0
1
0
0
1
3
0
1
0
1
0
1
1
0
0
0
1
0
0
1
3
0
1
1
3
4
4
3
0
0
0
0
1
1
2
0
1
0
2
2
0
0
2
0
0
1
1
2
1
0
0
2
1
0
0
3
2
0
0
2
4
3
2
1
3
1
3
0
0
0
2
0
1
2
2
2
0
1
2
3
1
0
0
0
0
0
0
0
1
0
0
0
0
0
0
0
0
2
0
0
0
2
0
1
1
3
1
0
1
1
1
0
0
0
0
0
0
1
0
0
0
0
0
0
0
0
0
0
0
0
0
0
0
0
0
0
0
0
0
0
0
0
0
0
1
2
3
3
0
0
1
1
4
3
2
0
0
0
2
2
0
0
2
0
0
0
1
3
3
0
1
5
3
0
1
3
3
0
0
2
1
0
0
0
0
0
0
0
0
2
1
0
0
0
0
0
0
0
0
0
0
0
1
3
1
0
0
1
2
0
0
0
3
1
3
3
2
4
0
0
1
3
0
0
0
1
0
0
0
1
1
2
0
1
4
2
2
3
1
0
0
0
0
0
0
0
0
0
0
0
0
0
0
0
1
1
1
0
0
0
0
0
0
0
1
2
3
4
0
0
1
0
2
0
0
0
0
0
0
0
0
0
2
0
0
0
0
1
1
0
0
1
0
0
0
0
0
0
0
0
0
0
0
0
0
1
0
0
0
0
0
0
1
1
0
0
0
0
0
1
0
0
0
3
0
0
0
2
3
0
0
0
2
0
0
0
0
2
0
1
2
5
0
0
0
1
0
0
2
0
0
0
0
0
2
1
0
1
1
1
0
1
2
1
2
3
2
1
2
0
0
2
1
1
0
0
1
0
0
0
2
1
2
0
4
1
0
3
0
0
1
0
3
1
1
1
4
0
2
0
0
0
1
0
1
0
0
0
0
0
0
0
1
1
2
4
2
0
0
1
0
0
0
1
1
2
1
0
1
1
0
0
0
0
0
1
2
2
1
3
1
0
0
2
0
0
0
1
1
0
0
1
1
0
0
0
0
0
0
0
0
3
0
0
0
0
0
0
2
0
2
1
2
2
3
3
0
0
0
3
0
0
0
0
0
0
0
0
2
0
0
1
0
0
0
0
3
0
0
1
4
2
1
1
5
0
0
2
1
1
1
0
0
0
0
0
2
0
0
0
0
0
2
1
3
1
1
0
0
0
0
2
3
3
4
2
2
0
1
3
3
1
0
1
0
0
0
0
1
2
0
0
2
1
0
0
1
1
1
4
4
2
0
1
0
0
0
0
0
0
0
0
0
0
0
0
0
0
0
2
2
5
1
0
2
0
1
0
2
0
2
0
0
1
1
1
0
0
0
4
1
0
0
1
0
0
0
0
1
0
0
0
3
1
0
0
3
0
0
0
1
0
0
0
1
0
0
0
0
0
0
0
2
0
0
0
3
0
0
0
3
0
2
0
1
0
0
0
0
0
1
3
2
1
2
1
0
1
0
1
0
0
0
0
0
0
0
2
3
3
1
3
2
0
0
0
0
0
0
1
4
0
0
4
3
2
2
2
1
0
0
1
0
0
1
3
2
2
0
1
0
0
0
0
0
0
0
0
1
0
2
1
0
1
2
3
0
1
0
5
2
0
0
1
0
0
0
0
0
0
0
0
1
0
0
0
4
1
0
0
3
0
0
1
4
0
0
2
0
0
0
1
1
1
0
0
2
0
0
1
4
0
0
0
0
0
0
0
0
0
0
1
0
0
0
0
0
2
0
0
0
0
1
1
1
0
0
0
2
1
0
1
2
1
1
0
2
0
0
0
1
0
0
0
0
0
0
2
1
0
2
4
3
1
0
0
0
0
0
1
0
0
1
0
3
0
0
0
1
0
2
0
0
0
0
2
1
0
0
3
0
0
1
4
3
0
0
0
2
0
0
0
4
1
1
0
5
0
0
0
3
1
0
3
5
1
0
4
0
0
0
2
0
3
0
0
0
1
0
0
3
0
0
1
1
1
2
0
0
0
0
2
1
1
0
0
0
1
0
0
0
1
3
3
4
4
3
3
3
2
0
1
1
2
2
3
6
3
0
2
4
0
0
0
0
0
0
0
0
0
0
1
0
0
0
0
0
0
0
2
0
0
0
0
3
1
0
0
0
0
0
0
0
0
0
0
0
0
0
0
0
0
0
1
0
0
0
0
1
0
1
0
4
2
1
0
3
0
0
0
3
0
0
0
2
1
2
6
0
0
0
2
0
2
0
0
0
0
0
2
2
0
0
1
0
0
0
0
0
0
0
0
0
0
1
1
1
4
2
1
2
0
0
0
0
0
1
0
0
0
0
0
0
1
0
0
3
1
0
2
4
0
0
0
0
0
0
1
2
0
0
1
0
0
0
2
3
2
2
3
0
0
1
2
5
3
2
1
2
0
0
1
3
0
0
2
2
0
0
1
0
0
0
3
2
0
0
0
0
0
0
0
0
0
0
0
3
0
0
2
4
0
0
0
0
0
1
5
0
0
0
2
2
4
0
1
1
1
0
2
1
0
1
3
2
1
2
1
0
2
0
1
1
1
0
1
1
3
2
1
3
2
0
0
0
0
0
0
0
0
1
0
0
0
0
0
2
0
0
1
2
0
0
3
3
0
0
1
2
0
0
1
0
0
0
1
0
0
0
0
0
0
0
0
0
0
0
1
2
0
0
0
1
0
0
3
3
1
1
3
0
1
0
0
0
0
0
0
0
0
1
0
0
0
0
1
1
0
0
2
2
0
0
0
1
0
2
5
0
1
0
3
1
3
0
1
0
1
0
0
0
0
0
1
0
0
0
0
0
1
0
0
2
2
0
0
0
0
0
0
1
0
0
0
0
0
0
0
0
0
0
0
0
0
0
0
1
0
0
0
0
0
0
1
2
0
0
1
1
0
1
4
4
0
0
2
0
0
0
0
0
0
0
1
2
0
0
1
2
0
0
0
1
0
0
0
2
0
0
1
0
0
0
0
0
1
1
2
0
0
3
2
3
2
1
2
1
0
0
0
0
0
0
2
2
2
2
3
0
2
0
3
2
4
0
2
0
1
0
0
0
1
0
1
0
0
1
2
0
4
0
0
1
0
0
0
0
0
0
0
1
1
0
2
3
6
4
3
3
3
0
0
0
0
0
0
3
0
0
0
1
0
0
0
1
0
0
0
1
0
0
1
0
0
0
3
2
0
2
0
0
0
0
0
3
0
0
0
1
0
0
0
3
0
0
1
1
0
0
0
0
0
0
0
0
1
1
1
0
0
0
0
0
0
0
1
2
0
0
1
0
0
0
1
0
1
1
2
0
0
0
0
0
1
0
0
0
0
0
0
0
0
0
0
0
0
1
1
0
2
0
0
0
2
0
0
2
2
1
1
3
2
0
1
0
2
0
0
0
1
0
0
0
1
0
0
1
1
1
1
4
1
1
1
3
1
0
0
2
0
0
2
3
0
0
5
4
0
2
3
2
1
2
2
5
1
0
0
3
1
0
1
3
0
0
1
1
0
2
1
1
0
1
0
0
0
0
0
0
0
1
0
0
0
0
1
2
1
2
3
1
0
0
0
0
0
0
1
0
0
0
0
0
1
0
0
0
2
0
2
3
4
0
1
1
2
2
1
0
2
0
0
1
3
0
0
2
2
1
1
2
3
0
0
0
2
0
0
0
2
0
0
0
2
0
0
0
0
0
0
0
0
0
0
0
0
0
0
1
0
0
3
4
0
0
1
1
0
1
1
3
0
0
0
2
0
0
1
4
0
0
0
1
0
0
0
1
1
3
2
3
2
2
1
0
0
0
0
0
0
1
0
0
1
3
2
1
0
0
0
0
0
0
0
0
1
0
1
0
1
0
1
1
1
0
0
0
0
0
0
2
1
0
0
0
1
1
0
0
0
0
0
1
2
0
1
1
1
0
0
0
1
0
0
0
1
0
0
0
2
0
0
0
3
0
0
0
0
0
0
0
0
1
0
0
0
0
2
3
1
0
5
7
0
1
2
3
0
1
0
1
0
0
0
3
2
0
1
2
0
0
0
1
0
0
0
0
0
0
0
0
0
0
0
0
0
0
0
0
0
2
0
1
2
3
0
0
0
0
0
0
0
0
0
0
1
0
1
1
1
0
1
3
2
0
2
2
2
2
2
2
1
0
0
1
2
0
1
5
3
1
0
0
0
0
0
0
0
0
0
0
1
0
0
0
3
1
0
0
3
0
0
0
2
0
0
2
1
0
0
0
0
0
0
0
0
0
0
2
0
0
0
1
0
0
1
3
0
1
2
3
1
0
0
0
0
0
0
0
0
0
1
3
2
1
1
0
0
0
0
0
0
0
0
0
0
0
0
0
0
0
0
0
0
0
0
0
0
1
0
2
2
1
0
1
3
1
2
0
0
0
0
0
0
0
0
0
0
0
0
0
0
0
0
3
2
0
0
3
0
0
0
0
0
0
0
0
1
1
2
2
3
0
1
1
3
3
1
2
4
2
0
0
2
0
0
3
5
3
3
1
1
2
0
0
1
0
0
1
0
0
0
4
0
1
2
4
0
1
1
3
2
1
1
3
1
0
0
1
0
0
0
0
0
0
0
0
0
4
4
4
1
1
0
0
0
1
1
0
0
1
0
0
2
2
0
1
2
2
0
0
1
0
0
1
1
0
2
0
1
0
1
1
0
0
2
3
1
3
4
2
2
1
1
4
1
0
0
3
0
0
0
2
0
0
4
2
2
1
2
1
4
0
0
0
0
0
0
0
0
0
0
0
0
0
0
0
0
0
0
0
0
0
0
0
0
0
0
3
1
0
0
2
0
0
0
0
0
0
0
0
1
1
1
1
0
2
2
2
2
3
0
0
0
0
0
0
0
3
3
1
1
2
0
2
2
4
1
1
0
0
0
0
0
0
0
0
0
0
0
0
0
1
0
2
0
0
1
1
1
0
2
1
0
0
2
1
0
0
0
0
0
0
0
4
0
0
0
4
0
0
1
3
0
0
2
1
0
0
0
0
1
0
0
0
0
0
1
0
1
2
1
2
0
0
0
0
0
0
2
2
2
4
2
0
0
0
0
2
1
0
1
3
0
1
1
1
0
0
0
0
0
1
0
0
0
1
1
0
0
2
0
0
0
1
0
1
0
1
0
0
0
1
0
0
0
0
0
0
1
0
0
0
0
0
0
2
2
0
0
0
0
0
0
1
0
0
1
1
0
0
2
2
1
0
3
4
0
0
2
1
1
0
0
3
0
0
0
4
0
1
1
2
0
0
0
0
0
0
0
0
0
0
0
0
1
0
1
1
1
2
2
2
0
3
2
0
0
1
1
1
0
1
0
0
1
0
0
1
0
0
0
0
0
0
0
0
0
0
2
0
0
3
2
0
0
0
0
0
0
2
1
0
0
2
2
4
1
2
1
0
0
1
0
1
4
1
0
3
2
0
0
1
0
0
0
1
1
2
0
1
0
1
0
1
0
1
0
0
0
0
0
0
0
0
2
3
0
0
2
1
1
0
0
3
0
0
1
3
0
0
0
2
0
0
0
2
0
0
0
1
1
1
1
2
3
2
2
1
1
2
1
0
0
3
1
1
0
4
2
2
0
1
0
0
0
1
0
1
0
0
0
0
0
0
2
0
0
1
2
0
1
3
2
0
0
2
2
0
0
0
0
0
0
0
0
0
0
0
0
0
1
2
0
0
3
0
0
0
1
0
0
1
0
0
2
3
1
3
1
2
0
1
0
0
0
1
0
1
0
0
3
1
0
1
0
0
0
0
1
0
0
0
0
3
1
0
0
2
0
0
0
3
0
0
0
4
1
0
0
2
1
0
0
0
0
0
0
0
0
0
0
0
0
2
0
0
0
1
0
0
0
0
0
0
0
0
1
1
2
0
0
0
0
0
1
0
0
1
3
0
1
4
3
0
1
5
4
0
0
4
4
0
3
5
2
2
0
2
0
0
0
1
0
0
1
0
0
1
2
0
0
0
0
0
0
0
0
0
0
0
0
0
0
0
0
2
0
0
0
0
1
1
0
0
0
2
0
1
1
1
0
0
0
0
0
0
0
2
0
0
0
3
0
0
0
1
0
0
0
0
0
0
0
0
1
1
0
0
2
3
1
0
2
3
0
1
2
5
2
2
0
3
0
1
0
0
1
1
1
0
1
0
0
0
0
0
0
0
0
0
0
0
0
0
0
2
1
0
0
2
4
1
3
4
1
1
0
1
0
0
0
1
0
0
0
0
0
0
0
0
0
2
1
1
3
1
0
1
1
1
0
0
0
1
0
3
2
0
0
0
0
2
0
1
0
2
0
1
0
0
0
0
0
1
2
0
0
2
2
1
0
3
0
0
0
1
0
0
0
1
0
0
1
1
4
2
1
0
4
4
2
2
5
6
0
0
0
2
0
0
0
1
0
1
0
0
0
0
0
0
0
2
2
0
4
3
0
2
2
1
0
1
0
0
0
0
0
0
0
0
0
0
0
1
0
0
0
3
1
1
1
2
1
0
2
0
1
0
0
0
0
1
0
0
0
0
0
0
0
0
0
0
0
1
1
2
2
0
0
0
0
0
0
0
0
1
1
2
0
0
0
0
0
0
2
1
0
1
4
0
0
2
0
0
0
0
0
0
0
1
1
0
0
0
1
0
0
1
4
2
0
0
2
3
0
1
3
2
0
0
0
1
0
2
1
0
0
0
0
0
2
5
5
0
3
3
0
1
0
0
0
2
0
0
2
2
0
0
2
1
1
0
1
2
0
0
0
0
0
0
0
0
1
0
0
0
0
0
0
1
1
1
1
3
2
1
0
1
0
0
1
2
2
3
2
2
3
0
0
0
0
2
0
0
0
0
0
0
0
0
0
0
0
0
2
1
0
0
2
0
0
1
1
2
0
3
6
4
2
3
3
0
0
0
2
0
0
0
2
0
0
0
2
2
1
1
0
0
0
0
0
2
0
2
4
1
0
3
3
0
0
4
2
0
0
5
1
3
0
3
2
3
2
2
5
4
1
0
5
2
0
0
2
2
0
0
0
0
0
0
0
1
1
0
0
0
0
0
0
0
0
0
0
0
0
0
0
1
0
2
1
0
0
1
0
0
1
1
2
1
0
3
0
0
0
1
0
0
0
4
1
1
0
0
1
1
0
1
3
0
0
2
3
2
0
0
3
0
0
0
1
0
0
0
2
0
0
0
2
0
1
2
3
3
4
4
3
4
6
3
3
5
2
2
4
2
1
5
3
0
2
6
3
0
1
6
1
2
0
1
1
0
0
0
4
1
2
3
8
4
1
2
2
2
1
1
1
1
0
0
0
1
1
0
0
0
0
2
4
5
5
1
0
0
0
0
0
1
1
3
1
0
0
0
0
0
0
1
1
1
0
3
1
1
0
0
0
0
0
2
1
0
0
2
2
2
0
3
1
0
0
1
1
2
0
1
6
3
0
2
4
1
0
2
3
2
2
4
5
4
6
6
5
5
6
5
3
3
6
4
3
7
6
5
7
5
3
7
6
4
5
9
7
6
4
9
5
6
3
5
5
4
3
2
6
2
1
1
4
0
0
0
0
0
0
1
2
1
2
2
2
3
2
1
0
0
0
0
0
0
1
0
1
1
0
0
0
0
0
1
0
0
2
2
3
2
3
1
1
0
0
0
0
0
1
1
1
0
0
1
0
0
0
2
1
2
0
3
2
0
0
0
1
1
0
0
4
1
0
2
4
1
0
1
2
4
4
6
7
6
7
7
6
5
9
9
8
9
12
10
9
11
11
10
9
8
7
10
11
10
8
10
9
7
5
9
7
8
6
6
6
5
5
4
8
4
4
3
7
4
3
6
4
2
2
2
3
1
0
0
1
1
0
2
1
2
1
2
2
0
2
1
2
2
2
2
4
3
3
4
1
0
1
1
2
1
1
0
1
0
0
0
0
0
1
0
1
0
0
2
1
1
0
2
2
3
0
4
2
2
0
1
4
4
1
4
7
6
4
7
7
7
3
6
5
7
7
8
7
8
10
9
8
7
12
10
8
11
15
13
11
15
14
13
13
14
11
14
14
13
11
13
14
14
11
14
13
14
11
12
11
10
9
8
12
10
9
7
9
5
4
7
5
2
4
3
2
1
0
0
1
0
0
1
0
2
1
2
1
0
0
0
0
0
0
0
2
0
2
3
0
0
0
0
0
0
0
3
4
2
3
2
1
1
1
0
1
1
0
2
3
2
0
3
2
1
0
3
1
2
1
2
3
4
1
3
5
7
3
6
8
9
5
10
7
9
10
11
9
12
14
14
14
15
20
18
17
21
24
22
21
22
20
19
19
21
21
21
23
23
22
21
22
20
18
19
18
18
16
16
16
16
15
15
17
13
14
11
13
11
12
12
10
7
8
7
8
7
4
5
5
4
3
5
3
5
4
3
3
2
0
0
0
0
1
1
2
0
0
0
0
0
0
0
1
0
0
0
1
0
1
1
2
2
1
0
2
0
0
0
2
1
0
1
3
1
2
2
3
4
3
2
5
5
4
6
7
10
5
8
9
12
10
15
13
16
18
20
18
23
23
23
24
26
28
26
25
29
31
30
32
34
33
34
35
35
33
33
36
34
32
31
32
30
31
31
29
28
26
23
22
22
21
19
21
18
19
15
17
13
13
12
10
7
9
8
9
9
6
8
8
5
4
6
4
4
2
0
0
0
1
0
2
4
3
2
4
2
1
0
1
2
3
2
4
2
2
0
0
0
0
0
0
1
0
0
1
2
0
0
1
0
0
0
3
2
3
1
5
5
5
4
7
8
7
9
10
12
10
12
12
17
16
21
20
22
23
26
26
28
30
32
34
36
39
37
38
40
43
42
44
47
46
46
47
48
46
46
50
48
50
48
50
47
49
46
44
42
40
38
37
36
33
32
32
29
27
23
26
21
20
19
19
16
14
14
12
12
7
10
8
7
4
5
3
6
5
3
4
7
5
0
3
4
2
0
2
2
0
0
0
1
0
0
0
0
0
0
0
0
0
0
0
0
0
0
1
3
2
2
3
2
0
0
4
4
6
3
7
7
8
6
9
10
11
12
13
19
18
19
21
24
23
28
28
30
33
36
36
39
41
43
47
49
51
50
53
55
58
58
61
65
66
64
65
67
66
65
68
66
69
64
66
62
64
60
57
54
54
53
50
50
48
45
43
39
37
33
32
28
26
24
22
20
17
16
14
15
10
13
11
9
7
8
5
7
5
1
3
6
3
0
2
3
2
0
1
3
2
0
0
3
0
0
0
0
1
0
1
2
1
1
2
2
1
2
2
2
0
0
2
3
3
2
8
5
6
2
6
5
9
8
11
14
16
14
17
22
23
25
28
31
31
37
39
39
43
46
48
51
54
58
63
65
67
71
75
77
80
80
84
86
87
85
89
90
90
89
91
89
91
87
88
84
86
82
79
75
75
72
66
64
64
59
56
54
52
48
46
41
37
36
32
31
26
25
24
22
16
20
17
15
12
12
10
13
9
5
6
7
3
0
2
4
2
0
1
5
2
0
0
4
1
2
3
5
3
0
1
2
1
1
2
2
0
1
3
2
1
0
4
4
4
1
8
6
6
4
10
9
12
12
18
20
22
21
22
26
28
30
33
36
39
45
49
52
57
60
65
69
72
78
84
87
90
96
100
101
105
104
108
112
113
111
116
117
118
118
118
115
117
112
113
109
110
104
101
95
95
90
83
79
78
73
70
68
63
61
57
51
46
45
40
37
33
32
30
28
21
23
20
18
14
14
11
13
10
7
8
11
7
2
5
7
4
0
4
7
3
0
1
5
0
1
2
3
0
1
1
0
0
0
0
0
0
1
3
2
2
2
4
4
4
2
7
6
8
7
14
13
15
15
19
20
23
24
27
32
37
41
46
49
53
57
61
64
70
73
80
85
89
94
102
104
107
113
120
124
127
129
135
138
139
140
144
146
148
147
147
144
146
140
141
135
135
130
128
122
122
117
110
104
102
95
90
83
76
73
68
63
58
56
51
47
40
39
36
33
25
28
24
24
19
18
14
16
12
8
9
10
6
1
3
5
4
0
2
4
0
0
0
2
0
0
1
3
0
1
1
0
1
0
0
0
1
0
3
1
4
4
7
7
8
6
11
11
11
11
18
17
18
19
24
25
28
30
34
38
42
47
54
56
63
68
73
78
86
89
98
106
109
114
121
127
130
136
143
149
152
156
164
166
167
170
173
174
178
177
176
174
174
169
169
164
161
157
153
145
143
139
131
124
122
115
107
100
94
90
85
77
71
65
61
55
48
45
44
39
29
30
29
27
21
20
18
17
12
9
10
10
8
3
6
7
6
1
4
6
1
0
0
4
0
0
0
0
0
1
2
2
3
2
4
1
3
2
4
3
7
6
7
8
9
8
12
12
11
12
17
19
18
22
28
29
31
36
42
46
51
54
61
66
74
78
85
89
96
101
110
119
126
130
138
146
152
157
165
171
176
181
188
192
194
197
202
202
203
202
201
199
199
196
195
192
188
182
178
170
165
161
153
144
140
133
124
116
109
105
99
89
83
77
74
66
58
54
52
45
35
35
33
30
24
24
22
21
17
13
13
12
9
2
4
7
5
2
5
8
3
2
3
7
2
1
2
2
0
0
0
0
2
1
3
1
3
1
0
1
4
3
4
7
9
8
12
12
14
15
18
19
20
26
30
32
36
42
46
49
57
59
67
72
83
85
93
100
108
112
124
134
143
149
158
167
175
179
188
195
200
204
210
213
215
219
222
224
224
227
226
223
224
221
217
212
209
203
197
189
181
177
169
160
153
148
139
130
122
117
110
100
93
85
81
72
63
59
59
52
43
42
39
35
28
28
25
23
16
12
12
13
11
5
7
8
6
3
5
5
2
1
0
4
0
0
0
1
0
0
0
0
2
0
2
3
6
3
1
4
6
4
4
7
7
6
9
10
14
15
19
22
25
30
33
35
38
43
49
52
61
64
72
78
90
92
101
109
119
122
134
143
153
158
166
176
186
190
200
209
216
222
227
231
236
241
242
247
246
247
245
244
241
237
232
227
224
221
214
207
198
193
182
174
165
160
149
139
132
123
116
106
100
91
87
78
69
63
63
56
47
44
39
35
27
25
24
23
16
14
15
15
12
8
9
9
6
2
3
4
2
1
1
4
1
0
2
4
2
0
0
0
2
0
1
2
4
3
2
5
6
6
4
9
10
9
12
14
17
18
19
21
24
29
32
35
39
45
50
53
61
66
74
80
91
95
104
113
126
131
142
149
160
164
172
181
194
198
206
214
222
228
233
240
244
248
248
254
252
255
254
254
250
248
244
239
234
230
221
215
205
202
190
183
174
169
156
147
138
127
121
111
104
94
91
81
73
65
63
57
49
45
43
39
32
28
26
24
18
16
15
14
11
8
10
10
8
4
4
5
5
3
0
4
1
0
0
4
1
0
0
1
3
0
1
3
2
3
0
4
7
7
4
10
11
9
11
13
19
18
19
21
27
31
33
37
43
48
52
56
65
71
77
80
91
94
102
111
125
130
141
146
158
162
171
179
194
199
209
214
223
228
233
241
246
250
249
254
248
253
253
252
251
251
245
240
235
229
221
215
205
201
188
182
172
166
154
147
138
128
120
112
105
96
91
83
75
66
61
55
48
44
41
36
30
27
23
23
18
18
17
14
10
6
6
7
7
3
5
5
6
4
2
7
4
2
4
6
3
1
2
2
4
1
0
1
1
0
0
2
3
3
3
9
10
10
10
11
17
15
17
19
25
27
30
32
40
45
46
52
61
67
73
77
87
93
100
107
120
124
134
140
153
159
169
177
189
193
202
208
214
220
225
231
235
240
239
245
242
245
244
243
241
240
236
230
226
222
213
209
199
194
182
177
167
162
150
144
136
126
118
110
103
92
86
78
74
65
61
57
50
45
41
39
33
29
25
25
19
18
17
12
9
7
6
7
6
1
2
3
2
1
0
3
0
0
1
4
0
1
2
1
2
0
2
4
5
3
4
5
6
6
3
7
8
7
7
9
15
14
17
20
27
28
31
34
40
45
46
50
55
62
67
72
82
89
95
101
111
118
126
130
143
149
157
164
176
180
188
193
199
204
211
217
220
226
226
232
230
232
229
228
222
221
220
215
209
206
199
194
184
180
169
165
153
150
137
131
126
116
107
101
96
84
79
72
69
61
56
52
45
39
36
34
29
25
24
22
18
16
16
12
10
8
6
8
8
4
3
5
4
2
2
6
3
0
0
1
0
2
1
0
0
0
0
1
1
0
3
4
6
8
3
8
7
8
9
10
13
13
13
16
23
24
25
28
34
38
39
45
49
56
61
66
75
82
87
90
99
106
114
117
128
133
140
145
154
158
165
171
180
184
192
197
197
200
202
204
204
207
206
206
202
202
201
197
191
187
180
175
167
162
154
149
141
136
125
119
114
105
97
91
86
77
70
65
61
54
51
47
41
39
34
30
27
23
19
16
13
11
10
8
9
8
7
9
7
4
3
5
0
0
0
2
0
0
0
0
0
1
1
1
1
0
0
0
1
0
1
3
4
5
3
8
7
9
9
9
12
13
12
13
20
20
21
25
30
34
34
41
44
48
53
57
63
69
73
76
85
93
98
103
112
115
121
126
134
139
147
151
156
159
165
167
168
172
174
175
174
177
178
177
174
175
173
169
164
159
153
150
144
140
135
131
123
118
109
102
98
90
83
77
75
68
63
57
54
48
44
38
34
31
26
23
21
19
18
15
14
12
11
10
9
7
5
6
3
3
3
5
0
2
4
4
2
2
1
0
0
1
2
2
2
0
1
0
1
0
0
0
0
3
2
7
6
8
7
5
7
10
9
10
16
16
15
20
22
26
29
33
34
38
41
44
51
57
61
64
70
77
81
83
91
96
100
104
112
116
121
123
128
131
136
139
140
145
148
148
148
150
149
147
142
141
140
137
135
134
129
126
122
117
113
108
102
99
91
87
82
77
70
66
61
58
54
48
46
43
39
33
31
28
24
21
22
20
20
15
14
11
8
6
6
5
3
4
2
2
2
3
0
0
1
1
0
0
0
0
0
0
0
0
1
0
4
3
4
2
2
1
0
2
0
4
4
6
4
3
5
9
9
10
16
17
15
20
21
22
24
29
29
33
35
37
43
47
50
52
58
62
66
68
74
79
83
86
94
100
103
102
107
108
110
113
115
119
121
120
120
120
119
119
115
115
115
112
110
107
102
99
96
91
89
85
80
77
71
68
64
62
57
54
48
46
42
37
34
33
29
23
22
20
17
13
14
13
12
9
9
6
5
5
5
4
5
6
5
5
5
5
0
1
2
3
0
1
0
0
0
0
0
2
1
1
3
0
0
0
1
2
1
4
3
4
3
3
2
0
2
5
7
7
12
12
11
16
14
14
15
20
20
22
27
29
32
36
39
41
48
51
52
55
59
61
63
64
68
73
76
77
82
86
87
88
90
93
92
91
93
93
96
96
94
94
94
90
88
86
82
80
77
73
71
67
63
60
56
54
49
47
44
41
34
34
32
28
26
26
24
18
17
15
15
11
11
8
7
5
6
7
5
6
6
4
5
6
2
1
2
1
0
0
0
1
0
0
1
0
0
0
0
2
1
2
2
0
0
0
1
2
0
2
3
4
4
5
6
4
5
6
8
5
7
7
6
9
11
12
13
18
18
19
23
23
22
26
26
28
34
37
36
40
44
45
46
48
51
54
56
56
60
64
62
63
65
67
66
66
68
68
69
70
68
69
69
66
65
64
60
59
56
55
56
53
49
49
44
41
36
36
34
33
26
28
26
21
21
21
18
14
16
11
11
9
9
7
7
7
6
6
4
4
3
1
3
4
2
1
3
0
0
0
0
2
0
2
3
3
1
0
2
3
0
0
4
0
0
1
0
0
0
3
3
3
4
3
5
3
2
1
5
5
6
6
5
8
7
9
11
14
13
14
15
16
17
19
18
22
24
24
23
27
31
32
33
36
39
39
38
37
43
47
44
47
48
49
49
49
50
50
51
50
47
48
48
46
45
45
43
43
39
40
39
37
34
35
30
29
25
26
25
25
19
21
20
16
14
14
13
9
11
7
8
6
6
4
5
7
4
6
2
2
3
0
0
1
2
0
2
1
0
0
0
1
0
0
2
2
0
0
0
0
0
1
4
1
0
1
1
1
1
2
1
0
0
0
2
3
3
1
4
5
4
3
6
7
4
6
5
9
8
8
11
14
13
12
12
16
18
19
18
23
25
23
24
28
30
31
29
29
33
35
31
32
33
32
33
31
33
33
33
32
31
33
34
32
31
31
30
30
26
27
25
24
19
21
21
21
18
19
19
18
13
12
11
8
7
6
7
5
7
3
4
2
3
1
0
2
1
3
0
1
3
1
0
1
2
0
3
3
2
1
2
1
0
0
2
1
1
0
1
0
0
2
3
0
0
2
2
2
0
1
1
0
0
0
0
0
0
0
0
2
0
1
3
5
1
3
2
4
3
2
6
9
9
9
9
12
14
13
12
17
18
15
14
17
20
19
19
20
24
26
23
24
25
24
24
22
25
27
28
25
25
25
24
21
20
23
23
24
19
20
19
18
12
15
16
14
11
13
11
10
8
8
9
8
8
7
7
4
7
3
3
3
4
0
0
3
1
4
2
2
5
5
1
0
3
0
0
0
0
0
0
0
0
0
1
0
0
0
0
0
0
0
1
0
0
0
1
3
0
2
3
2
1
1
4
2
2
1
1
2
1
2
4
5
3
4
2
4
5
2
2
5
6
3
3
7
8
4
5
9
10
6
6
9
12
10
10
11
13
13
11
13
16
16
16
15
17
17
18
16
15
16
16
14
12
13
14
15
10
12
13
14
7
11
11
11
8
10
8
6
5
6
7
6
6
6
5
3
6
3
2
1
3
0
0
2
1
3
1
0
1
3
0
0
2
1
0
0
0
0
0
0
0
1
3
2
0
0
0
0
0
2
2
0
0
0
0
0
0
0
2
3
3
2
2
1
2
0
0
1
0
0
0
1
0
0
0
2
2
0
2
4
6
3
4
8
8
3
4
8
7
4
6
8
9
8
6
5
8
8
6
8
10
9
9
7
8
8
10
7
7
8
10
8
6
8
9
10
6
8
9
9
2
6
6
7
4
6
4
4
4
4
5
6
4
5
2
0
2
2
0
0
4
0
0
2
3
4
0
0
0
1
0
0
2
1
0
1
1
1
2
0
0
2
2
1
2
0
0
0
0
0
1
0
0
2
0
1
0
0
0
0
0
0
0
0
1
1
3
3
1
0
3
3
0
0
0
2
3
2
4
5
3
1
0
4
4
2
2
6
4
2
2
4
6
5
5
5
8
7
4
4
7
7
6
3
4
4
4
2
4
6
7
5
3
6
6
5
3
4
5
4
0
2
3
4
2
4
3
3
3
2
1
1
1
2
0
0
2
3
0
0
4
0
0
0
0
0
0
0
0
1
0
0
2
1
0
1
0
1
2
0
0
1
0
0
1
0
2
0
1
0
3
1
1
3
3
4
0
2
1
1
0
0
0
0
0
0
0
0
0
0
0
0
0
0
0
2
0
0
0
1
1
0
0
3
2
0
0
3
4
3
3
5
8
5
5
6
7
7
4
3
5
6
5
5
6
6
7
5
4
7
7
4
2
5
4
3
2
3
6
5
1
2
2
0
0
2
2
2
3
2
2
2
2
4
1
0
2
3
0
1
4
0
0
0
0
0
0
0
0
2
0
0
0
1
0
0
1
3
1
1
0
2
0
1
2
0
0
0
0
0
0
0
0
1
2
3
2
4
3
5
1
0
1
0
0
0
0
0
0
0
3
3
3
4
3
5
1
1
0
1
2
2
0
3
2
0
0
1
1
1
1
1
1
0
0
0
0
1
0
0
0
3
2
2
4
6
3
2
0
3
2
1
0
3
2
1
1
1
3
2
1
1
2
2
1
3
4
2
0
1
0
0
0
3
0
1
0
0
0
0
1
0
0
0
0
0
0
2
1
1
0
1
0
1
0
0
1
2
0
0
0
2
1
2
3
0
1
0
1
0
2
0
0
0
0
0
0
1
1
3
1
2
3
2
0
0
0
0
0
0
0
0
0
0
0
3
0
0
0
1
1
2
0
2
2
0
0
1
0
1
0
0
1
2
0
0
1
4
1
1
2
2
0
0
0
3
0
0
0
3
0
0
0
2
0
0
0
1
1
0
0
0
2
1
0
2
4
2
0
2
0
0
0
1
0
0
0
0
0
1
3
1
0
1
0
0
0
0
0
0
0
0
0
0
1
1
2
2
0
1
0
2
1
3
2
1
1
0
1
0
0
0
0
0
1
0
0
1
0
0
0
1
2
3
0
0
2
3
2
0
3
1
0
0
0
2
0
0
0
0
0
0
0
0
1
0
1
1
1
0
0
0
2
3
2
0
1
4
1
1
1
3
0
0
0
2
0
0
0
2
1
0
0
1
0
0
1
3
0
0
0
0
0
0
0
0
0
0
0
0
0
0
0
0
0
2
1
1
1
1
0
0
0
0
0
0
0
0
0
0
1
0
0
0
0
0
2
1
0
2
0
0
0
0
0
2
1
0
2
0
0
0
1
0
1
1
0
0
0
0
0
0
0
1
0
0
0
1
0
0
2
1
0
0
0
2
0
0
0
1
0
0
0
3
2
0
1
0
0
1
3
1
2
5
3
0
0
3
0
0
0
4
2
0
0
4
0
0
0
1
0
1
0
2
0
0
1
3
0
0
0
0
0
0
0
2
2
1
0
2
1
1
0
3
3
3
1
0
1
0
0
0
1
4
2
1
1
2
0
0
2
0
0
0
2
1
2
1
0
0
0
0
0
2
1
0
0
0
1
0
1
1
2
1
1
1
0
2
2
2
0
0
0
0
0
0
0
2
0
0
4
4
0
0
0
1
0
0
0
3
1
0
0
2
2
0
1
0
0
0
2
0
0
2
0
0
0
2
0
0
0
4
2
0
1
3
0
0
0
1
0
2
0
0
0
0
0
0
0
1
0
2
2
2
1
3
3
0
0
1
0
0
0
1
1
2
1
1
4
2
0
0
0
2
0
0
1
2
1
1
4
3
3
1
2
1
0
1
1
0
1
1
0
0
0
0
1
1
2
0
0
1
0
0
0
0
0
1
4
2
0
2
1
1
2
2
3
4
0
0
0
0
0
0
0
1
0
0
0
3
0
0
0
1
2
2
2
1
0
0
0
0
0
1
0
0
0
2
0
0
0
1
0
0
0
0
0
0
0
1
0
2
0
2
0
0
0
2
0
0
0
2
1
0
0
2
1
0
0
4
1
0
0
0
1
1
2
3
4
2
0
0
0
2
0
0
1
1
0
0
0
0
0
0
1
0
0
1
2
0
0
0
0
0
0
0
0
0
0
0
1
2
0
0
0
0
0
0
4
0
0
0
0
0
0
0
1
3
0
0
2
2
0
0
2
2
2
0
2
3
0
0
0
1
0
1
0
0
0
0
3
1
0
3
3
0
0
3
2
0
0
3
1
0
0
0
0
0
0
1
0
1
1
1
0
0
0
1
0
0
0
1
0
0
0
0
0
0
0
0
0
0
0
1
3
0
0
0
2
0
0
0
0
0
0
0
1
1
0
0
0
0
0
0
0
0
0
0
1
0
1
0
1
1
2
0
0
0
0
0
2
3
0
0
1
0
0
0
2
0
0
0
0
0
0
0
0
3
0
0
3
4
0
0
3
1
1
0
1
1
0
0
1
2
0
0
2
1
0
0
3
1
1
2
3
2
0
2
2
0
0
4
3
3
4
2
1
1
0
2
0
0
1
0
0
1
0
0
0
1
0
2
1
1
0
4
2
0
0
2
1
0
1
2
2
0
0
0
1
0
0
2
2
1
2
2
4
3
0
1
1
3
1
3
3
1
0
1
0
0
0
0
0
0
3
0
0
0
0
1
4
3
0
2
2
2
0
0
4
1
0
0
1
0
0
0
0
1
0
0
3
4
2
0
0
0
0
0
0
2
1
0
0
0
0
0
0
1
1
0
1
1
0
0
0
0
0
0
0
0
0
2
3
1
2
0
0
0
0
0
0
0
0
0
0
1
1
0
0
1
0
1
2
2
0
3
1
0
0
2
0
0
2
2
2
0
0
2
4
0
1
2
2
0
1
2
3
1
0
3
2
3
0
0
0
1
0
3
5
2
1
0
0
0
0
0
0
0
0
0
0
0
0
0
2
2
0
0
5
3
0
1
5
2
2
0
1
1
0
0
1
3
1
0
0
1
0
0
0
2
0
0
2
4
2
1
1
1
0
0
0
0
0
0
0
0
0
0
0
0
0
0
1
0
1
1
2
1
1
1
0
0
2
3
0
1
1
0
0
0
0
0
0
2
0
0
0
0
1
1
0
0
0
1
2
0
0
3
1
0
0
0
1
0
2
2
2
0
0
0
0
0
0
0
0
0
0
0
0
0
0
0
2
2
3
0
0
0
0
1
1
0
0
0
0
0
0
0
0
0
0
0
1
3
1
0
1
2
1
0
1
3
1
0
0
0
0
0
0
2
1
0
0
3
0
0
0
0
1
0
0
2
2
0
0
3
3
2
3
5
2
0
0
0
0
0
0
0
1
2
1
3
3
4
1
1
1
1
0
1
0
0
0
0
0
0
0
0
1
0
0
0
0
0
2
0
0
0
0
0
0
0
0
0
0
0
0
0
0
0
1
0
0
1
0
3
0
0
0
0
0
1
3
4
4
0
0
0
0
0
2
0
0
0
1
1
0
0
0
2
0
0
0
2
0
0
1
1
0
0
0
3
3
0
0
2
1
0
0
3
1
0
0
1
0
0
0
3
4
1
1
4
3
0
0
2
2
0
0
0
0
0
1
0
2
1
1
0
0
0
0
0
0
0
0
0
0
0
0
1
0
0
3
1
0
1
3
1
5
3
0
0
0
1
2
0
0
0
0
0
0
0
1
0
1
2
3
1
1
3
2
1
2
4
2
3
0
1
0
0
0
0
0
0
0
0
0
0
0
0
2
2
0
1
1
2
2
0
1
2
0
0
1
3
0
0
0
0
0
0
0
3
4
0
1
3
1
0
0
2
1
0
0
1
0
0
0
2
4
0
0
1
1
0
0
0
0
0
0
0
1
0
2
0
0
0
0
0
0
0
0
0
0
1
0
1
0
1
0
3
2
2
4
3
0
0
1
0
3
1
1
3
1
0
2
0
0
0
0
0
1
0
0
0
0
2
2
0
1
2
1
0
0
0
0
0
0
2
3
2
0
0
1
0
1
0
0
0
0
1
1
0
0
0
0
0
2
0
1
2
1
0
0
3
0
0
0
1
0
0
1
0
1
0
0
2
1
0
0
3
2
0
1
4
3
0
0
1
2
0
0
0
0
0
0
0
0
1
0
2
0
0
0
0
0
2
2
1
1
4
2
3
0
3
1
1
0
1
0
2
0
0
1
0
0
0
1
1
0
0
0
2
0
0
2
0
0
1
0
0
0
0
0
0
0
0
0
0
0
0
0
0
0
1
0
0
0
0
1
0
0
0
2
0
3
0
0
0
0
0
0
0
0
0
0
0
0
0
0
0
0
0
0
2
0
0
0
0
0
0
1
0
0
0
0
1
0
0
0
2
2
0
1
2
0
0
0
2
3
0
0
0
0
0
0
2
3
4
2
3
1
0
0
0
0
0
0
0
0
3
1
2
0
3
2
3
0
1
0
1
0
0
0
0
0
0
2
2
0
0
0
2
0
0
1
0
0
0
0
0
2
0
0
0
0
0
0
0
0
2
0
0
2
3
1
0
1
2
2
0
0
1
2
0
2
0
0
0
0
0
0
1
0
1
0
1
1
0
2
2
1
1
2
1
0
0
0
0
0
0
2
0
1
0
2
4
2
0
0
1
0
0
0
0
0
0
0
1
2
0
0
0
0
0
0
0
0
0
0
0
1
0
0
0
0
1
1
2
0
2
0
0
0
0
0
0
0
0
0
1
0
1
3
4
2
2
4
2
0
0
0
0
0
0
0
0
0
1
2
2
5
1
1
1
0
2
1
0
0
4
2
0
3
4
2
0
0
0
1
0
0
0
0
0
0
0
0
1
0
1
1
1
0
3
3
2
1
0
0
0
0
0
0
0
0
0
3
3
3
0
3
0
0
0
0
0
0
0
1
1
0
0
1
1
1
0
2
2
3
1
0
1
1
0
0
0
0
2
0
1
2
0
0
0
0
1
0
0
0
1
0
0
0
0
0
1
1
3
5
5
2
1
0
0
0
0
0
0
0
1
3
3
2
1
1
0
0
2
2
2
3
2
2
2
1
3
1
0
0
2
0
0
0
0
0
0
2
0
1
0
0
0
1
0
0
0
0
0
0
2
1
1
0
1
1
1
1
0
3
2
0
0
0
0
0
0
0
0
0
0
1
0
0
0
2
3
1
0
3
1
0
0
1
1
3
0
3
2
1
0
0
0
1
1
1
0
0
0
0
0
0
0
0
1
0
1
1
2
0
0
0
2
0
1
2
2
1
0
0
0
0
0
1
2
0
1
0
2
0
0
0
0
0
0
0
0
0
0
0
0
1
0
0
0
0
0
0
0
0
1
0
0
0
0
2
0
2
0
0
0
1
2
2
0
0
1
2
1
0
2
0
0
0
0
0
0
0
0
2
2
0
0
2
1
0
0
3
1
0
0
0
0
0
0
0
0
0
0
2
1
2
1
1
0
1
0
1
0
0
0
0
0
0
2
2
1
1
2
0
1
2
0
0
3
0
0
1
2
0
0
0
2
0
0
1
1
1
0
0
0
0
0
0
1
0
0
0
0
0
0
0
0
0
0
0
0
0
0
0
0
0
0
0
0
0
2
1
0
1
1
0
0
1
0
3
0
1
0
0
0
1
0
1
0
0
0
1
0
0
2
0
0
0
0
0
0
0
0
3
4
1
1
4
3
0
0
3
2
2
2
4
1
1
0
1
2
1
0
1
0
0
0
0
0
0
0
1
0
1
1
1
0
0
2
1
0
0
1
1
2
2
0
0
0
0
0
2
3
1
0
0
0
0
0
0
0
0
0
0
1
0
0
1
2
0
1
0
0
0
1
0
0
0
1
0
0
2
3
1
2
0
1
1
1
0
4
2
0
0
1
1
2
3
2
1
0
1
1
1
0
0
0
0
0
0
1
2
0
0
2
0
0
1
0
1
0
0
0
0
0
0
0
1
2
0
0
3
1
1
0
3
1
1
0
0
0
0
0
0
0
0
1
2
0
2
3
3
1
2
3
2
0
0
2
2
0
0
0
1
1
0
0
1
0
0
0
0
1
0
0
0
1
0
0
0
0
1
0
0
3
1
0
0
1
0
1
0
1
0
1
2
2
0
3
1
0
1
2
0
1
0
1
0
2
0
3
2
0
0
0
0
0
0
0
0
0
0
0
0
1
1
0
0
0
0
5
5
3
1
2
0
0
1
2
2
2
1
0
0
1
0
0
0
2
0
0
2
0
0
0
0
0
0
0
0
0
0
2
0
0
0
0
1
0
1
1
0
0
0
1
2
1
0
4
4
0
1
1
1
1
0
0
2
3
0
0
2
1
0
0
1
0
0
0
2
1
4
1
1
2
1
0
2
4
1
2
0
0
0
0
0
1
0
0
0
0
0
0
0
0
0
0
0
0
0
0
0
0
0
0
1
0
0
0
1
0
0
0
0
2
0
0
0
0
0
2
1
0
0
0
0
0
0
0
0
0
0
0
1
3
0
0
0
1
0
0
1
0
0
0
2
0
0
0
0
0
0
1
0
1
1
2
3
0
0
0
0
0
0
3
0
0
0
1
0
0
0
1
1
0
1
1
3
3
0
0
2
0
0
0
3
0
0
0
0
0
0
0
0
0
0
0
0
0
0
0
1
0
0
0
0
0
0
0
1
2
2
3
0
1
0
1
1
0
0
0
0
0
0
0
1
0
0
0
2
2
2
0
0
0
0
0
0
0
0
2
2
1
0
0
0
0
0
0
0
1
0
0
0
1
0
0
0
1
0
0
0
0
1
0
2
0
2
2
1
0
0
0
0
0
0
0
0
0
0
0
0
0
0
2
1
2
0
2
1
0
1
2
3
0
0
0
0
0
0
0
2
1
0
1
4
0
1
1
2
0
0
0
0
0
0
0
1
3
1
0
2
1
0
0
0
0
0
0
1
3
1
2
0
2
1
3
2
1
0
0
0
1
1
3
5
3
2
2
3
3
1
0
0
2
0
0
1
0
0
3
1
2
0
0
0
0
0
0
0
1
0
0
0
0
0
0
0
0
0
0
0
1
2
0
1
0
1
1
0
0
0
0
0
0
3
0
1
0
2
1
0
0
1
2
0
3
1
1
0
0
0
0
0
0
0
0
0
0
0
0
2
0
0
0
2
0
0
0
2
0
1
2
3
4
2
1
2
0
0
0
0
0
1
0
2
2
2
0
0
1
0
0
0
2
0
2
1
1
0
1
0
2
0
0
0
0
0
0
0
0
0
0
0
2
1
2
3
2
0
0
1
3
1
1
2
2
1
0
0
2
1
0
0
0
0
0
0
0
0
0
0
0
1
0
0
0
0
0
0
0
1
0
4
1
5
1
1
0
1
1
2
3
5
5
2
3
2
2
1
1
1
1
3
1
0
2
1
0
0
0
2
0
0
0
0
0
0
0
0
0
0
0
4
5
1
0
0
0
0
0
0
0
1
0
1
0
0
0
0
2
0
1
0
2
0
0
0
1
0
0
0
0
0
0
0
0
0
1
2
1
1
0
0
0
0
0
2
1
0
0
0
1
0
1
1
1
0
0
0
2
0
0
1
2
0
1
0
0
0
0
0
0
2
1
0
0
0
0
0
3
1
0
0
0
2
1
3
0
2
0
0
0
0
0
0
0
0
0
0
0
0
0
2
0
1
5
5
2
0
2
2
0
0
1
1
1
1
1
1
0
0
0
1
2
1
0
1
0
0
0
2
1
1
0
0
0
0
0
0
2
0
0
1
3
0
1
0
0
0
0
0
0
0
0
0
1
2
2
0
1
1
0
3
2
0
1
2
0
2
0
0
1
0
0
0
0
0
0
0
2
0
0
0
0
0
0
0
0
1
0
0
0
1
1
0
1
1
1
0
2
1
0
0
0
1
0
1
0
2
0
0
0
1
1
2
2
3
1
3
0
0
1
2
0
0
2
2
0
0
1
0
0
0
1
1
3
2
3
3
4
0
0
0
0
0
0
1
1
1
1
0
0
0
0
1
1
2
0
0
3
1
1
3
3
0
0
1
0
0
0
0
2
1
0
1
2
1
2
0
0
1
0
1
2
1
0
2
0
1
0
0
0
1
0
1
2
2
0
0
2
0
0
0
2
0
0
0
0
1
0
1
2
2
2
0
2
0
0
0
0
0
0
0
0
0
0
0
0
2
0
1
2
4
2
3
1
1
0
1
0
0
0
0
0
0
0
1
0
0
0
0
0
0
2
0
0
0
0
0
1
1
0
1
1
1
0
1
0
0
0
0
1
2
2
2
0
0
0
0
0
0
0
0
2
0
1
0
1
0
2
1
4
1
0
0
0
0
0
0
0
0
0
0
1
1
2
2
2
2
0
0
1
0
1
2
1
1
2
0
2
0
0
0
3
0
0
0
1
2
1
1
2
1
0
0
0
0
0
0
2
1
1
1
1
2
1
0
1
1
0
1
1
3
2
5
1
2
0
1
0
0
0
1
0
1
2
2
0
0
0
0
0
0
1
0
0
0
0
0
0
0
0
0
0
0
0
0
0
0
0
0
0
1
1
0
0
0
0
1
1
0
0
2
3
0
4
3
1
0
0
0
0
0
0
0
1
0
1
1
0
0
0
0
0
0
0
0
0
0
0
0
0
0
0
0
0
1
2
0
3
4
1
0
4
0
0
0
1
2
0
0
3
2
0
0
3
1
1
0
2
0
0
0
0
0
0
0
1
1
0
0
0
0
0
0
0
0
0
1
0
0
0
0
0
1
2
2
2
2
4
1
1
0
1
0
1
3
4
1
2
3
0
0
0
3
2
0
1
2
1
0
1
3
3
0
0
1
1
2
2
0
0
0
0
0
0
0
0
0
0
0
1
0
0
0
0
0
0
0
1
0
1
0
0
0
0
0
3
3
0
0
0
0
0
1
0
0
2
0
1
2
0
0
3
0
0
0
0
0
0
0
3
3
2
0
3
2
0
0
0
0
0
0
0
3
0
0
1
3
0
1
2
2
0
2
0
0
0
1
0
0
0
0
0
1
0
0
0
0
1
0
1
0
0
0
2
3
2
0
0
1
0
0
0
0
0
0
0
3
1
0
0
1
2
0
0
0
1
0
0
1
2
2
4
0
0
0
1
0
0
0
2
0
0
2
1
0
1
2
2
2
4
0
0
0
0
0
1
0
0
0
0
0
0
0
0
0
3
0
2
4
0
0
4
0
0
0
1
0
1
1
3
3
2
0
2
1
0
0
0
0
0
0
0
2
0
0
0
1
0
0
1
1
0
2
0
2
1
4
0
1
0
0
0
0
0
0
0
0
1
0
1
1
0
0
1
2
0
0
0
2
1
0
0
2
1
0
0
2
1
0
0
1
2
0
0
0
0
0
0
0
0
0
1
0
0
1
3
0
3
1
1
0
0
1
1
0
0
0
0
0
1
0
0
0
1
0
0
0
1
0
1
0
0
0
0
0
2
0
1
3
0
0
3
0
0
1
4
2
1
0
2
1
1
0
1
1
0
0
1
1
0
0
0
1
0
0
0
1
0
0
2
2
0
1
0
0
0
2
0
1
1
2
0
4
2
0
1
0
2
0
3
0
0
0
0
0
0
0
0
0
0
0
0
3
1
0
0
0
0
0
0
0
3
1
2
3
1
0
0
0
0
0
3
1
2
3
3
1
1
1
0
0
0
0
0
0
1
0
1
0
0
0
0
0
0
0
0
0
2
1
1
0
0
0
0
2
4
0
2
3
0
0
3
1
0
0
2
0
0
0
0
0
0
0
1
0
0
0
0
1
1
0
0
3
0
0
1
3
0
0
0
0
0
0
0
0
0
2
0
1
1
1
0
3
2
0
6
1
3
0
2
0
0
0
2
0
0
0
0
1
1
0
0
3
1
1
2
3
2
1
0
1
1
0
0
2
1
0
2
1
0
0
1
0
0
0
0
0
0
2
1
0
0
1
0
0
2
3
3
0
0
0
0
0
2
2
1
0
0
0
1
0
0
0
1
0
1
0
1
1
0
0
4
1
0
0
0
0
0
0
0
0
2
0
1
2
1
0
1
0
0
0
1
3
0
0
0
2
0
0
0
0
0
1
0
0
0
0
0
0
0
0
0
1
0
0
4
0
3
0
1
0
0
0
1
1
0
1
1
1
0
0
0
0
0
0
0
0
1
1
0
2
2
0
0
0
0
0
1
2
1
3
5
0
0
1
0
0
0
2
0
1
0
2
0
0
1
3
2
0
3
1
3
1
0
0
0
0
0
0
0
0
0
0
0
0
0
0
0
0
0
0
3
1
0
0
0
0
0
0
2
5
3
1
4
3
0
0
1
0
0
0
0
0
0
0
0
0
0
0
1
0
0
2
1
0
3
1
0
0
1
0
0
0
0
0
1
0
0
0
3
0
1
0
1
0
0
0
0
0
0
0
0
1
1
1
1
1
1
1
1
1
0
0
0
0
0
0
0
0
0
0
1
0
1
4
0
2
1
4
0
0
0
0
0
0
0
1
1
0
0
0
1
0
1
0
0
0
1
2
2
0
0
1
0
0
1
0
0
0
0
0
0
0
0
0
1
3
0
0
0
2
0
0
3
3
1
0
3
0
0
0
1
1
0
2
1
3
0
4
3
2
2
5
1
0
2
0
0
0
1
0
0
0
0
0
3
0
0
0
2
0
0
1
0
0
0
0
0
0
1
0
0
0
0
0
0
0
0
0
0
0
0
1
1
1
0
0
1
0
0
2
0
0
1
2
0
3
0
4
2
1
0
3
0
0
0
1
1
0
0
0
1
0
0
0
1
0
0
0
1
0
1
2
1
0
2
1
2
2
3
0
1
0
0
0
0
2
0
0
0
1
0
0
0
1
0
0
3
0
0
0
2
1
0
3
2
3
0
0
0
0
0
1
0
0
0
0
0
0
0
0
2
0
0
0
1
0
0
0
0
0
1
2
1
0
1
1
0
0
3
2
1
0
1
0
3
1
1
1
0
0
0
2
0
0
0
0
1
0
0
2
0
0
0
0
0
0
0
1
0
0
0
3
0
0
0
1
2
0
0
0
1
0
0
1
2
0
2
1
2
0
2
3
2
0
1
0
0
0
0
0
1
0
0
0
0
1
0
0
0
2
0
0
1
1
0
0
1
0
1
1
4
2
2
4
2
2
0
0
0
0
0
0
0
0
1
0
0
0
0
0
1
1
1
2
3
1
0
2
1
0
0
0
0
0
0
1
1
0
3
2
1
1
2
0
1
1
2
2
1
0
1
1
0
0
0
0
0
0
2
5
0
0
0
1
0
0
0
2
0
0
0
2
0
0
0
0
1
0
0
1
1
0
0
0
0
0
2
2
2
0
1
2
0
0
0
0
0
0
2
0
0
0
0
0
0
1
0
1
1
5
0
2
3
4
0
1
0
0
0
0
0
0
0
0
0
0
0
1
1
1
0
2
1
0
1
0
0
0
0
0
0
0
0
0
0
0
0
1
0
0
1
3
0
0
0
1
0
0
1
0
0
0
1
0
0
0
1
0
0
0
1
0
0
0
0
0
0
0
0
0
0
0
1
3
1
3
0
4
3
1
0
0
0
0
0
1
1
0
0
0
1
0
0
0
0
0
1
2
2
0
0
1
0
0
0
0
0
0
0
0
0
0
0
0
0
0
0
0
0
1
0
0
1
1
1
1
0
0
2
0
2
2
0
0
0
0
0
2
2
1
0
1
2
1
1
0
0
0
0
0
2
0
0
0
1
1
0
3
0
0
0
1
0
0
0
1
0
0
2
1
0
0
3
1
0
0
1
1
0
0
2
2
0
0
2
2
1
0
1
1
0
0
0
2
2
3
1
4
3
2
0
2
1
1
0
1
1
0
0
0
1
1
0
0
0
0
