P2
# CREATOR: Diamond Light Source Beamline I02
119 118
255
54
61
71
66
61
64
53
53
66
44
81
58
51
75
57
66
71
42
74
80
59
48
71
65
48
54
60
49
67
57
53
85
53
50
42
44
59
49
43
57
54
53
85
60
49
48
34
38
67
46
43
59
62
55
43
41
37
47
51
60
52
57
52
54
59
68
40
62
55
53
54
48
58
54
50
44
60
50
34
50
53
42
43
38
41
56
65
62
52
65
35
61
50
55
45
42
74
31
37
49
56
75
41
56
78
49
58
61
64
49
77
54
86
41
31
58
55
73
32
80
71
58
69
60
45
36
35
53
47
38
47
31
55
73
47
70
59
81
53
37
37
37
27
51
49
40
56
48
50
77
59
62
53
54
84
61
69
58
52
55
67
43
38
62
33
65
90
35
65
22
49
67
68
48
47
55
54
68
93
64
38
56
58
55
35
50
34
52
54
55
43
39
42
48
69
34
63
70
67
73
83
43
38
69
54
59
72
61
94
63
84
68
57
71
53
44
48
74
56
48
52
46
58
60
59
63
54
37
31
46
45
73
71
72
74
66
81
33
40
52
54
56
48
63
50
69
63
46
56
47
44
56
61
43
26
56
70
45
36
65
56
59
58
55
54
41
38
80
50
53
54
39
56
56
39
65
48
55
44
51
53
57
33
57
85
72
79
67
57
65
72
80
56
81
65
55
86
53
53
75
41
78
61
68
63
46
76
87
67
54
61
76
48
44
63
46
60
58
64
64
50
15
91
61
45
37
23
58
45
55
57
57
58
39
58
59
80
72
57
72
54
37
52
60
67
90
89
32
56
66
51
63
64
55
38
62
83
59
53
46
54
39
84
64
48
75
69
75
76
51
45
66
55
53
51
68
51
75
66
84
63
71
69
62
61
48
46
49
62
45
62
64
52
62
56
42
59
55
54
59
72
68
63
46
49
37
64
57
63
51
44
48
54
72
34
34
31
46
66
23
68
53
50
51
75
71
36
47
64
74
83
60
37
82
66
56
61
58
50
83
85
78
70
36
62
60
53
58
34
51
60
66
46
50
67
63
52
52
41
63
65
55
56
37
35
56
62
43
65
53
69
32
31
45
57
77
55
75
48
32
49
58
75
54
41
63
53
86
48
48
80
43
61
60
51
54
56
48
56
63
56
76
50
87
64
69
47
41
39
59
76
73
29
52
46
68
71
62
61
71
67
61
41
51
44
43
48
57
64
41
35
62
48
64
45
51
54
54
60
47
49
61
54
65
57
51
44
57
44
62
48
47
55
63
35
47
41
21
58
44
27
35
34
47
73
41
49
57
11
53
62
52
68
63
55
34
44
66
72
81
59
27
62
42
37
71
57
69
49
44
77
57
36
32
37
49
69
62
61
77
35
68
31
35
43
64
68
49
45
56
62
66
39
67
48
60
64
39
10
54
40
64
47
50
58
61
78
54
57
79
40
31
62
70
72
72
27
51
61
42
48
33
66
47
57
65
42
59
56
42
49
77
68
67
46
57
85
53
53
44
59
66
40
48
45
29
65
45
56
32
63
60
44
78
38
69
42
57
60
68
76
76
76
58
82
64
57
84
72
70
61
37
64
40
67
24
62
77
53
48
39
58
62
49
63
65
67
38
72
67
62
63
61
57
30
58
60
60
56
24
65
59
48
47
27
55
40
78
69
61
67
42
70
37
52
59
38
60
46
51
49
46
53
69
64
52
54
68
58
66
70
48
60
61
72
20
27
60
57
56
57
70
74
66
49
66
81
57
45
53
52
74
58
58
64
62
60
56
63
56
59
55
40
66
63
71
68
65
45
58
58
50
70
41
59
74
84
49
57
53
40
63
56
41
68
44
74
64
58
54
46
68
64
75
41
46
70
68
53
62
86
61
52
58
39
45
43
47
79
81
67
77
55
50
27
82
63
48
68
66
72
68
66
69
51
56
75
25
52
50
56
71
68
40
74
69
67
77
62
47
65
43
53
49
68
56
42
34
79
60
42
32
39
66
67
46
72
60
53
69
82
79
56
0
42
73
66
54
53
69
63
59
44
30
58
52
59
57
55
54
56
59
69
65
61
47
53
71
62
68
44
69
65
55
59
43
46
51
45
71
59
21
63
78
28
55
45
71
39
35
70
63
59
56
63
49
28
26
74
80
68
48
42
60
71
49
49
42
48
55
62
76
53
48
32
73
51
47
59
51
90
55
61
59
51
44
66
48
38
72
46
44
68
44
96
43
76
68
76
66
41
42
45
74
46
57
35
46
75
52
50
62
57
80
43
60
54
38
17
66
67
56
44
55
55
72
65
46
35
62
51
43
51
49
52
72
38
69
68
46
70
61
53
54
45
36
74
53
62
54
28
51
48
49
58
65
25
69
50
61
30
50
32
52
58
48
69
45
54
66
63
47
55
59
56
74
44
42
63
52
61
76
72
56
63
79
60
15
23
38
87
72
65
60
68
59
42
36
41
55
58
51
59
55
57
60
50
49
89
64
59
38
27
47
52
46
48
50
52
66
67
61
68
45
55
68
48
76
47
29
72
47
74
68
82
66
60
39
54
50
36
41
67
40
75
53
53
63
53
62
54
88
61
51
75
32
58
58
32
48
52
71
52
55
41
45
66
41
64
58
40
58
66
61
87
67
51
55
61
70
79
75
51
68
38
61
45
56
54
46
43
57
61
63
58
50
48
45
44
19
49
50
48
54
54
53
76
42
30
60
57
41
44
64
48
50
58
31
54
59
56
47
70
62
56
40
65
59
50
60
57
50
53
52
43
36
35
76
54
45
42
82
69
59
49
43
65
58
56
58
55
67
36
38
58
52
26
74
51
76
65
74
47
54
45
68
44
52
62
47
63
68
40
54
53
80
70
42
47
57
55
51
65
61
56
71
52
55
80
61
73
43
38
60
55
68
46
69
44
50
66
68
64
56
71
69
73
74
68
49
53
65
75
63
71
69
70
68
48
60
81
44
48
60
85
74
65
56
28
61
63
44
67
65
68
67
50
86
27
42
55
33
67
54
67
65
33
48
55
71
75
74
51
67
69
64
64
62
45
44
38
66
48
55
58
62
73
72
54
24
43
15
63
67
77
51
72
68
70
57
66
51
29
51
69
80
58
64
51
69
60
53
46
25
85
53
55
58
47
54
52
65
66
47
44
56
75
43
54
45
53
49
58
38
61
40
67
45
42
72
71
51
45
50
60
54
37
50
60
38
68
57
36
68
52
55
61
55
77
63
44
34
47
85
56
72
52
63
62
60
50
47
78
55
63
56
65
45
61
75
47
50
43
87
66
63
64
46
52
52
66
83
50
53
42
53
75
67
38
44
61
73
62
48
35
27
74
70
59
64
62
55
69
60
58
43
50
30
45
50
55
69
38
63
66
26
36
64
54
59
54
56
50
72
50
57
81
61
63
52
50
79
56
34
42
77
56
53
56
53
62
58
50
62
58
50
45
64
41
29
58
47
59
32
58
27
65
66
49
56
63
34
40
56
44
53
52
50
66
74
61
39
42
56
57
59
44
68
35
37
52
43
34
62
60
68
59
59
74
71
43
56
33
55
42
52
56
54
41
57
62
53
67
39
58
50
55
68
55
61
53
43
60
44
49
67
60
80
64
37
72
55
54
52
53
62
45
48
47
73
64
62
46
51
59
60
55
45
55
47
71
51
57
45
52
75
67
40
39
59
64
75
45
46
60
66
58
64
75
58
57
70
75
52
62
60
64
54
66
44
56
68
67
59
61
65
51
45
63
83
32
37
49
66
82
29
55
59
59
46
41
42
66
37
67
58
63
54
57
79
53
49
46
51
58
60
51
82
46
48
73
56
67
62
53
75
61
48
42
48
50
70
41
59
54
77
80
64
63
62
66
55
77
39
58
56
47
52
54
92
45
52
35
66
73
59
63
73
63
55
56
47
67
48
58
63
67
50
46
57
66
48
53
14
33
54
55
34
34
64
55
49
59
53
55
40
43
52
54
45
41
62
25
53
72
68
58
34
54
63
83
60
44
55
46
49
63
57
72
76
60
73
61
49
28
49
61
51
69
72
42
48
51
25
53
50
51
61
60
64
48
41
37
53
57
46
51
56
51
57
58
66
31
46
66
52
48
43
49
57
47
49
61
57
40
41
40
33
42
66
70
61
50
52
60
54
56
41
49
42
34
46
69
73
44
53
64
61
65
41
57
70
58
66
50
65
40
63
79
68
60
39
66
66
71
51
69
67
85
56
59
58
58
44
65
64
66
53
48
61
73
79
49
46
81
52
63
65
49
50
59
75
67
53
46
58
63
70
42
56
77
79
57
59
54
57
63
45
74
78
75
87
61
66
60
53
73
80
64
62
78
66
82
43
37
37
47
58
68
43
63
37
70
72
70
82
65
65
56
65
76
57
38
43
39
79
67
37
29
64
68
68
57
58
33
58
43
61
75
46
72
54
62
32
37
42
64
44
37
45
61
66
47
45
63
49
59
38
56
40
65
75
58
57
67
48
47
35
54
75
59
70
64
44
71
68
45
34
66
58
49
43
41
47
36
65
73
79
20
39
67
81
49
50
39
55
56
36
55
59
53
55
50
79
70
64
23
61
76
47
50
58
49
48
42
44
40
33
55
75
48
50
55
76
64
66
70
60
64
50
31
75
54
42
56
61
59
42
62
80
72
50
55
51
80
61
55
55
49
57
42
58
73
66
72
66
81
58
47
79
78
41
54
38
53
89
43
47
74
74
64
56
43
83
47
66
38
63
52
65
67
54
50
50
67
57
61
37
49
69
42
53
57
68
48
66
66
73
64
45
74
62
53
48
54
56
65
25
21
63
52
65
51
58
66
66
25
61
43
49
26
53
75
52
36
52
34
48
44
40
47
67
60
81
37
29
71
58
67
33
45
55
67
52
45
43
52
54
38
56
60
42
30
50
71
59
67
14
51
54
62
50
54
60
74
65
55
59
59
48
41
53
55
57
42
44
60
59
43
74
52
46
62
76
54
57
43
79
31
45
62
54
60
50
57
50
52
67
43
74
46
20
32
56
85
46
37
50
40
58
26
79
75
26
46
51
62
60
28
72
67
46
49
47
78
68
60
47
58
84
59
42
60
59
60
49
64
58
58
56
48
60
71
37
58
74
69
49
49
63
61
48
70
62
38
58
43
55
67
52
55
69
57
56
75
66
73
59
88
71
66
45
29
68
40
46
50
59
62
56
57
69
77
35
48
50
62
57
66
61
31
52
69
59
45
45
60
31
48
57
66
75
45
58
76
57
51
45
45
47
36
84
53
61
50
54
82
56
51
58
44
79
59
67
37
88
63
47
74
38
52
77
64
51
51
68
57
21
54
86
74
63
33
51
65
83
63
41
58
37
48
67
74
65
37
68
62
75
72
47
68
45
60
63
68
59
51
70
40
50
43
80
79
65
62
63
64
49
40
58
71
43
35
46
55
49
42
36
52
70
37
62
87
74
56
46
37
67
53
57
41
57
30
45
62
78
77
43
66
62
76
68
52
47
49
49
75
61
58
60
65
33
45
43
63
79
68
54
68
51
53
35
62
64
63
41
23
67
58
69
58
45
63
63
74
72
82
57
38
47
54
33
31
65
53
67
49
41
71
45
65
43
64
34
66
40
68
54
41
51
36
72
59
35
67
82
72
54
24
62
57
56
55
50
57
68
80
64
46
40
67
58
66
58
67
62
57
68
53
52
50
49
58
75
55
43
57
62
65
61
75
76
62
78
62
76
54
54
48
38
58
60
54
57
46
48
38
54
51
54
51
46
57
42
76
75
39
38
52
60
48
47
48
50
54
39
77
67
78
62
47
60
48
59
34
61
65
57
78
82
60
44
33
40
60
64
34
57
80
75
66
40
84
71
56
50
45
51
58
54
24
59
67
63
58
57
66
69
63
64
52
64
47
35
31
47
60
52
77
70
49
49
45
45
42
59
55
71
73
44
35
54
33
35
55
70
49
53
63
70
73
45
63
51
46
51
65
53
43
50
26
40
48
67
68
63
69
54
56
68
76
76
54
37
46
67
54
48
57
67
57
60
60
80
66
47
46
61
63
58
69
56
69
70
59
45
48
50
63
41
66
54
71
62
66
58
48
33
56
39
65
38
58
34
40
56
64
69
68
60
47
51
53
62
61
45
53
74
65
50
64
49
56
38
50
77
48
42
57
55
55
68
48
52
37
57
69
45
23
51
60
79
43
47
58
60
78
61
66
59
63
39
54
80
53
45
32
44
55
73
31
50
45
85
68
40
68
22
64
34
45
47
47
51
65
43
71
56
65
64
65
71
49
67
66
61
62
71
62
49
46
46
77
58
35
50
52
74
67
72
39
46
44
30
58
48
48
59
35
47
45
82
56
48
39
42
53
39
46
80
59
67
60
54
72
63
53
50
48
43
36
50
60
38
76
64
32
54
69
88
48
54
40
68
93
63
63
54
41
52
83
70
75
39
55
78
63
65
60
81
63
50
35
58
56
74
67
81
54
28
47
62
44
54
66
29
67
67
81
55
55
58
91
56
52
43
77
96
48
46
46
78
36
21
56
44
56
44
46
41
48
65
41
69
72
41
38
36
66
66
25
41
57
65
30
64
62
57
63
52
48
81
53
68
50
72
66
71
75
45
52
61
67
65
53
78
62
68
52
55
71
62
59
38
24
50
53
70
65
56
63
54
51
63
66
50
52
43
54
62
59
40
47
49
60
45
37
73
35
67
73
52
44
68
69
38
50
47
58
84
66
55
37
54
76
73
48
65
85
64
68
63
83
76
17
64
42
66
50
38
47
80
41
39
62
66
98
61
69
58
69
66
48
57
73
76
34
59
42
44
72
38
58
53
48
72
81
64
45
48
67
46
62
75
64
37
43
51
67
54
79
72
75
53
43
68
54
37
72
49
44
56
64
71
69
64
67
43
53
55
66
74
59
62
37
66
68
67
66
51
58
49
59
57
57
39
56
67
59
53
62
45
49
37
68
46
60
57
38
65
58
56
43
60
61
53
57
55
39
61
79
50
55
42
54
31
53
90
43
61
13
46
87
40
54
47
76
47
63
33
65
47
46
26
55
69
54
50
50
100
62
61
70
52
78
43
66
66
75
73
43
38
55
54
61
61
51
52
52
82
64
55
66
56
49
56
39
50
60
53
44
59
70
52
63
28
39
58
51
65
20
55
65
43
35
59
42
67
6
39
47
50
59
49
68
60
54
71
49
70
38
40
72
52
63
39
61
53
60
75
55
73
39
62
75
78
52
38
57
30
48
54
48
65
29
48
46
32
33
81
70
50
57
75
43
47
46
59
51
52
78
69
56
64
55
63
36
60
45
58
61
73
33
47
32
45
35
40
49
35
57
62
53
69
42
78
50
55
71
56
36
82
66
44
54
59
68
53
68
64
53
45
49
61
64
70
56
51
54
46
49
35
46
46
68
67
92
61
53
48
74
58
53
34
49
70
72
49
51
70
66
77
65
47
46
24
42
50
81
52
59
47
71
45
61
48
39
86
29
67
62
60
61
68
68
48
45
55
39
62
66
58
70
73
75
61
61
48
66
63
49
62
47
39
49
70
80
47
2
26
81
53
51
43
76
64
51
48
73
71
68
65
68
61
52
43
60
65
47
58
22
62
41
53
51
57
44
43
68
57
76
37
62
60
43
56
54
55
31
53
49
41
60
53
73
70
35
54
71
48
75
56
58
48
41
57
60
55
58
62
73
49
39
54
63
69
59
41
72
65
32
56
58
78
32
49
71
65
38
50
53
79
71
65
66
34
44
40
61
71
62
56
35
64
59
49
46
88
60
59
53
37
63
45
63
24
54
56
52
37
59
58
59
42
65
72
58
34
78
78
63
29
54
96
48
66
62
39
67
73
42
95
43
71
58
48
78
44
49
61
61
59
64
48
39
47
56
73
56
46
60
42
35
70
49
52
38
39
55
61
64
64
47
62
22
55
43
61
51
68
49
62
84
59
54
60
80
57
54
60
48
62
84
59
56
67
60
63
52
28
61
65
52
58
41
71
71
58
50
53
42
30
53
77
84
54
20
70
52
45
43
31
44
53
45
84
75
60
73
33
68
59
83
79
71
77
59
27
44
40
60
55
30
70
73
57
72
64
75
38
41
48
71
52
66
40
69
39
39
47
42
70
68
55
56
78
58
70
55
65
45
68
70
59
59
58
41
54
61
69
54
59
71
58
47
79
61
75
71
53
60
57
66
69
69
70
66
43
50
65
45
57
30
59
29
40
65
57
25
62
72
59
62
36
44
58
91
55
54
67
59
60
80
56
67
55
38
68
74
65
42
60
45
53
52
33
60
46
63
58
53
66
67
73
37
62
40
48
17
53
52
41
49
41
70
67
63
36
37
47
62
40
55
78
52
46
49
74
33
44
58
72
54
42
52
91
47
43
44
59
66
37
57
47
66
54
53
51
58
61
56
65
52
74
61
51
63
40
53
61
52
51
53
74
40
69
54
71
55
32
42
52
70
66
53
62
34
52
55
75
58
43
68
58
83
54
43
41
66
57
44
47
47
31
38
40
34
35
35
58
48
64
55
40
62
21
74
74
45
33
50
52
81
77
67
71
57
59
74
69
89
34
48
30
47
63
57
61
51
68
46
36
30
56
82
96
47
59
71
41
41
53
43
50
25
51
60
32
51
55
68
32
43
52
80
50
38
61
40
67
49
34
55
44
47
62
56
31
56
46
55
49
72
40
41
60
75
63
42
53
60
52
61
37
60
65
47
64
70
60
84
48
20
43
81
37
55
48
40
62
65
47
49
68
59
63
50
68
50
43
70
66
73
66
76
66
83
70
57
44
38
63
38
54
65
65
69
64
48
62
79
41
51
57
74
53
58
51
60
63
52
72
35
48
52
59
60
67
57
77
59
58
35
50
53
64
49
79
62
62
75
64
54
51
61
80
85
73
56
61
33
60
41
95
59
58
85
59
77
63
47
61
63
71
62
48
63
54
62
51
57
43
35
54
62
50
52
70
57
49
62
39
52
60
36
54
22
46
53
47
51
55
59
56
73
69
61
73
54
66
75
54
56
66
76
42
54
51
56
65
53
64
62
49
68
43
84
52
34
62
80
54
48
25
31
41
72
60
49
65
37
59
48
59
38
45
24
31
47
39
78
50
71
50
52
70
62
51
62
64
48
55
58
54
60
43
83
47
40
64
61
73
70
41
67
59
41
57
73
76
58
27
61
47
42
62
81
43
35
51
50
49
64
45
55
85
64
48
39
45
71
39
77
62
60
34
62
63
46
73
71
61
50
49
49
62
65
75
58
45
68
39
54
79
64
56
42
48
48
60
44
41
47
47
62
64
44
59
38
80
64
57
38
37
60
58
48
54
43
60
76
87
53
82
43
39
52
68
56
44
53
55
59
58
65
67
67
59
56
70
55
68
62
61
49
39
60
63
57
82
40
62
41
46
62
64
47
46
54
63
62
51
32
56
41
60
42
42
62
72
68
54
38
48
34
44
56
53
81
66
57
52
63
60
60
48
67
66
67
78
49
69
54
66
37
42
79
51
57
42
74
62
77
75
65
62
43
64
59
74
60
49
37
59
36
73
49
42
59
61
52
60
38
55
66
60
70
38
58
43
63
41
39
59
53
83
51
69
52
65
69
41
63
51
68
38
80
46
30
62
66
46
56
67
73
49
45
59
69
55
71
44
45
48
37
51
35
41
71
56
76
56
58
61
49
52
54
42
58
68
55
35
46
75
62
35
62
51
46
70
46
59
81
53
59
56
39
54
66
49
53
46
47
62
52
40
48
71
72
40
57
48
67
54
66
81
32
50
59
70
58
49
43
53
72
42
29
78
81
61
49
36
55
51
40
41
59
72
62
60
71
55
42
67
63
58
29
44
61
69
51
52
48
51
63
45
48
40
46
63
38
52
51
66
60
58
45
76
79
67
57
35
63
81
65
63
39
53
31
45
50
62
70
64
77
48
52
38
62
70
55
62
41
74
64
48
42
63
55
56
38
58
97
56
50
45
84
53
55
57
72
60
53
70
34
65
52
64
40
54
29
65
58
52
46
59
55
55
37
59
68
53
50
62
40
54
66
46
42
42
47
48
72
65
30
49
32
47
48
57
53
66
65
79
59
55
55
53
50
61
65
52
63
56
71
71
53
57
81
83
88
67
34
71
74
68
37
49
65
54
71
54
64
61
75
24
55
67
49
50
45
43
67
46
61
52
55
62
52
71
61
71
78
50
49
49
50
23
60
38
70
59
59
72
70
67
65
56
82
65
70
88
53
63
27
75
51
43
39
58
58
43
67
64
67
49
88
45
65
81
48
52
59
37
71
57
22
48
54
79
74
37
58
54
69
68
55
67
46
40
45
61
70
43
65
53
80
62
54
75
65
60
77
43
82
55
59
51
45
65
38
42
35
50
74
40
44
49
53
51
61
42
58
47
65
35
55
47
45
48
50
70
48
59
25
70
74
56
54
40
42
51
62
51
48
69
68
66
26
49
72
38
48
71
72
65
41
68
52
61
72
54
68
45
44
62
51
56
50
41
42
20
61
46
71
42
36
67
50
64
46
54
56
48
14
62
45
79
61
67
63
56
59
65
58
52
72
62
63
45
37
57
54
58
63
53
70
67
57
73
70
72
61
73
54
56
46
36
55
57
42
34
40
47
35
49
36
59
69
59
50
51
57
76
57
70
35
46
39
49
52
48
69
72
74
61
77
71
52
61
72
44
65
61
54
63
55
56
68
76
73
41
57
60
73
54
44
63
60
51
40
67
59
64
72
54
42
53
54
54
38
56
55
44
55
54
54
38
56
47
55
61
79
70
68
62
66
67
50
38
45
27
80
61
57
42
71
63
45
50
65
71
71
62
64
63
60
45
53
42
63
50
53
55
37
70
64
58
43
39
73
58
47
75
60
51
77
44
55
51
58
66
54
60
54
65
45
54
89
64
24
78
48
61
51
39
59
53
66
55
68
58
39
54
61
62
57
51
52
47
42
53
75
35
38
59
53
59
82
52
56
52
42
56
63
56
48
40
43
46
38
63
34
64
63
89
58
49
43
46
63
63
47
43
52
66
60
53
62
62
52
63
42
61
57
58
68
62
55
67
66
71
67
36
30
57
45
39
36
59
52
64
47
46
66
47
45
52
75
69
72
61
36
62
68
42
59
40
64
57
34
19
46
68
51
47
46
56
54
77
44
63
68
67
68
64
43
50
71
58
59
55
52
66
68
62
49
72
63
39
58
51
50
60
45
56
49
46
66
62
53
68
47
68
68
67
45
58
39
65
67
57
54
56
39
65
78
80
70
48
63
47
38
48
46
66
60
68
66
61
72
59
58
74
68
54
73
77
68
58
53
36
50
58
50
59
47
74
66
71
58
65
61
73
55
40
50
65
48
37
56
33
53
51
49
70
35
36
73
48
36
39
49
48
61
58
41
61
62
56
58
59
66
63
76
65
45
53
55
58
54
41
64
57
57
67
57
61
55
52
57
48
76
48
73
63
69
67
44
72
61
57
30
45
60
69
44
54
62
56
70
52
46
40
63
44
46
37
67
45
58
52
55
51
69
77
70
47
54
61
67
71
65
45
41
50
62
64
58
44
63
56
50
59
30
53
32
61
48
36
53
62
53
44
32
44
52
57
50
40
56
51
52
64
62
91
62
56
65
41
66
58
64
81
73
65
57
66
54
46
64
68
69
46
48
80
72
61
56
78
47
66
47
50
69
74
67
54
64
45
61
63
62
44
41
39
52
40
48
65
44
62
40
57
40
27
64
36
54
68
38
64
59
47
77
62
40
53
51
70
63
45
66
79
45
53
62
61
59
77
76
46
57
31
48
50
37
74
53
44
55
51
48
67
59
59
46
47
57
44
40
59
47
44
44
45
56
49
50
74
74
62
57
36
63
74
43
52
33
46
64
72
53
62
70
63
46
59
62
61
37
59
61
65
53
40
44
44
64
53
69
65
39
53
73
54
72
42
46
69
53
28
58
68
65
49
51
36
66
47
58
47
55
84
56
71
92
62
82
57
63
72
41
65
66
59
64
62
89
75
67
59
56
66
61
52
57
54
45
47
47
59
57
66
69
42
58
52
22
71
70
68
36
59
46
46
58
55
55
65
81
52
87
45
55
37
60
49
49
59
51
64
61
63
61
64
58
66
66
65
49
76
74
79
72
29
68
41
70
71
46
56
37
46
45
66
56
71
80
54
50
52
63
59
58
64
67
62
79
83
51
56
49
49
60
43
53
62
81
58
54
68
63
38
44
76
55
81
56
45
46
59
75
62
54
45
54
63
39
50
64
53
61
50
45
63
21
29
47
45
41
54
60
61
33
73
57
58
63
73
52
27
73
64
53
62
62
23
45
53
57
41
47
45
47
64
56
45
47
51
46
53
42
63
50
72
79
65
48
42
83
86
56
52
53
81
55
44
25
39
48
61
51
62
54
72
79
70
72
56
32
34
46
64
56
46
73
58
46
58
37
42
66
82
63
57
54
52
55
40
57
55
72
66
51
45
52
66
70
67
51
67
40
47
69
49
85
74
62
58
60
74
80
54
49
53
56
53
52
84
58
62
57
69
77
47
67
57
85
69
43
70
35
55
63
67
63
45
57
60
49
68
50
49
64
81
64
73
67
55
59
80
65
64
79
61
54
46
64
25
50
66
65
48
51
74
75
58
49
57
56
40
64
51
66
63
34
59
57
57
58
40
53
47
63
48
31
49
61
74
74
63
75
49
29
66
42
46
69
51
58
62
67
46
50
70
59
59
60
78
78
74
47
66
80
53
67
59
54
86
69
80
89
67
72
51
88
57
61
68
65
59
39
63
76
77
67
48
77
70
44
54
65
73
45
71
35
67
61
58
64
59
57
63
66
62
52
61
54
46
29
57
54
40
67
50
62
40
54
80
75
57
47
48
59
48
53
80
55
51
60
73
48
37
37
63
49
32
54
59
38
41
63
35
66
48
54
77
52
63
64
36
67
54
74
49
37
57
92
70
56
74
66
62
51
39
86
86
50
63
66
59
58
52
52
56
73
62
80
61
82
61
64
76
92
56
70
77
62
58
67
56
48
66
48
65
74
56
47
48
76
50
66
71
66
64
51
72
68
37
53
73
84
58
73
64
66
62
29
65
58
72
45
44
50
54
80
67
70
66
67
68
54
65
53
70
35
36
53
42
46
64
65
64
49
58
91
60
57
51
72
41
64
57
61
37
50
62
71
44
40
63
66
56
63
68
85
59
44
34
68
78
55
45
30
74
74
58
60
54
52
76
65
76
65
69
79
49
64
63
64
79
47
81
77
63
86
65
69
67
75
90
85
78
56
59
69
89
62
83
109
72
76
63
81
110
79
86
83
104
72
76
88
68
58
69
82
72
60
65
77
59
60
58
75
84
72
61
57
47
85
55
61
56
65
40
50
68
50
48
49
47
73
60
64
31
52
64
45
40
50
45
69
25
48
63
52
66
60
57
57
52
37
63
69
63
61
60
81
83
74
61
48
61
66
50
48
43
60
81
73
61
67
63
50
55
51
53
46
34
71
75
61
69
53
53
77
68
90
91
64
80
92
97
76
85
71
92
50
63
77
96
77
71
89
91
94
75
72
93
97
81
79
77
102
68
110
80
73
84
83
68
104
51
74
88
71
78
65
72
72
55
33
66
66
48
66
73
82
72
43
59
64
85
65
43
75
63
70
80
25
54
57
70
61
60
72
71
51
52
38
81
69
45
55
34
57
32
40
68
62
59
73
70
37
65
28
56
67
53
54
35
51
30
46
68
80
73
46
61
55
73
89
62
58
59
51
61
55
72
59
76
71
68
70
64
67
78
66
72
85
82
80
78
51
87
115
90
86
78
102
108
111
104
111
107
110
86
90
123
102
105
94
108
76
100
103
87
100
69
78
108
75
106
98
64
80
85
99
76
82
57
89
63
65
76
76
63
62
62
66
77
52
55
43
64
66
50
55
45
75
52
55
66
68
74
73
64
64
83
69
64
41
45
74
59
51
53
63
57
51
54
66
45
46
39
51
52
31
55
60
69
44
57
70
52
58
24
49
53
54
84
56
54
89
88
88
66
72
88
62
69
76
83
106
79
71
64
91
98
98
94
90
106
120
126
106
120
107
111
110
110
97
132
125
112
104
119
103
104
112
120
109
89
110
90
127
96
113
128
94
100
102
105
111
85
89
79
80
114
87
82
42
87
89
73
74
70
80
67
67
71
55
66
54
68
50
53
67
76
50
57
45
70
50
43
43
46
64
66
52
43
52
72
71
56
62
48
44
55
53
80
53
75
66
61
61
37
56
51
82
76
55
64
70
87
57
56
65
52
58
54
38
80
83
88
93
67
67
75
93
83
81
95
87
110
91
90
106
104
95
92
100
111
109
131
140
128
149
121
126
132
139
120
134
129
155
151
121
155
146
129
108
145
123
123
123
116
108
110
118
106
98
118
86
105
97
97
98
99
95
63
78
88
52
60
60
65
69
54
55
64
93
77
63
39
62
53
62
54
31
56
57
45
42
45
36
33
72
50
56
74
50
72
54
50
50
65
40
29
65
33
77
43
69
65
38
72
66
80
79
51
51
58
59
61
69
72
77
70
66
71
83
72
61
64
83
69
79
114
88
91
100
84
119
106
117
121
127
143
152
143
113
124
136
148
146
154
147
142
157
150
145
156
169
168
147
146
154
161
159
153
165
173
162
134
123
140
128
131
120
101
102
123
110
103
92
81
104
110
79
108
107
86
83
85
93
83
68
75
67
59
89
65
43
77
79
77
70
57
75
59
67
65
62
64
77
53
34
37
48
73
68
31
33
79
75
51
41
71
55
72
60
55
82
78
67
60
25
46
49
53
54
62
59
76
93
67
65
60
78
65
66
64
74
90
98
93
102
101
100
93
123
129
127
120
135
120
117
142
171
135
156
115
139
177
153
155
172
188
171
175
178
178
201
162
165
170
199
171
163
172
162
155
148
155
165
148
147
148
127
146
140
145
112
106
92
111
100
80
73
85
77
79
91
82
67
63
70
73
63
69
57
50
74
72
73
38
54
69
68
39
56
79
77
55
69
75
74
53
58
58
67
63
64
64
72
56
70
44
68
37
37
50
68
52
42
55
58
59
51
71
70
83
46
73
73
77
81
107
95
78
64
86
92
117
83
93
95
119
126
120
125
138
121
120
130
158
148
173
164
183
189
183
195
191
170
200
192
212
209
171
210
200
191
189
200
215
190
171
183
198
176
178
197
172
166
139
169
165
157
131
146
129
131
115
129
111
122
110
83
83
75
114
73
70
85
84
64
73
81
56
69
77
57
64
62
47
100
63
41
54
69
70
40
65
46
42
55
53
46
55
65
43
51
58
82
55
60
41
50
55
61
58
50
53
68
72
81
79
72
62
67
49
57
56
57
57
80
81
86
88
103
124
107
99
108
120
125
104
118
125
129
141
148
155
155
168
167
163
180
189
208
193
203
207
229
238
215
209
207
222
208
225
226
228
233
197
216
190
189
198
182
173
185
178
166
148
163
146
129
145
138
130
111
145
106
126
118
104
115
103
103
89
98
90
95
69
79
95
79
76
72
56
73
34
73
91
40
54
52
65
59
29
53
55
63
53
75
44
76
44
61
33
50
51
48
68
59
82
76
44
75
41
77
91
47
73
69
73
50
74
70
95
92
83
71
104
77
105
102
78
114
88
107
106
111
138
142
144
153
145
156
189
174
177
166
171
195
215
180
232
207
213
197
201
232
229
249
229
224
242
252
227
212
210
230
233
241
213
221
200
198
223
180
161
187
190
171
156
141
142
149
130
131
123
111
106
82
107
112
93
63
88
102
73
70
60
75
72
42
56
79
54
56
53
67
58
46
52
75
53
41
76
57
87
54
42
69
70
70
69
41
67
57
51
43
50
50
66
54
67
55
53
72
48
46
46
61
82
70
52
99
73
81
72
65
102
69
81
94
84
113
99
111
139
129
112
144
130
157
169
175
170
181
174
187
202
203
234
182
194
251
237
217
226
216
232
243
238
231
255
221
246
220
214
247
226
236
225
204
215
179
195
181
184
179
177
150
146
156
148
150
138
122
120
103
122
96
110
98
79
105
58
76
54
81
88
76
63
72
71
59
75
46
67
77
70
68
68
83
43
68
61
74
58
41
56
40
49
74
65
43
65
44
66
69
53
55
53
50
65
64
58
47
44
49
52
57
66
69
93
82
85
57
83
90
80
101
95
94
102
113
127
135
102
98
134
147
160
148
164
149
186
174
189
214
162
181
196
229
235
215
229
214
244
248
246
233
230
232
243
249
218
249
244
244
205
224
207
226
195
200
202
183
169
177
171
180
151
143
133
138
121
107
132
142
113
99
90
67
103
92
111
57
80
86
81
73
78
80
75
66
56
59
67
71
69
51
53
56
56
48
50
48
66
57
43
59
65
69
68
70
62
73
58
44
51
55
69
49
58
70
66
80
108
91
83
58
31
81
44
78
66
96
113
76
95
99
98
85
114
106
100
129
122
146
156
131
132
151
167
167
169
204
203
206
198
208
240
217
229
232
236
245
237
238
235
240
226
235
239
234
230
216
193
185
200
199
210
178
188
181
180
170
145
142
141
151
129
121
109
116
130
113
85
96
93
84
103
107
99
97
74
89
60
73
49
64
55
71
88
47
52
43
59
51
36
78
67
69
67
34
42
53
78
70
63
56
56
38
52
61
70
50
50
66
79
74
41
58
59
80
49
49
57
65
77
50
87
59
69
94
73
90
67
99
88
112
114
113
126
141
93
104
147
150
144
122
155
165
168
169
158
182
181
202
184
182
213
185
218
211
224
229
196
217
234
228
227
212
221
206
213
214
203
205
200
192
186
190
171
185
161
135
155
153
139
135
121
151
111
110
119
101
111
86
93
88
77
80
91
68
69
66
61
77
68
58
85
92
77
50
65
68
58
40
68
53
68
34
57
67
62
60
51
31
65
51
39
57
37
54
61
62
53
68
58
55
72
47
81
56
66
79
60
55
82
97
69
70
86
81
57
81
76
100
82
76
100
87
129
107
121
140
129
131
105
152
190
176
155
140
173
187
176
198
181
186
161
170
220
181
203
199
194
211
200
194
200
192
196
215
194
206
178
185
177
175
159
151
173
155
128
167
147
123
114
107
138
111
98
92
95
102
103
89
84
84
66
75
64
63
49
67
69
64
37
35
39
59
67
59
56
64
59
70
49
41
51
73
68
47
58
57
55
47
68
38
59
56
57
47
49
61
53
46
44
71
53
58
35
62
37
48
82
64
82
46
74
81
54
57
73
86
84
88
78
72
90
109
106
112
102
110
115
116
148
148
119
115
125
160
171
160
162
189
158
168
179
198
182
153
167
175
196
179
156
173
182
170
173
178
173
172
176
137
135
144
160
159
144
130
118
114
138
117
119
131
100
101
86
102
94
102
96
85
82
75
61
81
90
84
91
86
66
45
51
75
60
69
54
50
65
83
53
46
63
64
77
54
46
68
49
63
87
74
55
47
63
77
68
51
69
57
46
67
70
32
64
81
59
54
73
50
69
74
58
77
76
64
79
86
98
97
95
79
107
87
98
90
80
75
120
104
114
109
101
118
110
143
146
117
129
119
164
167
159
145
152
137
161
185
166
144
156
175
167
174
148
142
156
140
152
124
142
139
134
108
108
125
121
113
120
82
83
133
88
104
82
102
107
73
36
82
64
72
84
65
71
51
45
65
78
74
85
64
53
61
55
62
62
64
66
59
46
58
50
77
44
43
73
55
41
54
55
60
62
69
68
44
61
51
65
40
51
68
67
64
47
83
80
75
62
52
77
43
52
61
89
94
65
51
59
63
85
84
79
75
79
99
83
109
93
115
94
99
106
115
157
120
109
113
113
130
118
131
145
147
140
141
151
153
131
126
143
138
145
117
132
118
129
107
105
145
133
109
119
106
120
98
94
104
100
92
82
83
61
87
65
82
83
71
68
81
73
92
55
79
70
56
44
53
66
67
74
67
64
52
58
45
51
44
63
59
71
55
49
51
37
62
65
45
65
65
51
58
47
70
41
51
72
63
61
66
64
71
58
59
57
69
54
56
66
53
33
45
87
70
75
83
48
55
73
96
97
62
73
70
103
106
100
73
103
103
85
88
113
134
112
107
96
104
128
96
129
110
113
123
102
118
117
113
95
128
122
130
104
125
116
127
124
90
123
126
107
116
81
119
98
102
88
71
101
73
100
75
66
80
67
76
55
55
69
46
81
64
84
56
87
56
37
44
65
42
65
52
61
61
49
57
37
65
53
52
58
49
47
49
95
79
15
63
58
47
31
57
54
39
63
65
61
56
55
52
42
29
42
64
67
41
43
70
72
78
66
72
27
51
62
56
75
45
58
80
54
58
76
67
91
66
73
105
81
84
79
90
76
55
65
88
109
111
76
97
82
92
92
113
101
96
106
93
107
111
96
67
106
104
108
93
67
108
98
90
63
81
84
72
95
105
67
83
77
91
73
86
94
67
73
102
78
62
69
61
58
48
45
66
52
60
70
61
41
36
75
53
70
60
70
44
69
51
48
63
61
65
56
66
62
59
51
63
50
52
68
59
62
52
58
65
30
51
51
64
73
52
56
58
51
52
67
61
53
76
60
49
61
76
75
74
58
62
71
67
88
64
76
62
33
70
82
72
96
58
76
76
74
99
107
100
86
70
88
95
107
79
60
74
111
83
90
97
88
98
80
95
120
99
76
53
82
85
79
92
82
62
93
60
65
59
73
60
76
56
86
59
44
69
75
81
58
50
62
59
55
68
73
84
70
62
49
77
64
45
34
74
50
64
73
40
62
53
56
66
37
55
64
58
49
73
68
63
78
79
63
57
56
50
57
52
71
69
75
53
49
66
39
64
62
44
53
55
69
60
50
40
78
94
69
56
58
68
68
74
54
72
67
41
63
51
72
70
52
65
64
62
83
76
68
77
77
65
80
86
84
81
68
78
86
84
74
58
48
81
62
68
52
68
77
72
80
41
81
62
73
85
63
67
67
88
75
51
63
62
60
71
55
46
44
59
64
72
59
56
46
45
49
66
44
56
48
48
63
46
53
62
41
66
67
52
60
67
63
57
47
44
58
67
54
33
33
47
77
36
53
55
53
66
48
53
52
67
72
79
71
78
70
61
58
61
48
65
64
64
55
42
64
70
48
49
45
61
57
45
69
72
78
82
75
54
78
64
105
67
67
84
61
51
70
66
77
78
72
68
83
60
89
61
78
51
84
69
70
75
80
67
61
89
87
64
46
59
78
86
59
45
70
46
74
43
51
62
48
46
56
57
41
50
59
55
53
94
59
44
51
56
55
48
61
77
90
70
47
62
68
45
34
46
71
68
36
30
68
50
44
36
43
60
14
56
56
66
48
23
68
70
70
58
35
61
42
24
49
34
39
39
70
66
44
37
70
58
75
57
46
44
67
66
75
52
67
64
60
53
64
83
72
48
60
70
67
60
81
81
59
47
39
57
86
67
78
46
61
61
54
52
58
73
44
102
69
71
65
54
64
73
77
60
65
42
78
92
70
43
45
82
77
83
43
86
65
64
57
72
61
72
69
39
67
67
54
69
48
70
63
53
33
60
62
65
44
62
55
53
62
32
57
67
57
62
58
69
91
58
56
39
66
56
54
66
54
56
50
48
48
61
60
23
74
36
55
71
56
53
54
63
79
55
50
54
79
75
68
37
44
60
58
45
43
86
58
65
32
54
69
44
52
64
40
66
32
59
47
47
62
49
63
76
51
55
55
60
79
78
70
67
63
53
36
60
61
52
56
50
55
72
62
56
40
32
54
49
38
73
67
61
54
39
68
49
86
56
75
62
51
67
44
59
36
54
41
46
47
61
71
42
35
43
55
23
40
70
83
51
53
72
65
60
43
39
80
66
49
61
69
76
70
52
72
58
55
58
70
78
66
60
73
43
53
61
68
63
39
40
62
53
56
30
50
59
66
50
45
55
79
74
41
56
80
62
90
48
49
71
36
60
57
59
62
44
70
67
67
60
74
76
58
29
58
52
51
52
51
67
37
60
69
74
64
46
64
69
54
48
58
66
54
72
77
65
74
43
69
55
62
40
39
78
39
57
38
55
54
63
80
72
51
49
78
65
47
77
57
86
77
57
59
66
47
46
64
68
53
36
71
82
44
52
19
47
52
61
48
43
45
68
80
59
31
53
54
74
40
34
58
58
74
67
65
78
80
50
33
56
83
73
37
76
52
51
66
39
64
68
77
46
41
34
54
42
22
58
75
52
62
56
62
85
34
38
44
57
88
73
47
72
58
66
57
65
68
58
66
47
61
65
74
35
54
57
77
70
55
35
60
58
83
59
31
56
51
54
47
66
57
34
53
58
66
46
45
49
32
70
41
29
84
58
54
60
43
29
71
34
76
75
71
71
65
75
74
42
45
36
65
67
58
62
58
53
62
41
67
51
52
31
47
46
53
74
60
55
58
41
62
59
40
54
44
75
67
55
68
57
52
49
50
23
69
33
63
84
57
49
36
29
62
74
61
55
92
64
42
61
48
55
83
71
58
54
46
56
53
32
52
77
52
67
61
58
61
26
52
60
63
51
47
54
61
69
75
54
45
58
68
73
51
42
73
62
48
52
62
82
65
66
42
65
75
46
53
47
56
66
71
74
53
47
53
50
43
61
55
68
53
43
55
39
49
62
35
64
48
60
47
62
57
69
52
54
45
65
44
50
60
55
50
73
56
55
33
70
48
71
47
42
38
29
56
43
50
52
47
61
62
81
53
54
53
59
42
45
60
72
78
51
55
48
66
42
48
53
46
57
38
64
63
68
62
51
29
63
37
49
68
70
49
51
54
55
49
64
75
69
76
35
44
57
52
38
72
61
57
63
57
41
59
51
72
66
37
58
51
60
54
43
69
70
77
59
58
58
47
43
38
66
63
51
76
51
55
43
30
53
58
76
46
42
59
56
77
46
48
70
56
59
55
57
81
71
61
53
69
60
67
70
36
55
59
54
53
48
75
59
52
37
55
79
68
34
52
45
68
65
53
70
45
84
74
29
37
48
77
82
64
59
48
71
56
68
57
52
63
32
40
52
75
40
74
56
65
69
60
46
47
58
53
57
53
56
58
63
23
46
43
76
77
53
53
54
42
57
53
45
43
68
35
69
51
56
52
53
67
50
30
63
53
54
52
42
67
64
43
59
37
61
73
69
51
54
63
55
18
54
61
64
67
43
71
99
69
37
29
49
60
57
41
35
52
47
43
53
45
45
78
60
47
50
83
74
67
76
58
69
61
71
38
60
64
80
29
47
46
55
43
40
41
76
56
67
56
49
64
67
27
37
57
53
62
47
80
60
61
44
48
64
43
68
67
61
60
53
37
38
67
59
45
78
68
58
70
63
51
74
65
55
38
22
59
68
44
54
67
61
80
61
80
38
53
57
56
79
50
37
46
33
62
59
39
65
64
68
57
44
60
66
55
56
70
78
73
54
48
74
73
35
44
42
75
61
55
43
72
79
73
46
49
53
68
81
78
76
61
57
33
42
63
46
45
37
56
32
83
89
75
27
49
69
79
54
47
61
62
50
60
78
73
54
53
31
59
47
45
71
44
81
46
43
51
72
83
82
31
48
51
42
43
72
52
50
72
51
85
45
52
64
52
73
30
46
56
39
64
72
54
42
47
80
73
67
47
48
44
66
50
58
39
62
53
51
58
51
78
56
74
78
48
61
70
64
57
46
41
71
47
32
46
42
62
81
43
53
81
57
60
35
40
59
46
33
69
50
68
44
60
59
72
34
27
40
38
45
29
57
90
60
55
31
53
48
30
50
58
64
37
37
66
78
73
61
43
46
71
51
60
43
56
44
75
51
49
37
65
85
65
60
47
45
72
51
48
60
64
72
66
53
39
56
52
50
53
63
42
78
49
48
35
55
74
56
61
39
63
46
63
70
52
71
63
27
56
65
64
47
30
76
73
57
59
43
59
76
70
47
52
53
35
64
57
54
53
38
74
55
38
40
58
72
74
48
45
66
67
61
52
61
77
43
56
76
51
47
45
71
58
65
41
64
73
46
65
47
81
79
48
47
63
72
50
25
40
46
71
43
45
41
54
55
64
69
66
77
33
34
47
54
68
61
69
62
72
56
57
62
51
49
24
37
42
56
61
80
58
65
63
47
66
75
45
67
65
49
48
44
55
46
55
68
66
68
45
55
72
59
52
50
52
52
41
51
70
45
34
44
61
81
46
44
46
45
65
41
42
67
58
57
44
72
55
54
66
52
78
66
63
53
52
29
36
41
50
62
60
59
56
65
55
48
72
54
58
22
58
70
79
52
44
81
55
68
71
45
44
34
52
65
70
87
64
63
72
73
39
74
48
43
38
24
57
58
59
61
59
64
38
51
56
59
63
64
36
33
62
60
64
74
83
48
60
50
55
52
52
39
59
58
41
57
56
61
69
54
59
77
66
63
51
45
59
41
43
69
66
67
51
57
52
62
77
79
67
41
54
71
74
47
51
52
57
71
34
39
59
69
63
32
57
46
34
40
65
70
72
61
62
73
49
46
51
47
62
53
60
72
82
60
43
57
54
69
39
64
59
42
41
75
57
64
53
57
50
58
47
41
51
66
74
68
56
52
65
54
77
56
62
60
31
59
68
62
44
55
89
81
30
54
63
67
63
56
41
56
59
51
80
68
58
33
50
38
56
55
54
79
62
64
68
58
32
53
51
54
48
46
57
54
67
55
46
54
60
73
34
31
47
54
52
67
57
59
44
69
54
58
32
43
84
76
69
34
59
59
58
61
39
59
86
74
40
60
45
48
43
55
61
80
70
60
68
51
45
43
34
64
69
14
55
31
74
63
35
34
71
73
54
52
43
42
48
60
55
60
75
45
60
29
46
61
47
49
40
64
60
68
78
53
71
49
50
38
58
78
71
52
30
43
53
58
67
71
57
44
53
68
60
46
61
63
63
64
53
52
54
51
31
50
53
72
55
58
67
56
65
41
39
54
61
60
52
36
54
53
69
60
56
56
33
52
35
59
71
63
46
54
60
72
56
56
50
59
82
70
45
58
63
67
72
38
52
45
37
59
74
47
70
67
69
49
74
64
49
48
53
56
57
47
76
95
69
58
59
52
36
30
57
65
59
60
64
57
60
80
41
22
47
51
74
60
30
35
63
57
57
69
54
67
60
42
50
53
57
51
56
53
45
66
52
44
64
52
62
36
38
59
44
52
52
74
51
61
59
73
52
46
63
57
56
60
29
42
48
74
51
69
61
70
71
54
69
58
72
54
67
64
76
46
56
56
60
69
53
54
45
64
59
36
69
65
51
72
27
34
60
56
51
66
65
44
65
34
44
64
41
49
41
53
37
55
46
55
44
63
82
50
43
48
86
45
58
49
59
75
43
48
49
67
49
36
66
68
65
46
57
69
70
42
74
54
65
49
45
43
49
49
56
61
59
50
50
36
73
66
64
67
47
44
51
86
46
61
55
58
41
36
79
75
55
67
44
54
52
67
57
47
57
72
66
69
63
43
76
61
69
44
38
50
45
60
37
52
69
64
66
59
59
58
59
49
62
36
45
59
50
34
30
51
60
65
36
55
84
66
65
42
50
63
62
74
65
66
71
40
32
47
55
38
68
76
51
51
57
87
40
55
45
57
38
42
58
69
65
56
71
67
78
73
47
17
39
67
64
82
39
63
61
60
73
88
70
52
38
47
66
46
63
70
69
36
21
55
72
69
54
58
52
44
53
55
61
65
80
66
41
48
48
72
47
40
46
52
69
64
52
50
46
51
55
39
61
65
43
50
51
49
55
67
43
64
51
43
47
35
39
64
55
68
61
79
50
65
85
53
51
50
69
55
59
36
45
70
45
56
16
52
61
51
72
47
87
72
60
61
48
59
63
52
58
44
70
67
55
44
67
43
53
41
64
73
52
63
51
68
50
38
57
60
56
36
58
46
64
45
73
27
15
67
51
41
48
72
59
53
36
56
64
57
81
44
50
60
70
53
71
67
50
38
45
61
68
76
57
59
47
43
58
57
40
83
78
61
68
41
39
73
59
49
66
56
34
52
51
60
46
58
62
71
51
43
40
61
68
54
50
56
62
42
47
40
58
64
59
69
63
61
74
63
52
40
64
80
72
43
55
68
51
46
21
69
54
46
80
62
90
72
46
63
36
70
37
35
56
81
57
63
59
47
53
70
63
68
54
38
34
62
60
80
56
54
26
57
71
62
46
62
75
54
55
50
75
72
95
73
48
50
76
70
58
54
46
44
47
68
67
67
58
56
36
33
45
71
59
54
64
60
66
34
45
41
44
34
70
64
51
65
68
82
50
64
49
58
64
64
71
59
75
62
61
71
66
53
56
61
40
49
42
46
59
56
46
44
60
45
60
57
52
55
59
57
49
60
42
83
74
50
40
30
65
50
42
36
60
83
44
27
67
50
62
45
50
57
71
67
68
62
43
62
57
43
64
59
40
64
54
86
81
49
74
52
48
77
67
60
55
47
46
38
35
53
44
57
37
25
18
59
65
91
52
66
65
24
40
46
48
63
47
66
36
46
71
58
58
73
64
64
64
66
84
63
62
45
71
54
48
29
59
39
63
49
61
73
62
48
38
48
40
45
61
74
42
56
53
63
77
79
60
62
54
54
57
78
62
27
66
35
66
65
43
43
61
40
58
96
44
54
51
77
62
64
51
29
65
30
35
56
64
75
55
63
41
63
52
50
39
53
64
74
55
60
58
62
36
48
62
44
53
47
35
33
40
57
50
55
65
78
77
53
51
61
61
60
56
58
40
51
46
29
74
68
43
58
64
72
83
69
64
67
29
70
72
30
49
32
54
41
49
65
37
54
45
63
70
63
64
64
56
92
42
63
41
54
47
48
52
59
72
41
82
53
39
60
42
49
54
57
67
48
43
41
56
65
34
44
77
62
42
80
73
47
45
42
50
61
38
54
70
58
60
59
37
89
44
73
70
71
85
51
48
54
67
36
59
62
68
45
50
57
51
67
70
60
51
30
17
78
76
82
63
56
84
48
59
63
48
74
71
45
45
49
62
83
71
64
58
42
37
50
70
68
47
47
49
61
53
47
51
75
36
48
50
65
61
45
62
63
64
47
51
64
61
47
46
39
47
47
53
49
62
30
52
49
53
65
66
71
42
48
72
58
54
58
46
55
67
48
60
66
57
58
73
59
64
35
57
45
50
62
44
55
55
60
60
64
79
68
62
49
50
53
61
60
75
40
53
16
51
61
58
51
44
51
48
81
52
78
38
45
67
69
72
70
51
31
58
54
74
39
53
64
42
64
33
22
71
61
64
41
42
63
79
73
59
44
57
71
78
73
82
54
44
55
38
48
76
53
80
64
65
56
61
64
54
43
47
76
48
37
51
55
66
67
51
65
61
66
40
47
55
79
46
67
59
63
45
51
49
54
68
61
73
48
60
46
49
63
33
54
67
65
52
60
58
62
52
47
84
85
50
53
40
52
60
61
36
38
36
71
73
55
55
72
38
34
38
85
68
56
58
71
67
45
59
35
47
72
27
43
55
57
74
86
72
54
60
54
36
36
60
56
81
38
54
53
72
71
63
28
58
59
37
50
52
55
42
45
15
29
70
64
63
50
38
50
72
43
46
50
49
61
58
68
53
61
84
53
53
51
69
48
61
38
53
61
65
63
51
77
70
39
50
40
67
61
61
43
45
58
52
67
61
20
52
59
77
52
55
55
62
48
47
80
62
34
44
61
60
71
71
62
55
67
71
60
30
69
54
53
30
39
68
48
43
55
53
28
81
54
58
69
54
65
46
60
59
39
53
12
40
60
38
42
70
56
56
64
56
49
49
78
44
32
38
59
67
47
44
78
67
52
16
65
112
96
50
32
71
53
68
48
59
52
47
49
39
47
54
76
49
72
46
44
39
50
60
60
54
72
75
37
63
58
61
54
58
48
84
60
58
67
53
71
56
32
65
71
65
33
53
56
73
50
58
66
58
50
45
44
57
54
54
60
70
43
51
50
42
53
28
48
53
54
53
50
76
77
73
60
47
69
66
74
57
72
75
41
50
37
59
61
65
39
39
60
95
60
55
50
49
61
67
55
49
63
63
59
43
66
72
75
68
59
59
69
53
50
52
41
59
31
39
60
56
36
23
51
63
75
46
62
82
79
55
55
73
59
64
40
77
71
50
51
60
71
50
40
33
52
45
66
60
50
60
30
49
43
56
49
24
60
50
57
75
73
56
73
36
72
77
45
55
56
47
49
57
62
55
32
53
51
55
61
48
74
56
52
65
46
56
60
52
53
62
57
35
42
43
53
48
69
80
57
80
67
44
54
41
69
66
54
58
49
49
42
62
66
78
64
53
41
53
37
70
71
72
53
48
66
45
67
44
54
55
51
41
63
76
71
70
68
59
60
46
88
71
71
69
32
53
69
65
51
59
67
50
52
33
67
60
40
57
48
60
53
62
67
82
54
65
53
71
49
48
82
51
46
61
59
70
60
47
49
55
49
58
42
38
53
55
62
52
66
48
71
63
78
60
61
56
42
59
62
49
33
52
73
55
60
49
42
77
62
55
57
35
72
65
78
41
37
40
29
29
63
68
61
44
57
68
58
62
44
47
52
93
85
52
57
43
74
54
35
55
74
29
53
26
71
60
49
49
54
51
65
68
64
54
45
54
47
60
43
59
73
46
27
29
76
33
47
45
61
71
54
46
32
56
48
71
57
65
74
46
45
35
57
58
54
41
61
38
71
53
50
51
57
65
62
54
35
53
49
70
53
58
76
71
54
57
68
41
56
67
40
55
55
73
51
53
48
59
71
56
19
80
56
65
62
53
87
50
49
41
63
58
38
49
52
47
52
54
57
74
58
69
33
45
66
75
65
51
36
53
45
38
46
55
67
65
45
48
66
65
51
44
52
59
39
60
59
73
58
50
41
51
55
59
39
49
43
63
61
44
67
47
57
70
61
75
48
45
62
70
53
54
72
64
30
56
51
71
68
58
63
67
63
34
50
71
48
78
85
52
57
62
54
55
48
64
86
58
53
26
50
73
56
53
34
37
63
57
79
34
36
62
67
51
41
76
73
57
63
52
86
62
59
53
28
73
40
49
59
84
70
59
66
73
62
62
47
60
53
62
74
34
52
44
66
61
65
57
37
50
39
40
53
51
57
46
58
39
54
54
77
58
70
44
65
53
64
60
63
47
35
45
44
56
48
72
62
62
40
71
55
82
54
55
51
34
55
56
62
41
80
68
51
56
42
65
53
39
36
58
59
35
70
44
72
24
61
48
44
47
57
57
47
54
58
58
43
54
58
45
68
64
69
47
43
62
66
65
52
50
58
63
54
48
39
65
62
56
40
67
55
35
50
61
65
51
65
57
48
77
44
29
53
62
74
68
52
39
64
60
58
55
39
75
60
54
69
63
75
65
46
44
91
70
69
57
37
72
72
66
52
70
61
64
39
31
70
57
62
63
60
81
62
57
59
53
46
45
59
57
61
67
55
63
50
78
45
61
37
71
63
61
35
53
68
56
61
58
60
59
51
68
54
75
59
73
53
39
70
45
69
27
51
40
68
65
68
75
60
51
52
60
45
79
65
49
43
53
54
64
65
74
48
53
47
42
64
40
54
59
59
43
45
63
33
51
45
65
69
17
37
82
55
66
47
52
59
51
61
47
74
47
51
42
68
64
62
79
60
69
40
49
65
56
60
70
55
56
70
48
42
42
73
27
41
64
49
67
55
47
69
64
41
74
67
77
44
57
46
59
49
31
75
49
58
53
59
29
57
53
55
57
55
81
62
77
43
57
73
65
58
48
49
43
51
60
45
59
66
75
71
69
61
63
47
57
63
64
44
40
44
54
64
50
43
65
57
48
33
49
67
50
60
44
57
52
53
67
38
54
66
82
81
59
59
54
61
44
48
59
66
49
50
38
72
40
51
58
48
76
75
24
33
62
43
45
53
65
72
38
37
68
37
33
35
60
32
66
27
43
58
99
64
69
51
62
79
40
44
77
45
56
49
47
61
40
68
46
50
60
55
65
81
60
58
55
53
82
28
56
47
60
65
23
40
33
74
46
38
52
54
49
55
54
45
70
54
65
50
42
63
51
34
39
55
48
51
52
54
58
83
52
46
65
73
62
75
43
45
61
36
84
65
73
60
51
73
43
44
52
63
55
39
68
47
55
52
76
80
55
63
57
48
66
64
67
53
52
77
87
55
43
53
59
36
52
60
45
42
36
58
87
52
50
68
58
57
21
59
63
64
52
41
52
63
43
32
59
51
55
61
36
47
72
39
73
78
27
61
57
54
52
25
57
47
53
56
55
67
49
84
64
46
61
30
79
53
49
56
70
62
77
77
72
53
39
56
41
49
58
66
69
33
41
69
68
52
54
56
81
44
41
53
43
55
58
63
51
61
56
70
57
39
59
56
58
70
67
56
54
36
44
57
68
68
52
71
68
78
59
38
45
81
78
61
10
47
36
42
70
38
67
51
27
46
67
50
90
59
60
67
45
67
64
82
75
56
57
61
50
59
65
61
66
58
40
61
70
64
35
57
69
54
62
46
79
55
48
29
80
53
46
46
65
76
46
60
55
57
56
50
49
67
61
65
39
45
61
66
51
53
41
49
67
59
65
40
49
54
66
86
54
87
61
52
60
65
65
68
51
56
58
83
46
60
61
51
61
66
52
62
39
32
53
60
69
42
54
68
60
60
70
75
47
50
53
19
56
50
44
39
56
57
43
58
52
68
74
47
71
76
86
68
69
59
61
77
41
87
66
33
58
33
63
76
72
43
60
34
48
57
50
74
47
55
53
64
81
52
89
48
50
62
38
71
49
64
43
61
52
59
54
61
83
51
65
52
36
46
49
74
67
66
67
59
51
46
73
42
49
40
38
70
69
59
60
62
51
63
43
38
58
57
74
31
68
54
38
39
55
44
62
39
56
69
49
52
77
34
61
51
73
64
51
62
48
72
71
18
46
36
58
62
24
59
59
49
51
82
61
51
50
64
59
67
60
44
59
38
35
66
51
57
37
56
45
33
41
67
48
72
38
35
58
60
48
51
67
80
23
60
61
52
45
75
38
45
43
51
74
77
19
52
81
52
50
58
65
58
60
68
58
48
39
50
64
71
43
38
75
49
41
55
60
56
58
63
46
62
59
40
51
43
60
65
63
66
52
62
37
48
62
52
51
46
61
80
46
46
96
64
40
41
62
72
36
61
27
59
68
57
59
45
35
42
52
67
50
81
60
70
33
59
68
45
59
68
59
79
69
36
62
71
70
60
58
46
41
27
56
83
69
40
54
72
56
35
57
54
50
31
41
65
73
43
63
79
51
61
75
48
71
57
76
55
48
46
51
48
61
42
46
73
77
54
46
74
62
43
56
56
48
49
53
58
66
54
59
62
60
35
53
58
58
66
33
64
63
62
69
67
40
50
69
43
37
56
43
71
49
43
56
48
49
48
56
51
56
59
38
47
68
35
73
36
72
62
55
66
64
87
33
71
54
66
63
58
67
35
48
52
66
88
68
49
50
57
51
17
54
58
73
37
37
59
74
61
61
53
59
13
48
51
65
61
43
59
76
95
66
40
58
42
47
48
48
49
45
55
47
53
47
44
61
65
38
71
74
55
67
59
51
63
34
52
45
53
51
45
48
73
68
45
69
63
50
73
62
63
39
60
63
64
36
63
59
70
73
61
77
65
43
44
58
73
78
53
72
54
69
79
55
72
39
79
56
45
61
66
55
69
46
58
68
49
61
43
42
48
56
57
75
70
33
46
41
48
59
59
53
56
73
57
16
45
65
55
55
61
60
67
32
34
53
75
99
53
54
87
40
57
79
72
60
45
46
74
65
59
65
41
79
41
61
72
61
23
46
68
76
41
58
53
71
49
46
55
45
45
68
38
58
42
65
62
47
57
71
58
58
68
42
50
51
42
66
71
50
45
63
78
61
36
60
57
49
37
45
35
64
34
48
71
39
57
70
70
58
42
59
58
64
76
56
37
57
54
71
65
24
60
48
62
62
82
61
62
53
33
47
61
57
54
70
67
81
63
56
44
53
61
62
26
39
64
70
70
47
61
68
48
48
74
69
54
46
46
91
79
30
53
82
70
57
50
62
57
53
78
55
65
51
49
59
68
52
61
48
65
41
61
52
88
65
53
50
64
49
65
78
48
52
73
62
50
42
63
54
59
46
66
82
39
28
50
64
63
48
73
46
48
60
53
67
24
56
60
58
67
57
57
63
47
56
48
41
59
47
51
69
37
38
58
69
66
51
49
77
69
64
45
32
38
85
27
52
60
35
82
57
48
59
43
33
51
50
29
49
59
51
63
72
62
66
58
42
55
55
70
60
46
32
52
46
22
59
59
64
57
28
53
47
52
32
7
53
46
49
71
51
38
58
84
62
53
61
40
65
56
37
44
58
70
62
36
63
69
67
58
42
72
71
46
76
56
73
61
35
43
69
43
57
47
58
48
45
50
49
58
49
61
61
80
39
58
65
57
73
67
46
51
58
58
37
40
61
32
48
54
62
38
56
63
48
56
23
39
69
63
51
61
45
51
54
73
76
36
72
45
44
39
65
84
44
58
76
57
43
62
60
54
57
76
56
51
44
58
71
70
56
63
67
53
57
49
71
61
41
64
47
75
84
61
57
55
47
49
39
67
50
56
40
56
67
50
61
66
75
57
47
43
36
67
46
61
49
66
39
46
34
62
53
34
40
74
60
49
60
60
51
89
68
58
63
67
58
47
53
38
65
52
57
66
45
59
57
49
35
65
58
57
51
51
106
82
30
67
63
65
66
41
62
70
68
58
44
80
74
63
63
36
56
77
59
89
77
60
46
54
63
66
75
51
37
72
62
65
74
51
63
40
54
48
46
62
39
52
48
74
53
66
71
44
22
56
59
38
46
50
48
50
66
73
62
65
61
47
75
63
45
26
45
55
59
41
52
66
56
51
61
61
59
53
43
69
51
48
46
53
73
47
59
37
45
55
57
50
47
56
66
42
69
63
52
66
52
55
66
67
63
65
50
69
61
55
51
64
44
49
44
43
68
59
59
54
61
60
78
70
40
53
67
49
55
21
47
72
62
46
74
66
48
30
35
47
60
49
63
54
67
52
44
57
60
57
60
46
61
57
52
26
64
73
66
54
40
57
55
43
49
69
85
54
43
70
56
63
45
74
55
59
59
83
67
38
34
76
83
49
40
78
76
49
59
42
57
71
65
49
30
76
70
53
55
65
61
70
52
78
58
53
46
78
74
62
61
52
46
40
76
30
57
50
72
55
68
70
48
32
48
51
56
53
27
59
68
48
52
73
41
57
69
61
55
36
73
64
46
54
36
58
55
76
59
59
48
60
56
65
50
61
40
25
28
89
43
50
61
81
67
6
59
68
68
63
31
47
74
60
55
63
78
60
53
40
56
64
47
32
50
58
80
44
77
79
58
57
52
35
33
50
57
58
53
53
75
81
55
43
82
63
42
49
46
72
59
63
43
71
69
51
74
38
52
61
49
56
43
68
77
46
46
54
70
73
51
32
71
64
20
44
28
73
51
40
52
57
38
50
58
71
92
63
41
46
47
74
68
37
50
43
51
43
42
73
41
41
75
37
69
64
52
63
56
25
45
50
51
53
80
59
55
60
82
52
45
40
60
62
43
44
62
58
19
28
87
58
71
42
25
60
62
52
56
76
94
52
34
54
52
