P2
# CREATOR: Diamond Light Source Beamline I02
116 118
255
0
0
0
1
0
1
3
5
2
1
1
1
0
0
1
2
0
0
1
0
0
0
0
0
0
0
0
0
0
0
1
0
0
0
0
0
1
0
0
0
0
0
0
0
0
0
0
0
0
0
0
0
0
0
0
0
0
0
0
0
0
0
0
0
0
0
0
0
0
0
0
0
0
0
0
0
0
0
0
0
0
0
0
0
0
0
0
0
0
0
0
0
0
0
0
0
0
0
0
0
0
0
0
0
0
0
0
0
0
0
0
0
2
3
2
4
0
0
0
0
0
0
1
2
0
1
1
1
0
0
0
1
0
0
1
1
1
0
2
0
0
0
0
0
0
0
0
0
0
0
0
0
1
0
0
0
0
0
0
0
0
0
0
0
0
0
0
0
0
0
0
0
0
0
0
0
0
0
0
0
0
0
0
0
0
0
0
0
0
0
0
0
0
0
0
0
0
0
0
0
0
0
0
0
0
0
0
0
0
1
1
0
1
0
0
0
0
0
0
0
0
0
0
0
0
1
1
0
1
1
0
2
0
0
0
1
0
0
2
2
0
0
0
0
0
0
0
1
0
0
2
1
0
0
0
0
0
0
0
0
0
0
0
0
0
0
0
0
0
0
0
0
0
0
0
0
0
0
0
0
0
0
0
0
0
0
0
0
0
0
0
0
0
0
0
0
0
0
0
0
0
0
0
0
0
0
0
0
0
0
0
0
0
0
0
0
0
0
0
0
0
0
0
0
0
0
0
0
0
0
0
0
0
0
0
1
0
0
0
0
0
2
1
2
4
3
0
3
0
1
2
4
2
2
2
3
1
0
4
2
1
0
1
2
0
0
1
2
1
0
0
0
2
0
0
0
0
0
0
0
0
0
0
0
0
0
0
0
0
0
0
0
0
0
0
0
0
0
0
0
0
0
0
0
0
0
0
0
0
0
0
0
0
0
0
0
0
0
0
0
0
0
0
0
0
0
0
0
0
0
0
0
0
0
0
0
0
0
0
0
0
0
0
0
0
0
0
0
0
0
0
0
0
0
0
0
0
2
0
1
3
2
0
0
0
2
2
3
1
0
0
0
0
0
3
1
1
0
0
0
0
0
0
0
0
0
0
0
1
0
0
0
0
0
0
0
0
0
0
0
0
0
0
0
0
0
0
0
0
0
0
0
0
0
0
0
0
0
0
0
0
0
0
0
0
0
0
0
0
0
0
0
0
0
0
0
0
0
0
0
0
0
0
0
0
0
0
0
0
0
0
0
0
0
1
0
0
0
0
0
0
0
0
2
0
0
0
1
0
0
0
0
0
0
0
0
0
0
0
1
0
0
0
0
0
0
0
0
0
0
3
0
0
0
0
0
2
0
0
0
0
0
0
0
1
0
0
0
0
0
0
0
0
0
0
0
0
0
0
0
0
0
0
0
0
0
0
0
0
0
0
0
0
0
0
0
0
0
0
0
0
0
0
0
0
0
0
0
0
0
0
0
0
0
0
0
0
0
0
0
0
0
0
0
0
0
0
0
0
0
0
0
0
0
0
0
1
1
0
1
1
0
2
3
0
0
0
0
0
1
0
1
0
0
0
0
0
3
2
1
2
2
0
0
1
0
1
0
1
0
0
0
0
0
0
0
0
0
0
0
0
0
0
0
0
0
0
0
0
0
0
0
0
0
0
0
0
0
0
0
0
0
0
0
0
0
0
0
0
0
0
0
0
0
0
0
0
0
0
0
0
0
0
0
0
0
0
0
0
0
0
0
0
0
0
0
0
0
0
0
0
0
0
0
0
0
0
0
0
0
0
0
0
0
0
0
0
0
0
1
0
0
2
2
0
1
0
0
0
0
0
0
0
1
0
1
2
3
1
2
3
1
1
1
2
2
2
1
2
3
0
0
0
0
0
0
0
0
1
1
1
1
1
0
0
0
0
0
0
0
0
0
0
0
0
0
0
0
0
0
0
0
0
0
0
0
0
0
0
0
0
0
0
0
0
0
0
0
0
0
0
0
0
0
0
0
0
0
0
0
0
0
0
0
0
0
0
0
0
0
0
0
0
0
0
0
0
0
0
0
0
0
0
0
0
1
0
0
2
3
0
1
2
1
0
1
1
2
0
0
0
0
1
1
1
1
4
2
0
0
0
0
0
0
1
3
0
1
0
0
0
0
0
0
0
0
0
0
0
0
0
0
0
0
0
0
0
0
0
0
0
0
0
0
0
0
0
0
0
0
0
0
0
0
0
0
0
0
0
0
0
0
0
0
0
0
0
0
0
0
0
0
0
0
0
0
0
0
0
0
0
0
0
0
0
0
0
0
0
0
0
0
0
0
0
0
0
2
0
0
3
4
0
0
1
0
0
0
0
0
0
0
2
3
0
0
0
0
0
0
0
0
4
3
0
0
2
2
0
1
1
3
0
1
0
1
0
0
0
1
0
0
0
0
0
0
0
0
0
0
0
0
0
0
0
0
0
0
0
0
0
0
0
0
0
0
0
0
0
0
0
0
0
0
0
0
0
0
0
0
0
0
0
0
0
0
0
0
0
0
0
0
0
0
0
0
0
0
0
0
0
0
0
0
0
0
0
0
0
0
0
0
0
1
0
0
1
2
0
0
3
2
0
0
0
0
0
1
2
0
3
4
2
1
2
1
0
0
3
2
0
0
2
0
0
0
0
0
0
0
0
1
1
0
0
0
0
0
0
0
0
0
0
0
0
0
0
0
0
0
0
0
0
0
0
0
0
0
0
0
0
0
0
0
0
0
0
0
0
0
0
0
0
0
0
0
0
0
0
0
0
0
0
0
0
0
0
0
0
0
0
0
0
0
0
0
0
0
0
0
2
0
1
0
1
0
0
0
0
0
0
0
2
3
0
0
3
3
0
0
1
1
0
0
1
0
0
1
0
0
2
3
1
0
2
2
0
0
1
2
0
2
2
4
0
2
0
0
0
0
0
1
1
0
0
0
0
0
0
0
0
0
0
0
0
0
0
0
0
0
0
0
0
0
0
0
0
0
0
0
0
0
0
0
0
0
0
0
0
0
0
0
0
0
0
0
0
0
0
0
0
0
0
0
0
0
0
0
0
0
0
0
0
0
0
0
0
0
0
0
0
1
0
0
0
1
0
0
2
3
0
1
2
3
0
0
1
2
1
2
3
0
0
1
0
0
0
2
0
0
1
3
0
1
0
0
0
0
0
0
0
0
0
0
0
0
0
0
0
0
0
0
0
0
0
0
0
0
0
0
0
0
0
0
0
0
0
0
0
0
0
0
0
0
0
0
0
0
0
0
0
0
0
0
0
0
0
0
0
0
0
0
0
0
0
0
0
0
0
0
0
0
0
0
0
0
0
0
0
0
0
0
0
0
0
0
0
1
0
0
0
2
0
0
2
1
0
0
0
0
0
0
0
1
3
1
3
1
0
0
0
0
0
3
0
0
2
3
0
1
0
0
0
0
1
0
0
1
1
0
2
3
2
1
1
0
0
0
0
0
0
0
0
0
0
0
0
0
0
0
0
0
0
0
0
0
0
0
0
0
0
0
0
0
0
0
0
0
0
0
0
0
0
0
0
0
0
0
0
0
0
0
0
0
0
0
0
0
0
0
0
0
0
0
0
0
0
0
0
0
0
0
0
0
0
0
1
1
0
1
2
1
0
0
0
0
0
0
0
0
0
0
0
0
0
1
2
0
0
2
0
0
0
1
0
0
0
0
0
0
0
0
0
0
0
0
0
1
0
0
1
0
0
0
0
0
0
0
0
0
0
0
0
0
0
0
0
0
0
0
0
0
0
0
0
0
0
0
0
0
0
0
0
0
0
0
0
0
0
0
0
0
0
0
0
0
0
0
0
0
0
0
0
0
0
0
0
0
0
0
0
0
0
0
0
0
0
0
1
0
0
0
0
0
0
1
0
0
0
0
0
1
3
3
0
0
2
0
0
0
0
0
1
0
1
3
2
2
0
1
0
0
0
0
1
0
1
0
0
1
1
0
0
0
0
0
0
0
0
0
0
0
0
0
0
0
0
0
0
0
0
0
0
0
0
0
0
0
0
0
0
0
0
0
0
0
0
0
0
0
0
0
0
0
0
0
0
0
0
0
0
0
0
0
0
0
0
0
0
0
0
0
0
0
0
0
0
0
0
0
0
0
0
0
0
0
0
0
0
0
0
0
0
0
0
3
0
1
3
3
0
0
4
1
0
0
0
0
1
0
0
2
2
2
0
2
1
0
0
0
0
0
0
0
1
1
3
0
0
0
0
0
0
0
0
0
0
0
0
1
0
0
0
0
0
0
0
0
0
0
0
0
0
0
0
0
0
0
0
0
0
0
0
0
0
0
0
0
0
0
0
0
0
0
0
0
0
0
0
0
0
0
0
0
0
0
0
0
0
0
0
0
0
0
0
0
0
0
0
1
2
0
0
0
0
0
0
1
0
0
0
1
0
0
0
0
0
0
4
1
0
1
0
0
0
0
0
3
3
2
0
2
2
0
0
0
0
0
0
0
2
3
4
2
3
3
1
0
0
0
0
0
0
0
0
0
0
0
0
0
0
0
0
0
0
0
0
0
0
0
0
0
0
0
0
0
0
0
0
0
0
0
0
0
0
0
0
0
0
0
0
0
0
0
0
0
0
0
0
0
0
0
0
0
0
0
0
0
0
0
0
0
0
0
0
0
0
0
0
2
1
0
2
3
0
0
0
2
0
0
0
0
0
0
0
0
0
0
0
0
0
0
0
0
0
0
0
1
0
0
0
0
2
0
0
0
1
0
0
0
0
0
0
0
0
0
0
0
0
0
0
0
0
0
0
0
0
0
0
0
0
0
0
0
0
0
0
0
0
0
0
0
0
0
0
0
0
0
0
0
0
0
0
0
0
0
0
0
0
0
0
0
0
0
0
0
0
0
0
0
0
0
0
0
0
0
0
0
0
0
1
0
1
0
0
2
0
0
0
1
0
0
0
2
0
1
2
3
4
2
3
2
0
0
0
1
0
2
0
1
0
0
0
1
1
0
0
0
2
0
0
0
0
0
0
0
0
2
0
0
0
0
0
0
0
0
0
0
0
0
0
0
0
0
0
0
0
0
0
0
0
0
0
0
0
0
0
0
0
0
0
0
0
0
0
0
0
0
0
0
0
0
0
0
0
0
0
0
0
0
0
0
0
0
0
0
0
0
0
0
0
0
0
0
0
0
0
0
0
0
0
0
0
0
0
0
0
0
0
2
0
0
1
0
1
1
1
0
0
0
0
0
0
1
0
1
0
0
0
0
0
0
0
0
4
2
0
3
1
0
0
0
0
0
0
0
0
0
0
0
0
0
0
0
0
0
0
0
0
0
0
0
0
0
0
0
0
0
0
0
0
0
0
0
0
0
0
0
0
0
0
0
0
0
0
0
0
0
0
0
0
0
0
0
0
0
0
0
0
0
0
0
0
0
0
0
0
0
0
0
0
0
0
0
1
0
1
2
1
0
3
2
0
0
0
1
0
0
1
0
0
0
1
1
2
2
0
1
0
2
0
1
0
2
1
1
0
0
0
0
1
0
0
1
0
0
0
1
0
1
0
0
0
0
0
0
0
0
0
0
0
0
0
0
0
0
0
0
0
0
0
0
0
0
0
0
0
0
0
0
0
0
0
0
0
0
0
0
0
0
0
0
0
0
0
0
0
0
0
0
0
0
0
0
0
0
0
0
0
0
0
0
0
0
0
0
0
0
0
0
0
0
0
0
0
0
2
1
0
0
0
0
0
0
0
0
0
0
1
1
0
0
0
0
0
0
0
0
0
2
3
1
0
0
0
0
0
0
0
0
0
0
0
0
0
0
0
0
0
1
0
0
0
0
0
0
0
0
0
0
0
0
0
0
0
0
0
0
0
0
0
0
0
0
0
0
0
0
0
0
0
0
0
0
0
0
0
0
0
0
0
0
0
0
0
0
0
0
0
0
0
0
0
0
0
0
0
0
0
0
0
0
0
0
0
0
0
0
0
0
0
0
0
0
1
0
0
1
0
0
1
0
0
0
1
0
0
0
1
2
1
1
0
1
0
0
0
0
0
0
1
0
0
0
0
0
0
1
1
1
0
0
1
2
1
1
2
0
0
0
0
0
0
0
0
0
0
0
0
0
0
0
0
0
0
0
0
0
0
0
0
0
0
0
0
0
0
0
0
0
0
0
0
0
0
0
0
0
0
0
0
0
0
0
0
0
0
0
0
0
0
0
0
0
0
0
0
0
0
0
0
0
0
0
0
0
0
0
0
0
0
0
0
0
0
0
2
1
0
0
0
0
0
0
0
2
0
0
2
3
1
0
1
0
0
1
5
1
0
1
0
0
0
0
0
0
0
0
0
0
0
0
0
0
0
0
0
0
0
0
0
0
0
0
0
0
0
0
0
0
0
0
0
0
0
0
0
0
0
0
0
0
0
0
0
0
0
0
0
0
0
0
0
0
0
0
0
0
0
0
0
0
0
0
0
0
0
0
0
0
0
0
0
0
0
0
0
0
0
0
0
0
0
0
0
0
1
0
0
1
1
0
1
2
0
0
2
1
0
0
0
1
1
1
1
3
1
0
1
0
0
0
1
0
0
0
0
0
1
3
1
0
0
0
1
0
0
0
0
0
0
0
0
0
0
0
0
1
0
0
0
0
0
0
0
0
0
0
0
0
0
0
0
0
0
0
0
0
0
0
0
0
0
0
0
0
0
0
0
0
0
0
0
0
0
0
0
0
0
0
0
0
0
0
0
0
0
0
0
1
0
3
1
0
0
0
0
0
0
0
1
0
2
0
0
0
0
0
0
0
0
0
1
1
1
0
0
1
1
0
0
1
1
0
0
1
0
0
2
0
0
0
0
0
0
0
0
0
1
0
2
1
0
0
0
0
0
0
0
0
0
0
0
0
0
0
0
0
0
0
0
0
0
0
0
0
0
0
0
0
0
0
0
0
0
0
0
0
0
0
0
0
0
0
0
0
0
0
0
0
0
0
0
0
0
0
0
0
0
0
0
0
0
0
0
0
0
0
0
0
0
0
0
0
0
0
2
0
1
0
0
0
0
0
0
0
0
1
0
0
1
0
1
3
2
2
0
1
0
0
0
2
1
0
0
1
0
0
0
0
0
1
0
0
4
1
2
0
0
0
0
0
0
0
0
0
0
0
0
0
0
0
0
0
0
0
0
0
0
0
0
0
0
0
0
0
0
0
0
0
0
0
0
0
0
0
0
0
0
0
0
0
0
0
0
0
0
0
0
0
0
0
0
0
0
0
0
0
0
0
0
0
0
0
0
0
0
0
0
0
0
0
2
0
0
0
1
0
1
2
1
1
1
2
0
0
0
0
0
1
1
0
0
0
0
0
0
2
1
0
1
4
3
3
0
0
0
1
0
0
0
0
0
0
0
0
0
0
0
0
0
1
0
0
0
0
0
0
0
0
0
0
0
0
0
0
0
0
0
0
0
0
0
0
0
0
0
0
0
0
0
0
0
0
0
0
0
0
0
0
0
0
0
0
0
0
0
0
0
0
0
0
0
0
0
0
0
0
0
0
0
0
0
0
0
0
0
0
1
0
0
0
0
0
0
1
1
1
1
3
1
0
0
1
1
1
2
3
0
2
4
2
0
4
3
0
0
1
0
0
0
0
1
3
1
1
3
0
0
0
0
0
0
0
0
0
0
0
0
0
0
0
0
0
0
0
0
0
0
0
0
0
0
0
0
0
0
0
0
0
0
0
0
0
0
0
0
0
0
0
0
0
0
0
0
0
0
0
0
0
0
0
0
0
0
0
0
0
0
0
0
0
0
0
0
0
0
0
0
0
0
0
0
0
4
1
2
1
0
0
0
1
1
0
0
2
0
0
0
0
0
0
1
2
0
0
1
0
0
0
2
0
0
1
0
0
0
1
0
3
1
0
1
1
1
0
1
2
0
1
2
0
0
0
0
0
0
0
0
0
0
0
0
0
1
0
0
0
0
0
0
0
0
0
0
0
0
0
0
0
0
0
0
0
0
0
0
0
0
0
0
0
0
0
0
0
0
0
0
0
0
0
0
0
0
0
0
0
0
0
0
0
0
0
0
0
0
0
0
0
3
0
0
0
0
0
0
0
0
0
0
0
0
0
0
0
0
0
0
0
0
1
2
0
0
0
1
0
0
2
0
0
0
2
0
2
1
0
0
0
0
0
0
1
0
0
1
0
0
0
0
0
0
0
0
0
0
0
0
0
0
0
0
0
0
0
0
0
0
0
0
0
0
0
0
0
0
0
0
0
0
0
0
0
0
0
0
0
0
0
0
0
0
0
0
0
0
0
0
0
0
0
0
0
0
0
0
1
1
0
0
0
1
0
0
0
2
0
0
0
0
1
0
2
3
2
0
1
0
0
0
0
0
0
0
0
0
0
0
0
0
0
2
0
2
3
2
0
1
2
0
0
0
0
0
0
1
0
0
0
0
0
0
0
0
0
0
0
0
0
0
0
0
0
0
0
0
0
0
0
0
0
0
0
0
0
0
0
0
0
0
0
0
0
0
0
0
0
0
0
0
0
0
0
0
0
0
0
0
0
0
0
0
0
0
0
1
0
0
0
0
0
0
0
0
0
0
0
0
0
0
0
1
0
0
0
0
1
0
1
0
1
1
2
1
2
2
1
0
1
2
3
1
3
4
5
2
2
4
1
1
1
1
0
2
3
0
1
2
0
0
0
1
0
0
0
0
0
0
0
0
0
0
0
0
0
0
0
0
1
0
0
0
0
0
0
0
0
0
0
0
0
0
0
0
0
0
0
0
0
0
0
0
0
0
0
0
0
0
0
0
0
0
0
0
0
0
0
0
0
0
0
0
0
0
0
0
0
0
0
0
0
0
0
0
0
0
0
3
1
0
0
2
1
0
0
0
0
0
0
0
1
2
1
0
0
1
0
0
0
0
0
0
0
0
0
0
0
1
0
1
3
1
1
3
3
0
0
0
0
0
0
1
1
1
0
0
0
0
0
0
0
0
0
0
1
0
0
0
0
0
0
0
0
0
0
0
0
0
0
0
0
0
0
0
0
0
0
0
0
0
0
0
0
0
0
0
0
0
0
0
0
0
0
0
0
0
0
0
0
0
0
2
0
0
0
2
2
1
0
2
1
1
0
3
1
0
0
1
0
0
0
0
0
0
0
0
2
2
1
0
0
0
0
0
1
0
0
0
2
2
0
1
0
0
0
0
2
0
0
0
2
0
0
1
0
0
0
0
0
0
0
0
0
0
0
0
0
0
0
0
0
0
0
0
0
0
0
0
0
0
0
0
0
0
0
0
0
0
0
0
0
0
0
0
0
0
0
0
0
0
0
0
0
0
0
0
0
0
0
0
0
0
0
0
0
0
0
2
0
0
0
2
1
0
0
0
0
0
0
0
0
0
0
0
1
0
1
1
3
1
0
0
1
0
0
0
0
0
0
0
1
0
0
0
1
1
2
1
1
1
1
0
2
0
0
0
1
0
0
0
0
0
0
0
1
0
0
0
0
0
0
0
0
0
0
0
0
0
0
0
0
0
0
0
0
0
0
0
0
0
0
0
0
0
0
0
0
0
0
0
0
0
0
0
0
0
0
0
0
0
0
0
0
0
0
0
0
0
0
0
0
0
0
1
0
0
0
0
0
0
0
0
0
0
0
0
1
0
0
0
1
0
0
0
1
1
0
0
2
2
0
0
2
4
4
2
6
3
2
1
3
2
3
2
2
2
3
0
3
0
0
0
1
0
0
0
0
0
0
0
1
1
0
0
0
0
0
0
0
0
0
0
0
0
0
0
0
0
0
0
0
0
0
0
0
0
0
0
0
0
0
0
0
0
0
0
0
0
0
0
0
0
0
0
0
0
0
0
0
0
0
0
0
0
0
0
0
0
0
0
0
0
0
0
0
0
0
0
0
0
0
0
3
1
0
0
2
0
0
0
1
0
0
0
2
1
0
0
1
1
1
0
3
0
0
0
0
0
0
0
1
0
0
0
1
0
0
1
4
0
1
0
0
0
0
0
0
2
0
0
0
0
0
0
0
0
0
0
1
0
0
0
0
2
0
0
0
0
0
0
0
0
0
0
0
0
0
0
0
2
0
0
0
0
0
0
0
0
0
0
0
0
0
0
0
0
0
0
0
0
0
0
0
0
0
1
0
0
0
0
0
0
0
0
0
0
0
1
4
2
0
0
2
1
0
0
2
0
0
0
2
1
0
0
0
0
0
0
1
0
1
0
0
0
0
0
0
0
1
0
0
0
0
0
0
0
0
0
0
1
2
0
0
0
0
0
0
2
1
0
2
1
0
0
0
0
0
0
0
1
0
0
0
0
0
0
0
0
0
0
0
0
0
0
0
1
0
0
0
0
0
0
0
0
0
1
0
0
0
0
0
0
0
0
0
0
0
0
0
0
0
1
0
0
0
1
0
0
0
0
1
0
0
1
2
0
0
0
1
1
0
0
1
0
0
0
1
0
0
0
0
0
0
0
0
0
0
0
0
0
0
0
1
0
1
0
0
0
0
0
2
0
0
0
0
0
0
0
0
1
0
0
0
0
0
0
0
0
0
0
0
0
0
0
0
1
0
0
0
0
0
0
0
0
0
0
0
0
0
0
0
0
0
0
0
0
0
0
0
0
0
0
0
0
0
0
0
0
0
1
0
0
0
2
0
0
0
1
0
0
0
1
2
1
1
1
2
0
0
1
1
0
0
0
0
1
0
0
2
2
0
1
2
2
1
0
0
0
1
1
1
2
2
1
2
1
0
1
3
3
5
3
2
1
2
1
2
0
0
0
0
0
0
0
0
2
0
0
0
0
0
0
1
0
0
0
0
0
0
0
0
3
0
0
1
2
0
0
0
0
0
0
0
1
0
0
0
0
0
0
0
0
0
0
0
0
0
1
0
0
0
0
0
0
0
0
0
0
0
0
0
0
0
0
0
0
0
0
0
0
0
0
0
0
0
1
2
0
2
1
1
2
0
0
1
1
0
1
2
2
1
1
1
1
1
1
1
2
1
0
0
0
0
0
2
0
0
0
0
0
3
3
3
2
3
2
0
1
0
2
0
2
0
0
0
0
0
0
3
0
0
1
2
3
4
0
0
1
0
0
1
2
0
0
0
1
2
0
0
2
1
0
0
3
0
0
0
0
0
1
1
0
1
2
1
0
1
2
0
0
0
2
0
0
0
0
0
0
0
1
0
0
0
2
0
0
0
0
0
0
0
1
0
0
0
0
0
0
0
0
0
0
0
0
1
2
1
0
0
0
0
0
0
1
0
0
0
0
0
0
1
0
0
0
0
0
3
1
0
0
0
0
0
0
0
0
0
0
0
0
2
3
1
1
5
3
1
2
3
3
3
0
3
1
1
0
3
3
2
0
3
1
3
1
3
3
3
0
2
2
1
2
1
2
1
3
3
1
3
4
3
1
2
4
1
1
3
3
2
0
0
0
1
0
0
2
3
2
1
4
1
2
2
1
2
2
1
2
1
0
0
0
0
0
0
1
1
1
1
0
0
1
1
0
0
0
0
0
0
1
0
0
0
0
0
0
1
0
0
1
1
0
1
0
0
0
0
0
0
0
0
0
1
2
1
2
4
3
0
1
2
0
0
0
0
0
0
0
2
0
1
0
1
0
0
1
4
2
4
2
2
0
0
0
0
0
0
0
0
0
0
2
1
0
0
0
0
0
0
3
0
1
2
2
2
1
1
1
2
1
0
0
0
0
0
1
2
3
3
2
2
1
0
0
0
0
0
0
0
1
1
1
2
2
2
2
1
1
0
0
0
1
1
1
0
0
0
1
0
1
0
1
2
3
3
4
2
0
0
0
0
2
3
4
2
1
1
3
2
2
0
0
0
1
0
2
2
0
0
1
0
0
0
0
2
1
3
3
4
2
1
4
5
2
3
4
4
3
3
4
4
3
0
1
1
1
1
4
5
2
2
3
1
1
0
2
0
1
1
1
2
0
2
0
2
3
3
0
3
2
0
0
0
0
0
0
0
0
0
0
0
0
1
1
1
2
1
0
0
0
0
0
0
0
0
2
2
2
4
4
0
0
1
0
0
2
0
0
2
0
0
2
2
0
1
2
0
0
1
0
0
0
1
2
3
4
3
2
2
4
0
5
4
4
3
8
6
4
4
6
4
4
4
6
7
5
4
9
8
5
7
10
9
8
9
10
9
9
8
9
10
9
8
9
10
6
8
9
7
7
5
4
3
5
3
2
6
4
4
2
5
4
3
1
3
3
1
1
2
3
1
0
0
0
0
0
0
1
1
1
0
0
0
0
0
0
2
1
0
1
0
0
0
0
1
1
0
0
0
0
0
0
0
0
0
0
0
2
1
0
0
2
0
0
0
0
0
0
0
0
2
2
1
3
3
5
4
9
8
7
4
7
6
6
7
11
9
10
10
12
12
11
11
14
13
10
10
13
12
11
10
12
11
12
11
13
14
12
10
9
10
8
8
8
9
10
9
8
7
8
5
4
7
5
5
4
5
4
4
1
4
4
3
2
4
5
2
1
3
3
2
1
0
1
1
1
2
3
3
2
0
0
0
0
0
0
0
0
0
0
0
2
0
0
1
0
0
1
0
0
0
0
0
0
0
0
0
3
0
1
1
1
3
1
1
1
3
4
3
5
5
5
3
9
7
7
4
7
7
8
10
13
10
9
8
10
10
11
10
15
15
14
14
17
15
14
13
14
14
15
13
13
14
14
11
10
13
12
12
11
11
11
11
9
10
12
9
8
8
7
7
5
6
5
6
2
5
4
4
2
5
4
2
1
2
3
1
3
2
2
1
1
0
1
1
1
0
0
0
0
0
0
0
2
0
0
2
3
0
0
1
0
0
1
1
0
1
0
0
1
2
0
1
6
4
4
3
3
5
5
5
5
7
7
5
6
9
8
7
11
12
10
10
11
11
10
13
16
15
16
18
21
22
22
22
24
22
20
20
24
22
25
24
25
23
25
22
21
24
23
20
19
22
20
19
16
17
16
16
14
13
14
12
11
10
12
10
9
12
11
11
8
8
5
6
2
3
5
3
1
2
3
2
1
0
0
0
0
0
2
2
2
0
1
2
0
0
0
0
2
0
0
0
2
0
0
2
0
0
1
2
0
2
0
0
1
1
0
0
4
2
2
1
1
3
4
5
6
7
8
5
6
10
12
11
12
16
16
14
18
20
19
22
25
24
25
26
27
28
27
29
32
33
34
36
37
34
37
35
35
35
37
35
34
38
37
33
31
34
30
30
29
30
28
26
23
22
22
19
18
17
17
12
11
14
11
9
8
8
5
7
5
6
6
4
2
3
1
0
1
1
1
2
0
0
1
0
1
0
0
1
0
0
1
0
1
0
0
0
0
0
0
0
0
0
0
0
0
0
0
0
1
0
0
0
3
2
5
4
4
6
6
7
8
11
12
12
11
17
20
20
20
26
27
26
28
32
34
36
38
40
41
44
44
46
47
50
51
52
53
53
53
50
54
52
54
55
57
53
51
52
52
47
46
48
45
43
41
42
37
36
34
33
34
31
30
26
27
20
20
22
18
14
13
12
8
11
8
8
8
7
6
7
5
4
3
1
0
2
2
1
4
1
0
0
0
0
0
0
0
0
0
0
0
0
0
0
0
0
0
0
0
0
0
0
0
0
1
0
1
1
6
3
6
5
7
6
9
10
10
13
18
19
16
24
29
27
28
35
36
35
39
43
45
47
48
50
51
55
55
57
60
65
65
68
73
75
73
73
77
75
75
74
76
72
68
71
71
65
64
67
62
61
60
59
53
51
48
47
46
43
39
36
37
30
27
30
27
23
21
20
18
18
15
12
11
10
8
8
8
7
5
4
3
3
2
0
1
0
0
0
3
0
0
0
0
0
1
0
0
0
0
0
0
0
0
0
0
0
1
0
0
0
4
1
3
2
7
3
8
8
11
11
18
18
18
21
27
27
25
32
38
36
34
43
44
42
45
52
55
58
64
68
71
77
76
78
82
87
85
88
92
94
92
92
97
96
98
95
99
96
92
92
94
86
85
85
80
76
75
74
68
65
63
60
56
53
48
47
47
40
38
39
35
30
26
24
22
20
18
16
16
15
12
11
9
7
4
3
1
3
2
1
3
0
0
0
0
0
0
0
0
0
0
0
0
0
0
0
0
0
0
0
0
0
4
1
2
3
7
2
4
4
8
3
8
10
12
12
19
20
18
24
31
34
33
39
45
44
45
55
60
59
62
71
76
79
85
89
92
98
99
102
109
115
115
120
125
128
125
124
128
127
127
124
129
127
123
119
121
111
111
112
107
104
102
98
90
86
81
79
73
68
65
64
60
53
48
49
45
39
35
34
30
27
22
21
17
16
12
13
9
10
7
6
3
5
2
0
1
0
0
0
0
0
0
0
0
0
0
0
0
0
0
0
0
0
0
0
0
0
3
0
0
0
4
0
2
2
9
5
10
13
15
16
22
26
24
31
38
42
42
50
57
58
60
71
77
78
83
93
96
100
107
111
114
121
124
129
136
143
143
149
153
156
154
156
162
159
160
156
161
158
155
149
152
140
139
139
134
129
126
122
115
110
104
101
93
87
82
80
76
67
61
60
55
48
41
38
34
31
26
24
22
20
15
15
13
13
8
8
5
7
4
2
2
0
0
0
0
0
0
0
0
0
0
0
0
0
0
0
0
0
0
0
0
0
0
0
0
0
3
1
4
5
12
9
12
17
19
19
24
31
30
36
44
49
49
58
67
68
71
83
88
90
97
108
113
118
128
133
137
144
148
154
160
168
169
177
181
185
183
185
192
189
189
184
191
186
183
177
180
166
165
163
158
153
150
143
136
130
123
119
111
104
98
93
88
80
71
70
67
60
53
51
45
40
35
33
29
26
22
21
18
18
13
10
7
9
4
3
2
2
0
0
0
0
0
0
0
0
0
0
0
0
0
0
0
0
0
0
0
0
0
0
0
1
7
5
7
7
13
12
14
21
22
23
28
37
38
46
55
59
61
68
77
79
81
93
99
102
109
122
127
133
145
152
156
163
168
176
180
188
193
202
206
210
209
209
216
213
215
210
218
211
207
199
202
189
187
187
182
176
171
163
156
147
139
135
124
116
112
105
98
91
82
79
74
66
59
55
49
43
38
37
33
29
25
23
17
17
13
10
7
9
4
2
0
2
0
0
0
0
0
0
0
0
0
0
0
0
0
0
0
0
0
0
0
0
2
0
0
3
7
4
7
7
12
12
14
19
22
25
29
39
41
47
56
60
61
69
81
86
90
104
110
112
121
134
138
145
157
165
171
180
187
198
200
208
215
222
227
233
231
230
241
234
234
232
240
233
229
222
224
210
206
206
199
193
186
178
171
163
153
149
138
128
121
115
108
100
91
88
82
73
66
61
56
49
41
39
35
29
25
24
19
18
15
10
7
9
4
1
0
1
0
0
0
0
0
0
0
0
0
0
0
0
0
0
0
0
0
0
0
0
1
0
0
0
2
0
4
6
12
14
16
20
25
28
31
40
44
50
57
63
67
73
86
92
96
109
117
120
130
143
148
155
165
174
180
188
194
206
210
218
225
232
236
241
241
242
255
250
250
246
254
247
243
236
239
224
216
214
209
203
197
190
184
175
164
158
148
137
129
123
116
107
97
93
86
74
67
61
55
49
44
42
38
33
27
24
19
17
14
10
9
11
7
5
3
2
0
0
0
0
0
0
0
0
0
0
0
0
0
0
0
0
0
0
0
0
0
0
0
0
3
2
6
8
12
13
14
17
22
27
32
38
43
49
56
61
66
71
83
89
93
104
112
114
123
135
141
149
158
167
173
181
185
196
201
206
215
221
227
230
231
230
241
234
235
232
239
232
226
220
224
210
204
205
200
193
186
179
172
162
152
149
138
129
122
118
111
103
92
86
81
71
65
62
58
49
42
42
38
32
27
24
19
18
16
12
10
11
6
2
1
3
0
0
0
0
0
0
0
0
0
0
0
0
0
0
0
0
0
0
0
0
1
0
0
0
5
5
8
9
13
14
16
16
20
24
28
32
38
45
52
57
63
67
77
82
86
94
103
104
112
125
128
135
142
150
155
163
166
177
183
186
196
202
208
210
210
208
219
212
213
210
217
212
206
200
204
191
185
187
183
176
169
165
159
149
140
138
127
116
108
106
99
91
83
80
75
68
60
57
54
46
38
38
35
28
23
20
16
15
13
9
8
9
2
0
0
1
0
0
0
0
0
0
0
0
0
0
0
0
0
0
0
0
0
0
0
0
0
0
0
0
3
3
5
7
10
13
17
15
19
24
28
31
37
43
49
52
56
60
68
73
77
84
92
94
101
113
117
123
132
141
147
155
159
167
173
175
183
187
196
195
195
193
204
197
199
196
203
199
195
188
192
180
173
173
170
162
156
152
145
137
130
127
117
108
100
98
93
84
77
77
72
63
54
51
48
40
33
34
31
25
21
19
17
15
13
8
7
8
4
1
1
2
0
0
0
0
0
0
0
0
0
0
0
0
0
0
0
0
0
0
0
0
0
2
1
0
4
5
4
5
8
9
13
11
14
20
22
24
30
35
40
44
48
50
58
62
67
71
79
81
89
97
102
106
113
120
123
129
132
137
143
146
153
157
167
165
165
164
174
170
171
167
173
171
165
159
164
153
147
149
146
138
133
131
123
116
111
108
98
92
86
87
82
73
66
65
61
53
45
44
41
34
28
29
25
20
16
15
15
13
10
7
7
7
6
1
1
4
2
0
0
0
0
0
0
0
0
0
0
0
0
0
0
0
0
0
0
0
0
0
0
0
0
2
1
2
5
7
10
9
12
17
19
21
25
29
33
36
39
40
47
48
53
58
65
65
72
78
79
84
91
96
97
103
107
111
116
116
121
124
132
129
131
129
136
131
133
130
134
132
127
121
125
117
114
117
115
109
104
104
96
89
85
85
77
71
68
70
64
57
50
51
47
41
32
33
33
28
22
25
22
17
14
14
14
12
11
6
6
6
4
0
0
3
0
0
0
0
0
0
0
0
0
0
0
0
0
0
0
0
0
0
0
0
0
0
0
0
2
6
5
6
6
9
11
10
13
16
15
15
20
24
30
34
37
37
45
45
50
55
61
59
65
71
72
76
83
88
88
95
99
103
107
110
114
116
123
120
123
122
127
124
126
121
126
125
120
115
117
110
106
110
107
102
98
98
91
85
81
81
73
66
62
63
57
50
46
49
46
41
33
33
31
28
22
23
21
17
12
12
14
13
12
5
6
4
2
0
0
2
0
0
0
0
0
0
0
0
0
0
0
0
0
0
0
0
0
0
0
0
0
0
0
0
2
5
3
6
6
7
7
8
10
15
15
16
20
23
26
29
31
32
40
37
41
46
51
48
55
61
63
67
75
81
80
86
89
90
93
96
100
101
107
106
108
107
110
108
110
106
111
110
107
104
106
98
95
99
94
89
86
86
78
73
70
70
64
59
55
56
51
43
38
43
40
34
29
29
28
23
17
19
18
14
10
10
10
10
9
5
7
4
4
0
0
2
0
0
0
1
0
0
0
0
0
0
0
0
0
0
0
0
0
0
0
1
1
2
0
0
1
3
0
2
3
3
1
3
6
11
10
12
14
16
18
21
22
23
31
27
30
37
41
37
45
48
49
53
59
62
61
66
68
69
71
74
75
78
80
80
83
83
85
83
85
81
86
86
83
81
82
75
74
77
71
68
66
66
61
57
54
54
51
45
43
45
41
35
29
33
29
25
22
23
22
19
14
14
16
11
7
5
7
5
4
1
5
4
3
0
1
4
1
0
0
1
0
0
0
0
0
0
0
0
0
0
0
0
0
0
0
0
0
0
0
0
0
0
0
2
3
7
6
8
9
12
10
11
14
15
16
17
18
20
29
26
27
35
37
33
40
44
44
46
50
51
52
56
57
59
61
63
65
69
70
70
74
74
74
72
76
71
74
71
70
68
70
63
63
66
59
59
57
57
55
51
47
47
44
37
36
39
36
31
26
29
27
22
18
18
17
14
11
11
15
12
9
7
8
7
5
0
4
6
3
0
1
3
0
0
0
1
0
0
0
0
0
0
0
0
0
0
0
0
0
0
0
0
1
2
0
2
3
2
2
4
4
7
5
5
5
9
8
9
11
14
14
16
17
22
29
26
25
32
33
29
36
40
40
41
44
47
49
51
51
54
54
57
59
63
64
64
66
66
66
65
69
65
68
64
62
60
63
57
58
63
55
55
53
54
49
47
43
43
41
35
33
33
32
25
23
26
25
20
19
17
17
14
11
9
13
9
7
6
8
7
5
1
4
6
1
0
1
4
0
0
1
2
0
0
0
0
2
0
1
0
1
0
0
0
0
0
0
0
0
0
0
0
2
3
2
4
5
8
5
4
4
8
8
9
11
14
13
14
13
16
21
19
16
24
26
21
28
32
33
32
37
38
41
43
44
46
48
50
50
52
53
52
53
53
54
52
55
52
56
51
52
51
54
48
49
50
42
41
40
40
37
37
34
33
33
28
27
28
28
20
19
21
19
16
15
13
16
12
10
9
12
7
6
3
5
4
2
0
4
5
0
0
0
1
0
0
0
2
0
0
1
0
2
0
0
0
0
0
0
0
0
0
0
0
0
1
0
1
2
1
0
0
0
2
0
0
2
5
5
5
7
10
9
11
8
12
14
14
11
21
22
18
24
26
27
26
28
28
30
31
31
34
36
38
37
41
43
41
42
42
42
40
44
41
46
43
42
40
41
35
37
38
33
33
32
32
32
32
29
27
27
21
21
22
22
16
16
15
13
12
11
9
12
10
9
6
8
5
3
0
5
4
3
1
3
2
0
0
0
3
0
0
1
1
0
0
1
1
2
0
0
0
0
0
1
2
3
1
0
0
1
0
1
2
1
0
1
0
0
3
2
1
2
6
6
6
7
9
7
10
6
11
12
13
8
16
17
12
16
19
19
19
21
21
22
23
22
24
26
27
25
28
32
31
33
32
33
31
32
29
35
31
31
30
30
25
27
28
24
25
23
23
22
21
19
19
18
14
14
15
17
14
14
12
12
9
9
6
9
6
5
3
5
5
3
1
4
3
2
1
3
3
1
0
2
3
1
0
1
0
0
0
2
4
2
0
0
0
0
0
0
0
0
0
0
0
0
0
0
0
0
1
1
0
1
1
0
0
1
2
4
5
4
7
6
9
6
12
10
11
7
14
14
11
14
16
17
17
18
19
20
20
19
22
24
26
22
23
26
23
22
24
27
26
27
25
30
27
27
26
25
20
21
22
22
23
22
22
19
19
19
18
17
15
14
13
13
10
10
8
7
7
7
4
6
4
3
0
4
5
4
1
4
2
1
1
3
2
0
0
0
0
0
0
0
0
0
0
0
2
4
2
2
1
1
0
0
1
0
0
0
0
0
0
0
0
1
2
2
1
3
3
3
2
4
3
4
5
4
7
4
4
1
6
4
8
5
10
11
10
11
13
15
15
13
14
14
15
14
18
20
21
19
18
21
18
18
19
22
23
22
20
22
21
20
20
20
18
17
17
16
15
15
14
14
13
15
14
13
11
11
9
9
8
7
7
8
9
9
8
10
8
7
4
7
6
5
1
5
2
2
0
3
0
0
0
0
0
0
0
0
0
2
0
0
3
1
0
0
0
0
0
0
0
0
0
0
1
0
0
1
4
4
4
2
0
2
0
0
0
2
2
2
2
2
5
2
3
2
6
3
6
2
5
5
5
4
5
7
7
6
7
9
9
9
10
11
13
12
11
12
11
9
8
11
12
11
14
14
14
14
16
13
12
11
10
9
9
10
9
8
7
7
7
7
5
6
6
3
5
3
3
4
3
3
3
4
3
4
2
5
3
2
0
4
0
2
0
2
0
1
0
1
0
0
0
0
0
0
0
0
1
1
0
0
2
2
0
2
5
2
0
2
6
1
0
0
2
0
0
0
0
1
0
0
0
1
1
2
3
5
6
4
5
4
6
2
4
0
2
4
3
3
5
5
6
6
6
6
6
3
3
3
6
6
6
8
6
6
6
8
7
7
9
8
8
8
11
7
7
7
6
5
4
5
5
6
4
4
5
5
3
4
6
4
5
3
3
3
1
0
0
1
0
0
0
1
0
0
0
3
1
4
0
1
0
3
0
2
2
0
0
0
0
0
0
0
2
1
0
0
0
0
0
0
2
0
0
0
3
0
0
0
0
0
0
0
1
3
1
1
0
2
2
0
0
2
2
1
0
3
3
2
3
2
3
6
5
3
5
7
7
6
7
8
8
5
5
5
6
6
5
3
2
5
5
5
9
9
9
5
6
6
7
4
6
7
8
6
4
5
5
6
5
6
7
7
4
5
8
4
4
2
3
2
0
0
0
1
0
0
0
1
0
0
0
4
1
3
0
2
0
2
0
0
0
0
0
0
1
1
0
0
2
2
2
1
3
1
0
0
4
0
0
0
5
1
2
1
3
1
0
0
2
3
1
1
0
1
2
0
0
3
3
0
0
3
2
1
4
4
2
5
4
1
1
3
2
1
3
4
6
3
4
4
6
8
7
5
5
8
5
5
6
9
8
3
4
5
5
0
4
6
8
5
4
5
4
4
2
3
5
4
2
2
6
1
2
1
3
3
2
2
5
7
5
5
5
5
2
2
1
2
0
1
0
1
0
1
0
0
0
0
0
0
2
1
0
0
1
0
0
0
2
0
0
0
0
0
0
0
1
0
1
1
3
3
2
0
2
1
0
0
0
1
0
0
0
4
3
4
1
3
0
0
0
0
0
2
1
0
1
2
1
1
1
1
4
1
2
2
4
4
4
2
3
5
3
1
0
4
4
0
2
5
6
0
3
5
6
2
1
1
0
0
0
0
1
2
0
0
5
1
2
1
2
1
0
0
1
2
0
0
0
0
0
0
0
0
0
0
0
2
0
2
0
0
0
0
0
0
1
2
1
0
2
0
0
0
1
0
0
0
2
0
0
1
2
1
2
1
1
2
0
0
0
0
0
0
0
0
0
0
0
4
2
3
0
1
0
0
0
0
0
1
0
0
2
1
1
0
0
0
1
0
0
0
0
0
1
0
1
6
0
0
0
3
0
0
1
3
3
0
2
1
3
1
0
2
4
3
0
2
3
1
0
0
1
0
0
1
1
0
0
0
0
0
0
0
0
0
0
0
1
1
1
1
0
1
0
2
0
2
1
1
0
0
0
1
0
0
1
0
0
0
0
0
0
0
0
0
0
0
0
0
0
1
1
3
3
1
1
2
1
1
0
1
0
0
0
2
0
0
0
0
0
0
2
4
0
0
1
0
2
3
1
1
1
0
2
1
1
0
0
0
0
0
0
3
0
0
0
4
0
0
0
1
0
0
1
0
0
0
0
0
0
0
0
0
0
0
0
0
0
0
1
2
3
4
1
0
0
0
0
0
0
0
0
0
1
0
0
0
0
1
0
1
0
2
0
0
1
0
1
3
2
0
2
0
2
2
2
1
3
1
0
0
0
0
0
1
1
0
0
1
0
0
0
0
0
0
0
1
0
0
0
2
0
0
0
2
0
0
0
3
0
0
1
0
0
0
0
0
0
0
0
0
0
0
0
2
0
0
0
3
1
0
0
3
0
0
0
2
0
0
0
1
1
0
0
0
2
1
0
1
2
1
2
0
0
0
0
0
0
1
0
0
0
2
2
3
5
1
2
0
1
0
0
0
2
2
2
1
0
1
0
0
0
0
0
1
1
0
0
1
1
1
2
1
2
1
0
0
0
0
0
1
0
0
0
1
1
0
0
1
0
0
2
2
1
1
1
2
1
1
0
2
0
0
0
1
0
1
1
1
1
0
0
2
0
0
0
2
0
0
1
3
0
0
0
3
0
0
0
1
0
0
0
0
0
0
0
0
0
0
0
0
1
0
0
0
0
0
0
0
0
0
0
0
0
1
0
0
0
2
1
0
2
0
1
0
3
0
1
1
2
1
0
0
1
2
0
0
2
0
0
0
1
0
0
3
1
0
0
0
0
0
1
0
0
0
0
0
0
0
0
1
2
0
1
1
0
0
1
0
0
0
0
0
0
0
0
2
0
0
0
0
0
0
0
0
0
0
0
2
0
0
0
0
0
0
0
0
0
0
0
0
0
0
0
0
0
0
0
1
1
0
0
0
0
0
0
0
1
0
0
0
0
0
0
0
0
0
0
0
0
0
0
0
0
0
0
0
0
0
0
0
0
0
0
0
1
1
1
1
1
3
0
0
2
1
0
0
0
1
0
3
2
2
0
1
0
0
1
0
0
2
3
2
2
1
0
0
0
0
0
1
0
0
1
1
1
0
0
1
0
0
1
3
0
1
0
1
0
0
0
0
0
0
0
1
0
0
0
0
0
0
0
0
0
0
0
0
0
0
0
1
0
0
0
0
0
0
0
0
0
0
0
0
0
0
0
0
0
0
0
0
0
0
0
0
1
2
0
0
0
0
0
0
0
0
0
0
0
0
0
0
1
1
0
0
0
1
0
2
4
2
1
0
0
1
0
1
0
1
0
1
0
1
2
1
0
0
2
0
0
0
0
0
0
0
0
0
0
0
1
0
0
0
0
0
0
0
0
1
0
0
0
0
0
0
0
2
0
0
0
2
0
0
0
1
0
0
0
0
0
0
0
0
0
0
0
0
0
0
0
0
0
0
0
0
0
0
0
0
0
0
0
0
0
0
0
0
0
0
0
0
0
0
0
1
0
0
2
1
1
0
3
0
0
0
1
1
1
3
0
2
0
0
0
0
0
0
0
0
0
1
0
1
1
1
1
2
0
0
1
0
0
0
0
0
0
1
4
4
3
0
1
0
0
0
2
1
0
0
0
0
0
0
0
0
0
0
0
1
0
1
0
1
0
0
0
1
0
0
0
0
0
0
0
0
0
0
0
0
0
0
0
0
0
0
0
0
0
0
0
0
0
0
0
0
0
0
0
0
0
0
0
0
0
0
0
0
0
0
0
3
1
2
3
1
3
0
4
0
2
0
2
0
0
0
0
0
0
0
0
2
0
0
2
0
0
1
0
0
0
0
0
0
0
0
0
0
0
0
1
0
0
0
2
2
0
0
2
0
0
1
0
1
0
0
2
2
0
0
2
1
0
0
0
0
0
0
0
1
0
0
0
1
0
0
0
0
0
0
0
0
0
0
0
0
0
0
0
0
0
0
0
0
0
0
0
0
0
0
0
0
0
0
0
0
0
0
0
0
0
0
0
1
0
0
0
2
0
0
0
0
0
0
0
0
0
0
2
0
0
2
1
1
0
1
0
1
0
0
2
0
0
2
2
1
1
0
2
1
1
1
1
2
1
0
2
2
0
0
3
0
0
0
0
0
0
0
0
0
0
0
0
0
0
0
0
0
0
0
0
0
0
0
0
0
0
0
0
0
0
0
0
0
0
0
0
0
0
0
0
0
0
0
0
0
0
0
0
0
0
0
0
0
0
0
0
0
0
0
0
0
0
0
0
0
0
0
0
0
0
0
0
1
0
0
0
0
0
0
0
0
1
0
1
0
0
0
0
0
0
1
3
0
0
0
1
0
0
0
2
0
0
0
1
1
1
1
2
2
1
0
1
2
0
0
3
0
0
0
0
0
0
0
2
1
0
0
2
1
0
0
1
0
0
0
1
0
0
2
0
0
0
0
0
0
0
0
0
0
0
0
0
0
0
0
0
0
0
0
0
0
0
0
0
0
0
0
0
0
0
0
0
0
0
0
0
0
0
0
0
1
0
0
0
0
0
0
0
1
0
0
0
0
0
0
1
0
1
0
1
0
0
1
1
0
0
0
0
0
0
0
2
0
0
0
0
2
1
0
1
0
0
0
0
0
0
0
0
0
0
1
3
0
0
2
4
0
0
0
1
0
0
0
0
0
0
0
2
0
0
0
0
0
0
0
0
0
0
0
0
0
0
0
0
0
0
0
0
0
0
0
0
0
0
0
0
0
0
0
0
0
0
0
0
0
0
0
0
0
0
0
0
0
0
1
0
0
0
0
0
0
0
0
0
0
0
1
2
2
3
3
2
0
2
0
0
0
0
0
0
0
0
1
3
0
1
2
3
0
0
0
0
1
1
0
2
0
0
0
0
0
1
0
2
1
0
0
1
0
0
1
2
0
0
2
3
3
1
2
2
0
0
0
1
0
0
0
0
0
0
0
0
0
0
0
0
0
0
0
0
0
0
0
0
0
0
0
0
0
0
0
0
0
0
0
0
0
0
0
0
0
0
0
0
0
0
0
0
0
0
0
0
0
0
0
0
0
0
0
0
0
0
0
0
0
0
2
0
0
0
0
0
0
0
0
1
0
0
2
4
0
0
0
1
0
0
0
0
2
2
2
2
2
1
0
2
0
3
0
2
1
0
1
4
1
0
2
0
0
0
0
0
0
0
0
0
0
0
0
0
0
0
0
0
0
0
0
0
0
0
0
0
0
0
0
0
0
0
0
0
0
0
0
0
0
0
0
0
0
0
0
0
0
0
0
0
0
0
0
0
0
0
0
0
0
0
0
0
0
0
0
0
0
0
0
0
0
0
0
0
0
0
0
0
0
0
0
1
0
0
1
2
0
1
2
2
0
0
0
1
0
0
1
1
1
0
0
0
0
0
0
2
0
2
1
2
1
0
2
1
0
0
0
0
0
0
0
0
0
0
1
1
0
0
0
0
0
0
0
0
0
0
0
0
0
0
0
0
0
0
0
0
0
0
0
0
0
0
0
0
0
0
0
0
0
0
0
0
0
0
0
0
0
0
0
0
0
0
0
0
0
0
0
0
0
0
0
0
0
0
0
0
0
0
0
0
0
0
1
0
0
0
2
1
0
0
0
0
0
0
0
0
0
0
0
0
0
1
1
2
1
1
1
1
1
0
0
1
0
0
0
0
0
0
0
0
1
0
0
0
0
0
0
0
0
0
0
0
0
0
0
0
0
0
0
0
0
0
0
0
0
0
0
0
0
0
0
0
0
0
0
0
0
0
0
0
0
0
0
0
0
0
0
0
0
0
0
0
0
0
0
0
0
0
0
0
0
0
0
0
0
0
0
0
0
0
0
0
0
2
3
1
2
3
5
1
0
2
2
0
0
0
0
0
0
0
1
0
0
1
1
1
0
0
0
0
3
3
2
2
1
0
0
1
0
3
2
2
2
1
1
0
0
0
1
0
1
0
3
2
1
2
3
4
0
0
0
0
0
0
0
0
0
0
0
0
0
0
0
0
0
0
0
0
0
0
0
0
0
0
0
0
0
0
0
0
0
0
0
0
0
0
0
0
0
0
0
0
0
0
0
0
0
0
0
0
0
0
0
0
0
0
0
0
0
2
1
0
0
0
2
0
0
1
1
0
0
1
1
0
0
0
0
0
0
1
1
2
0
0
0
2
4
5
2
3
1
0
1
1
0
2
2
1
1
1
2
0
0
0
0
0
0
0
0
0
0
0
0
0
0
0
0
0
0
0
0
0
0
0
0
0
0
0
0
0
0
0
0
0
0
0
0
0
0
0
0
0
0
0
0
0
0
0
0
0
0
0
0
0
0
0
0
0
0
0
0
0
0
0
0
0
0
0
0
0
0
0
0
0
0
0
0
0
0
0
2
0
0
2
2
0
0
2
3
1
0
0
0
0
0
0
0
1
0
0
3
6
1
3
0
2
0
0
0
1
0
2
2
0
0
0
0
0
0
0
0
0
0
0
0
0
0
0
1
1
0
0
2
0
0
0
0
0
0
0
0
0
0
0
0
0
0
0
0
0
0
0
0
0
0
0
0
0
0
0
0
0
0
0
0
0
0
0
0
0
0
0
0
0
0
0
0
0
0
0
0
0
0
0
0
0
0
0
0
0
0
0
0
0
0
0
2
0
0
1
1
0
0
1
0
0
0
0
1
0
0
1
2
2
0
0
1
3
2
2
0
2
0
0
0
0
0
0
1
0
0
0
1
0
1
2
2
0
0
0
0
0
0
0
0
0
0
0
0
0
0
0
0
0
0
0
0
0
0
0
0
0
0
0
0
0
0
0
0
0
0
0
0
0
0
0
0
0
0
0
0
0
0
0
0
0
0
0
0
0
0
0
0
0
0
0
0
0
0
0
0
0
0
0
0
0
0
1
4
0
0
1
4
0
0
2
5
0
0
4
2
0
0
0
1
1
0
0
1
1
0
0
0
0
2
2
0
0
0
0
0
1
2
1
2
1
1
0
0
0
0
0
0
0
0
0
1
1
2
3
2
2
0
0
0
0
0
0
0
0
0
0
0
0
0
0
0
0
0
0
0
0
0
0
0
0
0
0
0
0
0
0
0
0
0
0
0
0
0
0
0
0
0
0
0
0
0
0
0
0
0
0
0
0
0
0
0
0
0
0
0
0
0
0
3
0
0
0
2
0
0
0
2
0
0
1
1
0
0
0
2
0
0
1
2
3
2
0
4
2
0
0
0
1
2
1
2
1
1
0
0
0
0
0
0
0
0
0
0
1
0
0
0
1
0
0
0
0
0
0
0
0
0
0
0
0
0
0
0
0
0
0
0
0
0
0
0
0
0
0
0
0
0
0
0
0
0
0
0
0
0
0
0
0
0
0
0
0
0
0
0
0
0
0
0
0
0
0
0
0
0
0
0
0
0
0
0
0
0
0
0
0
0
0
0
0
0
0
0
0
0
1
0
1
0
1
1
0
0
0
1
1
2
0
5
1
0
0
0
0
1
0
1
0
0
0
0
1
0
1
0
0
0
0
0
0
0
0
0
0
0
0
0
2
0
0
1
0
0
0
0
0
0
0
0
0
0
0
0
0
0
0
0
0
0
0
0
0
0
0
0
0
0
0
0
0
0
0
0
0
0
0
0
0
0
0
0
0
0
0
0
0
0
0
0
0
0
0
0
0
0
0
0
0
0
0
0
0
0
0
0
0
0
0
0
0
0
2
0
0
0
0
1
1
1
2
3
1
2
0
4
0
0
0
1
0
0
1
2
0
1
3
0
1
0
1
0
2
0
0
0
0
0
1
0
0
0
0
0
0
0
0
0
0
0
0
0
0
0
0
0
0
0
0
0
0
0
0
0
0
0
0
0
0
0
0
0
0
0
0
0
0
0
0
0
0
0
0
0
0
0
0
0
0
0
0
0
0
0
0
0
0
0
0
0
0
0
0
0
0
0
0
0
0
0
0
0
0
0
0
0
0
1
1
0
1
0
0
1
1
1
0
2
0
0
0
3
0
0
0
3
0
0
1
1
0
0
3
0
3
0
1
0
1
0
0
0
0
0
1
0
1
0
0
0
1
0
0
0
0
0
0
0
0
0
0
0
0
0
0
0
0
0
0
0
0
0
0
0
0
0
0
0
0
0
0
0
0
0
0
0
0
0
0
0
0
0
0
0
0
0
0
0
0
0
0
0
0
0
0
0
0
0
0
0
0
0
0
2
2
2
1
1
0
1
0
0
0
0
0
0
0
0
0
0
0
0
0
2
0
3
1
4
0
0
0
3
1
0
1
1
0
0
2
0
2
0
3
1
4
1
2
0
0
0
1
1
2
1
0
0
2
0
0
0
0
0
0
0
0
0
0
0
0
0
0
0
0
0
0
0
0
0
0
0
0
0
0
0
0
0
0
0
0
0
0
0
0
0
0
0
0
0
0
0
0
0
0
0
0
0
0
0
0
0
0
0
0
0
0
0
0
0
0
0
0
0
0
0
0
1
0
0
0
0
1
0
0
3
2
0
0
1
0
1
0
2
1
5
0
0
0
4
1
0
2
4
1
0
4
2
2
0
0
0
0
0
0
0
1
0
0
0
0
0
0
0
1
0
0
0
0
0
1
0
0
0
0
0
0
0
0
0
0
0
0
0
0
0
0
0
0
0
0
0
0
0
0
0
0
0
0
0
0
0
0
0
0
0
0
0
0
0
0
0
0
0
0
0
0
0
0
0
0
0
0
0
0
0
0
0
0
0
0
0
1
4
1
2
0
0
0
0
0
1
1
0
0
0
1
1
0
2
2
4
0
0
0
2
0
0
2
4
2
0
3
2
0
0
2
0
0
0
0
0
0
0
0
0
0
0
0
0
0
0
0
0
0
0
0
0
0
0
0
0
0
0
0
0
0
0
0
0
0
0
0
0
0
0
0
0
0
0
0
0
0
0
0
0
0
0
0
0
0
0
0
0
0
0
0
0
0
0
0
0
0
0
0
0
0
0
0
0
0
0
0
0
0
0
0
0
0
0
0
0
0
0
0
0
0
3
4
3
1
3
2
1
0
1
0
0
0
0
0
2
0
0
0
2
0
0
0
4
1
0
3
2
0
0
0
1
2
1
1
1
0
0
0
0
0
0
0
0
0
0
0
0
0
0
0
0
0
0
0
0
0
0
0
0
0
0
0
0
0
0
0
0
0
0
0
0
0
0
0
0
0
0
0
0
0
0
0
0
0
0
0
0
0
0
0
0
0
0
0
0
0
0
0
0
0
0
0
0
0
1
0
0
0
0
0
0
0
0
0
0
0
0
0
0
0
0
0
0
0
0
0
0
0
0
0
2
0
0
0
2
0
0
0
3
0
0
1
1
0
0
0
2
1
1
1
1
0
0
1
0
1
0
0
0
0
0
0
0
0
0
0
0
0
0
0
0
0
0
0
0
0
0
0
0
0
0
0
0
0
0
0
0
0
0
0
0
0
0
0
0
0
0
0
0
0
0
0
0
0
0
0
0
0
0
0
0
0
0
0
0
0
0
0
0
0
0
0
0
0
0
0
1
0
0
0
0
0
1
2
1
0
2
3
2
2
3
2
1
1
0
1
3
2
0
1
4
0
0
0
2
0
0
0
0
0
0
0
0
0
0
0
0
0
0
0
0
0
0
0
0
0
0
3
0
0
0
0
0
0
0
0
0
0
0
0
0
0
0
0
0
0
0
0
0
0
0
0
0
0
0
0
0
0
0
0
0
0
0
0
0
0
0
0
0
0
0
0
0
0
0
0
0
0
0
0
0
0
0
0
0
0
0
0
1
0
0
0
0
2
1
2
3
2
1
0
0
0
0
0
0
0
2
1
0
0
0
1
2
0
0
0
1
0
0
0
1
0
0
0
1
0
0
1
1
0
0
0
0
0
0
0
0
0
0
0
0
0
0
0
0
0
0
0
0
0
0
0
0
0
0
0
0
0
0
0
0
0
0
0
0
0
0
0
0
0
0
0
0
0
0
0
0
0
0
0
0
0
0
0
0
0
0
0
0
0
0
0
0
0
0
0
0
0
0
0
0
0
0
0
0
0
0
0
0
0
0
0
0
0
0
1
3
1
3
1
1
0
1
1
1
0
0
0
0
0
0
0
0
0
0
0
3
2
1
1
1
0
0
2
2
2
1
2
0
0
0
1
0
0
0
0
0
0
0
0
0
0
0
0
0
0
0
0
0
0
0
0
0
0
0
0
0
0
0
0
0
0
0
0
0
0
0
0
0
0
0
0
0
0
0
0
0
0
0
0
0
0
0
0
0
0
0
0
0
0
0
0
0
0
0
0
1
0
0
0
0
0
0
0
0
0
0
0
0
0
0
0
0
0
0
0
0
0
0
0
0
0
0
0
0
0
0
1
1
0
0
0
1
2
2
3
3
1
2
3
2
2
2
2
0
1
2
3
0
0
0
0
0
0
0
0
0
0
0
0
0
0
0
0
0
0
0
0
0
0
0
0
0
0
0
0
0
0
0
0
0
0
0
0
0
0
0
0
0
0
0
0
0
0
0
0
0
0
0
0
0
0
0
0
0
0
0
0
0
0
0
0
0
0
0
0
0
0
0
1
0
0
0
0
0
1
1
0
1
1
2
1
1
2
2
3
0
0
0
0
4
2
1
1
2
0
0
0
0
0
0
0
0
0
0
0
0
0
0
1
0
0
0
0
0
0
0
0
0
0
0
0
0
0
0
0
0
0
0
0
0
0
0
0
0
0
0
0
0
0
0
0
0
0
0
0
0
0
0
0
0
0
0
0
0
0
0
0
0
0
0
0
0
0
0
0
0
0
0
0
0
0
0
0
0
0
0
0
0
0
0
0
0
0
0
1
0
0
0
0
0
2
1
0
0
0
0
0
0
0
4
4
0
0
0
0
1
0
0
1
0
0
0
0
0
1
0
0
1
1
1
0
2
1
0
1
0
0
0
0
0
0
0
0
0
0
0
0
0
0
0
0
0
0
0
0
0
0
0
0
0
0
0
0
0
0
0
0
0
0
0
0
0
0
0
0
0
0
0
0
0
0
0
0
0
0
0
0
0
0
0
0
0
0
0
0
0
0
0
0
0
0
0
0
0
0
0
0
0
0
0
0
0
0
1
0
0
1
3
3
1
3
3
1
0
0
4
4
1
0
0
0
1
0
0
1
1
1
1
2
1
2
0
0
0
0
0
0
0
0
0
0
0
0
0
0
0
0
0
0
0
0
0
0
0
0
0
0
0
0
0
0
0
0
0
0
0
0
0
0
0
0
0
0
0
0
0
0
0
0
0
0
0
0
0
0
0
0
0
0
0
0
0
0
0
0
0
0
0
0
0
0
0
0
0
0
0
0
0
0
0
0
1
0
0
0
0
0
0
0
0
0
0
0
1
0
0
0
2
0
0
0
1
0
0
0
0
0
2
0
0
2
1
0
0
2
1
2
0
0
2
3
2
2
4
2
2
1
3
4
1
1
1
0
0
0
0
0
0
0
0
0
0
0
0
0
0
0
0
0
0
0
0
0
0
0
0
0
0
0
0
0
0
0
0
0
0
0
0
0
0
0
0
0
0
0
0
0
0
0
0
0
0
0
0
0
0
0
0
0
0
0
0
0
0
0
0
1
4
1
0
3
0
0
0
0
2
0
0
0
0
0
0
0
2
2
0
0
1
0
0
0
