P2
# CREATOR: Diamond Light Source Beamline I02
120 118
255
0
0
0
1
2
0
0
1
0
2
3
3
0
0
0
0
0
1
3
0
0
0
0
0
2
0
0
0
0
1
0
0
0
0
0
0
0
0
0
0
0
0
0
0
0
0
0
0
0
0
0
0
0
0
0
0
0
0
0
0
0
0
0
0
0
0
0
0
0
0
0
0
0
0
0
0
0
0
0
0
0
0
0
0
0
0
0
0
1
0
3
0
0
0
0
0
1
0
0
0
0
0
0
0
0
2
4
0
2
0
1
0
2
0
0
1
1
1
2
2
0
0
0
3
3
1
1
2
0
1
1
2
0
0
0
0
0
0
1
0
0
1
0
0
0
0
0
0
0
1
0
0
0
0
0
0
0
0
0
0
0
0
0
0
0
0
0
0
0
0
0
0
0
0
0
0
0
0
0
0
0
0
0
0
0
0
0
0
0
0
0
0
0
0
0
0
0
0
0
0
0
0
0
0
0
0
0
0
0
0
1
0
0
0
0
0
2
1
4
1
0
0
0
0
0
0
3
0
1
0
0
0
2
0
0
2
1
1
2
3
1
2
3
4
3
1
1
1
0
0
1
2
0
0
0
2
0
0
1
0
0
0
0
0
0
0
0
0
0
1
0
0
0
0
0
0
0
0
0
0
0
0
0
0
0
0
0
0
0
0
0
0
0
0
0
0
0
0
0
0
0
0
0
0
0
0
0
0
0
0
0
0
0
0
0
0
0
0
0
0
0
0
0
0
0
0
0
0
0
0
0
0
0
0
1
0
2
0
3
0
0
0
1
0
0
1
4
0
0
0
0
0
2
0
0
2
0
0
2
3
1
0
0
0
0
0
0
0
0
0
0
2
0
0
0
1
0
0
0
1
0
0
0
0
0
0
0
0
0
0
0
0
0
0
0
0
0
0
0
0
0
0
0
0
0
0
0
0
0
0
0
0
0
0
0
0
0
0
0
0
0
0
0
0
0
0
0
0
0
0
0
0
0
0
0
0
0
0
0
0
0
0
0
0
0
0
0
0
0
0
0
0
1
0
2
0
2
0
0
0
0
0
1
0
0
1
4
1
1
1
2
1
3
1
1
3
0
0
0
0
1
0
0
0
0
0
3
5
1
0
0
1
0
0
0
2
0
0
0
2
0
0
0
1
2
0
0
3
0
0
0
0
0
0
0
0
0
0
0
0
0
0
0
0
0
0
0
0
0
0
0
0
0
0
0
0
0
0
0
0
0
0
0
0
0
0
0
0
0
0
0
0
0
0
0
0
0
0
0
0
0
0
0
0
0
0
0
0
0
0
0
0
0
0
0
0
0
0
0
0
0
0
1
1
0
1
3
1
0
1
2
1
2
3
5
7
1
0
0
0
2
0
0
3
0
0
2
3
0
0
0
1
0
0
0
4
0
0
0
2
0
0
0
2
0
0
0
0
0
0
0
0
0
0
0
0
0
0
0
0
0
0
0
0
0
0
0
0
0
0
0
0
0
0
0
0
0
0
0
0
0
0
0
0
0
0
0
0
0
0
0
0
0
0
0
0
0
0
0
0
0
0
0
0
1
0
0
0
1
0
0
0
1
0
0
0
0
0
3
0
0
0
2
1
0
0
0
0
0
1
0
0
0
0
0
3
0
0
0
0
5
0
2
3
1
0
0
1
0
0
0
3
0
0
0
1
0
0
0
4
2
0
0
2
2
0
0
3
2
0
0
0
0
0
0
0
0
0
0
0
0
0
0
0
0
0
0
0
0
0
0
0
0
0
0
0
0
0
0
0
0
0
0
0
0
0
0
0
0
0
0
0
0
0
0
0
0
0
0
0
0
0
0
0
0
0
0
0
2
0
0
0
1
0
0
0
2
0
3
0
0
1
4
1
0
0
2
0
0
2
2
0
0
0
2
3
0
0
1
0
0
0
0
0
0
0
0
2
0
0
1
5
0
0
1
3
1
0
0
2
2
0
0
1
2
0
0
1
0
0
0
0
0
0
0
0
0
0
0
0
0
0
0
0
0
0
0
0
0
0
0
0
0
0
0
0
0
0
0
0
0
0
0
0
0
0
0
0
0
0
0
0
0
0
0
0
0
0
0
0
0
0
0
0
0
0
0
0
1
0
0
0
2
0
0
0
0
0
0
0
0
0
3
0
0
1
4
1
0
1
2
0
0
0
0
0
0
0
0
0
0
0
0
1
0
0
2
0
1
0
1
2
0
1
0
2
0
0
0
1
0
0
0
2
4
1
1
1
0
0
0
0
0
0
0
0
0
0
0
0
0
0
0
0
0
0
0
0
0
0
0
0
0
0
0
0
0
0
0
0
0
0
0
0
0
0
0
0
0
0
0
0
0
0
0
0
0
0
0
0
0
0
0
0
0
0
0
0
1
0
0
0
1
0
0
0
0
0
0
0
0
0
0
0
0
0
2
1
0
2
4
2
0
3
3
1
0
1
1
0
2
2
5
3
1
0
1
0
0
0
0
1
1
2
2
3
0
0
0
0
1
0
0
0
0
0
0
0
0
0
0
0
0
0
0
0
0
0
0
0
0
0
0
0
0
0
0
0
0
0
0
0
0
0
0
0
0
0
0
0
0
0
0
0
0
0
0
0
0
0
0
0
0
0
0
0
0
0
0
0
0
0
0
0
0
0
0
0
0
0
0
0
0
0
0
0
0
0
3
0
1
2
1
0
0
0
0
0
0
0
0
0
0
2
2
1
0
5
4
3
0
0
1
0
0
0
0
0
0
0
0
0
0
1
0
1
0
0
0
0
2
0
0
0
0
0
0
0
0
0
0
0
0
0
0
0
0
0
0
0
0
0
0
0
0
0
0
0
0
0
0
0
0
0
0
0
0
0
0
0
0
0
0
0
0
0
0
0
0
0
0
0
0
0
0
0
0
0
0
0
0
0
0
0
0
0
0
0
0
0
0
0
1
0
0
0
2
0
4
2
1
1
2
0
0
1
0
0
0
1
1
0
0
3
3
0
1
4
1
1
0
0
0
0
0
2
3
0
3
3
2
3
2
3
1
2
0
2
0
0
0
1
0
0
1
0
0
0
0
0
0
0
0
0
0
0
0
0
0
0
0
0
0
0
0
0
0
0
0
0
0
0
0
0
0
0
0
0
0
0
0
0
0
0
0
0
0
0
0
0
0
0
0
0
0
0
0
0
0
0
0
0
0
0
0
0
0
0
0
0
0
0
0
0
0
0
0
0
0
0
0
0
1
0
0
0
0
0
0
2
0
0
0
0
0
0
0
0
0
0
0
0
0
0
0
0
0
0
0
2
0
0
0
1
0
0
0
0
0
0
2
2
1
2
3
1
0
0
0
0
0
0
0
0
0
0
0
0
0
0
0
0
0
0
0
0
0
0
0
0
0
0
0
0
0
0
0
0
0
0
0
0
0
0
0
0
0
0
0
0
0
0
0
0
0
0
0
0
0
0
0
0
0
0
0
0
0
0
0
0
0
0
0
0
0
0
0
0
1
0
0
0
0
0
0
0
0
0
1
3
2
0
1
3
2
0
2
2
0
0
0
3
1
2
1
3
0
1
0
2
0
2
0
3
0
3
0
2
0
0
0
1
0
1
1
0
0
1
1
0
0
0
0
0
0
0
0
0
0
0
0
0
0
0
0
0
0
0
0
0
0
0
0
0
0
0
0
0
0
0
0
0
0
0
0
0
0
0
0
0
0
0
0
0
0
0
0
0
0
0
0
0
0
0
0
0
0
0
0
0
0
0
0
0
0
0
1
0
4
1
1
0
1
0
0
0
0
0
0
0
0
0
1
2
1
0
4
5
3
1
0
0
0
1
2
2
0
1
0
0
0
0
0
0
0
0
0
2
0
1
0
0
0
0
0
0
0
0
0
0
0
0
0
0
0
0
0
0
0
0
0
0
0
0
0
0
0
0
0
0
0
0
0
0
0
0
0
0
0
0
0
0
0
0
0
0
0
0
0
0
0
0
0
0
0
0
0
0
0
0
0
0
0
0
0
0
0
0
0
0
2
2
0
0
5
1
3
0
3
0
2
0
0
0
0
0
0
0
0
2
2
0
2
2
0
0
2
4
2
2
0
2
0
1
2
3
1
3
1
4
3
3
2
3
0
0
0
2
0
2
1
1
0
3
3
0
0
1
0
0
0
0
0
0
0
0
0
0
0
0
0
0
0
0
0
0
0
0
0
0
0
0
0
0
0
0
0
0
0
0
0
0
0
0
0
0
0
0
0
0
0
0
0
0
0
0
0
0
0
0
0
0
0
0
0
0
0
0
0
0
0
0
0
0
0
0
0
0
0
0
1
0
0
0
0
0
2
2
0
0
0
0
0
0
0
0
0
0
0
0
0
1
0
0
0
0
0
0
0
0
0
0
0
0
0
0
0
0
0
3
1
0
0
4
1
0
0
2
0
0
0
0
0
0
0
0
0
0
0
0
0
0
0
0
0
0
0
0
0
0
0
0
0
0
0
0
0
0
0
0
0
0
0
0
0
0
0
0
0
0
0
0
0
0
0
0
0
0
0
0
0
0
0
0
0
0
0
0
0
0
0
0
0
0
1
0
0
0
0
0
0
0
0
0
0
0
0
1
0
0
2
2
1
2
3
0
2
1
1
0
0
2
0
0
1
1
0
2
0
0
1
0
0
0
1
2
0
0
0
0
0
0
0
0
0
0
0
4
0
0
0
1
0
0
0
0
0
0
0
0
0
0
0
0
0
0
0
0
0
0
0
0
0
0
0
0
0
0
0
0
0
0
0
0
0
0
0
0
0
0
0
0
0
0
0
0
0
0
0
0
0
0
0
0
0
0
0
0
0
0
0
0
0
0
0
0
3
1
2
1
3
0
1
2
0
0
0
0
0
0
1
2
1
1
4
3
5
3
3
2
0
2
1
1
2
3
2
2
0
2
1
0
0
0
0
0
0
0
0
1
0
0
0
1
0
0
0
1
0
0
0
1
0
0
0
1
0
0
0
1
0
0
0
0
0
0
0
0
0
0
0
0
0
0
0
0
0
0
0
0
0
0
0
0
0
0
0
0
0
0
0
0
0
0
0
0
0
0
0
0
0
0
0
0
0
0
0
0
0
0
0
0
1
0
0
0
0
0
0
0
1
0
0
3
0
0
0
2
0
0
0
1
0
0
3
3
4
2
2
0
0
2
1
1
0
2
1
0
0
2
1
0
2
2
2
0
0
0
1
3
2
0
2
2
0
0
0
3
0
0
0
2
0
0
0
0
0
0
0
0
0
0
0
0
0
0
0
0
0
0
0
0
0
0
0
0
0
0
0
0
0
0
0
0
0
0
0
0
0
0
0
0
0
0
0
0
0
0
0
0
0
0
0
0
0
0
0
0
0
0
0
0
0
0
0
0
0
0
0
0
0
0
1
3
0
0
1
4
0
0
1
3
0
0
3
0
0
0
0
0
2
2
1
1
1
0
0
1
0
1
1
2
0
1
0
0
0
0
1
1
0
0
2
1
0
0
0
2
0
0
0
2
0
0
0
0
0
0
0
0
0
0
0
0
0
0
0
0
0
0
0
0
0
0
0
0
0
0
0
0
0
0
0
0
0
0
0
0
0
0
0
0
0
0
0
0
0
0
0
0
0
0
0
0
0
0
0
0
0
0
0
1
0
0
0
0
0
0
0
0
0
0
0
0
0
0
0
0
0
0
0
3
0
0
1
0
0
0
0
0
3
1
0
0
0
0
0
1
0
1
0
3
2
3
0
0
0
0
0
0
0
0
0
1
0
0
0
1
0
0
0
2
0
0
0
0
0
0
0
0
0
0
0
0
0
0
0
0
0
0
0
0
0
0
0
0
0
0
0
0
0
0
0
0
0
0
0
0
0
0
0
0
0
0
0
0
0
0
0
0
0
0
0
0
0
0
0
0
0
0
0
1
0
1
2
1
0
1
2
2
2
0
1
2
2
0
1
1
0
0
3
5
1
0
5
2
1
0
3
0
5
2
2
3
3
2
1
5
2
2
0
1
0
0
0
0
0
0
0
0
0
0
1
0
0
0
0
0
0
0
0
0
0
0
0
2
0
0
0
0
0
0
0
0
0
0
0
0
0
0
0
0
0
0
0
0
0
0
0
0
0
0
0
0
0
0
0
0
0
0
0
0
0
0
0
0
0
0
0
0
0
0
0
0
0
0
0
0
0
0
0
0
0
0
0
0
0
0
0
0
0
0
0
1
0
0
0
0
0
0
1
1
0
0
3
1
0
0
3
0
3
1
0
2
2
1
0
1
0
0
0
1
1
0
0
0
1
0
0
0
0
0
0
0
0
0
0
0
0
0
0
0
0
0
0
0
0
0
0
0
0
0
0
0
0
0
0
0
0
0
0
0
0
0
0
0
0
0
0
0
0
0
0
0
0
0
0
0
0
0
0
0
0
0
0
0
0
0
0
0
0
0
0
0
0
0
0
0
0
0
0
0
0
0
0
0
0
1
1
1
0
0
0
0
0
0
0
0
1
0
3
3
1
0
3
2
0
0
2
0
1
1
0
0
2
0
0
0
2
1
1
3
2
0
0
0
0
0
0
0
3
2
2
2
0
1
0
0
0
0
0
0
0
0
0
0
0
0
0
0
0
0
0
0
0
0
0
0
0
0
0
0
0
0
0
0
0
0
0
0
0
0
0
0
0
0
0
0
0
0
0
0
0
0
0
0
0
0
0
0
0
0
0
0
0
0
0
0
0
0
0
1
0
0
0
0
0
0
0
0
0
0
0
0
1
3
3
2
2
0
0
0
0
0
0
0
0
0
0
0
2
0
0
1
0
0
0
0
0
0
0
0
1
0
0
0
3
0
0
0
0
0
0
0
0
0
0
0
0
0
0
0
0
0
0
0
0
0
0
0
0
0
0
0
0
0
0
0
0
0
0
0
0
0
0
0
0
0
0
0
0
0
0
0
0
0
0
0
0
0
0
0
0
0
0
0
0
0
0
0
0
0
0
0
0
0
0
0
0
0
0
0
0
0
0
1
0
1
0
0
0
0
0
1
0
0
0
0
1
0
2
2
2
0
4
2
1
0
0
0
0
1
1
3
0
2
0
0
2
0
0
0
1
0
1
1
3
0
1
2
1
0
0
0
0
0
0
0
0
0
0
0
0
0
0
0
0
0
2
0
0
0
0
0
0
0
0
0
0
0
0
0
0
0
0
0
0
0
0
0
0
0
0
0
0
0
0
0
0
0
0
0
0
0
0
0
0
0
0
0
0
1
0
0
0
0
0
0
0
0
0
0
0
0
0
0
0
0
0
0
0
0
0
0
0
1
0
0
0
0
0
2
3
2
3
3
4
3
3
3
1
2
1
1
0
1
0
0
1
0
0
0
0
0
0
0
0
0
0
0
0
0
0
1
0
0
0
0
0
0
0
2
0
0
0
0
0
0
0
0
0
0
1
0
0
0
0
0
0
0
0
0
0
0
0
0
0
0
0
0
0
0
0
0
0
0
0
0
0
0
0
0
0
0
0
0
0
0
0
0
0
0
0
0
0
0
0
0
0
0
0
0
0
0
0
0
0
0
0
0
0
1
0
0
0
0
0
0
0
0
0
2
2
0
0
0
0
0
1
0
0
0
0
0
0
0
0
0
2
2
0
1
1
0
0
0
0
0
3
1
1
1
1
1
0
0
0
2
0
0
0
2
0
0
0
0
0
0
0
0
0
0
0
0
0
0
0
0
0
0
0
0
0
0
0
0
0
0
0
0
0
0
0
0
0
0
0
0
0
0
0
0
0
0
0
0
0
0
0
0
0
0
0
0
0
1
0
0
0
0
0
0
0
0
0
0
0
0
0
1
0
1
1
2
0
3
1
3
0
0
0
0
0
0
0
0
0
0
0
0
0
0
0
0
0
0
0
0
2
3
0
1
3
1
2
2
2
0
2
0
0
0
0
0
0
0
0
2
0
0
0
0
0
0
0
0
0
0
0
0
0
0
0
0
0
0
0
0
0
0
0
0
0
0
0
0
0
0
0
0
0
0
0
0
0
0
0
0
0
0
0
0
0
0
0
0
0
0
0
0
0
0
0
0
0
2
0
0
0
0
0
0
0
1
1
0
0
0
0
0
0
0
0
0
0
0
0
0
0
1
0
0
1
0
0
3
2
3
6
2
0
0
0
0
0
0
0
0
1
0
0
0
0
0
0
0
0
0
0
0
0
0
0
0
0
0
0
0
0
0
0
0
0
0
0
0
0
0
1
2
0
0
0
0
0
0
0
0
0
0
0
0
0
0
0
0
0
0
0
0
0
0
0
0
0
0
0
0
0
0
0
0
0
0
0
0
0
0
0
0
0
1
0
0
0
0
0
0
0
0
1
0
0
1
2
0
0
2
2
1
0
0
0
0
0
2
0
2
0
3
2
3
2
0
1
3
2
3
8
4
0
3
1
0
2
2
0
0
1
1
0
0
3
2
1
0
0
0
0
0
0
0
0
0
0
0
0
0
0
0
0
0
0
0
1
0
0
0
0
0
0
0
0
0
0
0
0
0
0
0
0
0
0
0
0
0
0
0
0
0
0
0
0
0
0
0
0
0
0
0
0
0
0
0
0
0
0
0
0
0
0
0
0
0
0
0
0
0
0
0
0
0
0
0
0
0
0
0
1
2
0
3
2
2
0
1
0
1
0
0
3
2
1
0
0
0
0
0
4
1
0
0
0
0
1
2
0
0
1
0
0
0
1
0
0
0
0
0
0
0
0
1
1
0
0
1
1
1
0
0
0
1
0
0
2
0
0
0
0
0
0
0
0
0
0
0
0
0
0
0
0
0
0
0
0
0
0
0
0
0
0
0
0
0
0
0
0
0
0
0
0
0
0
0
0
0
0
0
0
0
0
0
0
0
0
0
0
0
0
0
0
0
0
0
0
0
0
0
0
1
0
1
1
0
0
1
0
2
0
0
2
2
1
0
0
0
0
0
1
0
0
0
0
0
0
1
0
0
2
1
1
2
3
2
1
1
0
0
1
2
0
2
0
0
0
0
0
0
0
0
0
1
0
0
1
1
0
0
2
0
0
0
0
0
0
0
0
0
0
0
0
0
0
0
0
0
0
0
0
0
0
0
0
0
0
0
0
0
0
0
0
0
0
0
0
0
0
0
0
0
0
0
0
0
0
0
0
0
0
0
0
0
0
0
0
0
0
0
0
0
0
0
2
3
0
3
2
2
0
0
1
0
1
0
0
0
1
0
3
2
0
0
2
0
0
2
2
0
0
0
0
0
0
0
0
0
0
0
1
1
0
3
0
0
0
0
0
0
0
0
0
0
0
0
0
1
0
0
4
1
0
0
2
1
0
0
0
2
0
0
0
0
0
0
0
0
0
0
0
0
0
0
0
0
0
0
0
0
0
0
0
0
1
0
1
0
0
0
1
0
0
1
0
0
0
1
1
2
0
1
1
0
0
0
1
0
1
1
2
0
0
0
2
1
0
0
0
2
2
0
1
1
0
0
3
1
0
0
0
0
1
0
3
2
0
2
2
0
0
2
0
1
2
2
1
1
0
0
0
0
0
1
0
0
0
0
0
0
0
0
0
0
0
0
2
1
0
0
0
0
0
0
0
0
0
0
0
0
0
0
0
0
0
0
0
0
0
0
0
0
0
0
0
0
0
0
0
0
0
0
0
0
0
0
0
0
0
0
0
0
0
0
0
0
0
0
0
0
0
0
0
0
0
0
0
0
0
0
1
0
0
0
3
0
0
0
0
0
3
0
2
2
2
0
2
0
0
0
0
0
0
0
0
1
0
1
4
2
0
3
0
0
0
0
0
0
0
0
0
1
0
3
2
2
0
0
0
0
0
0
0
0
0
0
0
1
0
0
0
0
0
0
0
0
0
0
0
0
0
0
0
0
0
0
0
0
0
0
0
0
0
0
0
0
0
0
0
0
0
0
0
0
0
0
0
0
0
0
0
0
0
0
0
0
0
0
0
0
0
0
0
0
0
0
0
0
0
0
0
0
0
0
2
0
0
0
0
0
1
0
0
0
0
0
0
0
0
0
0
0
0
0
0
0
0
0
0
0
0
3
1
0
1
2
0
0
0
0
0
2
0
3
0
0
0
0
0
0
0
0
1
0
0
0
0
1
0
0
0
0
0
0
0
0
0
0
0
0
0
0
0
0
0
0
0
0
0
0
0
0
0
0
0
0
0
0
0
0
0
0
0
0
0
0
0
0
0
0
0
0
0
0
0
0
0
0
1
0
0
1
0
1
0
3
3
0
0
0
0
1
1
0
5
2
3
1
2
0
0
0
0
0
0
0
1
0
1
1
3
1
1
0
3
4
0
0
2
1
0
3
1
0
0
3
1
1
1
1
0
0
0
1
0
2
3
0
1
0
0
0
0
0
0
0
0
2
0
0
0
0
0
3
2
2
0
0
0
0
0
0
0
0
0
0
0
0
0
0
0
0
0
0
0
0
0
0
0
0
0
0
0
0
0
0
0
0
0
0
1
0
0
1
2
0
0
1
4
0
0
3
3
1
0
4
6
2
1
0
1
1
0
0
1
0
0
0
1
0
2
1
3
2
3
0
0
0
0
1
4
2
0
0
0
2
0
0
0
0
0
0
1
0
0
1
0
0
0
0
0
0
0
0
0
1
0
0
0
0
0
0
1
2
0
0
0
0
0
0
0
0
0
0
0
0
0
0
0
0
0
0
0
0
0
0
0
0
0
0
1
1
0
0
0
0
0
0
0
0
0
0
0
0
0
0
0
1
0
0
2
0
0
0
1
0
0
0
0
0
0
0
0
0
0
1
3
0
0
0
0
2
1
0
1
0
0
0
2
1
0
0
3
1
2
2
1
0
0
0
1
0
0
0
1
3
2
2
1
2
0
1
1
0
0
0
0
0
0
2
2
4
0
2
1
4
1
2
5
5
2
0
0
1
0
0
0
1
0
0
0
0
0
0
0
0
0
1
0
0
0
1
0
0
0
0
0
0
0
0
0
0
0
0
0
0
0
0
0
0
0
0
0
0
0
0
0
0
0
0
0
0
0
0
0
0
0
0
0
0
0
0
0
0
0
0
0
0
0
0
0
1
3
1
3
1
2
0
0
0
0
0
1
0
1
2
0
0
0
0
0
0
0
0
0
0
0
0
0
0
0
1
3
1
0
2
2
2
0
0
0
0
0
0
0
0
0
0
1
2
1
0
0
2
1
0
1
1
0
0
0
0
1
1
0
0
0
1
0
0
0
0
0
0
0
0
0
0
0
0
0
0
0
0
0
0
0
0
0
0
1
0
0
0
0
0
0
0
0
0
1
1
0
0
1
0
0
0
0
0
0
0
1
0
0
0
0
0
0
2
1
2
4
3
1
1
2
0
2
1
0
0
0
0
0
0
0
0
0
0
1
0
1
2
1
2
1
2
0
0
0
0
3
0
0
3
4
2
1
3
1
0
0
2
2
2
0
0
0
1
0
0
0
0
0
0
0
1
2
0
1
1
1
1
1
2
1
3
1
0
0
2
1
0
0
1
0
0
2
0
0
2
0
0
1
0
0
0
0
0
1
0
0
0
2
0
1
0
0
0
1
2
0
3
5
2
3
3
2
0
2
0
3
1
0
1
1
3
2
2
1
0
0
0
0
0
1
0
4
3
4
2
2
1
1
1
0
1
2
1
1
2
0
1
0
3
2
2
0
0
0
0
0
0
0
0
0
0
0
0
0
0
0
0
0
0
0
0
0
2
1
0
1
2
1
0
1
1
1
0
1
1
0
0
0
0
0
2
1
1
0
3
1
2
3
2
0
2
3
1
0
2
3
2
4
2
4
3
3
3
5
1
4
3
4
2
5
4
3
3
5
4
1
3
3
0
1
0
0
0
0
0
2
0
0
0
0
1
0
2
0
0
0
0
0
0
1
0
0
0
1
0
0
0
0
0
0
0
1
0
0
0
0
2
0
1
2
2
0
0
0
0
0
0
0
0
0
0
0
0
0
0
0
2
2
5
3
2
0
2
0
0
1
1
1
0
0
0
0
1
1
3
2
1
0
0
0
1
0
0
2
0
0
3
2
0
0
1
2
1
0
3
3
3
3
2
3
1
0
0
2
0
2
1
2
0
4
1
0
0
0
0
0
0
0
0
0
0
0
0
1
0
0
0
0
0
0
0
0
2
2
1
0
2
1
0
1
1
0
0
2
1
0
1
2
0
0
0
2
0
1
2
0
0
0
0
0
0
0
0
0
2
1
2
3
2
1
0
0
0
1
1
0
2
0
2
1
1
0
1
0
0
1
0
0
1
3
0
1
2
0
2
2
2
3
3
0
2
1
1
3
1
0
3
3
1
2
4
5
4
3
3
3
3
3
2
4
3
2
2
4
0
4
2
2
1
5
2
2
2
4
4
1
3
3
0
1
2
1
0
1
1
0
0
0
4
0
3
0
1
1
2
1
2
3
0
1
0
0
0
0
0
0
0
0
0
0
0
2
0
0
1
3
2
0
2
0
0
0
0
0
1
0
1
3
2
3
1
2
2
2
3
2
3
0
1
0
2
0
0
0
0
4
2
3
4
5
1
3
3
2
5
5
4
5
6
2
4
5
7
10
8
6
10
10
6
7
9
9
8
7
8
9
9
8
8
10
7
5
6
7
3
7
8
4
3
7
5
2
3
5
3
3
5
7
4
5
4
5
2
3
5
4
3
3
6
2
5
1
2
2
1
0
1
4
1
3
2
1
2
2
2
1
1
1
0
0
1
4
0
0
0
2
2
2
3
1
2
1
2
2
1
0
0
0
0
0
0
0
0
0
0
0
1
0
1
1
4
2
4
4
3
7
5
5
5
7
4
4
5
7
8
9
7
9
8
5
5
7
8
11
9
7
13
14
9
12
15
12
10
10
9
12
13
11
12
14
11
9
12
12
10
12
13
9
9
11
9
8
10
8
5
7
7
6
4
7
4
4
2
2
4
2
2
0
4
0
2
0
2
2
0
0
0
0
0
0
0
0
0
0
1
0
1
1
0
0
1
3
0
0
0
1
0
0
1
0
0
0
1
0
0
0
0
0
0
0
0
2
0
0
2
1
2
2
3
3
5
3
3
4
2
3
0
0
1
4
3
4
5
7
8
9
8
13
13
12
11
13
11
14
11
11
13
16
11
15
17
19
16
18
18
17
17
15
16
17
17
11
14
15
11
11
16
13
12
13
12
10
10
7
5
7
6
6
5
7
5
4
3
4
7
2
2
1
3
0
3
2
2
3
1
0
0
3
0
2
3
3
2
0
2
0
0
0
0
0
0
2
0
0
0
3
0
0
2
0
0
0
0
0
0
0
2
2
0
0
2
3
0
0
2
0
0
0
0
0
3
2
2
7
5
5
4
6
8
11
12
12
12
13
14
12
11
15
15
14
17
20
18
20
18
18
20
24
19
23
25
25
21
25
22
21
22
21
23
25
24
19
22
22
18
18
21
19
17
16
16
15
15
13
12
13
10
10
10
13
12
11
9
7
11
6
6
4
6
1
3
3
2
3
0
0
0
4
0
0
0
0
0
0
1
0
0
0
0
0
0
0
0
0
0
2
0
0
0
0
0
1
2
1
0
0
1
3
3
0
3
4
2
0
4
2
2
2
3
3
4
2
1
6
7
8
11
12
12
14
13
13
13
15
18
19
18
23
23
24
25
28
26
29
28
30
31
34
29
33
34
34
32
37
36
35
36
35
37
36
34
31
34
33
30
29
30
28
26
24
23
22
22
16
16
19
16
14
15
14
11
11
9
8
10
7
8
7
9
7
8
8
6
6
1
1
0
5
2
3
3
4
1
0
0
0
1
0
0
0
1
0
0
2
0
3
0
0
0
0
0
0
1
0
0
0
0
0
0
0
0
0
0
0
3
2
1
4
5
7
9
8
8
11
12
12
15
16
17
19
22
23
24
27
28
30
30
34
34
36
38
42
39
41
43
47
49
52
52
56
56
57
54
59
57
54
54
55
54
53
52
48
50
47
45
44
45
43
43
41
38
37
37
29
30
31
28
24
25
23
23
21
17
16
15
11
11
10
10
9
7
6
3
6
3
3
2
4
0
0
0
1
0
0
0
0
1
0
0
0
2
0
0
0
0
4
0
0
0
0
0
0
0
0
0
0
0
0
0
0
0
0
1
2
5
4
3
4
5
8
12
11
10
15
15
16
20
23
22
25
29
30
33
35
35
38
41
44
46
50
53
58
57
58
62
63
63
67
69
73
74
74
73
78
78
74
74
78
76
72
73
71
67
66
64
63
63
62
59
56
53
52
50
44
43
41
38
34
32
29
31
30
23
23
24
17
14
14
13
12
11
10
6
8
5
3
2
6
3
2
3
5
3
0
0
0
0
0
0
0
0
0
0
0
0
2
0
0
0
0
0
0
0
0
0
0
0
0
1
0
1
2
3
4
7
8
7
8
6
8
10
12
13
17
19
21
26
30
31
33
38
39
42
46
45
51
55
58
58
65
67
70
74
78
82
84
86
88
90
94
96
93
93
99
97
93
96
102
98
93
92
95
88
85
84
83
79
76
73
69
64
61
59
52
51
49
48
44
40
36
37
36
29
30
28
24
18
17
15
14
12
9
7
10
7
4
3
6
2
0
0
2
0
0
0
0
0
0
0
0
0
0
0
0
0
0
0
0
0
0
0
0
0
0
0
0
0
0
3
2
2
5
4
4
6
8
10
12
11
11
14
17
20
23
27
31
33
37
39
44
49
50
55
60
59
68
74
78
80
89
90
94
98
102
106
110
114
117
120
125
127
122
124
132
131
127
128
134
130
124
124
127
116
112
111
108
105
101
97
92
86
82
80
72
69
65
63
58
53
47
45
43
34
35
33
31
26
24
23
24
20
15
14
15
12
9
8
10
9
6
3
5
1
0
0
0
0
0
0
0
1
0
0
0
0
0
0
0
0
0
0
0
0
0
0
0
0
0
0
0
0
0
0
0
3
6
9
12
12
12
16
21
24
28
33
39
42
47
51
58
63
63
73
78
78
84
93
97
98
109
113
118
123
126
132
137
143
148
155
161
164
159
160
166
163
160
159
166
162
155
152
157
143
140
140
138
132
128
123
117
112
106
103
97
93
86
84
80
72
64
62
58
47
46
42
39
32
30
27
25
20
14
14
14
11
9
8
7
6
3
1
2
2
1
0
0
0
0
0
0
0
0
0
0
0
0
0
0
0
0
0
0
0
0
0
0
0
0
0
0
0
5
5
7
8
9
11
16
16
19
24
28
29
33
38
44
49
54
59
69
73
73
84
90
88
95
106
111
113
127
135
140
145
151
158
164
168
173
179
186
191
188
189
196
193
190
187
196
193
186
181
188
172
168
167
163
155
151
145
140
134
126
121
115
107
97
96
92
81
74
72
69
57
55
51
47
39
36
33
31
25
18
17
15
12
9
7
6
6
3
0
2
2
1
0
0
0
0
0
0
0
0
0
0
0
0
0
0
0
0
0
0
0
0
0
0
0
0
0
0
0
3
3
6
7
9
11
16
14
18
24
30
33
40
46
53
56
59
66
78
81
83
96
103
102
112
126
133
136
148
157
162
165
172
180
189
193
198
204
211
213
209
211
218
215
215
211
220
219
212
205
211
197
190
190
184
176
169
165
157
150
140
136
128
118
107
105
100
88
83
80
77
66
62
56
54
45
39
35
34
27
21
21
19
15
13
9
8
8
5
2
2
1
0
0
0
0
0
0
0
0
0
0
0
0
0
0
0
0
0
0
0
0
0
0
0
0
0
0
0
0
3
5
8
9
12
15
21
21
23
29
33
35
42
48
54
61
63
72
85
88
91
107
114
116
125
140
147
150
160
173
179
181
187
198
207
209
218
227
235
236
235
236
242
241
241
236
243
240
232
223
228
214
209
208
203
195
187
181
173
165
153
150
142
131
120
117
111
100
92
88
83
71
64
60
59
50
42
40
37
29
25
26
21
18
16
12
11
10
8
4
2
2
0
0
0
0
0
0
0
0
0
0
0
0
0
0
0
0
0
0
0
0
0
0
0
0
0
1
0
1
3
4
7
7
10
13
18
18
24
30
35
39
47
54
61
67
70
78
90
92
96
110
116
119
128
143
152
157
165
179
186
188
195
208
216
219
228
238
245
247
247
250
255
253
253
248
255
252
245
236
242
226
221
218
214
207
200
194
187
179
163
161
152
141
128
126
121
108
99
96
90
78
70
66
63
52
45
44
39
31
28
24
20
17
15
11
10
8
7
3
0
1
0
0
0
0
0
0
0
0
0
0
0
0
0
0
0
0
0
0
0
0
0
0
0
0
0
0
0
0
4
5
9
9
12
14
19
18
21
28
32
36
43
51
56
63
66
73
85
88
94
108
113
114
122
135
143
149
159
170
176
179
188
200
207
208
217
226
232
234
234
238
240
240
239
235
241
238
231
224
230
214
208
205
201
195
187
185
177
168
154
154
144
134
124
123
118
103
94
91
85
73
67
64
60
49
40
39
35
29
28
24
21
17
13
9
8
5
5
2
0
2
0
0
0
0
0
0
0
0
0
0
0
0
0
0
0
0
0
0
0
0
0
0
0
0
0
0
0
0
3
3
5
6
11
12
16
18
20
27
32
37
40
47
50
56
58
65
76
80
86
97
101
105
113
125
133
141
148
158
161
165
172
183
190
191
199
208
211
212
211
216
217
218
218
218
221
220
212
205
210
196
191
189
186
180
171
167
161
151
138
137
128
118
109
107
106
92
83
82
77
65
58
57
54
45
38
39
34
27
27
22
18
14
13
9
9
9
9
6
4
4
1
1
0
0
0
0
0
0
0
0
0
0
0
0
0
0
0
0
0
0
0
0
0
0
2
0
0
3
6
3
6
6
11
12
15
18
19
23
26
30
30
38
44
51
55
61
70
73
77
88
94
100
107
115
122
129
134
144
149
153
161
172
177
179
185
195
197
197
197
204
205
205
204
205
207
205
197
191
197
182
178
176
174
167
158
153
149
139
125
127
119
110
102
100
98
85
75
75
71
61
53
52
50
41
34
36
31
24
24
21
19
16
15
11
8
5
5
3
0
1
0
1
0
0
0
0
0
0
0
0
0
0
0
0
0
0
0
0
0
0
0
0
0
0
4
0
0
0
4
1
5
5
8
9
11
14
15
21
23
27
29
36
41
48
49
54
62
63
65
72
76
80
88
95
101
108
114
121
125
128
134
142
146
147
154
164
166
165
166
172
172
172
171
173
174
172
166
161
167
155
149
150
149
142
135
132
127
119
109
110
105
96
88
85
84
73
65
67
62
53
46
45
41
35
30
30
27
21
21
16
15
11
11
8
8
6
6
6
2
2
0
0
0
0
0
0
0
0
0
0
0
0
0
0
0
0
0
0
0
0
0
0
0
0
0
0
0
0
2
0
3
5
7
8
10
12
12
17
18
20
22
30
32
36
38
42
49
50
53
60
63
66
73
78
80
85
89
94
97
101
105
111
117
116
121
132
133
131
133
138
136
136
133
135
136
134
127
123
129
120
115
115
116
107
101
100
99
93
87
88
81
75
70
66
66
59
51
51
48
41
35
35
33
29
26
24
22
16
17
12
11
8
10
6
5
3
1
1
0
2
0
0
0
0
0
0
0
0
0
0
0
0
0
0
0
0
0
0
0
0
0
0
0
0
0
0
0
0
2
2
3
4
5
8
9
12
14
17
18
20
22
28
31
31
33
38
44
45
49
55
58
60
67
72
75
81
83
88
92
96
99
105
111
109
113
122
124
120
124
129
128
127
126
129
131
127
124
121
124
114
112
110
110
105
101
96
93
88
81
79
74
70
65
60
59
56
49
48
44
40
32
31
29
25
23
23
21
14
16
11
8
7
9
7
7
6
3
4
2
1
0
0
0
0
0
0
0
0
0
0
0
0
0
0
0
0
0
0
0
0
0
0
0
0
1
0
0
2
3
2
3
5
5
8
8
9
9
12
15
15
18
24
28
26
30
36
41
41
45
50
54
53
60
64
66
71
74
79
83
84
89
92
96
95
99
106
109
106
108
113
113
111
111
114
115
109
107
105
107
98
97
94
95
89
86
84
79
75
70
69
63
63
59
53
48
47
41
39
36
36
31
29
27
22
20
19
18
12
16
11
10
7
8
7
4
3
0
0
0
0
0
0
0
0
0
0
0
0
0
0
0
1
0
0
0
0
1
0
1
0
0
0
2
0
0
0
0
0
0
2
2
4
3
7
8
7
9
12
15
14
16
20
23
20
24
29
33
31
33
36
40
39
43
48
52
53
56
59
63
62
66
68
73
72
76
79
82
81
82
85
86
85
84
87
90
83
84
82
81
75
75
72
73
70
68
67
62
60
55
53
47
48
44
40
37
37
33
31
28
29
25
23
20
15
16
15
13
8
13
8
7
6
7
6
4
4
2
1
0
1
1
2
0
0
0
0
0
0
0
0
0
0
0
0
0
0
1
0
0
0
0
0
2
0
0
0
0
0
0
2
2
2
3
6
5
3
5
6
11
11
13
15
20
17
20
25
30
29
31
35
39
37
39
40
44
46
46
49
55
54
57
58
63
63
67
67
71
72
73
75
76
75
73
74
75
71
71
70
68
63
65
61
61
58
57
56
52
52
51
47
42
43
40
38
35
33
30
26
22
24
21
20
20
14
16
16
12
6
11
7
5
5
6
5
1
2
0
0
0
0
0
0
0
0
0
0
0
0
0
0
0
0
0
0
0
0
0
0
0
0
0
0
1
0
0
0
0
0
0
1
2
2
3
8
7
6
7
8
12
10
10
10
14
13
15
18
25
26
25
30
35
34
35
36
41
43
43
46
53
50
53
54
58
60
62
61
65
66
66
67
69
68
67
68
68
65
67
65
63
59
61
59
59
57
55
53
47
46
45
43
40
41
39
37
33
30
28
26
21
20
17
16
16
11
13
14
11
5
9
6
5
3
3
5
2
4
3
3
0
0
0
0
0
0
0
0
0
0
0
0
0
0
0
0
0
0
0
0
0
0
0
0
3
0
0
4
4
1
0
4
5
3
2
6
4
2
4
6
8
8
9
9
15
15
15
15
21
21
20
24
28
28
28
27
34
37
36
39
45
43
44
45
48
51
52
49
53
54
53
51
54
53
52
51
53
52
52
50
50
49
48
47
49
46
44
44
40
35
36
33
30
28
28
26
24
21
20
20
17
16
15
15
14
10
12
12
10
6
9
7
5
3
3
3
0
0
1
2
0
1
2
4
0
0
0
1
0
0
0
0
0
0
0
1
1
0
0
2
1
0
0
0
3
0
0
2
1
0
0
2
3
1
1
5
2
0
3
3
5
8
9
7
13
15
12
11
16
17
12
14
20
23
22
22
29
31
28
28
33
31
29
30
35
38
39
38
40
41
39
36
40
40
41
41
41
43
42
38
39
38
37
37
36
34
34
33
30
27
29
23
23
19
19
17
17
15
16
18
15
14
13
12
10
7
9
8
7
4
7
5
2
4
6
4
2
2
1
1
0
0
0
1
0
0
0
0
0
0
0
0
0
0
0
0
0
0
0
0
0
0
0
0
0
0
0
2
2
0
0
2
0
0
0
2
1
0
2
3
4
7
8
5
8
10
7
7
13
15
10
13
16
18
17
15
19
22
21
20
25
26
24
24
25
29
27
28
33
34
32
31
34
32
34
31
30
31
29
25
27
26
25
24
24
22
24
23
23
19
23
19
22
17
19
18
18
14
15
15
11
11
9
7
9
5
6
5
5
1
5
2
0
2
4
2
0
3
3
1
0
0
1
2
0
0
0
3
0
0
0
1
0
0
0
0
0
0
0
1
0
1
0
1
0
0
0
0
0
0
0
3
0
0
0
3
3
5
4
5
5
7
7
5
8
10
7
7
11
14
10
11
14
16
14
12
15
17
14
14
17
20
18
22
23
27
24
24
27
28
27
25
26
23
25
21
24
26
27
24
28
27
25
24
24
22
22
22
22
15
19
15
18
15
17
15
16
11
12
13
11
10
8
7
7
3
7
5
6
4
5
1
0
0
4
3
0
0
0
0
0
0
0
1
0
0
0
1
0
0
0
1
0
0
0
0
0
0
0
0
0
0
0
0
0
1
0
0
1
0
0
5
3
2
0
4
2
2
1
3
3
6
5
3
6
7
6
5
9
10
7
8
11
12
11
9
12
16
15
15
18
22
19
20
20
23
19
19
21
23
23
19
20
19
19
16
18
19
20
19
21
21
21
19
19
18
18
17
17
12
14
9
13
8
10
8
10
6
8
7
7
7
7
5
6
0
3
3
3
3
4
2
0
1
2
1
0
0
3
2
1
0
0
0
0
0
0
0
0
0
0
2
1
3
0
0
0
4
2
2
0
0
0
0
0
0
0
0
1
0
0
3
1
1
0
3
2
2
0
1
1
3
3
2
3
5
3
3
5
7
5
4
6
8
6
6
8
9
8
8
8
11
9
9
8
13
10
10
11
13
13
13
12
12
13
11
11
14
15
13
14
11
11
8
8
5
10
6
7
5
8
3
8
4
4
2
4
2
4
3
4
4
4
4
8
3
5
4
2
0
0
1
0
1
2
2
0
0
1
0
0
0
0
1
0
0
1
3
0
0
0
2
1
5
0
0
0
0
0
1
0
0
0
0
0
0
0
2
4
1
0
2
0
0
0
0
0
2
0
2
2
3
2
2
2
3
2
0
2
5
3
3
4
5
5
4
4
5
4
4
4
8
6
6
3
8
7
6
7
8
8
7
5
8
9
8
7
9
8
5
6
2
6
2
5
3
7
4
8
6
9
6
9
6
4
4
4
2
4
4
4
3
3
2
5
1
2
2
1
0
0
3
1
0
0
4
0
0
3
3
0
0
0
0
0
0
0
2
0
0
1
6
3
7
0
0
0
1
3
4
2
1
2
3
3
1
0
2
2
0
0
1
2
2
0
2
2
3
0
1
2
2
0
1
2
3
4
1
2
4
4
2
4
5
4
2
3
5
4
3
0
4
2
2
1
5
7
5
5
7
9
6
3
7
6
6
5
8
9
6
6
3
8
5
6
4
8
5
7
7
8
4
6
4
4
5
7
4
4
4
4
0
1
2
2
0
2
3
2
3
0
3
0
0
0
3
0
0
0
0
0
0
0
1
0
0
0
2
0
2
2
7
3
8
0
0
0
1
1
0
0
0
0
0
0
0
0
2
2
0
0
1
3
1
0
1
3
2
0
1
1
0
0
0
0
1
1
0
0
4
3
1
1
5
5
4
4
7
7
6
5
9
10
7
6
9
9
7
5
7
8
6
2
6
5
4
1
5
6
4
5
4
10
7
6
2
8
3
5
7
8
5
5
3
2
2
1
0
0
2
2
0
0
1
0
0
0
2
1
1
0
4
1
1
1
4
1
0
0
1
0
0
0
0
0
0
0
1
0
0
0
2
0
5
0
0
0
1
0
1
0
0
0
1
0
0
0
1
1
0
0
0
2
0
0
0
2
0
0
0
0
0
0
2
0
5
3
0
0
4
2
0
0
1
1
0
0
3
3
1
0
2
3
2
1
3
5
3
1
3
5
3
0
3
4
4
2
6
7
3
3
0
4
1
1
0
3
0
1
1
3
0
0
0
0
0
0
0
0
1
1
0
2
3
2
1
2
3
1
0
0
2
2
0
0
2
0
0
0
0
0
1
0
3
3
2
0
4
0
0
0
3
0
4
0
0
0
0
0
2
1
0
1
2
1
0
2
2
3
0
0
1
2
0
0
0
1
0
0
3
2
3
0
2
0
2
1
0
0
1
0
0
0
2
3
0
0
1
3
0
0
1
2
0
0
1
1
0
0
0
1
0
0
1
2
2
0
2
3
1
0
0
2
0
1
0
5
4
3
1
3
0
0
0
2
2
1
0
0
3
0
0
3
5
1
0
0
0
0
0
0
0
0
0
0
2
1
1
0
1
0
1
0
0
0
0
0
2
0
1
0
4
2
5
0
1
1
3
1
3
3
0
2
4
3
0
1
0
0
0
0
0
0
0
0
1
2
0
0
2
0
0
0
1
0
2
0
0
0
0
0
0
0
1
3
0
0
1
3
0
0
0
0
0
0
0
0
0
0
0
1
0
0
0
0
0
0
0
0
0
0
0
1
0
0
0
2
2
1
0
4
1
0
0
4
3
4
3
3
4
1
0
1
3
1
0
0
0
0
0
0
0
0
0
0
0
0
0
0
0
1
2
0
0
1
2
1
2
1
3
0
4
2
4
0
0
0
1
0
0
1
0
0
0
0
0
0
0
0
0
0
1
0
0
2
5
4
1
0
3
0
0
0
1
0
0
0
0
0
1
2
1
0
0
1
0
0
1
5
1
1
4
3
0
1
4
3
2
1
1
2
0
0
1
1
0
0
0
0
1
0
0
0
1
1
0
3
2
0
0
2
0
0
0
3
1
2
0
1
1
0
0
0
1
0
0
0
2
2
0
1
2
3
0
2
0
1
0
0
1
1
0
0
0
0
0
0
0
0
0
0
2
1
1
0
0
0
0
0
0
0
0
0
0
0
0
0
0
0
0
0
1
0
0
0
3
1
0
0
1
0
0
0
2
0
2
0
2
0
0
0
0
0
0
1
0
0
1
3
0
0
3
1
0
0
0
0
0
0
0
0
0
0
1
2
1
2
2
2
2
0
0
0
0
0
0
1
1
0
0
0
0
0
0
0
0
1
0
0
0
0
0
0
0
0
0
0
1
1
0
0
0
0
0
0
0
0
0
0
2
0
2
0
2
3
2
0
1
1
0
0
0
0
0
3
2
2
2
1
1
0
1
4
2
4
4
5
4
3
0
3
4
3
0
1
0
0
0
1
1
0
3
1
2
2
1
0
1
0
0
0
1
0
2
2
1
0
0
0
0
0
0
0
0
0
0
0
0
0
0
0
0
0
0
0
0
0
0
0
0
0
0
0
0
0
0
0
0
0
0
0
0
0
0
0
0
0
0
0
0
0
0
0
0
0
0
0
2
0
0
0
0
0
0
0
2
3
0
1
2
0
1
0
0
0
0
0
0
1
2
0
2
1
1
2
0
0
0
1
0
0
3
5
2
2
1
0
0
0
0
0
1
0
0
1
2
0
0
3
1
0
0
0
0
0
0
0
0
0
0
0
0
0
0
0
0
0
1
0
0
0
0
0
0
0
0
0
0
0
0
0
0
0
0
0
0
0
0
0
0
0
0
0
0
0
0
0
0
0
0
0
0
1
2
2
0
2
1
2
0
2
1
0
0
0
0
0
5
3
0
2
3
1
0
0
1
0
0
0
1
0
2
1
0
1
0
0
0
0
0
0
0
0
0
1
0
0
1
2
1
0
1
3
0
0
1
1
0
0
0
0
1
0
0
1
2
0
0
1
0
0
0
0
0
1
0
0
0
0
0
0
0
0
0
0
0
0
0
0
0
0
0
0
0
0
3
1
0
0
0
0
0
0
0
0
0
0
0
0
0
0
0
0
0
0
0
0
0
0
0
0
0
0
0
1
0
0
0
0
0
0
0
0
0
0
0
0
1
0
0
0
2
0
1
3
4
1
0
0
0
0
0
0
0
3
1
0
2
2
1
0
2
1
0
2
0
0
0
0
0
0
0
0
0
0
0
1
0
0
2
2
2
1
0
1
3
0
0
2
0
0
0
0
0
3
0
0
0
0
0
0
0
0
1
0
0
0
0
0
0
0
1
1
0
0
0
0
0
0
0
0
0
0
0
0
0
0
0
0
0
0
0
0
0
0
0
0
0
0
0
0
0
0
0
0
0
0
0
0
0
0
0
0
0
0
0
0
2
0
0
0
0
0
0
0
1
1
0
1
2
1
0
0
0
2
1
0
1
1
0
0
0
0
0
4
2
2
0
2
0
0
1
4
1
1
2
3
1
1
1
1
1
0
0
0
2
0
0
2
0
1
1
1
0
3
0
0
0
0
0
0
0
0
0
0
0
0
0
0
0
0
0
0
0
0
0
0
0
0
0
0
0
0
0
0
0
0
0
0
0
0
0
0
0
0
0
0
0
0
0
0
0
0
0
0
0
0
0
0
0
0
0
0
0
0
1
0
1
0
0
0
0
0
0
1
1
2
0
0
2
2
0
0
0
1
0
0
0
1
3
0
2
2
2
2
0
0
0
0
0
0
0
2
1
0
0
0
0
0
0
0
0
0
0
0
1
0
0
0
0
0
0
0
0
0
0
0
0
0
0
0
0
0
0
0
0
0
0
1
0
0
0
0
0
0
0
0
0
0
0
0
0
0
0
0
0
0
0
0
0
0
0
0
0
0
0
0
0
0
0
0
0
2
0
0
0
0
0
0
0
0
0
0
1
0
2
1
2
1
2
2
2
0
0
1
0
1
1
0
2
4
0
1
1
3
0
0
0
0
1
0
1
2
3
2
2
2
2
2
2
1
1
3
2
0
0
1
0
0
0
0
0
0
0
0
0
0
0
0
1
0
0
0
0
0
0
0
0
0
0
0
0
0
0
0
0
0
0
0
0
0
0
0
0
0
0
0
0
0
0
0
0
0
0
0
0
0
0
0
0
0
0
0
0
0
0
0
0
0
0
0
0
1
0
0
0
0
0
0
0
0
0
0
0
0
0
0
0
0
0
0
0
0
0
0
0
1
0
0
0
3
0
0
0
2
0
1
1
2
1
2
0
0
1
2
1
0
0
0
0
0
0
0
0
0
0
1
1
1
1
3
4
1
3
2
2
1
1
2
1
2
0
0
0
0
0
0
0
0
0
0
0
0
0
0
0
0
0
0
0
0
0
0
0
0
0
0
0
0
0
0
0
0
0
0
0
0
0
0
0
0
0
0
0
0
0
0
0
0
0
0
0
0
0
0
0
0
0
0
0
0
0
0
0
0
1
0
0
0
1
0
0
0
1
0
0
4
2
0
1
6
0
2
0
2
0
0
0
0
0
0
0
0
0
2
2
1
0
0
1
0
0
0
1
0
0
1
2
0
1
3
4
0
1
0
0
0
0
0
0
0
0
0
0
1
0
0
0
0
0
0
0
0
0
0
0
0
0
0
0
0
0
0
0
0
0
0
0
0
0
0
0
0
0
0
0
0
0
0
0
0
0
0
0
0
0
0
0
0
0
0
0
1
0
0
0
0
0
0
0
0
0
0
0
0
2
0
0
0
0
0
0
0
1
0
0
1
0
0
0
0
0
0
0
0
0
1
0
0
0
3
0
0
3
2
3
2
1
2
3
0
1
1
1
1
2
1
1
0
0
0
2
0
1
0
0
0
0
0
0
0
0
0
0
0
0
0
0
0
0
0
0
0
0
0
0
0
0
0
0
0
0
0
0
0
0
0
0
0
0
0
0
0
0
0
0
0
0
0
0
0
0
0
0
0
0
0
0
0
0
0
0
0
0
0
0
0
0
0
0
2
0
0
0
1
1
0
2
2
2
0
0
0
0
0
0
1
2
1
0
4
1
3
1
1
2
2
1
0
0
2
0
0
0
1
2
1
0
2
2
0
2
0
0
0
0
0
0
0
0
0
0
0
0
0
0
0
1
0
0
1
0
0
0
0
0
0
0
0
0
0
0
0
0
0
0
0
0
0
0
0
0
0
0
0
0
0
0
0
0
0
0
0
0
0
0
0
0
0
0
0
0
0
0
0
0
0
0
0
0
0
0
0
0
0
0
0
0
0
0
0
0
0
0
1
0
0
0
0
0
0
0
0
0
0
0
0
0
0
0
1
0
2
0
0
1
0
0
0
0
0
0
0
0
0
0
0
0
0
0
0
0
0
0
0
0
0
1
1
1
1
3
3
0
0
2
3
4
1
1
1
0
0
0
0
0
0
0
0
0
0
0
0
0
0
0
0
0
0
0
0
0
0
0
0
0
0
0
0
0
0
0
0
0
0
0
0
0
0
0
0
0
0
0
0
0
0
0
0
0
0
0
0
0
0
0
0
0
0
0
0
0
0
0
0
0
0
0
0
0
0
0
0
1
0
0
1
3
1
0
0
1
1
1
0
3
0
0
0
0
0
0
0
0
0
0
0
0
1
1
1
0
0
0
0
0
0
0
1
1
0
2
3
1
0
0
0
0
0
0
0
0
0
0
1
0
0
0
2
0
0
0
0
0
0
0
0
0
0
0
0
0
0
0
0
0
0
0
0
0
0
0
0
0
0
0
0
0
0
0
0
0
0
0
0
0
0
0
0
0
0
0
0
0
0
0
1
0
0
0
0
0
0
0
2
0
0
0
0
0
0
0
0
1
0
0
0
3
1
0
0
0
0
0
0
0
1
2
0
0
0
0
0
0
0
1
2
1
1
1
0
1
0
1
4
3
0
0
4
0
0
0
0
0
0
0
0
2
0
0
0
0
0
0
3
0
0
0
0
0
0
0
0
0
0
0
0
0
0
0
0
0
0
0
0
0
0
0
0
0
0
0
0
0
0
0
0
0
0
0
0
0
0
0
0
0
0
0
0
0
0
0
0
0
0
0
0
0
0
0
0
0
0
0
0
0
0
1
1
3
1
0
0
0
0
0
0
2
4
3
1
2
4
1
1
3
0
1
1
2
0
1
0
0
1
2
3
2
0
2
1
1
1
2
3
3
1
0
3
2
0
0
0
0
0
0
0
3
0
0
1
0
0
0
0
0
0
0
0
0
0
0
0
0
0
0
0
0
0
0
0
0
0
0
0
0
0
0
0
0
0
0
0
0
0
0
0
0
0
0
0
0
0
0
0
0
0
0
0
0
0
0
0
0
0
0
0
0
0
0
0
0
0
0
0
0
0
0
0
2
0
0
0
1
0
0
0
0
0
0
0
0
1
0
0
0
0
0
0
1
0
3
2
1
2
2
2
1
1
1
0
1
0
0
0
0
0
0
1
1
0
0
3
2
0
0
2
4
0
0
1
0
0
0
0
0
0
0
0
0
0
0
0
0
0
0
0
0
0
0
0
0
0
0
0
0
0
0
0
0
0
0
0
0
0
0
0
0
0
0
0
0
0
0
0
0
0
0
0
0
0
0
0
0
0
0
0
0
0
0
1
0
0
0
0
0
0
0
0
0
0
1
0
3
3
2
0
2
2
0
1
0
3
0
1
0
1
1
1
2
1
0
0
0
3
3
1
0
1
0
0
2
2
0
0
2
2
0
2
3
1
1
3
3
0
0
0
0
0
0
0
0
0
0
0
0
0
0
0
0
0
0
0
0
0
0
0
0
0
0
0
0
0
0
0
0
0
0
0
0
0
0
0
0
0
0
0
0
0
0
0
0
0
0
0
0
0
0
0
0
0
0
0
0
0
0
0
0
0
0
0
0
0
0
0
0
0
0
0
1
0
0
0
0
0
1
1
1
2
0
0
0
2
0
2
1
2
2
3
2
1
0
0
0
2
3
3
1
0
0
0
0
1
0
2
4
5
1
2
3
0
0
0
0
0
0
0
1
0
0
2
2
0
1
2
1
0
0
0
0
0
0
0
0
0
0
0
0
0
0
0
0
0
0
0
0
0
0
0
0
0
0
0
0
0
0
0
0
0
0
0
0
0
0
0
0
0
0
0
0
0
0
0
0
0
0
0
0
0
0
0
0
0
0
0
0
0
0
0
1
0
0
0
0
0
0
0
0
0
0
0
0
3
0
2
1
1
0
0
0
0
0
0
0
1
2
4
0
1
2
2
1
4
1
1
2
0
0
0
1
0
0
0
0
0
0
1
0
0
0
0
0
0
0
0
0
0
0
0
0
0
0
0
0
0
0
0
0
0
0
0
0
0
0
0
0
0
0
0
0
0
0
0
0
0
0
0
0
0
0
0
0
0
0
0
0
0
0
0
0
0
0
0
0
0
0
0
0
0
0
0
1
0
0
0
1
0
0
0
0
0
0
0
0
0
0
0
1
1
0
1
0
2
0
1
1
3
0
1
0
1
0
0
0
0
0
0
0
0
1
1
0
1
0
0
0
0
0
0
1
0
0
1
1
0
2
1
0
0
0
0
0
0
0
0
0
0
0
0
0
0
0
0
0
0
0
0
0
0
0
0
0
0
0
0
0
0
0
0
0
0
0
0
0
0
0
0
0
0
0
0
0
0
0
0
0
0
0
0
0
0
0
0
0
0
0
0
0
0
0
0
0
0
0
0
0
0
0
0
1
0
0
1
2
0
0
0
1
2
1
1
0
1
0
0
0
1
0
0
0
3
2
1
1
0
0
0
0
0
1
1
0
0
0
0
0
0
0
2
5
1
2
3
0
0
1
0
0
0
0
0
0
0
0
0
0
0
0
0
0
0
0
0
0
0
0
0
0
0
0
0
0
0
0
0
0
0
0
0
0
0
0
0
0
0
0
0
0
0
0
0
0
0
0
0
0
0
0
0
0
0
0
0
0
0
0
0
0
0
0
0
1
1
0
0
3
0
0
0
0
0
0
0
1
0
0
0
1
0
0
0
0
3
1
3
5
4
2
1
0
2
1
0
0
0
0
2
0
1
1
2
0
0
1
1
0
0
0
0
1
0
0
0
0
0
2
1
0
0
1
0
0
0
3
0
1
4
2
0
0
0
0
0
0
0
0
0
0
0
0
0
0
0
0
0
0
0
0
0
0
0
0
0
0
0
0
0
0
0
0
0
0
0
0
0
0
0
0
0
0
0
0
0
0
0
0
0
0
0
0
0
0
0
0
0
2
0
0
0
0
0
0
0
1
0
0
0
2
1
0
0
1
2
0
0
0
0
0
0
0
2
0
0
0
1
2
2
0
2
2
2
0
2
1
2
2
1
0
0
0
0
0
0
0
0
4
1
0
0
3
0
0
0
0
0
0
0
0
0
0
0
0
0
0
0
0
0
0
0
0
0
0
0
0
0
0
0
0
0
0
0
0
0
0
0
0
0
0
0
0
0
0
0
0
0
0
0
0
0
0
0
0
0
0
0
0
0
0
0
0
0
0
0
0
0
2
0
0
0
2
0
0
0
1
0
0
0
2
1
0
0
1
3
1
1
0
1
1
0
1
3
2
0
0
4
3
1
0
0
0
1
0
0
0
0
0
1
1
0
1
0
2
0
0
0
1
0
0
0
1
0
0
0
0
0
0
0
0
0
0
0
0
0
0
0
0
0
0
0
0
0
0
0
0
0
0
0
0
0
0
0
0
0
0
0
0
0
0
0
0
0
0
0
0
0
0
0
0
0
0
0
0
0
0
0
0
0
0
0
0
0
0
0
0
0
1
1
0
0
2
0
0
0
5
3
1
0
2
0
0
0
0
2
0
0
0
0
0
0
1
2
0
0
0
2
1
0
0
0
0
2
1
2
0
1
0
3
2
3
2
0
3
0
0
0
3
0
0
0
1
0
0
1
0
0
0
0
0
0
0
0
0
0
0
0
0
0
0
0
0
0
0
0
0
0
0
0
0
0
0
0
0
0
0
0
0
0
0
0
0
0
0
0
0
0
0
0
0
0
0
0
0
0
0
0
0
0
0
0
0
0
1
1
0
0
0
0
0
0
0
0
0
0
1
0
0
0
0
0
0
0
0
3
1
2
2
1
1
0
0
0
0
0
0
2
1
0
0
1
0
0
0
1
0
0
0
2
0
0
0
0
2
0
1
0
6
3
1
0
3
0
0
2
0
0
0
0
0
0
0
0
0
0
0
0
0
0
0
0
0
0
0
0
0
0
0
0
0
0
0
0
0
0
0
0
0
0
0
0
0
0
0
0
0
0
0
0
0
0
0
0
0
0
0
0
0
0
0
0
0
0
0
0
0
0
0
0
0
0
0
0
0
0
2
3
0
0
1
0
0
0
0
1
0
0
0
0
0
0
1
1
0
0
0
4
5
5
3
6
1
0
0
0
0
0
2
3
1
1
0
0
1
0
0
0
2
0
0
0
2
0
0
0
0
0
0
0
0
0
0
0
0
0
0
0
0
0
0
0
0
0
0
0
0
0
0
0
0
0
0
0
0
0
0
0
0
0
0
0
0
0
0
0
0
0
0
0
0
0
0
0
0
0
0
0
0
0
0
0
0
0
0
0
1
0
1
4
1
0
2
3
1
0
0
1
0
0
0
0
0
0
0
1
1
1
0
0
0
0
0
1
0
0
1
2
0
0
0
2
0
0
0
1
0
0
0
0
0
0
0
1
2
0
0
0
0
0
0
0
1
0
0
0
0
0
0
0
0
0
0
0
0
0
0
0
0
0
0
0
0
0
0
0
0
0
0
0
0
0
0
0
0
0
0
0
0
0
0
0
0
0
0
0
0
0
0
0
0
0
0
0
0
0
0
0
0
0
0
0
0
0
0
0
1
0
1
2
0
0
1
2
1
0
0
3
1
0
3
1
1
1
0
1
0
0
1
0
0
1
4
2
2
0
0
0
0
0
0
0
1
0
1
4
1
0
3
1
0
0
0
1
3
0
1
0
0
0
0
0
0
0
0
0
0
0
0
0
0
0
0
0
0
0
0
0
0
0
0
0
0
0
0
0
0
0
0
0
0
0
0
0
0
0
0
0
0
0
0
0
0
0
0
0
0
0
0
0
0
0
0
0
0
0
0
0
0
0
0
0
0
0
1
0
0
0
0
0
0
0
0
0
1
0
0
0
0
0
0
0
0
0
0
2
1
0
1
0
0
0
0
0
1
0
0
3
1
1
0
3
0
0
0
0
0
0
2
2
0
0
0
0
1
2
3
3
3
0
1
1
0
0
0
0
0
0
0
0
0
0
0
0
0
0
0
0
0
0
0
0
0
0
0
0
0
0
0
0
0
0
0
0
0
0
0
0
0
0
0
0
0
0
0
0
0
0
0
0
0
0
0
0
0
0
0
0
0
0
0
0
0
0
0
0
0
0
0
0
0
0
0
0
0
0
0
2
0
0
0
0
0
0
1
4
2
0
1
0
0
0
0
0
1
1
0
1
1
2
0
4
4
1
0
0
1
0
1
4
1
0
0
2
0
0
0
0
0
0
0
0
0
0
0
0
0
0
0
0
0
0
0
0
0
0
0
0
0
0
0
0
0
0
0
0
0
0
0
0
0
0
0
0
0
0
0
0
0
0
0
0
0
0
0
0
0
0
0
0
0
0
0
0
0
0
0
0
0
0
0
0
0
0
0
0
0
0
2
0
2
0
1
1
0
0
0
2
0
0
2
1
0
0
0
0
0
0
0
1
1
0
2
0
1
2
1
1
0
1
0
0
0
2
0
1
6
2
0
3
2
0
0
0
0
0
0
0
0
0
2
1
0
0
0
0
0
0
0
0
0
0
0
0
0
0
0
0
0
0
0
0
0
0
0
0
0
0
0
0
0
0
0
0
0
0
0
0
0
0
0
0
0
0
0
0
0
0
0
0
0
0
0
0
0
0
0
0
0
0
0
0
0
0
3
0
1
0
2
0
0
0
0
0
0
0
1
3
0
0
4
1
0
0
0
0
0
0
0
2
3
0
0
0
0
0
1
0
0
0
0
0
0
1
0
0
4
1
1
3
2
2
1
0
0
0
0
0
0
0
0
0
0
0
0
0
0
0
0
0
0
0
0
0
0
0
0
0
0
0
0
0
0
0
0
0
0
0
0
0
0
0
0
0
0
0
0
0
0
0
0
0
0
0
0
0
0
0
0
0
0
0
0
0
0
0
0
0
0
0
0
0
0
0
0
0
0
0
0
0
0
0
1
1
1
0
2
1
0
0
3
0
1
1
2
1
2
0
0
0
0
0
0
0
0
0
3
0
0
2
0
1
0
1
0
0
2
0
0
0
0
0
0
0
0
0
2
2
2
0
1
1
0
0
0
0
0
0
0
0
0
0
0
0
0
0
0
0
0
0
0
0
0
0
0
0
0
0
0
0
0
0
0
0
0
0
0
0
0
0
0
0
0
0
0
0
0
0
0
0
0
0
0
0
0
0
0
0
0
0
0
0
0
0
0
0
0
0
1
0
0
0
0
0
0
0
0
0
0
0
1
0
0
2
4
1
4
2
2
2
5
0
2
2
2
0
4
