P2
# CREATOR: Diamond Light Source Beamline I02
118 118
255
0
1
2
0
0
0
2
1
0
1
0
0
0
0
0
0
0
0
0
0
0
0
1
1
2
3
3
0
0
0
0
0
0
0
0
0
0
0
0
0
0
0
0
0
0
0
0
0
0
0
0
0
0
0
0
0
0
0
0
0
0
0
0
0
0
0
0
0
0
0
0
0
0
0
0
0
0
0
0
0
0
0
0
1
1
0
0
1
0
0
0
0
0
0
0
0
1
0
0
0
1
0
0
1
1
1
1
2
0
3
1
0
0
2
0
0
2
3
0
1
1
0
0
0
1
0
0
0
1
0
0
0
0
0
0
0
2
2
0
0
3
1
0
2
1
0
0
0
0
0
0
0
0
0
0
0
0
0
0
0
0
0
0
0
0
0
0
0
0
0
0
0
0
0
0
0
0
0
0
0
0
0
0
0
0
0
0
0
0
0
0
0
0
0
0
0
0
0
0
0
0
0
0
0
0
0
0
0
0
0
0
0
0
0
4
0
0
0
2
0
0
1
2
2
2
2
0
0
1
0
0
3
1
0
0
3
0
2
3
0
0
1
2
0
0
0
1
0
0
0
0
0
0
0
0
1
0
0
0
0
0
0
0
0
0
0
0
0
0
0
0
0
0
0
0
0
0
0
0
0
0
0
0
0
0
0
0
0
0
0
0
0
0
0
0
0
0
0
0
0
0
0
0
0
0
0
0
0
0
0
0
0
0
0
0
0
0
0
0
1
1
0
1
1
0
0
0
0
0
0
0
0
2
0
0
1
2
0
0
2
2
1
0
0
0
0
0
0
0
2
1
1
1
5
0
1
0
0
0
0
0
0
0
0
1
2
1
0
0
1
0
0
1
2
0
0
4
2
2
1
0
0
0
0
0
0
0
0
0
0
0
0
0
0
0
0
0
0
0
0
0
0
0
0
0
0
0
0
0
0
0
0
0
0
0
0
0
0
0
0
0
0
0
0
0
0
0
0
0
0
0
0
0
0
0
0
0
0
0
0
0
0
0
0
0
0
0
0
0
0
2
0
0
0
2
0
0
1
1
0
1
0
0
0
2
0
0
1
0
1
1
4
0
3
1
0
0
1
1
1
2
0
1
2
2
0
1
1
1
0
3
3
0
0
1
0
0
0
0
0
0
0
0
0
0
0
0
0
0
0
0
0
0
0
0
0
0
0
0
0
0
0
0
0
0
0
0
0
0
0
0
0
0
0
0
0
0
0
0
0
0
0
0
0
0
0
0
0
0
0
0
0
0
0
0
0
0
0
0
0
0
0
0
0
0
0
0
0
1
0
0
0
0
0
0
0
0
0
3
1
0
0
2
0
0
0
0
0
0
2
0
2
0
1
1
1
0
1
2
0
0
1
1
0
0
0
0
0
0
0
0
0
0
0
0
0
0
0
0
0
0
0
0
0
0
0
0
0
0
0
0
0
0
0
0
0
0
0
0
0
0
0
0
0
0
0
0
0
0
0
0
0
0
0
0
0
0
0
0
0
0
0
0
0
0
0
0
0
0
0
0
0
0
0
0
0
0
0
0
0
0
0
0
0
0
0
3
1
0
2
3
0
1
3
2
0
3
0
0
0
2
1
0
2
3
2
0
3
2
4
1
1
0
1
0
1
2
0
1
0
1
0
0
0
0
0
0
0
0
0
0
0
0
0
0
0
0
0
0
0
0
0
0
0
0
0
0
0
0
0
0
0
0
0
0
0
0
0
0
0
0
0
0
0
0
0
0
0
0
0
0
0
0
0
0
0
0
0
0
0
0
0
0
0
0
0
0
0
0
0
0
0
0
0
0
0
0
0
0
0
0
0
0
0
0
0
0
0
0
0
1
2
1
0
2
0
0
0
2
0
0
0
1
1
0
4
0
1
0
0
0
1
0
2
3
3
1
0
3
3
1
0
3
1
0
0
1
1
1
0
1
0
0
0
0
0
0
0
0
0
0
0
0
0
0
0
0
0
0
0
0
0
0
0
0
0
0
0
0
0
0
0
0
0
0
0
0
0
0
0
0
0
0
0
0
0
0
0
0
0
0
0
0
0
0
0
0
0
0
0
0
0
0
0
0
0
0
0
0
0
0
0
0
0
0
0
0
0
0
0
1
0
4
1
0
0
4
0
0
1
3
0
0
2
0
0
0
0
0
3
0
0
2
0
0
0
0
0
0
0
4
3
1
0
1
2
1
0
1
1
0
0
0
0
0
0
0
0
0
0
0
0
0
0
0
0
0
0
0
0
0
0
0
0
0
0
0
0
0
0
0
0
0
0
0
0
0
0
0
0
0
0
0
0
0
0
0
0
0
0
0
0
0
0
0
0
0
0
0
0
0
0
0
0
0
0
0
0
0
0
1
0
0
2
0
0
0
1
2
1
4
3
2
0
3
1
0
0
0
0
0
1
1
2
0
3
3
4
0
0
0
0
0
0
4
4
0
0
2
0
0
0
0
0
0
0
0
0
0
0
0
0
0
0
0
0
0
0
0
0
0
0
0
0
0
0
0
0
0
0
0
0
0
0
0
0
0
0
0
0
0
0
0
0
0
0
0
0
0
0
0
0
0
0
0
0
0
0
0
0
0
0
0
0
0
0
0
0
0
0
0
0
1
0
1
1
0
0
0
0
0
1
1
0
0
1
0
0
0
0
0
0
3
4
2
2
4
3
2
4
1
3
0
0
0
2
0
0
1
2
0
0
4
3
0
0
0
0
0
0
0
0
0
0
0
0
0
0
0
0
1
1
0
0
0
0
0
0
0
0
0
0
0
0
0
0
0
0
0
0
0
0
0
0
0
0
0
0
0
0
0
0
0
0
0
0
0
0
0
0
0
0
0
0
0
0
0
0
0
0
0
0
0
0
0
0
2
0
0
0
0
0
0
0
0
0
0
0
0
0
0
0
0
0
0
0
0
0
0
0
1
0
0
0
0
0
0
0
0
1
0
0
0
2
0
0
2
1
0
0
4
2
0
0
3
1
2
3
2
4
2
0
0
0
0
0
0
0
0
0
0
0
0
0
0
0
0
0
0
0
0
0
0
0
0
0
0
0
0
0
0
0
0
0
0
0
0
0
0
0
0
0
0
0
0
0
0
0
0
0
0
0
0
0
0
0
0
0
0
0
0
0
0
0
0
0
0
0
0
0
0
0
0
0
1
1
0
2
1
0
0
4
0
0
0
1
0
0
0
0
2
0
0
0
1
0
0
4
0
0
1
3
0
1
3
1
0
0
0
0
0
0
0
0
0
1
0
1
3
0
1
3
0
2
0
0
0
0
0
0
0
0
0
0
0
0
0
0
0
0
0
0
0
0
0
0
0
0
0
0
0
0
0
0
0
0
0
0
0
0
0
0
0
0
0
0
0
0
0
0
0
0
0
0
0
0
0
0
0
0
0
0
0
0
0
0
0
0
0
0
1
0
0
0
0
2
2
0
1
3
0
0
1
3
5
1
3
1
2
0
0
1
2
0
1
5
0
2
1
4
0
1
3
3
0
0
2
1
0
0
1
0
0
0
0
0
0
0
0
0
0
0
0
0
0
0
0
0
0
0
0
0
0
0
0
0
0
0
0
0
0
0
0
0
0
0
0
0
0
0
0
0
0
0
0
0
0
0
0
0
0
0
0
0
0
0
0
0
0
0
0
0
0
0
0
0
0
0
0
0
0
0
0
0
2
0
0
0
1
0
0
0
0
0
0
0
0
1
0
0
0
0
2
0
0
0
3
0
3
3
3
0
0
2
0
0
0
4
0
0
2
2
0
0
0
0
0
0
0
0
0
0
0
0
0
0
0
0
0
0
0
0
0
0
0
0
0
0
0
0
0
0
0
0
0
0
0
0
0
0
0
0
0
0
0
0
0
0
0
0
0
0
0
0
0
0
0
0
0
0
0
0
0
0
0
0
0
0
0
0
0
0
0
0
0
0
0
0
0
0
0
0
2
0
0
0
0
0
0
0
0
0
0
0
0
0
0
0
0
0
2
0
0
0
0
0
0
0
0
0
0
0
0
0
0
3
0
0
0
0
0
0
0
0
0
0
3
0
3
4
1
0
0
1
0
0
0
0
0
0
0
0
0
0
0
0
0
0
0
0
0
0
0
0
0
0
0
0
0
0
0
0
0
0
0
0
0
0
0
0
0
0
0
0
0
0
0
0
0
0
0
0
0
0
0
0
0
0
0
0
0
0
0
0
0
0
0
0
0
0
2
0
0
0
0
0
2
0
2
4
1
0
1
2
1
2
0
0
2
0
0
0
1
0
0
0
0
0
2
1
0
0
0
2
2
1
1
2
0
0
0
0
0
0
1
0
1
2
1
0
1
2
1
1
0
1
0
0
0
0
0
0
0
0
0
0
0
0
0
0
0
0
0
0
0
0
0
0
0
0
0
0
0
0
0
0
0
0
0
0
0
0
0
0
0
0
0
0
0
0
0
0
0
0
0
0
0
0
0
0
0
0
0
0
0
0
0
0
1
0
0
0
0
0
0
0
0
0
0
0
0
0
0
0
1
0
6
3
4
4
6
3
4
0
0
0
3
0
0
0
0
1
1
0
0
0
0
2
3
0
1
1
1
0
0
0
0
0
0
1
0
0
0
0
0
0
0
0
0
0
0
0
0
0
0
0
0
0
0
0
0
0
0
0
0
0
0
0
0
0
0
0
0
0
0
0
0
0
0
0
0
0
0
0
0
0
0
0
0
0
0
0
0
0
0
0
0
0
0
0
0
0
0
0
0
0
2
0
0
0
0
0
1
0
1
0
0
0
0
0
0
1
0
0
1
0
0
0
3
1
2
0
0
0
4
0
1
0
1
0
0
0
1
0
0
0
0
0
0
0
0
0
2
0
0
0
0
0
0
0
0
0
0
0
0
0
0
0
0
0
0
0
0
0
0
0
0
0
0
0
0
0
0
0
0
0
0
0
0
0
0
0
0
0
0
0
0
0
0
0
0
0
0
0
0
0
0
0
0
0
0
0
0
0
0
0
0
0
0
0
0
0
0
0
1
0
1
0
0
0
0
0
0
0
0
0
0
0
0
2
3
0
1
2
0
0
2
1
1
0
0
0
4
0
3
1
2
0
1
0
0
0
0
0
0
1
1
1
3
0
3
0
0
0
1
0
0
0
0
0
1
0
0
0
0
0
0
0
0
0
0
0
0
0
0
0
0
0
0
0
0
0
0
0
0
0
0
0
0
0
0
0
0
0
0
0
0
0
0
0
0
0
0
0
0
0
0
0
0
0
0
0
0
0
0
0
0
0
0
0
0
0
0
0
0
0
0
0
1
3
2
2
1
1
0
1
0
1
3
0
0
0
0
0
0
0
0
0
0
0
3
0
0
1
2
1
1
1
2
2
1
3
1
1
0
0
0
0
0
0
0
1
4
0
1
0
0
0
0
0
0
0
0
0
0
0
0
0
0
0
0
0
0
0
0
0
0
0
0
0
0
0
0
0
0
0
0
0
0
0
0
0
0
0
0
0
0
0
0
0
0
0
0
0
0
0
0
0
0
0
0
0
0
0
0
0
0
0
0
0
0
0
0
0
0
0
0
0
0
0
0
0
0
1
1
1
4
1
3
2
2
0
2
1
2
0
0
0
1
0
0
2
2
0
0
0
0
0
0
1
0
0
0
0
0
0
1
0
0
0
3
0
0
0
0
0
0
0
0
0
0
0
0
0
0
0
0
0
0
0
0
0
0
0
0
0
0
0
0
0
0
0
0
0
0
0
0
0
0
0
0
0
0
0
0
0
0
0
0
0
0
0
0
0
0
0
0
0
0
0
0
0
0
0
0
0
0
0
0
0
0
0
0
0
0
1
0
0
0
1
0
2
1
0
2
0
2
0
3
1
2
0
1
0
0
0
2
1
3
2
1
0
0
1
0
0
0
0
0
0
0
0
0
0
0
0
0
0
0
0
0
0
0
0
0
0
0
0
0
0
0
0
0
0
0
0
0
0
0
0
0
0
0
0
0
0
0
0
0
0
0
0
0
0
0
0
0
0
0
0
0
0
0
0
0
0
0
0
0
0
0
0
0
0
0
0
0
0
0
0
0
0
0
0
0
1
1
0
0
3
1
0
0
0
0
0
0
0
0
1
2
0
2
0
1
0
1
0
2
0
0
0
0
0
2
0
0
0
0
0
0
2
0
0
0
0
0
1
1
0
1
0
0
0
0
0
2
0
1
2
3
1
3
0
2
2
0
0
0
0
0
0
0
0
0
0
0
0
0
0
0
0
0
0
0
0
0
0
0
0
0
0
0
0
0
0
0
0
0
0
0
0
0
0
0
0
0
0
0
0
0
0
0
0
0
0
0
0
0
0
0
0
0
0
0
0
0
0
0
0
0
0
0
0
0
1
0
0
1
0
0
1
2
0
0
0
0
0
0
0
0
0
0
0
0
0
0
0
1
4
1
1
2
3
0
1
0
0
0
0
0
1
0
0
2
0
0
0
0
0
0
0
0
0
0
0
0
0
0
0
0
0
0
0
0
0
0
0
0
0
0
0
0
0
0
0
0
0
0
0
0
0
0
0
0
0
0
0
0
0
0
0
0
0
0
0
0
0
0
1
0
0
0
0
0
0
0
0
0
0
0
0
0
0
0
0
0
0
0
0
0
0
2
1
1
3
4
0
0
0
0
0
0
2
1
0
3
3
1
0
2
1
1
3
2
0
2
2
0
0
1
1
0
0
0
0
0
0
0
0
0
0
0
0
0
0
0
0
0
0
0
0
0
0
0
0
0
0
0
0
0
0
0
0
0
0
0
0
0
0
0
0
0
0
0
0
0
0
0
0
0
0
0
0
0
0
0
0
0
0
0
0
0
0
0
0
0
1
0
0
0
0
0
0
0
0
0
0
0
0
0
0
0
0
1
0
1
1
3
1
2
0
0
2
3
0
0
2
2
0
2
6
3
1
2
3
0
0
1
1
2
3
2
0
0
0
0
0
1
1
0
0
1
1
0
0
0
0
0
0
0
0
0
0
0
0
0
0
0
0
0
0
1
0
0
0
0
0
0
0
0
0
0
0
0
0
0
0
0
0
0
0
0
0
0
0
0
0
0
0
0
0
0
0
0
0
0
0
0
0
0
0
0
0
0
0
0
0
0
0
0
0
0
0
0
0
0
1
2
0
0
2
3
1
0
0
0
0
0
0
0
0
1
0
0
1
0
0
0
2
0
0
0
0
0
0
0
0
0
1
1
0
1
1
0
0
0
0
0
0
2
2
0
2
1
3
0
0
2
1
0
0
0
0
0
0
1
1
0
0
0
0
0
0
0
0
0
0
0
0
0
0
0
0
0
0
0
0
0
0
0
0
0
0
0
0
0
0
0
0
0
0
0
0
0
0
0
0
0
0
0
0
0
0
0
0
0
0
0
0
0
0
0
0
0
0
0
0
0
0
1
0
0
0
0
0
0
1
0
3
2
0
0
2
1
0
0
1
0
0
0
1
1
0
0
0
0
2
3
2
3
1
1
1
2
3
1
1
3
2
0
0
1
1
0
0
1
0
0
0
0
0
0
0
0
0
0
0
0
0
0
0
0
0
0
0
0
0
0
0
0
0
0
0
0
0
0
0
0
0
0
0
0
0
0
0
0
0
0
0
0
0
0
0
0
0
0
0
0
0
0
0
0
0
0
0
0
0
0
0
0
0
0
0
0
0
0
0
0
0
0
0
0
0
0
1
0
1
0
0
0
0
0
0
0
0
1
1
1
1
0
0
1
1
1
0
0
0
0
0
0
0
0
0
0
0
0
1
0
0
0
0
0
0
0
0
0
0
0
0
0
0
0
0
0
0
1
0
0
0
0
0
0
0
0
0
0
0
0
0
0
0
0
0
0
0
0
0
0
0
0
0
0
0
0
0
0
0
0
0
0
0
0
0
0
0
0
0
0
0
0
0
0
0
0
0
0
0
0
0
0
0
0
0
0
2
2
0
1
0
0
0
0
2
1
0
0
3
1
2
1
0
1
0
2
2
1
1
2
0
0
1
0
0
0
0
0
0
0
0
0
0
0
0
1
3
0
3
2
1
0
1
2
1
0
1
1
0
0
0
0
0
0
0
0
0
0
0
0
0
0
0
0
0
0
0
0
0
0
0
0
0
0
0
0
0
0
0
0
0
0
0
0
0
0
0
0
0
0
0
0
0
0
0
0
0
0
0
0
0
0
0
0
0
0
0
0
0
0
3
2
0
1
2
0
0
0
0
0
0
0
0
0
0
0
1
0
0
0
0
1
0
0
0
0
0
1
0
1
2
1
2
2
2
0
0
0
1
0
0
0
0
0
0
0
2
1
0
0
1
0
0
0
0
0
0
0
0
0
0
0
0
0
0
0
0
0
0
0
0
0
0
0
0
0
0
0
0
0
0
0
0
0
0
0
0
0
0
0
0
0
0
0
0
0
0
0
0
0
0
0
0
0
0
0
0
0
0
0
0
0
0
0
0
0
0
0
2
1
0
0
1
0
0
0
0
0
0
0
1
2
1
0
2
2
0
0
0
2
0
0
0
1
0
1
1
0
0
0
0
2
2
0
0
2
3
0
1
3
1
0
0
0
0
0
0
0
0
0
0
0
0
2
0
0
0
1
0
0
0
0
0
0
0
0
0
0
0
0
0
0
0
0
0
0
0
0
0
0
0
0
0
0
0
0
0
0
0
0
0
0
0
0
0
0
0
0
0
0
0
0
0
0
0
0
0
0
0
0
0
0
0
0
0
0
1
0
0
0
1
0
0
1
2
1
1
0
0
2
0
0
0
1
0
0
0
2
0
0
1
1
0
1
1
2
3
2
0
0
1
0
0
0
2
0
0
0
0
0
0
0
0
0
0
0
0
0
0
0
0
1
0
0
0
0
0
0
0
0
0
0
0
0
0
0
0
0
0
0
0
0
0
0
0
0
0
0
0
0
0
0
0
0
0
0
0
0
0
0
0
0
0
0
0
0
0
0
0
0
0
0
0
0
0
0
0
0
0
0
0
0
0
0
1
0
0
0
1
0
0
0
1
0
0
0
1
2
0
0
1
2
0
0
2
3
1
1
0
3
0
1
3
0
0
0
0
0
2
3
3
2
3
0
0
0
0
0
0
0
0
1
0
2
0
1
0
1
0
0
0
0
0
0
0
0
0
0
0
0
0
0
0
0
0
0
0
0
0
0
0
0
0
0
1
0
0
0
0
0
0
0
0
0
0
0
0
0
0
0
0
0
0
0
0
0
0
0
0
0
0
0
0
0
0
0
0
0
0
0
0
0
2
1
0
0
2
0
0
0
3
2
0
0
1
1
0
0
3
5
1
1
3
4
0
0
0
3
0
0
2
1
1
4
0
0
2
2
3
2
4
1
1
0
0
0
0
0
0
1
0
2
0
0
0
0
0
0
0
0
0
1
0
0
0
0
0
0
0
0
0
0
0
0
0
0
0
0
0
0
0
0
0
0
0
0
0
0
0
0
0
0
0
0
0
0
0
0
0
0
0
0
0
0
0
0
0
0
0
0
0
0
0
0
0
0
0
0
0
0
0
0
0
0
2
2
0
0
2
1
0
0
0
0
0
0
0
2
0
0
0
2
0
0
0
3
0
0
0
0
0
2
0
0
2
3
1
0
2
0
2
0
2
0
1
0
0
0
1
2
0
2
0
4
1
3
1
2
3
3
1
0
0
0
0
0
0
0
0
0
0
0
0
0
0
0
0
0
0
0
0
0
0
0
0
0
0
0
0
0
0
0
0
0
0
0
0
0
0
0
0
0
0
0
0
0
0
0
0
0
0
0
0
0
0
0
0
0
0
0
0
0
0
1
0
0
0
1
0
0
3
1
0
0
2
2
0
0
0
2
0
0
0
2
0
0
0
0
0
2
0
0
0
1
0
0
0
0
0
0
0
0
1
0
0
0
0
1
0
0
0
0
0
0
0
0
1
0
0
0
0
0
0
0
0
0
0
0
0
0
0
0
0
0
0
0
0
0
0
0
0
0
0
0
0
0
0
0
0
0
0
0
0
0
0
0
0
0
0
0
0
0
0
0
0
0
0
0
0
0
2
0
0
0
0
0
0
0
0
0
0
0
0
0
0
2
0
0
6
1
0
0
0
0
0
0
0
2
0
0
0
1
0
0
0
0
0
3
4
0
1
2
2
0
1
2
2
0
0
0
0
0
0
0
0
1
0
0
0
1
0
0
0
0
0
0
0
0
2
0
0
0
1
0
0
0
0
0
1
0
0
0
0
0
0
0
0
0
0
0
0
0
0
0
0
0
0
0
0
0
0
0
0
0
2
1
2
1
3
1
0
0
0
0
0
0
0
0
1
0
0
0
0
0
0
0
0
0
1
5
5
3
3
2
0
0
3
0
1
5
3
3
1
2
2
4
0
1
0
0
0
0
0
0
0
1
3
0
0
0
2
0
0
3
2
0
0
0
1
1
0
0
1
2
1
2
2
2
0
0
1
0
1
0
0
0
2
0
0
0
0
0
0
0
0
0
0
0
0
0
0
0
0
0
2
0
0
0
0
0
0
0
0
0
0
0
0
1
0
0
0
0
0
0
0
0
0
0
0
0
0
0
1
0
0
0
3
0
0
0
3
0
0
2
0
0
0
3
1
1
0
0
0
0
1
0
0
1
0
0
0
0
0
1
0
2
0
1
0
1
1
0
0
1
1
0
0
0
1
0
0
2
1
0
0
0
0
0
0
0
1
1
2
3
5
2
0
0
1
1
2
0
1
0
2
0
0
0
1
0
0
0
0
0
0
0
0
0
0
0
0
0
0
0
0
0
0
0
0
0
0
0
0
0
0
0
0
0
0
0
0
0
0
0
0
0
0
0
0
0
0
0
0
0
0
0
0
0
1
0
0
0
0
0
0
0
0
0
0
0
0
0
2
0
1
5
4
2
0
2
0
0
0
2
0
0
0
0
1
0
1
1
1
0
0
0
1
0
0
1
0
0
0
1
2
1
2
1
1
0
0
0
0
0
0
0
0
0
0
0
0
0
2
0
0
0
1
0
0
0
0
0
0
0
0
0
0
0
0
0
0
0
0
0
0
0
0
0
0
0
0
0
0
0
0
0
0
0
0
0
0
0
0
0
0
0
0
0
2
0
0
0
1
0
0
0
1
0
0
1
2
0
0
0
0
0
1
0
0
2
2
0
0
2
0
0
0
1
0
0
0
0
0
2
0
1
2
1
3
4
6
3
2
4
5
0
0
4
1
0
0
2
0
0
1
1
0
0
0
0
0
0
0
0
0
0
0
0
0
0
1
0
0
0
2
0
1
0
1
0
2
1
4
0
0
0
0
0
0
0
1
0
0
0
1
0
0
0
2
0
0
1
0
1
0
0
0
0
0
1
2
3
3
3
0
2
3
0
0
1
0
0
0
0
3
1
2
1
3
0
1
2
0
1
2
0
0
2
2
0
1
4
4
0
1
3
0
0
0
2
1
3
1
1
1
0
0
0
0
0
0
0
0
0
0
1
0
0
0
2
1
0
0
1
0
0
0
2
3
1
0
1
3
1
1
2
2
0
0
0
0
0
1
0
2
0
2
0
0
0
4
0
0
4
5
2
0
1
2
0
1
2
6
5
3
2
5
2
0
3
3
4
2
2
1
3
1
1
1
1
0
0
0
1
3
2
0
3
1
0
1
1
3
2
3
1
2
0
0
0
0
1
2
0
0
1
0
0
0
0
0
0
0
3
0
0
1
1
0
1
0
0
0
0
1
1
0
0
0
0
0
0
0
1
0
0
0
2
3
0
0
3
2
2
1
4
5
3
0
1
1
0
0
2
3
2
3
0
4
2
4
0
3
0
4
0
0
1
5
1
1
4
5
1
0
2
4
0
0
1
2
1
0
0
3
1
0
1
2
3
2
1
0
1
0
0
2
2
1
2
0
0
0
0
0
0
0
0
1
0
0
0
1
0
3
2
2
0
0
2
2
0
1
1
0
0
2
1
1
0
0
2
0
1
1
0
0
0
0
0
0
0
2
0
1
0
2
1
0
0
0
1
0
0
0
1
1
0
0
2
0
0
0
1
1
2
0
0
2
0
0
1
2
1
2
0
1
2
1
0
2
0
2
0
0
0
4
0
0
2
4
0
0
2
6
1
0
4
5
2
2
3
3
2
1
2
3
4
4
2
3
4
3
1
4
3
1
2
1
0
2
3
0
2
0
0
1
0
2
2
3
0
2
1
1
0
0
0
0
0
3
3
3
1
2
0
1
0
0
3
0
0
0
0
0
0
1
0
1
0
5
2
3
1
2
2
1
0
0
2
1
0
0
0
0
0
0
0
0
0
0
1
2
1
0
0
4
2
1
3
3
2
2
0
1
3
2
0
6
6
7
6
6
8
12
7
6
8
11
7
4
9
12
6
6
11
11
8
9
9
8
6
5
4
6
6
8
7
9
9
8
5
8
6
5
5
6
4
6
7
5
5
5
5
4
3
4
3
5
1
1
1
2
0
0
1
1
0
2
1
1
0
1
0
2
0
0
1
0
0
0
0
0
1
3
4
5
0
3
1
0
0
0
0
0
0
0
1
1
0
0
0
0
0
0
2
2
1
0
2
4
5
1
4
7
6
3
5
5
6
6
3
6
9
7
4
8
8
8
7
6
8
12
10
9
12
15
11
8
12
14
9
10
15
15
13
13
14
13
11
12
13
12
12
13
11
12
12
9
8
10
7
5
6
5
3
4
6
4
4
4
5
4
2
3
2
4
3
2
1
4
1
2
4
3
0
1
0
0
0
0
0
0
0
0
0
0
0
0
0
0
0
0
0
2
0
0
0
0
0
0
0
1
0
0
1
2
0
1
2
1
0
0
4
4
5
3
5
6
6
3
5
6
4
2
3
4
6
7
5
7
9
9
6
10
11
11
10
10
11
14
12
10
14
16
13
13
17
17
13
14
16
16
13
13
16
15
13
16
17
15
14
15
13
12
11
10
10
13
11
8
10
10
7
8
11
7
6
4
4
4
2
4
2
4
3
1
0
3
1
1
2
3
2
3
1
4
4
2
0
3
2
0
0
1
0
0
0
1
1
1
0
2
0
0
0
1
0
0
0
0
0
0
0
0
0
0
0
0
0
0
1
2
1
0
0
2
4
3
5
7
6
5
7
6
9
10
7
10
13
12
9
12
12
13
14
15
16
19
17
16
21
22
20
21
24
24
23
25
25
25
24
23
25
25
22
23
24
21
20
22
23
19
20
18
19
19
17
14
14
13
10
9
13
9
8
5
8
6
5
5
5
7
5
4
1
3
0
0
0
1
1
1
0
2
2
0
0
1
2
0
0
1
0
0
0
1
2
2
0
3
0
1
4
4
1
1
0
0
0
0
0
1
0
0
0
1
1
1
1
1
1
0
0
2
5
6
7
9
10
10
11
10
14
13
12
13
15
16
15
18
19
23
24
25
27
28
27
26
30
30
30
32
35
33
33
35
35
36
34
32
34
34
31
30
33
29
27
28
31
26
27
25
28
26
23
21
22
19
18
16
20
17
15
12
15
11
9
9
9
9
7
4
2
5
4
2
3
5
3
1
0
2
2
0
0
1
1
0
0
0
0
0
0
0
0
0
0
1
0
0
0
0
0
0
0
0
0
0
0
2
0
0
1
3
2
3
3
4
5
3
2
6
8
6
6
9
12
13
14
15
19
20
20
25
26
28
28
31
31
36
38
40
42
43
46
46
47
48
49
50
54
52
53
55
55
55
55
53
56
56
53
51
56
50
47
45
48
42
41
39
41
38
34
32
33
29
27
25
27
22
19
17
20
16
13
12
12
12
8
6
7
7
6
4
5
8
6
3
2
4
4
1
0
3
3
0
0
1
0
0
0
0
0
0
0
0
0
0
0
0
0
0
0
0
0
0
0
2
0
0
0
5
4
5
4
6
8
8
9
12
13
13
12
14
19
21
20
21
26
27
26
32
33
36
37
42
41
47
49
52
53
54
59
60
63
65
70
71
75
71
70
72
73
73
74
72
75
76
70
68
75
68
65
64
67
59
59
57
59
54
49
47
47
44
40
37
38
32
27
25
29
25
19
17
19
17
11
11
12
10
6
4
4
4
4
3
2
4
4
1
1
3
4
0
0
2
1
0
0
0
0
0
0
0
0
0
0
0
0
0
0
0
0
0
0
2
0
0
0
3
1
4
2
4
7
9
7
10
15
15
14
20
25
28
27
30
36
39
39
46
47
48
51
56
55
60
64
68
70
71
77
81
82
84
91
93
96
94
95
94
98
97
96
94
99
97
89
88
95
86
82
84
86
77
74
71
72
65
60
59
58
52
48
45
46
40
34
33
35
32
25
23
25
22
17
17
19
16
12
11
11
8
7
5
1
1
0
0
0
0
0
0
0
0
0
0
0
0
0
0
0
0
0
0
0
0
0
0
0
0
0
0
0
1
0
0
1
4
3
4
2
3
7
8
7
11
18
20
20
26
30
34
32
37
44
47
47
57
58
60
66
74
73
78
85
91
94
95
102
106
107
107
114
119
122
120
123
124
129
129
125
124
130
127
117
118
124
113
107
108
110
103
99
97
98
90
82
79
77
70
65
63
63
56
49
47
45
42
33
31
32
28
22
19
21
16
13
11
13
9
7
4
3
3
3
1
2
2
0
0
0
0
0
0
0
0
0
0
0
0
0
0
0
0
0
0
0
0
0
0
0
0
0
0
3
7
6
8
7
9
11
13
13
15
21
23
24
31
36
43
43
48
57
61
60
72
75
76
83
92
94
98
108
119
120
122
130
137
137
139
147
152
156
154
158
159
164
161
159
158
165
165
153
154
158
146
136
139
140
129
123
121
120
111
102
100
96
88
81
77
76
70
61
58
57
53
42
39
39
35
28
28
28
22
17
16
16
11
10
8
6
6
7
5
4
2
1
0
0
0
0
0
0
0
0
0
0
0
0
0
0
0
0
0
0
0
0
0
0
0
1
1
2
3
5
7
10
13
16
19
20
23
31
34
35
42
47
52
54
61
70
71
73
84
88
88
98
107
110
115
125
134
137
140
147
156
160
163
172
180
184
183
185
185
192
188
185
187
194
191
178
182
186
172
163
168
166
154
147
145
142
133
124
120
114
104
96
92
91
84
73
68
66
60
49
46
45
40
33
33
31
24
19
17
16
11
11
8
7
4
4
1
1
0
0
0
0
0
0
0
0
0
0
0
0
0
0
0
0
0
0
0
0
0
0
0
0
0
1
0
3
2
3
5
10
12
15
18
20
23
32
36
37
46
51
55
59
68
78
80
85
98
103
102
115
126
130
134
145
153
157
162
169
180
185
187
195
204
209
208
211
212
219
215
213
214
220
215
202
203
205
191
181
186
185
173
165
164
159
149
139
135
127
118
108
106
102
95
84
79
76
70
60
55
54
47
38
37
34
27
25
23
22
17
16
10
8
5
3
0
0
0
0
0
0
0
0
0
0
0
0
0
0
0
0
0
0
0
0
0
0
0
0
0
0
0
0
0
3
3
5
6
12
13
14
17
21
23
30
37
39
48
54
59
61
70
81
84
89
103
110
109
123
135
141
148
160
169
174
180
187
196
203
206
213
222
230
228
230
235
242
237
236
236
243
239
226
227
229
212
201
207
204
192
183
180
175
166
154
151
143
132
119
116
110
101
90
86
83
75
66
60
57
50
41
39
35
28
25
20
17
13
14
8
10
8
7
2
2
2
2
1
0
0
0
0
0
0
0
0
0
0
0
0
0
0
0
0
0
0
0
0
0
0
3
2
8
6
6
8
14
15
16
20
24
27
33
39
42
53
61
65
69
80
89
91
98
111
116
115
128
140
147
154
167
176
183
189
198
207
214
218
226
234
241
241
241
246
254
249
248
248
255
250
238
237
240
223
212
218
214
202
194
192
184
174
160
158
148
137
128
126
118
108
98
90
88
79
70
64
62
54
45
42
38
32
27
22
21
19
18
13
14
10
8
4
3
2
2
0
0
0
0
0
0
0
0
0
0
0
0
0
0
0
0
0
0
0
0
0
0
0
0
0
6
4
5
10
14
15
17
22
24
27
32
38
40
51
58
60
65
75
83
85
93
106
110
110
124
136
140
146
158
163
172
178
185
194
204
208
215
224
233
232
230
233
242
235
233
234
243
237
228
226
230
215
205
209
203
193
185
183
175
166
153
150
139
131
121
118
110
100
92
86
83
73
64
58
56
48
41
37
35
28
23
19
19
17
16
9
9
8
5
1
2
2
0
0
0
0
0
0
0
0
0
0
0
0
0
0
0
0
0
0
0
0
0
0
0
0
0
0
4
4
4
10
12
12
14
20
23
26
29
34
36
46
51
54
57
67
74
78
85
99
103
105
115
125
129
133
144
151
160
163
172
178
188
190
196
203
211
212
208
211
219
215
213
211
221
216
206
201
206
191
183
187
183
177
170
168
159
151
141
136
126
119
111
108
101
92
86
81
77
68
61
55
53
45
40
36
33
29
25
20
19
18
14
7
7
7
4
1
0
1
0
0
0
0
0
0
0
0
0
0
0
0
0
0
0
0
0
0
0
0
0
0
0
0
0
0
0
1
3
8
8
10
10
15
17
19
24
29
33
42
46
50
54
63
68
73
80
92
94
97
107
116
123
127
137
143
151
152
160
166
174
176
180
187
195
196
194
196
204
201
200
195
206
203
193
188
193
181
172
174
170
165
158
155
147
140
133
128
117
110
104
99
93
84
79
73
69
61
55
51
48
42
36
33
31
26
20
17
16
15
12
7
9
10
5
4
3
4
1
0
0
2
0
0
0
0
0
0
0
0
0
0
0
0
0
0
0
0
0
0
2
0
1
4
2
2
4
9
8
11
10
15
15
18
22
26
30
37
40
44
49
56
58
63
67
75
75
78
87
96
101
104
114
118
126
128
134
141
148
149
152
159
166
167
165
166
174
170
169
165
173
171
164
158
162
153
145
144
143
139
133
131
123
117
111
107
97
92
89
85
81
74
68
63
58
51
46
43
42
38
31
27
26
22
15
14
15
15
11
6
9
8
3
1
0
1
0
0
0
1
0
0
0
0
0
0
0
0
0
0
0
0
0
0
0
0
0
0
0
0
0
1
0
1
2
6
6
9
8
14
15
15
18
21
22
29
31
36
38
42
44
49
51
61
62
63
70
78
81
83
89
91
98
99
104
111
117
119
122
125
132
132
130
129
138
134
132
128
136
135
128
124
128
122
115
116
116
112
106
104
96
92
89
84
77
74
68
65
62
57
51
49
46
38
33
32
31
28
22
22
19
17
10
12
11
11
8
5
9
9
4
2
0
1
0
0
0
1
0
0
0
1
0
0
0
0
0
0
0
0
0
0
0
0
0
0
0
0
0
3
1
4
4
7
7
10
9
14
15
15
18
19
21
27
27
32
34
38
40
46
48
57
58
61
65
72
75
77
83
86
92
95
99
104
108
109
113
114
121
121
120
120
128
125
125
122
128
128
119
116
119
111
106
107
108
104
100
97
92
86
82
77
73
70
65
62
60
53
48
47
45
40
34
33
31
27
20
24
20
18
14
14
10
12
7
4
8
6
1
0
0
0
0
0
0
2
0
0
0
0
0
0
0
0
0
0
0
0
0
0
0
0
0
0
0
0
0
0
0
1
0
1
2
5
4
8
11
12
14
17
21
24
24
28
29
32
34
41
42
48
50
53
58
65
67
70
74
78
82
86
87
92
94
97
101
102
108
107
107
107
113
110
110
111
113
112
105
105
107
100
95
96
95
89
87
85
81
77
72
67
64
61
56
54
51
47
42
40
39
35
28
27
25
23
17
21
18
15
10
13
9
11
7
5
7
6
2
0
0
1
0
0
0
3
0
0
0
0
0
0
0
0
0
0
0
0
0
0
0
0
0
0
0
0
0
0
2
4
1
2
4
7
4
7
11
9
10
14
16
17
18
22
23
27
28
32
31
36
38
40
43
48
47
51
55
58
62
68
68
71
72
74
77
78
83
83
83
83
86
82
82
84
85
85
79
82
84
77
72
76
74
67
65
64
61
57
52
49
48
45
41
40
38
35
32
30
31
29
25
25
23
21
16
19
15
14
10
9
5
8
4
4
4
4
3
1
3
3
2
0
0
0
0
0
0
0
0
0
0
0
0
0
0
0
0
0
1
0
3
0
2
1
0
0
2
3
1
1
3
5
2
5
9
8
9
12
15
15
16
18
19
23
25
29
29
32
33
35
37
41
42
45
47
50
52
56
58
61
61
64
69
67
69
69
71
71
76
73
74
77
76
73
68
72
72
65
63
66
63
57
56
56
53
50
45
46
44
41
38
37
33
31
30
26
25
23
18
17
17
15
11
14
11
9
7
7
3
6
3
4
5
6
3
2
2
2
1
0
0
0
0
0
0
0
0
0
0
0
0
0
0
0
0
0
0
0
0
0
0
0
1
1
3
3
3
5
6
8
6
6
9
9
10
10
15
15
14
16
18
19
21
24
26
29
29
32
34
36
38
42
44
49
48
52
55
57
55
59
62
61
64
64
65
66
67
64
66
69
69
68
64
69
68
59
58
62
60
54
54
52
51
45
42
42
41
36
33
33
30
28
26
24
22
21
19
19
19
16
10
12
11
9
7
8
3
3
2
2
2
4
0
0
0
0
0
0
0
0
0
0
0
0
0
0
0
0
3
0
0
0
0
0
0
0
0
0
0
0
1
0
0
0
0
0
0
4
2
3
7
7
8
9
11
11
13
12
13
15
19
18
22
25
26
28
29
32
32
37
38
42
40
44
45
49
47
50
53
53
54
52
55
56
57
54
55
56
56
52
50
54
53
44
46
50
48
42
41
42
39
35
34
37
35
29
27
28
26
23
22
20
18
15
14
14
13
12
8
9
9
8
6
8
5
6
4
4
1
3
0
0
0
0
0
0
3
2
2
0
0
0
0
0
0
0
0
0
0
0
0
0
0
0
0
0
3
0
3
1
2
1
3
1
3
6
4
2
4
6
8
5
7
9
11
10
12
14
17
15
18
21
20
21
22
24
23
26
27
30
27
29
30
34
32
34
37
39
38
37
40
44
43
41
43
43
40
39
38
40
41
35
36
39
38
32
31
32
29
24
23
27
26
22
22
22
21
18
17
15
15
14
14
13
12
13
9
10
9
7
5
5
3
3
2
1
1
3
0
1
0
0
0
0
0
0
0
0
0
0
0
0
0
0
0
0
0
0
0
0
3
0
3
0
5
0
1
0
0
0
2
0
0
4
3
1
2
6
6
3
6
8
10
9
10
12
14
10
13
15
14
13
14
17
15
16
17
22
19
21
24
28
26
26
29
31
31
29
30
34
31
31
31
31
29
29
27
30
31
25
26
28
27
23
23
23
23
19
19
22
22
18
17
17
16
12
11
9
9
6
7
5
5
6
4
4
4
3
1
3
2
1
2
2
1
1
1
2
0
0
1
1
2
1
0
0
0
0
0
2
0
0
0
0
0
1
1
0
1
0
0
0
3
0
0
0
0
0
3
1
1
5
4
1
2
4
3
1
4
5
6
6
6
7
9
6
9
13
12
12
13
16
15
16
16
21
20
19
20
25
24
22
25
27
26
23
24
26
23
24
25
27
25
27
24
25
26
23
24
25
26
21
20
22
22
18
17
18
17
13
12
11
13
9
9
8
9
7
8
6
6
8
7
7
5
4
2
3
1
1
2
2
0
0
1
3
0
0
0
0
0
0
0
1
1
0
0
1
0
0
0
0
0
0
0
0
0
0
2
0
4
0
0
0
0
0
1
0
0
3
2
1
3
4
4
3
4
5
6
4
4
6
6
5
6
11
10
11
12
15
13
14
13
17
17
14
16
20
20
18
22
23
22
18
21
23
21
22
24
24
21
20
19
18
19
19
19
18
20
16
15
17
17
14
13
15
15
14
13
12
12
9
9
7
8
6
6
4
4
6
5
4
3
5
5
5
4
3
1
0
0
0
0
0
0
0
0
0
1
2
1
3
2
0
0
0
0
0
0
0
0
1
0
0
1
0
0
0
5
0
0
1
0
0
0
0
0
1
0
0
1
2
1
1
4
5
5
5
5
7
7
8
5
8
5
6
4
8
8
7
5
9
8
6
9
9
8
7
9
8
10
9
11
13
10
11
11
12
9
10
8
10
12
12
10
10
12
9
8
8
8
6
5
7
9
9
8
7
9
5
7
5
5
3
4
3
3
5
4
2
0
1
3
1
1
0
1
0
0
0
0
0
0
0
0
0
0
0
0
0
0
0
0
0
0
0
0
0
2
3
0
1
3
2
2
1
5
1
1
2
1
1
0
0
0
2
0
0
0
0
0
0
2
2
3
3
2
4
3
5
2
5
2
2
0
3
3
3
3
6
6
4
8
7
6
6
9
6
8
7
8
6
8
7
4
6
6
5
5
7
8
7
5
4
7
5
4
5
7
6
5
7
7
5
3
2
4
1
3
1
3
0
2
2
1
1
0
0
0
0
0
0
0
0
3
2
2
2
3
1
0
2
1
1
0
2
0
3
2
0
0
1
0
0
0
0
0
2
0
1
1
2
0
0
3
0
1
2
4
3
0
2
1
3
0
2
1
1
1
0
1
0
1
0
0
1
0
2
0
3
1
4
0
2
2
3
2
5
5
4
7
5
5
4
9
7
8
6
8
5
6
6
6
7
7
6
7
6
6
6
4
4
9
7
5
7
8
4
2
4
3
2
2
3
5
3
4
4
3
0
1
1
0
2
2
1
0
2
2
0
1
2
2
0
1
2
1
0
0
1
0
0
0
0
0
1
0
0
0
0
0
0
0
0
0
0
0
0
0
0
0
0
1
0
0
0
1
0
0
2
2
4
0
3
2
3
1
1
1
0
1
0
0
0
0
3
0
3
3
7
3
5
3
5
3
4
3
5
8
5
4
6
8
5
6
5
7
5
6
6
6
7
8
7
8
6
7
6
5
6
9
6
5
7
8
7
5
7
6
3
2
2
5
3
4
3
5
0
0
0
0
1
3
1
1
3
2
0
1
0
0
0
0
0
0
0
0
2
0
0
0
0
0
1
0
0
1
0
0
0
0
2
2
2
2
2
0
0
0
0
2
3
0
0
2
0
0
1
0
1
0
0
0
2
1
1
1
2
2
1
2
3
2
4
1
3
3
6
3
4
1
2
1
1
0
2
3
2
0
1
3
1
1
3
5
3
4
2
2
3
3
1
3
1
0
0
0
0
1
0
0
0
1
1
0
0
1
0
0
0
3
0
2
1
3
0
1
1
1
1
1
0
0
0
1
0
2
2
2
0
0
0
0
0
0
1
0
0
0
0
0
0
0
0
0
0
0
1
0
1
0
0
0
3
0
1
2
3
4
5
1
0
2
1
0
1
1
3
0
0
0
1
0
0
0
0
2
2
2
2
1
2
0
0
0
1
0
0
0
0
1
0
0
1
0
1
0
1
3
3
0
1
3
0
0
0
0
0
0
0
2
0
0
0
1
0
0
0
1
1
2
0
0
1
1
0
0
1
0
0
0
1
2
1
1
1
2
3
2
0
0
0
0
0
1
1
2
0
1
3
3
0
2
4
1
0
1
2
0
0
2
1
0
0
0
0
0
1
0
0
0
3
0
1
2
1
0
1
0
0
1
0
0
1
0
1
0
2
0
0
0
0
0
0
0
0
0
0
0
0
0
0
0
0
0
0
0
0
0
0
0
2
2
2
0
0
1
0
0
0
1
0
0
0
1
0
0
0
2
0
0
0
1
1
1
0
2
0
0
0
0
0
0
0
0
1
0
0
0
0
0
0
0
0
0
1
2
0
1
2
3
0
2
2
2
0
2
3
2
1
2
3
1
0
0
0
0
0
0
0
0
0
0
0
0
0
0
0
0
0
0
0
0
0
0
0
0
0
0
0
2
2
1
2
0
2
0
1
0
1
0
0
0
2
1
0
0
0
0
0
2
5
4
1
0
1
1
0
0
0
0
0
0
0
1
0
0
0
2
2
0
0
4
1
0
2
4
1
1
0
2
2
0
0
4
1
1
2
4
1
3
0
0
0
0
0
0
2
2
0
0
0
0
0
0
0
0
0
1
0
0
0
0
0
0
0
0
0
0
1
0
0
1
1
2
0
1
0
0
0
2
0
0
1
1
2
1
2
0
1
0
0
0
1
0
1
0
1
2
0
0
0
0
1
0
0
0
3
1
0
1
4
3
1
1
3
2
0
1
2
1
0
0
0
1
0
0
1
1
1
0
0
0
0
0
0
2
2
0
0
1
0
0
0
0
0
0
0
0
0
0
0
0
0
0
0
0
0
0
0
0
0
0
0
0
0
1
2
2
2
1
0
0
0
0
0
2
0
2
1
1
0
0
2
0
0
0
0
0
0
0
0
0
0
0
0
0
1
2
1
0
0
1
3
0
2
0
2
1
2
0
1
0
0
0
0
3
3
2
0
1
1
0
0
0
1
0
0
0
0
0
0
0
1
1
0
0
0
0
0
0
0
0
0
0
0
0
0
0
0
0
0
0
0
0
0
0
0
0
0
0
0
0
0
0
0
0
0
0
0
0
0
0
0
2
1
1
0
0
3
0
1
0
2
1
2
1
2
2
1
2
0
1
0
0
0
0
1
1
0
3
3
2
2
1
3
3
2
2
2
1
0
0
0
0
0
0
0
0
0
1
3
0
0
0
2
1
3
1
4
2
2
0
0
0
2
0
0
0
1
0
0
0
0
0
0
0
0
0
0
0
0
0
0
0
0
0
0
0
0
0
0
0
0
0
0
0
0
0
0
0
0
0
0
0
0
0
0
0
0
0
0
0
0
0
0
0
0
0
0
0
0
0
0
0
0
0
0
0
0
0
0
0
0
0
0
0
0
0
0
0
0
0
0
0
0
0
0
2
2
0
0
0
2
1
0
0
1
0
0
0
0
0
0
1
3
0
0
3
3
0
0
0
0
0
0
0
1
1
1
0
0
0
2
2
0
0
2
0
0
0
1
2
0
0
0
0
0
0
0
1
0
0
0
0
0
0
0
0
0
0
0
0
0
0
0
0
0
0
0
0
0
0
0
0
0
0
0
0
0
0
0
0
0
0
0
0
0
1
0
0
2
1
0
0
2
0
0
0
1
0
0
0
0
0
0
0
0
0
0
0
0
0
0
0
0
0
0
0
0
0
2
1
0
1
2
0
0
0
2
0
3
3
4
0
0
3
2
0
1
1
0
0
0
0
1
0
0
0
0
0
1
2
0
0
0
0
0
0
1
2
0
0
0
0
0
0
0
1
0
0
0
1
0
0
0
0
0
0
0
0
0
2
0
0
0
0
0
0
0
0
0
0
0
0
0
0
0
0
0
0
0
0
0
0
0
0
0
0
0
0
0
0
0
0
0
0
1
0
0
0
0
0
0
0
0
0
0
1
0
2
1
0
0
2
0
0
0
0
0
0
0
2
5
2
0
1
2
0
2
2
4
3
3
6
4
1
1
2
0
0
0
0
0
0
0
0
0
0
0
2
1
0
1
1
0
0
0
3
2
1
0
0
0
0
0
0
0
0
0
0
0
0
0
0
0
0
0
0
0
0
0
0
0
0
0
0
0
0
0
0
0
0
0
0
0
0
0
0
0
0
0
0
0
0
0
0
0
0
0
0
0
0
0
0
3
1
0
2
2
1
0
0
0
0
0
0
0
0
1
1
0
5
2
0
0
1
1
1
0
0
4
1
0
1
1
0
1
1
3
0
0
2
1
1
1
3
2
0
0
2
2
1
2
1
1
0
0
0
1
0
0
0
0
0
0
0
0
0
0
0
0
0
0
0
0
0
0
0
0
0
0
0
0
0
0
0
0
0
0
0
0
0
0
0
0
0
0
0
0
0
0
0
0
0
0
0
0
0
0
0
0
0
0
0
0
0
0
0
0
0
0
0
0
0
0
0
0
0
0
0
0
0
0
0
0
0
0
0
0
3
1
0
0
0
0
0
0
0
1
0
0
1
1
0
1
0
2
0
0
0
0
1
0
1
1
0
0
1
0
0
0
0
2
0
0
0
3
0
1
0
0
0
0
0
0
0
0
0
0
0
0
0
0
0
0
0
0
0
0
0
0
0
0
0
0
0
0
0
0
0
0
0
0
0
0
0
0
0
0
0
0
0
0
0
0
0
1
0
0
0
1
0
0
0
0
0
0
0
0
0
0
0
0
0
0
0
0
0
0
0
0
0
0
3
0
0
0
0
0
0
0
0
0
0
0
3
0
0
0
1
0
0
1
0
1
1
0
0
0
0
0
0
0
0
0
1
0
0
0
0
3
0
0
0
3
0
0
0
1
0
0
0
0
0
0
0
0
0
0
0
0
0
0
0
0
0
0
0
0
0
0
0
0
0
0
0
0
0
0
0
0
0
0
0
0
0
0
0
0
0
0
0
0
0
0
0
0
0
0
0
0
0
0
0
0
0
0
0
0
0
0
0
0
0
0
0
0
2
0
0
0
4
1
0
1
0
0
0
0
0
0
0
0
2
1
0
2
4
1
2
2
1
1
3
2
2
2
2
0
0
0
0
0
0
0
0
0
0
3
0
0
0
2
0
0
1
1
0
0
0
0
1
0
0
0
0
0
0
0
0
0
0
0
0
0
0
0
0
0
0
0
0
0
0
0
0
0
0
0
0
0
0
0
0
0
0
0
0
0
0
0
0
0
0
0
0
0
0
0
0
0
0
0
0
0
0
0
0
0
0
0
1
0
1
0
0
0
0
0
3
1
3
5
5
2
2
1
2
1
0
0
2
0
0
1
2
0
0
0
0
0
2
1
0
1
3
0
2
1
2
0
2
3
2
0
0
3
0
1
0
3
0
0
0
1
0
0
0
0
0
0
0
0
0
0
0
0
0
0
0
0
0
0
0
0
0
0
0
0
0
0
0
0
0
0
0
0
0
0
0
0
0
0
0
0
0
0
0
0
0
0
0
0
0
0
0
0
0
0
0
0
0
0
0
0
0
0
0
0
0
0
0
0
0
0
0
0
2
0
0
4
3
1
1
1
3
0
0
0
2
0
0
2
3
1
0
0
0
0
2
0
0
0
0
0
0
0
1
1
2
4
2
0
0
2
0
0
1
0
0
0
0
0
0
0
0
0
0
0
0
0
0
0
0
0
0
0
0
0
0
0
0
0
0
0
0
0
0
0
0
0
0
0
0
0
0
0
0
0
0
0
0
0
0
0
0
0
0
0
0
0
0
0
0
0
0
0
0
0
0
0
0
0
0
0
0
0
0
0
1
0
2
1
0
0
2
0
0
0
0
0
0
0
2
0
0
1
2
0
0
1
1
1
0
0
0
0
1
1
0
0
0
0
0
0
0
0
0
0
0
0
0
0
0
1
2
0
0
0
0
0
0
0
0
0
0
0
0
0
0
0
0
0
0
0
0
0
0
0
0
0
0
0
0
0
0
0
0
0
0
0
0
0
0
0
0
0
0
0
0
0
0
0
0
0
0
0
0
0
0
0
0
0
0
0
0
0
0
0
0
0
0
0
0
0
0
0
0
0
0
0
0
2
3
0
3
3
0
0
0
0
1
0
0
0
1
0
0
3
2
3
0
4
3
3
0
1
0
2
5
1
0
0
0
0
0
1
1
1
1
1
0
0
0
0
0
0
0
0
2
0
2
0
0
0
0
0
0
0
0
0
0
0
0
0
0
0
0
0
0
0
0
0
0
0
0
0
0
0
0
0
0
0
0
0
0
0
0
0
0
0
0
0
0
0
0
0
0
0
0
0
0
0
0
0
0
0
0
0
0
0
0
1
3
0
1
0
0
0
0
0
1
0
0
2
1
0
0
0
1
0
0
2
1
0
0
3
0
1
0
1
0
2
2
3
0
3
6
1
1
2
2
2
1
0
1
2
1
0
0
0
0
0
0
1
0
0
0
0
1
0
0
0
0
0
0
0
0
0
0
0
0
0
0
0
0
0
0
0
0
0
0
0
0
0
0
0
0
0
0
0
0
0
0
0
0
0
0
0
0
0
0
0
0
0
0
0
0
0
0
0
0
0
0
0
0
0
0
0
0
0
0
0
0
0
0
0
0
0
0
0
0
0
0
0
0
0
0
0
0
0
0
0
0
1
0
0
0
2
0
1
0
0
0
0
0
0
0
0
2
2
2
1
2
3
2
0
0
0
0
0
0
1
0
0
0
0
0
0
0
0
0
0
0
0
0
0
0
0
0
0
0
0
0
0
0
0
0
0
0
0
0
0
0
0
0
0
0
0
0
0
0
0
0
0
0
0
0
0
0
0
0
0
0
0
0
0
0
0
0
0
0
0
0
0
0
0
0
0
0
0
2
1
0
0
0
0
1
0
0
0
0
0
0
0
0
0
1
3
1
0
0
0
0
0
0
1
0
0
0
0
0
0
0
0
0
0
0
0
0
0
1
0
0
0
0
1
1
0
1
4
0
0
0
1
0
0
0
0
0
0
0
0
0
0
0
0
0
0
0
0
0
0
0
0
0
0
0
0
0
0
0
0
0
0
0
0
0
0
0
0
0
0
0
0
0
0
0
0
0
0
0
0
0
0
0
0
0
0
0
0
0
0
0
0
0
0
0
0
0
0
0
0
0
0
1
0
0
1
2
0
0
0
0
0
0
2
0
0
0
1
0
1
1
3
0
0
3
0
1
1
1
0
0
0
1
0
0
0
1
0
0
0
0
1
0
0
0
1
0
0
2
2
0
1
0
1
0
0
0
0
0
0
0
0
0
0
0
0
0
0
0
0
0
0
0
0
0
0
0
0
0
0
0
0
0
0
0
0
0
0
0
0
0
0
0
0
0
0
0
0
0
0
0
0
0
0
0
0
0
0
0
0
0
0
0
0
0
1
0
0
1
0
0
0
0
0
0
0
0
0
0
0
0
1
0
1
0
1
0
1
0
1
0
0
2
0
3
2
0
0
2
1
2
2
3
1
3
1
1
1
0
2
0
0
0
1
0
0
0
1
0
0
0
0
0
0
0
0
0
0
0
0
0
0
0
0
0
0
0
0
0
0
0
0
0
0
0
0
0
0
0
0
0
0
0
0
0
0
0
0
0
0
0
0
0
0
0
0
0
0
0
0
0
0
0
0
0
1
0
0
1
0
0
0
0
0
0
0
1
0
0
0
0
0
2
0
1
1
1
0
0
0
0
0
0
0
0
0
0
0
0
0
1
0
3
0
0
0
2
0
1
1
2
0
1
0
0
0
0
0
0
0
0
0
0
1
0
0
0
0
0
0
0
0
0
0
0
0
0
0
0
0
0
0
0
0
0
0
0
0
0
0
0
0
0
0
0
0
0
0
0
0
0
0
0
0
0
0
0
0
0
0
0
0
0
0
0
0
0
0
0
0
0
0
0
0
0
0
0
1
0
0
0
0
0
0
0
0
0
0
0
0
0
0
0
1
4
0
0
3
2
2
1
1
0
0
2
1
0
1
0
0
2
0
0
0
1
0
0
0
0
0
0
0
0
1
0
2
1
2
2
1
0
2
2
0
0
0
0
0
0
0
0
0
0
0
0
0
0
0
0
0
0
0
0
0
0
0
0
0
0
0
0
0
0
0
0
0
0
0
0
0
0
0
0
0
0
0
0
0
0
0
0
0
0
0
0
0
0
0
0
0
0
0
0
0
0
0
0
0
0
0
0
0
1
0
0
0
1
0
1
0
0
0
2
0
0
0
0
0
0
0
0
0
0
0
0
0
0
0
4
1
0
1
5
0
0
1
1
0
0
0
3
4
0
0
0
0
0
0
0
3
2
0
1
0
0
0
0
0
0
0
0
0
0
0
0
0
0
0
0
0
0
0
0
0
0
0
0
0
0
0
0
0
0
0
0
0
0
0
0
0
0
0
0
0
0
0
0
0
0
0
0
0
0
0
0
0
0
0
0
0
0
0
0
0
0
0
0
0
0
0
3
0
1
0
0
0
0
0
0
0
2
1
0
2
0
0
0
0
0
0
2
0
2
2
0
0
5
3
1
1
3
0
0
1
2
1
0
0
1
2
0
0
0
1
0
0
0
1
0
0
0
0
0
0
0
0
0
0
0
0
0
0
0
0
0
0
0
0
0
0
0
0
0
0
0
0
0
0
0
0
0
0
0
0
0
0
0
0
0
0
0
0
0
0
0
0
0
0
0
0
0
0
0
0
0
0
0
0
0
0
0
2
0
0
3
0
0
0
2
0
0
0
0
0
2
2
0
0
2
0
0
1
0
0
0
0
0
0
0
0
0
2
1
1
3
2
1
2
2
0
0
0
0
0
0
0
0
1
0
0
1
0
0
0
0
1
0
0
1
0
0
0
0
0
0
0
0
0
0
0
0
0
0
0
0
0
0
0
0
0
0
0
0
0
0
0
0
0
0
0
0
0
0
0
0
0
0
0
0
0
0
0
0
0
0
0
0
0
0
0
0
0
0
0
0
0
0
0
0
0
0
0
0
0
0
0
0
0
0
0
0
0
2
2
0
0
3
1
0
3
3
0
0
2
0
0
0
0
0
0
0
0
0
0
0
0
1
0
0
3
3
2
0
0
0
3
0
0
3
1
0
1
2
0
0
0
0
0
0
0
0
0
0
0
0
0
0
0
0
0
0
0
0
0
0
0
0
0
0
0
0
0
0
0
0
0
0
0
0
0
0
0
0
0
0
0
0
0
0
0
0
0
0
0
0
0
0
0
0
0
0
0
0
0
0
0
0
0
0
0
0
0
0
0
0
0
0
0
0
0
0
0
0
0
0
0
0
0
0
0
0
0
0
0
0
0
0
0
0
0
0
1
0
1
0
1
0
0
0
1
0
0
0
1
0
0
1
0
0
0
0
0
0
0
3
2
1
0
2
0
0
0
0
0
0
0
0
0
0
0
0
0
0
0
0
0
0
0
0
0
0
0
0
0
0
0
0
0
0
0
0
0
0
0
0
0
0
0
0
0
0
0
0
0
0
0
0
0
0
0
0
0
0
0
0
0
0
0
0
0
0
0
0
1
2
0
0
0
0
0
0
0
2
2
1
2
3
2
0
0
0
2
0
3
2
1
4
5
4
5
3
3
0
3
0
0
0
0
0
0
0
0
0
0
0
0
0
0
0
0
0
0
0
0
0
0
1
0
0
0
0
0
0
0
0
0
0
0
0
0
0
0
0
0
0
0
0
0
0
0
0
0
0
0
0
0
0
0
0
0
0
0
0
0
0
0
0
0
0
0
0
0
0
0
0
0
0
0
0
0
0
0
0
0
0
0
0
0
1
0
0
0
1
0
1
0
1
0
1
0
1
0
0
0
0
0
0
1
0
1
0
3
0
0
0
0
0
3
1
2
1
5
0
0
0
0
0
0
1
2
2
2
2
0
1
0
0
0
0
0
0
0
0
0
0
0
0
0
0
0
0
0
0
0
0
0
0
0
0
0
0
0
0
0
0
0
0
0
0
0
0
0
0
0
0
0
0
0
0
0
0
0
0
0
0
0
0
0
0
0
0
0
0
0
0
0
0
0
0
0
0
0
0
0
0
0
1
0
0
0
1
0
1
0
1
0
3
0
4
0
0
0
0
0
0
0
0
0
0
0
0
0
0
0
0
1
0
0
0
4
1
2
1
3
1
0
0
1
1
1
0
0
0
1
0
0
0
0
0
0
0
0
1
0
0
0
0
0
0
0
0
0
0
0
0
0
0
0
0
0
0
0
0
0
0
0
0
0
0
0
0
0
0
0
0
0
0
0
0
0
0
0
0
0
0
0
0
0
0
0
0
0
0
0
0
0
0
0
0
0
0
0
0
0
0
0
0
0
1
0
1
0
0
0
0
0
1
0
0
0
1
3
1
2
2
3
0
2
1
0
4
0
0
3
1
0
0
3
0
0
0
0
0
0
0
0
1
2
0
0
0
0
0
0
0
0
0
0
0
0
3
0
0
0
0
0
0
0
0
0
0
0
0
0
0
0
0
0
0
0
0
0
0
0
0
0
0
0
0
0
0
0
0
0
0
0
0
0
0
0
0
0
0
0
0
0
0
0
0
0
0
0
0
0
0
0
0
0
0
0
0
0
0
0
0
0
0
0
1
0
0
0
1
0
3
0
1
0
0
1
0
1
0
1
0
2
1
1
6
2
3
6
4
0
0
3
2
1
0
3
0
0
0
0
0
1
0
0
0
0
0
0
0
0
0
0
0
0
0
0
0
0
1
0
0
0
0
0
0
0
0
0
0
0
0
0
0
0
0
0
0
0
0
0
0
0
0
0
0
0
0
0
0
0
0
0
0
0
0
0
0
0
0
0
0
0
0
0
0
0
0
0
0
0
0
0
0
0
0
0
0
0
1
0
1
1
2
0
0
0
0
0
0
0
0
0
0
0
0
0
0
0
0
1
0
1
0
0
0
2
0
0
0
1
0
1
0
3
2
1
0
2
1
3
2
1
0
0
0
0
0
0
1
0
0
0
0
0
0
0
0
0
0
0
0
0
0
0
0
0
0
0
0
0
0
0
0
0
0
0
0
0
0
0
0
0
0
0
0
0
0
0
0
0
0
0
0
0
0
0
0
0
0
0
0
0
0
0
0
0
0
0
0
2
1
0
2
1
0
0
0
0
0
0
0
0
0
0
3
0
1
0
0
0
0
0
0
0
0
0
0
0
0
1
2
0
0
1
0
0
0
2
2
3
0
2
2
0
0
2
0
0
0
0
0
0
0
0
0
0
1
0
0
0
0
0
0
0
0
0
0
0
0
0
0
0
0
0
0
0
0
0
0
0
0
0
0
0
0
0
0
0
0
0
0
0
0
0
0
0
0
0
0
0
0
0
0
0
0
0
0
0
0
0
0
0
0
0
0
0
0
0
0
0
0
0
0
0
0
0
0
0
0
0
0
0
1
0
0
0
0
0
0
2
2
3
1
0
0
2
1
2
5
1
0
1
2
0
0
3
1
1
0
0
0
0
0
1
0
1
0
2
2
0
1
1
0
0
2
0
0
0
0
0
0
0
0
0
0
0
0
0
0
0
0
0
0
0
0
0
0
0
0
0
0
0
0
0
0
0
0
0
0
0
0
0
0
0
0
0
0
0
0
0
0
0
0
0
0
0
0
0
0
0
0
0
0
0
0
0
0
1
0
0
0
0
0
0
0
0
1
0
0
0
2
0
3
1
2
1
0
0
0
0
0
0
0
0
0
0
3
0
0
0
1
0
0
1
0
1
0
0
0
1
0
1
0
1
2
4
3
1
2
1
0
0
0
0
0
0
0
0
0
0
0
0
0
0
0
0
0
0
0
0
0
0
0
0
0
0
0
0
0
0
0
0
0
0
0
0
0
0
0
0
0
0
0
0
0
0
0
0
0
0
0
0
0
0
0
0
0
0
0
0
0
0
0
0
0
1
0
0
0
1
0
0
2
3
2
0
0
0
0
0
0
0
0
0
0
0
0
0
0
0
0
0
0
0
